G04 #@! TF.FileFunction,Soldermask,Top*
%FSLAX46Y46*%
G04 Gerber Fmt 4.6, Leading zero omitted, Abs format (unit mm)*
G04 Created by KiCad (PCBNEW 0.201510170916+6271~30~ubuntu14.04.1-product) date Tue 27 Oct 2015 03:36:54 PM CET*
%MOMM*%
G01*
G04 APERTURE LIST*
%ADD10C,0.100000*%
%ADD11C,0.300000*%
%ADD12R,1.500000X1.250000*%
%ADD13C,2.500000*%
%ADD14R,1.300000X1.500000*%
%ADD15O,1.900000X1.500000*%
%ADD16R,0.600000X0.400000*%
%ADD17O,1.524000X2.032000*%
%ADD18R,0.750000X1.400000*%
%ADD19R,1.450000X0.300000*%
G04 APERTURE END LIST*
D10*
D11*
X121162001Y-78910571D02*
X120662001Y-78196286D01*
X120304858Y-78910571D02*
X120304858Y-77410571D01*
X120876286Y-77410571D01*
X121019144Y-77482000D01*
X121090572Y-77553429D01*
X121162001Y-77696286D01*
X121162001Y-77910571D01*
X121090572Y-78053429D01*
X121019144Y-78124857D01*
X120876286Y-78196286D01*
X120304858Y-78196286D01*
X122447715Y-77410571D02*
X122162001Y-77410571D01*
X122019144Y-77482000D01*
X121947715Y-77553429D01*
X121804858Y-77767714D01*
X121733429Y-78053429D01*
X121733429Y-78624857D01*
X121804858Y-78767714D01*
X121876286Y-78839143D01*
X122019144Y-78910571D01*
X122304858Y-78910571D01*
X122447715Y-78839143D01*
X122519144Y-78767714D01*
X122590572Y-78624857D01*
X122590572Y-78267714D01*
X122519144Y-78124857D01*
X122447715Y-78053429D01*
X122304858Y-77982000D01*
X122019144Y-77982000D01*
X121876286Y-78053429D01*
X121804858Y-78124857D01*
X121733429Y-78267714D01*
D12*
X127234000Y-104648000D03*
X124734000Y-104648000D03*
X133330000Y-104775000D03*
X130830000Y-104775000D03*
X130830000Y-97790000D03*
X133330000Y-97790000D03*
X156484000Y-85598000D03*
X158984000Y-85598000D03*
X156357000Y-93218000D03*
X158857000Y-93218000D03*
D13*
X173510000Y-102820000D03*
X173510000Y-96520000D03*
X173510000Y-90220000D03*
X189710000Y-102820000D03*
X189710000Y-96520000D03*
X189710000Y-90220000D03*
X179550000Y-67360000D03*
X179550000Y-73660000D03*
X179550000Y-79960000D03*
X163350000Y-67360000D03*
X163350000Y-73660000D03*
X163350000Y-79960000D03*
X201140000Y-67360000D03*
X201140000Y-73660000D03*
X201140000Y-79960000D03*
X184940000Y-67360000D03*
X184940000Y-73660000D03*
X184940000Y-79960000D03*
D14*
X139700000Y-74850000D03*
X139700000Y-77550000D03*
X137160000Y-74850000D03*
X137160000Y-77550000D03*
X133350000Y-74850000D03*
X133350000Y-77550000D03*
X130810000Y-74850000D03*
X130810000Y-77550000D03*
X127000000Y-74850000D03*
X127000000Y-77550000D03*
X124460000Y-74850000D03*
X124460000Y-77550000D03*
D15*
X110490000Y-86360000D03*
X110490000Y-81280000D03*
X118110000Y-86360000D03*
X118110000Y-81280000D03*
X121920000Y-104140000D03*
X121920000Y-109220000D03*
X114300000Y-104140000D03*
X114300000Y-109220000D03*
D16*
X130780000Y-100650000D03*
X130780000Y-101600000D03*
X130780000Y-102550000D03*
X133380000Y-102550000D03*
X133380000Y-100650000D03*
D17*
X130810000Y-109220000D03*
X128270000Y-109220000D03*
X125730000Y-109220000D03*
X133350000Y-109220000D03*
X135890000Y-109220000D03*
X138430000Y-109220000D03*
X151130000Y-109220000D03*
X148590000Y-109220000D03*
X153670000Y-109220000D03*
X156210000Y-109220000D03*
X146050000Y-109220000D03*
X143510000Y-109220000D03*
X148590000Y-60960000D03*
X146050000Y-60960000D03*
X151130000Y-60960000D03*
X153670000Y-60960000D03*
X156210000Y-60960000D03*
X143510000Y-60960000D03*
X140970000Y-60960000D03*
X138430000Y-60960000D03*
X126746000Y-60960000D03*
X124206000Y-60960000D03*
X121666000Y-60960000D03*
X119126000Y-60960000D03*
X116586000Y-60960000D03*
X129286000Y-60960000D03*
X131826000Y-60960000D03*
X134366000Y-60960000D03*
D18*
X137705000Y-85470000D03*
X137705000Y-82170000D03*
X139155000Y-82170000D03*
X139155000Y-85470000D03*
X131355000Y-85470000D03*
X131355000Y-82170000D03*
X132805000Y-82170000D03*
X132805000Y-85470000D03*
X125005000Y-85470000D03*
X125005000Y-82170000D03*
X126455000Y-82170000D03*
X126455000Y-85470000D03*
D19*
X156886000Y-83550000D03*
X156886000Y-83050000D03*
X156886000Y-82550000D03*
X156886000Y-82050000D03*
X156886000Y-81550000D03*
X152486000Y-81550000D03*
X152486000Y-82050000D03*
X152486000Y-82550000D03*
X152486000Y-83050000D03*
X152486000Y-83550000D03*
X156886000Y-91170000D03*
X156886000Y-90670000D03*
X156886000Y-90170000D03*
X156886000Y-89670000D03*
X156886000Y-89170000D03*
X152486000Y-89170000D03*
X152486000Y-89670000D03*
X152486000Y-90170000D03*
X152486000Y-90670000D03*
X152486000Y-91170000D03*
M02*
