G04 #@! TF.FileFunction,Legend,Bot*
%FSLAX46Y46*%
G04 Gerber Fmt 4.6, Leading zero omitted, Abs format (unit mm)*
G04 Created by KiCad (PCBNEW 0.201510170916+6271~30~ubuntu14.04.1-product) date Tue 27 Oct 2015 03:36:54 PM CET*
%MOMM*%
G01*
G04 APERTURE LIST*
%ADD10C,0.100000*%
%ADD11C,0.300000*%
%ADD12C,0.010000*%
%ADD13C,2.500000*%
%ADD14O,1.900000X1.500000*%
%ADD15O,1.524000X2.032000*%
G04 APERTURE END LIST*
D10*
D11*
X200658285Y-109898571D02*
X200658285Y-108398571D01*
X200301142Y-108398571D01*
X200086857Y-108470000D01*
X199943999Y-108612857D01*
X199872571Y-108755714D01*
X199801142Y-109041429D01*
X199801142Y-109255714D01*
X199872571Y-109541429D01*
X199943999Y-109684286D01*
X200086857Y-109827143D01*
X200301142Y-109898571D01*
X200658285Y-109898571D01*
X198515428Y-109898571D02*
X198515428Y-109112857D01*
X198586857Y-108970000D01*
X198729714Y-108898571D01*
X199015428Y-108898571D01*
X199158285Y-108970000D01*
X198515428Y-109827143D02*
X198658285Y-109898571D01*
X199015428Y-109898571D01*
X199158285Y-109827143D01*
X199229714Y-109684286D01*
X199229714Y-109541429D01*
X199158285Y-109398571D01*
X199015428Y-109327143D01*
X198658285Y-109327143D01*
X198515428Y-109255714D01*
X197943999Y-108898571D02*
X197586856Y-109898571D01*
X197229714Y-108898571D01*
X196658285Y-109898571D02*
X196658285Y-108898571D01*
X196658285Y-108398571D02*
X196729714Y-108470000D01*
X196658285Y-108541429D01*
X196586857Y-108470000D01*
X196658285Y-108398571D01*
X196658285Y-108541429D01*
X195301142Y-109898571D02*
X195301142Y-108398571D01*
X195301142Y-109827143D02*
X195443999Y-109898571D01*
X195729713Y-109898571D01*
X195872571Y-109827143D01*
X195943999Y-109755714D01*
X196015428Y-109612857D01*
X196015428Y-109184286D01*
X195943999Y-109041429D01*
X195872571Y-108970000D01*
X195729713Y-108898571D01*
X195443999Y-108898571D01*
X195301142Y-108970000D01*
X193443999Y-109112857D02*
X192943999Y-109112857D01*
X192729713Y-109898571D02*
X193443999Y-109898571D01*
X193443999Y-108398571D01*
X192729713Y-108398571D01*
X192158285Y-109827143D02*
X192015428Y-109898571D01*
X191729713Y-109898571D01*
X191586856Y-109827143D01*
X191515428Y-109684286D01*
X191515428Y-109612857D01*
X191586856Y-109470000D01*
X191729713Y-109398571D01*
X191943999Y-109398571D01*
X192086856Y-109327143D01*
X192158285Y-109184286D01*
X192158285Y-109112857D01*
X192086856Y-108970000D01*
X191943999Y-108898571D01*
X191729713Y-108898571D01*
X191586856Y-108970000D01*
X191086856Y-108898571D02*
X190515427Y-108898571D01*
X190872570Y-108398571D02*
X190872570Y-109684286D01*
X190801142Y-109827143D01*
X190658284Y-109898571D01*
X190515427Y-109898571D01*
X189443999Y-109827143D02*
X189586856Y-109898571D01*
X189872570Y-109898571D01*
X190015427Y-109827143D01*
X190086856Y-109684286D01*
X190086856Y-109112857D01*
X190015427Y-108970000D01*
X189872570Y-108898571D01*
X189586856Y-108898571D01*
X189443999Y-108970000D01*
X189372570Y-109112857D01*
X189372570Y-109255714D01*
X190086856Y-109398571D01*
X188872570Y-108898571D02*
X188515427Y-109898571D01*
X188158285Y-108898571D01*
X187015428Y-109827143D02*
X187158285Y-109898571D01*
X187443999Y-109898571D01*
X187586856Y-109827143D01*
X187658285Y-109684286D01*
X187658285Y-109112857D01*
X187586856Y-108970000D01*
X187443999Y-108898571D01*
X187158285Y-108898571D01*
X187015428Y-108970000D01*
X186943999Y-109112857D01*
X186943999Y-109255714D01*
X187658285Y-109398571D01*
X186443999Y-108898571D02*
X185658285Y-108898571D01*
X186443999Y-109898571D01*
X185658285Y-109898571D01*
X183443999Y-109112857D02*
X183943999Y-109112857D01*
X183943999Y-109898571D02*
X183943999Y-108398571D01*
X183229713Y-108398571D01*
X182086857Y-109827143D02*
X182229714Y-109898571D01*
X182515428Y-109898571D01*
X182658285Y-109827143D01*
X182729714Y-109684286D01*
X182729714Y-109112857D01*
X182658285Y-108970000D01*
X182515428Y-108898571D01*
X182229714Y-108898571D01*
X182086857Y-108970000D01*
X182015428Y-109112857D01*
X182015428Y-109255714D01*
X182729714Y-109398571D01*
X181372571Y-109898571D02*
X181372571Y-108898571D01*
X181372571Y-109184286D02*
X181301143Y-109041429D01*
X181229714Y-108970000D01*
X181086857Y-108898571D01*
X180944000Y-108898571D01*
X180444000Y-108898571D02*
X180444000Y-109898571D01*
X180444000Y-109041429D02*
X180372572Y-108970000D01*
X180229714Y-108898571D01*
X180015429Y-108898571D01*
X179872572Y-108970000D01*
X179801143Y-109112857D01*
X179801143Y-109898571D01*
X178444000Y-109898571D02*
X178444000Y-109112857D01*
X178515429Y-108970000D01*
X178658286Y-108898571D01*
X178944000Y-108898571D01*
X179086857Y-108970000D01*
X178444000Y-109827143D02*
X178586857Y-109898571D01*
X178944000Y-109898571D01*
X179086857Y-109827143D01*
X179158286Y-109684286D01*
X179158286Y-109541429D01*
X179086857Y-109398571D01*
X178944000Y-109327143D01*
X178586857Y-109327143D01*
X178444000Y-109255714D01*
X177729714Y-108898571D02*
X177729714Y-109898571D01*
X177729714Y-109041429D02*
X177658286Y-108970000D01*
X177515428Y-108898571D01*
X177301143Y-108898571D01*
X177158286Y-108970000D01*
X177086857Y-109112857D01*
X177086857Y-109898571D01*
X175729714Y-109898571D02*
X175729714Y-108398571D01*
X175729714Y-109827143D02*
X175872571Y-109898571D01*
X176158285Y-109898571D01*
X176301143Y-109827143D01*
X176372571Y-109755714D01*
X176444000Y-109612857D01*
X176444000Y-109184286D01*
X176372571Y-109041429D01*
X176301143Y-108970000D01*
X176158285Y-108898571D01*
X175872571Y-108898571D01*
X175729714Y-108970000D01*
X174444000Y-109827143D02*
X174586857Y-109898571D01*
X174872571Y-109898571D01*
X175015428Y-109827143D01*
X175086857Y-109684286D01*
X175086857Y-109112857D01*
X175015428Y-108970000D01*
X174872571Y-108898571D01*
X174586857Y-108898571D01*
X174444000Y-108970000D01*
X174372571Y-109112857D01*
X174372571Y-109255714D01*
X175086857Y-109398571D01*
X173872571Y-108898571D02*
X173086857Y-108898571D01*
X173872571Y-109898571D01*
X173086857Y-109898571D01*
X187462570Y-85006571D02*
X187462570Y-83506571D01*
X186891142Y-83506571D01*
X186748284Y-83578000D01*
X186676856Y-83649429D01*
X186605427Y-83792286D01*
X186605427Y-84006571D01*
X186676856Y-84149429D01*
X186748284Y-84220857D01*
X186891142Y-84292286D01*
X187462570Y-84292286D01*
X185962570Y-85006571D02*
X185962570Y-84006571D01*
X185962570Y-84292286D02*
X185891142Y-84149429D01*
X185819713Y-84078000D01*
X185676856Y-84006571D01*
X185533999Y-84006571D01*
X184819713Y-85006571D02*
X184962571Y-84935143D01*
X185033999Y-84863714D01*
X185105428Y-84720857D01*
X185105428Y-84292286D01*
X185033999Y-84149429D01*
X184962571Y-84078000D01*
X184819713Y-84006571D01*
X184605428Y-84006571D01*
X184462571Y-84078000D01*
X184391142Y-84149429D01*
X184319713Y-84292286D01*
X184319713Y-84720857D01*
X184391142Y-84863714D01*
X184462571Y-84935143D01*
X184605428Y-85006571D01*
X184819713Y-85006571D01*
X183891142Y-84006571D02*
X183319713Y-84006571D01*
X183676856Y-83506571D02*
X183676856Y-84792286D01*
X183605428Y-84935143D01*
X183462570Y-85006571D01*
X183319713Y-85006571D01*
X182605427Y-85006571D02*
X182748285Y-84935143D01*
X182819713Y-84863714D01*
X182891142Y-84720857D01*
X182891142Y-84292286D01*
X182819713Y-84149429D01*
X182748285Y-84078000D01*
X182605427Y-84006571D01*
X182391142Y-84006571D01*
X182248285Y-84078000D01*
X182176856Y-84149429D01*
X182105427Y-84292286D01*
X182105427Y-84720857D01*
X182176856Y-84863714D01*
X182248285Y-84935143D01*
X182391142Y-85006571D01*
X182605427Y-85006571D01*
X181676856Y-84006571D02*
X181105427Y-84006571D01*
X181462570Y-83506571D02*
X181462570Y-84792286D01*
X181391142Y-84935143D01*
X181248284Y-85006571D01*
X181105427Y-85006571D01*
X180748284Y-84006571D02*
X180391141Y-85006571D01*
X180033999Y-84006571D02*
X180391141Y-85006571D01*
X180533999Y-85363714D01*
X180605427Y-85435143D01*
X180748284Y-85506571D01*
X179462570Y-84006571D02*
X179462570Y-85506571D01*
X179462570Y-84078000D02*
X179319713Y-84006571D01*
X179033999Y-84006571D01*
X178891142Y-84078000D01*
X178819713Y-84149429D01*
X178748284Y-84292286D01*
X178748284Y-84720857D01*
X178819713Y-84863714D01*
X178891142Y-84935143D01*
X179033999Y-85006571D01*
X179319713Y-85006571D01*
X179462570Y-84935143D01*
X177533999Y-84935143D02*
X177676856Y-85006571D01*
X177962570Y-85006571D01*
X178105427Y-84935143D01*
X178176856Y-84792286D01*
X178176856Y-84220857D01*
X178105427Y-84078000D01*
X177962570Y-84006571D01*
X177676856Y-84006571D01*
X177533999Y-84078000D01*
X177462570Y-84220857D01*
X177462570Y-84363714D01*
X178176856Y-84506571D01*
X174891142Y-85006571D02*
X175748285Y-85006571D01*
X175319713Y-85006571D02*
X175319713Y-83506571D01*
X175462570Y-83720857D01*
X175605428Y-83863714D01*
X175748285Y-83935143D01*
X173105428Y-84435143D02*
X171962571Y-84435143D01*
X170248285Y-84006571D02*
X169891142Y-85006571D01*
X169534000Y-84006571D01*
X168676857Y-83506571D02*
X168534000Y-83506571D01*
X168391143Y-83578000D01*
X168319714Y-83649429D01*
X168248285Y-83792286D01*
X168176857Y-84078000D01*
X168176857Y-84435143D01*
X168248285Y-84720857D01*
X168319714Y-84863714D01*
X168391143Y-84935143D01*
X168534000Y-85006571D01*
X168676857Y-85006571D01*
X168819714Y-84935143D01*
X168891143Y-84863714D01*
X168962571Y-84720857D01*
X169034000Y-84435143D01*
X169034000Y-84078000D01*
X168962571Y-83792286D01*
X168891143Y-83649429D01*
X168819714Y-83578000D01*
X168676857Y-83506571D01*
X167534000Y-84863714D02*
X167462572Y-84935143D01*
X167534000Y-85006571D01*
X167605429Y-84935143D01*
X167534000Y-84863714D01*
X167534000Y-85006571D01*
X166034000Y-85006571D02*
X166891143Y-85006571D01*
X166462571Y-85006571D02*
X166462571Y-83506571D01*
X166605428Y-83720857D01*
X166748286Y-83863714D01*
X166891143Y-83935143D01*
D12*
G36*
X134322798Y-75638729D02*
X133910982Y-75643987D01*
X133521154Y-75653050D01*
X133168226Y-75665849D01*
X132867106Y-75682319D01*
X132801364Y-75687026D01*
X132491570Y-75710727D01*
X132238049Y-75730929D01*
X132026700Y-75749227D01*
X131843423Y-75767214D01*
X131674118Y-75786482D01*
X131504685Y-75808627D01*
X131321025Y-75835241D01*
X131109038Y-75867918D01*
X130880556Y-75904119D01*
X130089158Y-76038186D01*
X129362970Y-76178245D01*
X128696792Y-76325801D01*
X128085419Y-76482361D01*
X127523651Y-76649431D01*
X127006286Y-76828517D01*
X126528121Y-77021125D01*
X126083953Y-77228761D01*
X125813491Y-77371130D01*
X125216332Y-77725332D01*
X124675405Y-78101364D01*
X124177267Y-78509936D01*
X123708477Y-78961758D01*
X123413215Y-79283615D01*
X123103178Y-79649346D01*
X122838883Y-79990103D01*
X122609200Y-80322667D01*
X122403001Y-80663821D01*
X122209154Y-81030346D01*
X122089218Y-81280000D01*
X122012721Y-81443869D01*
X121939839Y-81598974D01*
X121879934Y-81725447D01*
X121848195Y-81791528D01*
X121762824Y-81990266D01*
X121671929Y-82242872D01*
X121580116Y-82533389D01*
X121491991Y-82845861D01*
X121412157Y-83164329D01*
X121345222Y-83472838D01*
X121313664Y-83643611D01*
X121284997Y-83857034D01*
X121260939Y-84126089D01*
X121241867Y-84435979D01*
X121228158Y-84771908D01*
X121220189Y-85119080D01*
X121218335Y-85462697D01*
X121222974Y-85787963D01*
X121234481Y-86080081D01*
X121247084Y-86259894D01*
X121332165Y-87017919D01*
X121457597Y-87819814D01*
X121620543Y-88653655D01*
X121818167Y-89507521D01*
X122047632Y-90369487D01*
X122306101Y-91227631D01*
X122590737Y-92070029D01*
X122701940Y-92374861D01*
X122852747Y-92774129D01*
X123011094Y-93183027D01*
X123171848Y-93588887D01*
X123329878Y-93979043D01*
X123480050Y-94340826D01*
X123617235Y-94661569D01*
X123736299Y-94928605D01*
X123738088Y-94932500D01*
X123826142Y-95125095D01*
X123910723Y-95311796D01*
X123984237Y-95475720D01*
X124039092Y-95599989D01*
X124055487Y-95638055D01*
X124140582Y-95827610D01*
X124256426Y-96069283D01*
X124398316Y-96354188D01*
X124561553Y-96673439D01*
X124741436Y-97018149D01*
X124933264Y-97379434D01*
X125132336Y-97748406D01*
X125333951Y-98116181D01*
X125533410Y-98473871D01*
X125726010Y-98812592D01*
X125828400Y-98989444D01*
X125954519Y-99207089D01*
X126071989Y-99412427D01*
X126175002Y-99595099D01*
X126257750Y-99744746D01*
X126314426Y-99851010D01*
X126335102Y-99893186D01*
X126386083Y-99992313D01*
X126436702Y-100066586D01*
X126451291Y-100081475D01*
X126489088Y-100125553D01*
X126556773Y-100216582D01*
X126645655Y-100342438D01*
X126747042Y-100490998D01*
X126777097Y-100535927D01*
X126916436Y-100742743D01*
X127072902Y-100970862D01*
X127239554Y-101210541D01*
X127409451Y-101452034D01*
X127575651Y-101685597D01*
X127731213Y-101901485D01*
X127869195Y-102089953D01*
X127982655Y-102241256D01*
X128064653Y-102345649D01*
X128075338Y-102358472D01*
X128157010Y-102458388D01*
X128265820Y-102596005D01*
X128386902Y-102752335D01*
X128493426Y-102892469D01*
X128809724Y-103293785D01*
X129169044Y-103716519D01*
X129559064Y-104147930D01*
X129967462Y-104575275D01*
X130381917Y-104985810D01*
X130790107Y-105366793D01*
X131179710Y-105705481D01*
X131339167Y-105835506D01*
X131539955Y-105995368D01*
X131698027Y-106119960D01*
X131825850Y-106217978D01*
X131935890Y-106298118D01*
X132040612Y-106369076D01*
X132152485Y-106439548D01*
X132283973Y-106518229D01*
X132447544Y-106613816D01*
X132492112Y-106639746D01*
X132891630Y-106847458D01*
X133319844Y-107025955D01*
X133749645Y-107164715D01*
X134000608Y-107225266D01*
X134256632Y-107261231D01*
X134552428Y-107275532D01*
X134860720Y-107268472D01*
X135154232Y-107240350D01*
X135325556Y-107210624D01*
X135744456Y-107093454D01*
X136188334Y-106917376D01*
X136650039Y-106686294D01*
X137122420Y-106404115D01*
X137598326Y-106074746D01*
X138038838Y-105728650D01*
X138185415Y-105603268D01*
X138360153Y-105448423D01*
X138554019Y-105272638D01*
X138757983Y-105084436D01*
X138963013Y-104892339D01*
X139160077Y-104704869D01*
X139340145Y-104530550D01*
X139494185Y-104377903D01*
X139613166Y-104255452D01*
X139685865Y-104174407D01*
X139747698Y-104100393D01*
X139843013Y-103987966D01*
X139959103Y-103852048D01*
X140083261Y-103707563D01*
X140090620Y-103699028D01*
X140235388Y-103527098D01*
X140400780Y-103324272D01*
X140565797Y-103116617D01*
X140701621Y-102940555D01*
X140820831Y-102784674D01*
X140933897Y-102640003D01*
X141029799Y-102520427D01*
X141097520Y-102439832D01*
X141109447Y-102426659D01*
X141168923Y-102355476D01*
X141261812Y-102234852D01*
X141381748Y-102073620D01*
X141522365Y-101880610D01*
X141677295Y-101664655D01*
X141840172Y-101434586D01*
X142004631Y-101199236D01*
X142164303Y-100967435D01*
X142214857Y-100893228D01*
X142647498Y-100235565D01*
X143090832Y-99522046D01*
X143537683Y-98765071D01*
X143980878Y-97977041D01*
X144413242Y-97170354D01*
X144755311Y-96502361D01*
X145250729Y-95476326D01*
X145714556Y-94439965D01*
X146143184Y-93402784D01*
X146533004Y-92374292D01*
X146880409Y-91363995D01*
X147181789Y-90381401D01*
X147426568Y-89464444D01*
X147481788Y-89240424D01*
X147533344Y-89032462D01*
X147578143Y-88852947D01*
X147613090Y-88714268D01*
X147635089Y-88628816D01*
X147638051Y-88617778D01*
X147654631Y-88544975D01*
X147680717Y-88415765D01*
X147713797Y-88243263D01*
X147716306Y-88229722D01*
X144056806Y-88229722D01*
X144056806Y-89393889D01*
X142070232Y-89393889D01*
X142045973Y-89570278D01*
X142026426Y-89670738D01*
X142002984Y-89734620D01*
X141989745Y-89746666D01*
X141974281Y-89779019D01*
X141962930Y-89864430D01*
X141957863Y-89985427D01*
X141957778Y-90004194D01*
X141953481Y-90134739D01*
X141942163Y-90237966D01*
X141926180Y-90293242D01*
X141924519Y-90295236D01*
X141904051Y-90347460D01*
X141888207Y-90444211D01*
X141883000Y-90512579D01*
X141868738Y-90634224D01*
X141841223Y-90704105D01*
X141828064Y-90714319D01*
X141795968Y-90762101D01*
X141781789Y-90866514D01*
X141781389Y-90892087D01*
X141774428Y-90987145D01*
X141756802Y-91044395D01*
X141746111Y-91051944D01*
X141723236Y-91083060D01*
X141711320Y-91160021D01*
X141710834Y-91181458D01*
X141697167Y-91283983D01*
X141663787Y-91362412D01*
X141659032Y-91368213D01*
X141618905Y-91444153D01*
X141598797Y-91536119D01*
X141585504Y-91606881D01*
X141564470Y-91630473D01*
X141562405Y-91629505D01*
X141543250Y-91647451D01*
X141534500Y-91714430D01*
X141534445Y-91721247D01*
X141518065Y-91809396D01*
X141481528Y-91850576D01*
X141440409Y-91897790D01*
X141428611Y-91955302D01*
X141416045Y-92019772D01*
X141393334Y-92039722D01*
X141365589Y-92069637D01*
X141357516Y-92119097D01*
X141335778Y-92226300D01*
X141268897Y-92282850D01*
X141237507Y-92291405D01*
X141177042Y-92322368D01*
X141160778Y-92349284D01*
X141162262Y-92369785D01*
X141169614Y-92358104D01*
X141208599Y-92322423D01*
X141242930Y-92345735D01*
X141252222Y-92392500D01*
X141239036Y-92449849D01*
X141220769Y-92463055D01*
X141189713Y-92492953D01*
X141167180Y-92551250D01*
X141138852Y-92617322D01*
X141110439Y-92639444D01*
X141079734Y-92668028D01*
X141075834Y-92692361D01*
X141056785Y-92739307D01*
X141040556Y-92745278D01*
X141012330Y-92774963D01*
X141005278Y-92819136D01*
X140974703Y-92889770D01*
X140933733Y-92911703D01*
X140881490Y-92945643D01*
X140883824Y-92998582D01*
X140873434Y-93064908D01*
X140822559Y-93143054D01*
X140751612Y-93209203D01*
X140681004Y-93239544D01*
X140677141Y-93239707D01*
X140661987Y-93254007D01*
X140687778Y-93277670D01*
X140719720Y-93312876D01*
X140696597Y-93332986D01*
X140656105Y-93379659D01*
X140652500Y-93400856D01*
X140624197Y-93445060D01*
X140599584Y-93450833D01*
X140556521Y-93480390D01*
X140546667Y-93522864D01*
X140525784Y-93598472D01*
X140475891Y-93669027D01*
X140416123Y-93713838D01*
X140369201Y-93714750D01*
X140342782Y-93713352D01*
X140351826Y-93765771D01*
X140354489Y-93827227D01*
X140314998Y-93894471D01*
X140249772Y-93961848D01*
X140176139Y-94038383D01*
X140130558Y-94099414D01*
X140123334Y-94118742D01*
X140094798Y-94152127D01*
X140070417Y-94156389D01*
X140023491Y-94176769D01*
X140017500Y-94194186D01*
X139990778Y-94254032D01*
X139932128Y-94310869D01*
X139878909Y-94332778D01*
X139842662Y-94359880D01*
X139841111Y-94370575D01*
X139814390Y-94430421D01*
X139755739Y-94487258D01*
X139702520Y-94509166D01*
X139666273Y-94536269D01*
X139664722Y-94546964D01*
X139638001Y-94606809D01*
X139579350Y-94663646D01*
X139526131Y-94685555D01*
X139489884Y-94712658D01*
X139488334Y-94723353D01*
X139461612Y-94783198D01*
X139402961Y-94840035D01*
X139349742Y-94861944D01*
X139313495Y-94889047D01*
X139311945Y-94899742D01*
X139289038Y-94952408D01*
X139239427Y-95009372D01*
X139191773Y-95038205D01*
X139189453Y-95038333D01*
X139151777Y-95060075D01*
X139086737Y-95113671D01*
X139072641Y-95126528D01*
X139002977Y-95184555D01*
X138953931Y-95213860D01*
X138949024Y-95214722D01*
X138907904Y-95238237D01*
X138845677Y-95295585D01*
X138838784Y-95302916D01*
X138777149Y-95362582D01*
X138735551Y-95390774D01*
X138733147Y-95391111D01*
X138696844Y-95406295D01*
X138630347Y-95457339D01*
X138554768Y-95523403D01*
X138494203Y-95561211D01*
X138467798Y-95567500D01*
X138431524Y-95592396D01*
X138430000Y-95602105D01*
X138400067Y-95635543D01*
X138341806Y-95658846D01*
X138275765Y-95686084D01*
X138253611Y-95712435D01*
X138226462Y-95742790D01*
X138216845Y-95743889D01*
X138178464Y-95754593D01*
X138121403Y-95793737D01*
X138030420Y-95871863D01*
X138025601Y-95876180D01*
X137949065Y-95914157D01*
X137907128Y-95920278D01*
X137839881Y-95945033D01*
X137816663Y-95975430D01*
X137782987Y-96012769D01*
X137762816Y-96010384D01*
X137715085Y-96015710D01*
X137676892Y-96043425D01*
X137599111Y-96087990D01*
X137550576Y-96096666D01*
X137491873Y-96109444D01*
X137477500Y-96128120D01*
X137447603Y-96159176D01*
X137389306Y-96181709D01*
X137323234Y-96210037D01*
X137301111Y-96238450D01*
X137270842Y-96264198D01*
X137210397Y-96273055D01*
X137119697Y-96292972D01*
X137066766Y-96325972D01*
X136990342Y-96368200D01*
X136928175Y-96378889D01*
X136863092Y-96391287D01*
X136842500Y-96414166D01*
X136811488Y-96437484D01*
X136735232Y-96449139D01*
X136719028Y-96449444D01*
X136637411Y-96457905D01*
X136596620Y-96478708D01*
X136595556Y-96483123D01*
X136564711Y-96511089D01*
X136488778Y-96536513D01*
X136471694Y-96540039D01*
X136384034Y-96563593D01*
X136331469Y-96590879D01*
X136328501Y-96594554D01*
X136283493Y-96615495D01*
X136198687Y-96625652D01*
X136185260Y-96625833D01*
X136085803Y-96640322D01*
X136011890Y-96675523D01*
X136008433Y-96678750D01*
X135939987Y-96713319D01*
X135838657Y-96731049D01*
X135816925Y-96731666D01*
X135729496Y-96739623D01*
X135681493Y-96759460D01*
X135678334Y-96766944D01*
X135645535Y-96784772D01*
X135556889Y-96797181D01*
X135427020Y-96802198D01*
X135416690Y-96802222D01*
X135258772Y-96807791D01*
X135167411Y-96824832D01*
X135140365Y-96846319D01*
X135117331Y-96861102D01*
X135055000Y-96873172D01*
X134947284Y-96882913D01*
X134788093Y-96890708D01*
X134571338Y-96896943D01*
X134290930Y-96902002D01*
X134248571Y-96902606D01*
X133859408Y-96905867D01*
X133538443Y-96903907D01*
X133286080Y-96896744D01*
X133102726Y-96884401D01*
X132988784Y-96866899D01*
X132944659Y-96844258D01*
X132946063Y-96834657D01*
X132923975Y-96818649D01*
X132844499Y-96807293D01*
X132720741Y-96802313D01*
X132699443Y-96802222D01*
X132565356Y-96797876D01*
X132471804Y-96786099D01*
X132433085Y-96768782D01*
X132432778Y-96766944D01*
X132401519Y-96744690D01*
X132323588Y-96732471D01*
X132294187Y-96731666D01*
X132190713Y-96718732D01*
X132112358Y-96686812D01*
X132102679Y-96678750D01*
X132028756Y-96642755D01*
X131911517Y-96626241D01*
X131888492Y-96625833D01*
X131792947Y-96618929D01*
X131735114Y-96601433D01*
X131727222Y-96590555D01*
X131697111Y-96563757D01*
X131641548Y-96555278D01*
X131552058Y-96534156D01*
X131502957Y-96502361D01*
X131425089Y-96458774D01*
X131371180Y-96449444D01*
X131293604Y-96436670D01*
X131196667Y-96404962D01*
X131103814Y-96364242D01*
X131038493Y-96324433D01*
X131021667Y-96301544D01*
X130991439Y-96280118D01*
X130933472Y-96273055D01*
X130867175Y-96260979D01*
X130845278Y-96237778D01*
X130815167Y-96210979D01*
X130759603Y-96202500D01*
X130670113Y-96181379D01*
X130621012Y-96149583D01*
X130543193Y-96105190D01*
X130495020Y-96096666D01*
X130436340Y-96082351D01*
X130421945Y-96061389D01*
X130393371Y-96030091D01*
X130369028Y-96026111D01*
X130357335Y-96032795D01*
X130347470Y-96056426D01*
X130339282Y-96102366D01*
X130332621Y-96175983D01*
X130327336Y-96282640D01*
X130323277Y-96427702D01*
X130320295Y-96616535D01*
X130318237Y-96854503D01*
X130316954Y-97146971D01*
X130316296Y-97499305D01*
X130316111Y-97913472D01*
X130315455Y-98379022D01*
X130313500Y-98780629D01*
X130310264Y-99117270D01*
X130305767Y-99387920D01*
X130300027Y-99591557D01*
X130293065Y-99727157D01*
X130284899Y-99793695D01*
X130280834Y-99800833D01*
X130246206Y-99772757D01*
X130242771Y-99756736D01*
X130235680Y-99730739D01*
X130222192Y-99756736D01*
X130192091Y-99776162D01*
X130115240Y-99789529D01*
X129984372Y-99797490D01*
X129792222Y-99800697D01*
X129731088Y-99800833D01*
X129257778Y-99800833D01*
X129257778Y-95358930D01*
X129063759Y-95163354D01*
X128967608Y-95070704D01*
X128888001Y-95001776D01*
X128839434Y-94968933D01*
X128834453Y-94967778D01*
X128801158Y-94940219D01*
X128799167Y-94926620D01*
X128786283Y-94901509D01*
X128778273Y-94906357D01*
X128747637Y-94890620D01*
X128679278Y-94833818D01*
X128583692Y-94746395D01*
X128471375Y-94638794D01*
X128352821Y-94521459D01*
X128238527Y-94404833D01*
X128138989Y-94299360D01*
X128064701Y-94215483D01*
X128026159Y-94163645D01*
X128023056Y-94154890D01*
X127999305Y-94107583D01*
X127941463Y-94042228D01*
X127934861Y-94036006D01*
X127874722Y-93969448D01*
X127846895Y-93917317D01*
X127846667Y-93914218D01*
X127820834Y-93876235D01*
X127808869Y-93874166D01*
X127742469Y-93844067D01*
X127688777Y-93772980D01*
X127670278Y-93700297D01*
X127648805Y-93640865D01*
X127617361Y-93627222D01*
X127570591Y-93598983D01*
X127564445Y-93574305D01*
X127545396Y-93527359D01*
X127529167Y-93521389D01*
X127495149Y-93494344D01*
X127493889Y-93484622D01*
X127483184Y-93446241D01*
X127444041Y-93389181D01*
X127365914Y-93298198D01*
X127361597Y-93293379D01*
X127324331Y-93217695D01*
X127317500Y-93171131D01*
X127296028Y-93111699D01*
X127264584Y-93098055D01*
X127217813Y-93069817D01*
X127211667Y-93045139D01*
X127192618Y-92998192D01*
X127176389Y-92992222D01*
X127149870Y-92962032D01*
X127141111Y-92904028D01*
X127122711Y-92833095D01*
X127088195Y-92815833D01*
X127044890Y-92786593D01*
X127035278Y-92747359D01*
X127019079Y-92679826D01*
X127000000Y-92657083D01*
X126969801Y-92607058D01*
X126964722Y-92570581D01*
X126939433Y-92505760D01*
X126911806Y-92485576D01*
X126868229Y-92437722D01*
X126858889Y-92393607D01*
X126844320Y-92335683D01*
X126823611Y-92321944D01*
X126798842Y-92291289D01*
X126788336Y-92217428D01*
X126788334Y-92216111D01*
X126772557Y-92132089D01*
X126735417Y-92110278D01*
X126692857Y-92079610D01*
X126682500Y-92022083D01*
X126670424Y-91955785D01*
X126647222Y-91933889D01*
X126623905Y-91902877D01*
X126612249Y-91826620D01*
X126611945Y-91810416D01*
X126600470Y-91719094D01*
X126563847Y-91687167D01*
X126559028Y-91686944D01*
X126517017Y-91655391D01*
X126506111Y-91581111D01*
X126495893Y-91506802D01*
X126471273Y-91475286D01*
X126470834Y-91475278D01*
X126447291Y-91444319D01*
X126435783Y-91368425D01*
X126435556Y-91354745D01*
X126425383Y-91270162D01*
X126400520Y-91223087D01*
X126396808Y-91221297D01*
X126370374Y-91181574D01*
X126347262Y-91095414D01*
X126339304Y-91041968D01*
X126322520Y-90944729D01*
X126300957Y-90884792D01*
X126289857Y-90875555D01*
X126272223Y-90843851D01*
X126261125Y-90762921D01*
X126259167Y-90702106D01*
X126251799Y-90598093D01*
X126232896Y-90529643D01*
X126219710Y-90515505D01*
X126197971Y-90476289D01*
X126177734Y-90385113D01*
X126162997Y-90260530D01*
X126162053Y-90247982D01*
X126149323Y-90124284D01*
X126132617Y-90033811D01*
X126115300Y-89994126D01*
X126113316Y-89993611D01*
X126106061Y-89959694D01*
X126099422Y-89863382D01*
X126093610Y-89712836D01*
X126088836Y-89516215D01*
X126085310Y-89281680D01*
X126083244Y-89017389D01*
X126082778Y-88811805D01*
X126082829Y-88794166D01*
X126047500Y-88794166D01*
X126034593Y-88823204D01*
X126023982Y-88817685D01*
X126019760Y-88775818D01*
X126023982Y-88770648D01*
X126044954Y-88775490D01*
X126047500Y-88794166D01*
X126082829Y-88794166D01*
X126083821Y-88456646D01*
X126086909Y-88162100D01*
X126091984Y-87930168D01*
X126098985Y-87762850D01*
X126107853Y-87662147D01*
X126118056Y-87630000D01*
X126137484Y-87598126D01*
X126150297Y-87516001D01*
X126153334Y-87438492D01*
X126165017Y-87292686D01*
X126198610Y-87202932D01*
X126206250Y-87194067D01*
X126243424Y-87113988D01*
X126258828Y-86973814D01*
X126259167Y-86944603D01*
X126264896Y-86837564D01*
X126279692Y-86766177D01*
X126294445Y-86748055D01*
X126316536Y-86716759D01*
X126328823Y-86638576D01*
X126329722Y-86606944D01*
X126338460Y-86508825D01*
X126367426Y-86468394D01*
X126382639Y-86465833D01*
X126419434Y-86442532D01*
X126434595Y-86365290D01*
X126435556Y-86324722D01*
X126443380Y-86236358D01*
X126462926Y-86187209D01*
X126470834Y-86183611D01*
X126494151Y-86152599D01*
X126505807Y-86076343D01*
X126506111Y-86060139D01*
X126517586Y-85968816D01*
X126554209Y-85936890D01*
X126559028Y-85936666D01*
X126598166Y-85909892D01*
X126611849Y-85824440D01*
X126611945Y-85813194D01*
X126620805Y-85731583D01*
X126642593Y-85690788D01*
X126647222Y-85689722D01*
X126673621Y-85659498D01*
X126682500Y-85600420D01*
X126701184Y-85525289D01*
X126735417Y-85490813D01*
X126776536Y-85443598D01*
X126788334Y-85386087D01*
X126800900Y-85321616D01*
X126823611Y-85301666D01*
X126852126Y-85272072D01*
X126858889Y-85230004D01*
X126881877Y-85162168D01*
X126911806Y-85138035D01*
X126956100Y-85090004D01*
X126964722Y-85049459D01*
X126972199Y-84996593D01*
X127002494Y-84940088D01*
X127067402Y-84860081D01*
X127097014Y-84826712D01*
X127135330Y-84755905D01*
X127141111Y-84722103D01*
X127159403Y-84673561D01*
X127176389Y-84666666D01*
X127205052Y-84637120D01*
X127211667Y-84596111D01*
X127233725Y-84538651D01*
X127264584Y-84525555D01*
X127307143Y-84494888D01*
X127317500Y-84437361D01*
X127329576Y-84371063D01*
X127352778Y-84349166D01*
X127384076Y-84320593D01*
X127388056Y-84296250D01*
X127416295Y-84249480D01*
X127440972Y-84243333D01*
X127484013Y-84213694D01*
X127493889Y-84170409D01*
X127518399Y-84103814D01*
X127580415Y-84019234D01*
X127617361Y-83981035D01*
X127690035Y-83905103D01*
X127734410Y-83844490D01*
X127740834Y-83826257D01*
X127763829Y-83777520D01*
X127820084Y-83708875D01*
X127829028Y-83699735D01*
X127888220Y-83630943D01*
X127916757Y-83578915D01*
X127917222Y-83574659D01*
X127945771Y-83541948D01*
X127970139Y-83537778D01*
X128017065Y-83517397D01*
X128023056Y-83499980D01*
X128049778Y-83440134D01*
X128108429Y-83383297D01*
X128161647Y-83361389D01*
X128197894Y-83334286D01*
X128199445Y-83323591D01*
X128221681Y-83267751D01*
X128243542Y-83240089D01*
X128296865Y-83181726D01*
X128364686Y-83103955D01*
X128366781Y-83101498D01*
X128435006Y-83038232D01*
X128494901Y-83008867D01*
X128499073Y-83008611D01*
X128546148Y-82988308D01*
X128552222Y-82970813D01*
X128578944Y-82910968D01*
X128637595Y-82854131D01*
X128690814Y-82832222D01*
X128727061Y-82805119D01*
X128728611Y-82794424D01*
X128752014Y-82740736D01*
X128802788Y-82683755D01*
X128851779Y-82655884D01*
X128853306Y-82655833D01*
X128889514Y-82630913D01*
X128944202Y-82570645D01*
X128946600Y-82567614D01*
X129030195Y-82499514D01*
X129092788Y-82491915D01*
X129135464Y-82496156D01*
X129125486Y-82489353D01*
X129084690Y-82466046D01*
X129081389Y-82459219D01*
X129104228Y-82420372D01*
X129155389Y-82371685D01*
X129208836Y-82334833D01*
X129237199Y-82329514D01*
X129240723Y-82298797D01*
X129244056Y-82203284D01*
X129247147Y-82048730D01*
X129249945Y-81840896D01*
X129252397Y-81585537D01*
X129254452Y-81288413D01*
X129256059Y-80955281D01*
X129257166Y-80591900D01*
X129257722Y-80204027D01*
X129257778Y-80032233D01*
X129257778Y-77714373D01*
X129786945Y-77718856D01*
X130316111Y-77723338D01*
X130316111Y-81597500D01*
X130404306Y-81597500D01*
X130470607Y-81585652D01*
X130492500Y-81562894D01*
X130522434Y-81529456D01*
X130580695Y-81506153D01*
X130646735Y-81478915D01*
X130668889Y-81452564D01*
X130699101Y-81428913D01*
X130757084Y-81421111D01*
X130823390Y-81409578D01*
X130845278Y-81387432D01*
X130876117Y-81359439D01*
X130952006Y-81334041D01*
X130968750Y-81330589D01*
X131050149Y-81307492D01*
X131091077Y-81280553D01*
X131092222Y-81276074D01*
X131122509Y-81252740D01*
X131182937Y-81244722D01*
X131273637Y-81224805D01*
X131326568Y-81191805D01*
X131402992Y-81149577D01*
X131465159Y-81138889D01*
X131530242Y-81126490D01*
X131550834Y-81103611D01*
X131582130Y-81081520D01*
X131660313Y-81069233D01*
X131691945Y-81068333D01*
X131780316Y-81060987D01*
X131829462Y-81042636D01*
X131833056Y-81035217D01*
X131864469Y-81010813D01*
X131944005Y-80987026D01*
X131992240Y-80978230D01*
X132091868Y-80957559D01*
X132158473Y-80933104D01*
X132170711Y-80923151D01*
X132213734Y-80906368D01*
X132305273Y-80895039D01*
X132396642Y-80891944D01*
X132525920Y-80884864D01*
X132602133Y-80865017D01*
X132617289Y-80849938D01*
X132659029Y-80824925D01*
X132757412Y-80804634D01*
X132875993Y-80793321D01*
X133003299Y-80781703D01*
X133103064Y-80765207D01*
X133153946Y-80747375D01*
X133154209Y-80747134D01*
X133197354Y-80737870D01*
X133297692Y-80730236D01*
X133443657Y-80724242D01*
X133623683Y-80719894D01*
X133826203Y-80717202D01*
X134039652Y-80716175D01*
X134252464Y-80716819D01*
X134453073Y-80719145D01*
X134629912Y-80723160D01*
X134771417Y-80728873D01*
X134866020Y-80736292D01*
X134902156Y-80745425D01*
X134902222Y-80745860D01*
X134934809Y-80761429D01*
X135021916Y-80777281D01*
X135147567Y-80790845D01*
X135209761Y-80795352D01*
X135354961Y-80808520D01*
X135464816Y-80826509D01*
X135524229Y-80846594D01*
X135530201Y-80853242D01*
X135570572Y-80874924D01*
X135663210Y-80888700D01*
X135751829Y-80891944D01*
X135862586Y-80896665D01*
X135938272Y-80908921D01*
X135960556Y-80922713D01*
X135991717Y-80946927D01*
X136069602Y-80970113D01*
X136101667Y-80976047D01*
X136189888Y-80997857D01*
X136239094Y-81024977D01*
X136242778Y-81033472D01*
X136273791Y-81056515D01*
X136350050Y-81068032D01*
X136366250Y-81068333D01*
X136447877Y-81076065D01*
X136488662Y-81095075D01*
X136489722Y-81099102D01*
X136520884Y-81123316D01*
X136598769Y-81146502D01*
X136630834Y-81152436D01*
X136719055Y-81174246D01*
X136768261Y-81201366D01*
X136771945Y-81209861D01*
X136802904Y-81233126D01*
X136878802Y-81244497D01*
X136892477Y-81244722D01*
X136976861Y-81254387D01*
X137023545Y-81278011D01*
X137025291Y-81281567D01*
X137066013Y-81313128D01*
X137116426Y-81324352D01*
X137178190Y-81346267D01*
X137195278Y-81375701D01*
X137227649Y-81408889D01*
X137317189Y-81421108D01*
X137318750Y-81421111D01*
X137400375Y-81429014D01*
X137441161Y-81448446D01*
X137442222Y-81452564D01*
X137472120Y-81483621D01*
X137530417Y-81506153D01*
X137596489Y-81534481D01*
X137618611Y-81562894D01*
X137646644Y-81594758D01*
X137664495Y-81597500D01*
X137742110Y-81614086D01*
X137824972Y-81653638D01*
X137885763Y-81700846D01*
X137900558Y-81729791D01*
X137930913Y-81762922D01*
X137989028Y-81773889D01*
X138055345Y-81784663D01*
X138077222Y-81805342D01*
X138107120Y-81836398D01*
X138165417Y-81858931D01*
X138231489Y-81887259D01*
X138253611Y-81915672D01*
X138282195Y-81946377D01*
X138306528Y-81950278D01*
X138353493Y-81968065D01*
X138359445Y-81983178D01*
X138388813Y-82017953D01*
X138438820Y-82041141D01*
X138526904Y-82087852D01*
X138571111Y-82126666D01*
X138648881Y-82187178D01*
X138703403Y-82212192D01*
X138764929Y-82243791D01*
X138782778Y-82270155D01*
X138810016Y-82301740D01*
X138820576Y-82303055D01*
X138880421Y-82329777D01*
X138937258Y-82388428D01*
X138959167Y-82441647D01*
X138985560Y-82477903D01*
X138995934Y-82479444D01*
X139034314Y-82490149D01*
X139091375Y-82529293D01*
X139182358Y-82607419D01*
X139187177Y-82611736D01*
X139247742Y-82649545D01*
X139274147Y-82655833D01*
X139307665Y-82684366D01*
X139311945Y-82708750D01*
X139330438Y-82755705D01*
X139346175Y-82761666D01*
X139387663Y-82785630D01*
X139462182Y-82848220D01*
X139555744Y-82935485D01*
X139654362Y-83033475D01*
X139744047Y-83128238D01*
X139810812Y-83205823D01*
X139840670Y-83252280D01*
X139841111Y-83255308D01*
X139859655Y-83280858D01*
X139870096Y-83277083D01*
X139910188Y-83287398D01*
X139963040Y-83334543D01*
X140005797Y-83394446D01*
X140017500Y-83432347D01*
X140044686Y-83465814D01*
X140055298Y-83467222D01*
X140119481Y-83496161D01*
X140174538Y-83562303D01*
X140193889Y-83625534D01*
X140209283Y-83664744D01*
X140226627Y-83662819D01*
X140261250Y-83674449D01*
X140281921Y-83713654D01*
X140313588Y-83770937D01*
X140337378Y-83784722D01*
X140369090Y-83811857D01*
X140370278Y-83821684D01*
X140394024Y-83868858D01*
X140451855Y-83934146D01*
X140458472Y-83940382D01*
X140519636Y-84018252D01*
X140546603Y-84094514D01*
X140546667Y-84097448D01*
X140567631Y-84158626D01*
X140599584Y-84172778D01*
X140645857Y-84201179D01*
X140652500Y-84227776D01*
X140669603Y-84264291D01*
X140687778Y-84260972D01*
X140713937Y-84273462D01*
X140723056Y-84329446D01*
X140737814Y-84396789D01*
X140767153Y-84419997D01*
X140810744Y-84449762D01*
X140857204Y-84520382D01*
X140891226Y-84604539D01*
X140899445Y-84656061D01*
X140920587Y-84698309D01*
X140934050Y-84701944D01*
X140967488Y-84731877D01*
X140990791Y-84790139D01*
X141018029Y-84856179D01*
X141044380Y-84878333D01*
X141068031Y-84908545D01*
X141075834Y-84966528D01*
X141094234Y-85037460D01*
X141128750Y-85054722D01*
X141171845Y-85084133D01*
X141181667Y-85125278D01*
X141196440Y-85182603D01*
X141216945Y-85195833D01*
X141241714Y-85226488D01*
X141252220Y-85300350D01*
X141252222Y-85301666D01*
X141267999Y-85385688D01*
X141305139Y-85407500D01*
X141347699Y-85438167D01*
X141358056Y-85495694D01*
X141370132Y-85561992D01*
X141393334Y-85583889D01*
X141421662Y-85613543D01*
X141428611Y-85656964D01*
X141452817Y-85742473D01*
X141481528Y-85782956D01*
X141523756Y-85859380D01*
X141534445Y-85921547D01*
X141546843Y-85986630D01*
X141569722Y-86007222D01*
X141591814Y-86038519D01*
X141604101Y-86116702D01*
X141605000Y-86148333D01*
X141613738Y-86246452D01*
X141642704Y-86286883D01*
X141657917Y-86289444D01*
X141697055Y-86316219D01*
X141710738Y-86401671D01*
X141710834Y-86412916D01*
X141719694Y-86494528D01*
X141741482Y-86535322D01*
X141746111Y-86536389D01*
X141766380Y-86568086D01*
X141779136Y-86648999D01*
X141781389Y-86709838D01*
X141789332Y-86819245D01*
X141810343Y-86886060D01*
X141822744Y-86897072D01*
X141847254Y-86937307D01*
X141868375Y-87028652D01*
X141879901Y-87129317D01*
X141892678Y-87242941D01*
X141910275Y-87321943D01*
X141926740Y-87347778D01*
X141941576Y-87380170D01*
X141952550Y-87465858D01*
X141957642Y-87587602D01*
X141957778Y-87612361D01*
X141961692Y-87738825D01*
X141972044Y-87832379D01*
X141986754Y-87875786D01*
X141989745Y-87876944D01*
X142012301Y-87908561D01*
X142035000Y-87989428D01*
X142045972Y-88053333D01*
X142070232Y-88229722D01*
X144056806Y-88229722D01*
X147716306Y-88229722D01*
X147751359Y-88040587D01*
X147790891Y-87820853D01*
X147793452Y-87806389D01*
X147893607Y-87167226D01*
X147963590Y-86544072D01*
X148005138Y-85913942D01*
X148019985Y-85253853D01*
X148016997Y-84845328D01*
X148011909Y-84565848D01*
X148006395Y-84343084D01*
X147999132Y-84163200D01*
X147988798Y-84012363D01*
X147974071Y-83876737D01*
X147953628Y-83742489D01*
X147926147Y-83595785D01*
X147890305Y-83422788D01*
X147873464Y-83343750D01*
X147810063Y-83061442D01*
X147744442Y-82802475D01*
X147670660Y-82546719D01*
X147582777Y-82274044D01*
X147474852Y-81964320D01*
X147428322Y-81835398D01*
X147364835Y-81678518D01*
X147274693Y-81479243D01*
X147167082Y-81255953D01*
X147051186Y-81027027D01*
X146936193Y-80810844D01*
X146831286Y-80625784D01*
X146789139Y-80556476D01*
X146359900Y-79923438D01*
X145899865Y-79347729D01*
X145400197Y-78820187D01*
X144852059Y-78331649D01*
X144246613Y-77872952D01*
X144109722Y-77778445D01*
X143709433Y-77523556D01*
X143287178Y-77289413D01*
X142836352Y-77073562D01*
X142350345Y-76873548D01*
X141822549Y-76686915D01*
X141246357Y-76511209D01*
X140615161Y-76343974D01*
X139922352Y-76182755D01*
X139667503Y-76128015D01*
X139462253Y-76087175D01*
X139210461Y-76040787D01*
X138929819Y-75991770D01*
X138638022Y-75943044D01*
X138352762Y-75897528D01*
X138091733Y-75858141D01*
X137872629Y-75827803D01*
X137777361Y-75816141D01*
X137512005Y-75785930D01*
X137302559Y-75762310D01*
X137134821Y-75743988D01*
X136994588Y-75729675D01*
X136867656Y-75718078D01*
X136739824Y-75707907D01*
X136596887Y-75697872D01*
X136424642Y-75686680D01*
X136208887Y-75673041D01*
X136189861Y-75671839D01*
X135891751Y-75657074D01*
X135541080Y-75646448D01*
X135152757Y-75639893D01*
X134741693Y-75637342D01*
X134322798Y-75638729D01*
X134322798Y-75638729D01*
G37*
X134322798Y-75638729D02*
X133910982Y-75643987D01*
X133521154Y-75653050D01*
X133168226Y-75665849D01*
X132867106Y-75682319D01*
X132801364Y-75687026D01*
X132491570Y-75710727D01*
X132238049Y-75730929D01*
X132026700Y-75749227D01*
X131843423Y-75767214D01*
X131674118Y-75786482D01*
X131504685Y-75808627D01*
X131321025Y-75835241D01*
X131109038Y-75867918D01*
X130880556Y-75904119D01*
X130089158Y-76038186D01*
X129362970Y-76178245D01*
X128696792Y-76325801D01*
X128085419Y-76482361D01*
X127523651Y-76649431D01*
X127006286Y-76828517D01*
X126528121Y-77021125D01*
X126083953Y-77228761D01*
X125813491Y-77371130D01*
X125216332Y-77725332D01*
X124675405Y-78101364D01*
X124177267Y-78509936D01*
X123708477Y-78961758D01*
X123413215Y-79283615D01*
X123103178Y-79649346D01*
X122838883Y-79990103D01*
X122609200Y-80322667D01*
X122403001Y-80663821D01*
X122209154Y-81030346D01*
X122089218Y-81280000D01*
X122012721Y-81443869D01*
X121939839Y-81598974D01*
X121879934Y-81725447D01*
X121848195Y-81791528D01*
X121762824Y-81990266D01*
X121671929Y-82242872D01*
X121580116Y-82533389D01*
X121491991Y-82845861D01*
X121412157Y-83164329D01*
X121345222Y-83472838D01*
X121313664Y-83643611D01*
X121284997Y-83857034D01*
X121260939Y-84126089D01*
X121241867Y-84435979D01*
X121228158Y-84771908D01*
X121220189Y-85119080D01*
X121218335Y-85462697D01*
X121222974Y-85787963D01*
X121234481Y-86080081D01*
X121247084Y-86259894D01*
X121332165Y-87017919D01*
X121457597Y-87819814D01*
X121620543Y-88653655D01*
X121818167Y-89507521D01*
X122047632Y-90369487D01*
X122306101Y-91227631D01*
X122590737Y-92070029D01*
X122701940Y-92374861D01*
X122852747Y-92774129D01*
X123011094Y-93183027D01*
X123171848Y-93588887D01*
X123329878Y-93979043D01*
X123480050Y-94340826D01*
X123617235Y-94661569D01*
X123736299Y-94928605D01*
X123738088Y-94932500D01*
X123826142Y-95125095D01*
X123910723Y-95311796D01*
X123984237Y-95475720D01*
X124039092Y-95599989D01*
X124055487Y-95638055D01*
X124140582Y-95827610D01*
X124256426Y-96069283D01*
X124398316Y-96354188D01*
X124561553Y-96673439D01*
X124741436Y-97018149D01*
X124933264Y-97379434D01*
X125132336Y-97748406D01*
X125333951Y-98116181D01*
X125533410Y-98473871D01*
X125726010Y-98812592D01*
X125828400Y-98989444D01*
X125954519Y-99207089D01*
X126071989Y-99412427D01*
X126175002Y-99595099D01*
X126257750Y-99744746D01*
X126314426Y-99851010D01*
X126335102Y-99893186D01*
X126386083Y-99992313D01*
X126436702Y-100066586D01*
X126451291Y-100081475D01*
X126489088Y-100125553D01*
X126556773Y-100216582D01*
X126645655Y-100342438D01*
X126747042Y-100490998D01*
X126777097Y-100535927D01*
X126916436Y-100742743D01*
X127072902Y-100970862D01*
X127239554Y-101210541D01*
X127409451Y-101452034D01*
X127575651Y-101685597D01*
X127731213Y-101901485D01*
X127869195Y-102089953D01*
X127982655Y-102241256D01*
X128064653Y-102345649D01*
X128075338Y-102358472D01*
X128157010Y-102458388D01*
X128265820Y-102596005D01*
X128386902Y-102752335D01*
X128493426Y-102892469D01*
X128809724Y-103293785D01*
X129169044Y-103716519D01*
X129559064Y-104147930D01*
X129967462Y-104575275D01*
X130381917Y-104985810D01*
X130790107Y-105366793D01*
X131179710Y-105705481D01*
X131339167Y-105835506D01*
X131539955Y-105995368D01*
X131698027Y-106119960D01*
X131825850Y-106217978D01*
X131935890Y-106298118D01*
X132040612Y-106369076D01*
X132152485Y-106439548D01*
X132283973Y-106518229D01*
X132447544Y-106613816D01*
X132492112Y-106639746D01*
X132891630Y-106847458D01*
X133319844Y-107025955D01*
X133749645Y-107164715D01*
X134000608Y-107225266D01*
X134256632Y-107261231D01*
X134552428Y-107275532D01*
X134860720Y-107268472D01*
X135154232Y-107240350D01*
X135325556Y-107210624D01*
X135744456Y-107093454D01*
X136188334Y-106917376D01*
X136650039Y-106686294D01*
X137122420Y-106404115D01*
X137598326Y-106074746D01*
X138038838Y-105728650D01*
X138185415Y-105603268D01*
X138360153Y-105448423D01*
X138554019Y-105272638D01*
X138757983Y-105084436D01*
X138963013Y-104892339D01*
X139160077Y-104704869D01*
X139340145Y-104530550D01*
X139494185Y-104377903D01*
X139613166Y-104255452D01*
X139685865Y-104174407D01*
X139747698Y-104100393D01*
X139843013Y-103987966D01*
X139959103Y-103852048D01*
X140083261Y-103707563D01*
X140090620Y-103699028D01*
X140235388Y-103527098D01*
X140400780Y-103324272D01*
X140565797Y-103116617D01*
X140701621Y-102940555D01*
X140820831Y-102784674D01*
X140933897Y-102640003D01*
X141029799Y-102520427D01*
X141097520Y-102439832D01*
X141109447Y-102426659D01*
X141168923Y-102355476D01*
X141261812Y-102234852D01*
X141381748Y-102073620D01*
X141522365Y-101880610D01*
X141677295Y-101664655D01*
X141840172Y-101434586D01*
X142004631Y-101199236D01*
X142164303Y-100967435D01*
X142214857Y-100893228D01*
X142647498Y-100235565D01*
X143090832Y-99522046D01*
X143537683Y-98765071D01*
X143980878Y-97977041D01*
X144413242Y-97170354D01*
X144755311Y-96502361D01*
X145250729Y-95476326D01*
X145714556Y-94439965D01*
X146143184Y-93402784D01*
X146533004Y-92374292D01*
X146880409Y-91363995D01*
X147181789Y-90381401D01*
X147426568Y-89464444D01*
X147481788Y-89240424D01*
X147533344Y-89032462D01*
X147578143Y-88852947D01*
X147613090Y-88714268D01*
X147635089Y-88628816D01*
X147638051Y-88617778D01*
X147654631Y-88544975D01*
X147680717Y-88415765D01*
X147713797Y-88243263D01*
X147716306Y-88229722D01*
X144056806Y-88229722D01*
X144056806Y-89393889D01*
X142070232Y-89393889D01*
X142045973Y-89570278D01*
X142026426Y-89670738D01*
X142002984Y-89734620D01*
X141989745Y-89746666D01*
X141974281Y-89779019D01*
X141962930Y-89864430D01*
X141957863Y-89985427D01*
X141957778Y-90004194D01*
X141953481Y-90134739D01*
X141942163Y-90237966D01*
X141926180Y-90293242D01*
X141924519Y-90295236D01*
X141904051Y-90347460D01*
X141888207Y-90444211D01*
X141883000Y-90512579D01*
X141868738Y-90634224D01*
X141841223Y-90704105D01*
X141828064Y-90714319D01*
X141795968Y-90762101D01*
X141781789Y-90866514D01*
X141781389Y-90892087D01*
X141774428Y-90987145D01*
X141756802Y-91044395D01*
X141746111Y-91051944D01*
X141723236Y-91083060D01*
X141711320Y-91160021D01*
X141710834Y-91181458D01*
X141697167Y-91283983D01*
X141663787Y-91362412D01*
X141659032Y-91368213D01*
X141618905Y-91444153D01*
X141598797Y-91536119D01*
X141585504Y-91606881D01*
X141564470Y-91630473D01*
X141562405Y-91629505D01*
X141543250Y-91647451D01*
X141534500Y-91714430D01*
X141534445Y-91721247D01*
X141518065Y-91809396D01*
X141481528Y-91850576D01*
X141440409Y-91897790D01*
X141428611Y-91955302D01*
X141416045Y-92019772D01*
X141393334Y-92039722D01*
X141365589Y-92069637D01*
X141357516Y-92119097D01*
X141335778Y-92226300D01*
X141268897Y-92282850D01*
X141237507Y-92291405D01*
X141177042Y-92322368D01*
X141160778Y-92349284D01*
X141162262Y-92369785D01*
X141169614Y-92358104D01*
X141208599Y-92322423D01*
X141242930Y-92345735D01*
X141252222Y-92392500D01*
X141239036Y-92449849D01*
X141220769Y-92463055D01*
X141189713Y-92492953D01*
X141167180Y-92551250D01*
X141138852Y-92617322D01*
X141110439Y-92639444D01*
X141079734Y-92668028D01*
X141075834Y-92692361D01*
X141056785Y-92739307D01*
X141040556Y-92745278D01*
X141012330Y-92774963D01*
X141005278Y-92819136D01*
X140974703Y-92889770D01*
X140933733Y-92911703D01*
X140881490Y-92945643D01*
X140883824Y-92998582D01*
X140873434Y-93064908D01*
X140822559Y-93143054D01*
X140751612Y-93209203D01*
X140681004Y-93239544D01*
X140677141Y-93239707D01*
X140661987Y-93254007D01*
X140687778Y-93277670D01*
X140719720Y-93312876D01*
X140696597Y-93332986D01*
X140656105Y-93379659D01*
X140652500Y-93400856D01*
X140624197Y-93445060D01*
X140599584Y-93450833D01*
X140556521Y-93480390D01*
X140546667Y-93522864D01*
X140525784Y-93598472D01*
X140475891Y-93669027D01*
X140416123Y-93713838D01*
X140369201Y-93714750D01*
X140342782Y-93713352D01*
X140351826Y-93765771D01*
X140354489Y-93827227D01*
X140314998Y-93894471D01*
X140249772Y-93961848D01*
X140176139Y-94038383D01*
X140130558Y-94099414D01*
X140123334Y-94118742D01*
X140094798Y-94152127D01*
X140070417Y-94156389D01*
X140023491Y-94176769D01*
X140017500Y-94194186D01*
X139990778Y-94254032D01*
X139932128Y-94310869D01*
X139878909Y-94332778D01*
X139842662Y-94359880D01*
X139841111Y-94370575D01*
X139814390Y-94430421D01*
X139755739Y-94487258D01*
X139702520Y-94509166D01*
X139666273Y-94536269D01*
X139664722Y-94546964D01*
X139638001Y-94606809D01*
X139579350Y-94663646D01*
X139526131Y-94685555D01*
X139489884Y-94712658D01*
X139488334Y-94723353D01*
X139461612Y-94783198D01*
X139402961Y-94840035D01*
X139349742Y-94861944D01*
X139313495Y-94889047D01*
X139311945Y-94899742D01*
X139289038Y-94952408D01*
X139239427Y-95009372D01*
X139191773Y-95038205D01*
X139189453Y-95038333D01*
X139151777Y-95060075D01*
X139086737Y-95113671D01*
X139072641Y-95126528D01*
X139002977Y-95184555D01*
X138953931Y-95213860D01*
X138949024Y-95214722D01*
X138907904Y-95238237D01*
X138845677Y-95295585D01*
X138838784Y-95302916D01*
X138777149Y-95362582D01*
X138735551Y-95390774D01*
X138733147Y-95391111D01*
X138696844Y-95406295D01*
X138630347Y-95457339D01*
X138554768Y-95523403D01*
X138494203Y-95561211D01*
X138467798Y-95567500D01*
X138431524Y-95592396D01*
X138430000Y-95602105D01*
X138400067Y-95635543D01*
X138341806Y-95658846D01*
X138275765Y-95686084D01*
X138253611Y-95712435D01*
X138226462Y-95742790D01*
X138216845Y-95743889D01*
X138178464Y-95754593D01*
X138121403Y-95793737D01*
X138030420Y-95871863D01*
X138025601Y-95876180D01*
X137949065Y-95914157D01*
X137907128Y-95920278D01*
X137839881Y-95945033D01*
X137816663Y-95975430D01*
X137782987Y-96012769D01*
X137762816Y-96010384D01*
X137715085Y-96015710D01*
X137676892Y-96043425D01*
X137599111Y-96087990D01*
X137550576Y-96096666D01*
X137491873Y-96109444D01*
X137477500Y-96128120D01*
X137447603Y-96159176D01*
X137389306Y-96181709D01*
X137323234Y-96210037D01*
X137301111Y-96238450D01*
X137270842Y-96264198D01*
X137210397Y-96273055D01*
X137119697Y-96292972D01*
X137066766Y-96325972D01*
X136990342Y-96368200D01*
X136928175Y-96378889D01*
X136863092Y-96391287D01*
X136842500Y-96414166D01*
X136811488Y-96437484D01*
X136735232Y-96449139D01*
X136719028Y-96449444D01*
X136637411Y-96457905D01*
X136596620Y-96478708D01*
X136595556Y-96483123D01*
X136564711Y-96511089D01*
X136488778Y-96536513D01*
X136471694Y-96540039D01*
X136384034Y-96563593D01*
X136331469Y-96590879D01*
X136328501Y-96594554D01*
X136283493Y-96615495D01*
X136198687Y-96625652D01*
X136185260Y-96625833D01*
X136085803Y-96640322D01*
X136011890Y-96675523D01*
X136008433Y-96678750D01*
X135939987Y-96713319D01*
X135838657Y-96731049D01*
X135816925Y-96731666D01*
X135729496Y-96739623D01*
X135681493Y-96759460D01*
X135678334Y-96766944D01*
X135645535Y-96784772D01*
X135556889Y-96797181D01*
X135427020Y-96802198D01*
X135416690Y-96802222D01*
X135258772Y-96807791D01*
X135167411Y-96824832D01*
X135140365Y-96846319D01*
X135117331Y-96861102D01*
X135055000Y-96873172D01*
X134947284Y-96882913D01*
X134788093Y-96890708D01*
X134571338Y-96896943D01*
X134290930Y-96902002D01*
X134248571Y-96902606D01*
X133859408Y-96905867D01*
X133538443Y-96903907D01*
X133286080Y-96896744D01*
X133102726Y-96884401D01*
X132988784Y-96866899D01*
X132944659Y-96844258D01*
X132946063Y-96834657D01*
X132923975Y-96818649D01*
X132844499Y-96807293D01*
X132720741Y-96802313D01*
X132699443Y-96802222D01*
X132565356Y-96797876D01*
X132471804Y-96786099D01*
X132433085Y-96768782D01*
X132432778Y-96766944D01*
X132401519Y-96744690D01*
X132323588Y-96732471D01*
X132294187Y-96731666D01*
X132190713Y-96718732D01*
X132112358Y-96686812D01*
X132102679Y-96678750D01*
X132028756Y-96642755D01*
X131911517Y-96626241D01*
X131888492Y-96625833D01*
X131792947Y-96618929D01*
X131735114Y-96601433D01*
X131727222Y-96590555D01*
X131697111Y-96563757D01*
X131641548Y-96555278D01*
X131552058Y-96534156D01*
X131502957Y-96502361D01*
X131425089Y-96458774D01*
X131371180Y-96449444D01*
X131293604Y-96436670D01*
X131196667Y-96404962D01*
X131103814Y-96364242D01*
X131038493Y-96324433D01*
X131021667Y-96301544D01*
X130991439Y-96280118D01*
X130933472Y-96273055D01*
X130867175Y-96260979D01*
X130845278Y-96237778D01*
X130815167Y-96210979D01*
X130759603Y-96202500D01*
X130670113Y-96181379D01*
X130621012Y-96149583D01*
X130543193Y-96105190D01*
X130495020Y-96096666D01*
X130436340Y-96082351D01*
X130421945Y-96061389D01*
X130393371Y-96030091D01*
X130369028Y-96026111D01*
X130357335Y-96032795D01*
X130347470Y-96056426D01*
X130339282Y-96102366D01*
X130332621Y-96175983D01*
X130327336Y-96282640D01*
X130323277Y-96427702D01*
X130320295Y-96616535D01*
X130318237Y-96854503D01*
X130316954Y-97146971D01*
X130316296Y-97499305D01*
X130316111Y-97913472D01*
X130315455Y-98379022D01*
X130313500Y-98780629D01*
X130310264Y-99117270D01*
X130305767Y-99387920D01*
X130300027Y-99591557D01*
X130293065Y-99727157D01*
X130284899Y-99793695D01*
X130280834Y-99800833D01*
X130246206Y-99772757D01*
X130242771Y-99756736D01*
X130235680Y-99730739D01*
X130222192Y-99756736D01*
X130192091Y-99776162D01*
X130115240Y-99789529D01*
X129984372Y-99797490D01*
X129792222Y-99800697D01*
X129731088Y-99800833D01*
X129257778Y-99800833D01*
X129257778Y-95358930D01*
X129063759Y-95163354D01*
X128967608Y-95070704D01*
X128888001Y-95001776D01*
X128839434Y-94968933D01*
X128834453Y-94967778D01*
X128801158Y-94940219D01*
X128799167Y-94926620D01*
X128786283Y-94901509D01*
X128778273Y-94906357D01*
X128747637Y-94890620D01*
X128679278Y-94833818D01*
X128583692Y-94746395D01*
X128471375Y-94638794D01*
X128352821Y-94521459D01*
X128238527Y-94404833D01*
X128138989Y-94299360D01*
X128064701Y-94215483D01*
X128026159Y-94163645D01*
X128023056Y-94154890D01*
X127999305Y-94107583D01*
X127941463Y-94042228D01*
X127934861Y-94036006D01*
X127874722Y-93969448D01*
X127846895Y-93917317D01*
X127846667Y-93914218D01*
X127820834Y-93876235D01*
X127808869Y-93874166D01*
X127742469Y-93844067D01*
X127688777Y-93772980D01*
X127670278Y-93700297D01*
X127648805Y-93640865D01*
X127617361Y-93627222D01*
X127570591Y-93598983D01*
X127564445Y-93574305D01*
X127545396Y-93527359D01*
X127529167Y-93521389D01*
X127495149Y-93494344D01*
X127493889Y-93484622D01*
X127483184Y-93446241D01*
X127444041Y-93389181D01*
X127365914Y-93298198D01*
X127361597Y-93293379D01*
X127324331Y-93217695D01*
X127317500Y-93171131D01*
X127296028Y-93111699D01*
X127264584Y-93098055D01*
X127217813Y-93069817D01*
X127211667Y-93045139D01*
X127192618Y-92998192D01*
X127176389Y-92992222D01*
X127149870Y-92962032D01*
X127141111Y-92904028D01*
X127122711Y-92833095D01*
X127088195Y-92815833D01*
X127044890Y-92786593D01*
X127035278Y-92747359D01*
X127019079Y-92679826D01*
X127000000Y-92657083D01*
X126969801Y-92607058D01*
X126964722Y-92570581D01*
X126939433Y-92505760D01*
X126911806Y-92485576D01*
X126868229Y-92437722D01*
X126858889Y-92393607D01*
X126844320Y-92335683D01*
X126823611Y-92321944D01*
X126798842Y-92291289D01*
X126788336Y-92217428D01*
X126788334Y-92216111D01*
X126772557Y-92132089D01*
X126735417Y-92110278D01*
X126692857Y-92079610D01*
X126682500Y-92022083D01*
X126670424Y-91955785D01*
X126647222Y-91933889D01*
X126623905Y-91902877D01*
X126612249Y-91826620D01*
X126611945Y-91810416D01*
X126600470Y-91719094D01*
X126563847Y-91687167D01*
X126559028Y-91686944D01*
X126517017Y-91655391D01*
X126506111Y-91581111D01*
X126495893Y-91506802D01*
X126471273Y-91475286D01*
X126470834Y-91475278D01*
X126447291Y-91444319D01*
X126435783Y-91368425D01*
X126435556Y-91354745D01*
X126425383Y-91270162D01*
X126400520Y-91223087D01*
X126396808Y-91221297D01*
X126370374Y-91181574D01*
X126347262Y-91095414D01*
X126339304Y-91041968D01*
X126322520Y-90944729D01*
X126300957Y-90884792D01*
X126289857Y-90875555D01*
X126272223Y-90843851D01*
X126261125Y-90762921D01*
X126259167Y-90702106D01*
X126251799Y-90598093D01*
X126232896Y-90529643D01*
X126219710Y-90515505D01*
X126197971Y-90476289D01*
X126177734Y-90385113D01*
X126162997Y-90260530D01*
X126162053Y-90247982D01*
X126149323Y-90124284D01*
X126132617Y-90033811D01*
X126115300Y-89994126D01*
X126113316Y-89993611D01*
X126106061Y-89959694D01*
X126099422Y-89863382D01*
X126093610Y-89712836D01*
X126088836Y-89516215D01*
X126085310Y-89281680D01*
X126083244Y-89017389D01*
X126082778Y-88811805D01*
X126082829Y-88794166D01*
X126047500Y-88794166D01*
X126034593Y-88823204D01*
X126023982Y-88817685D01*
X126019760Y-88775818D01*
X126023982Y-88770648D01*
X126044954Y-88775490D01*
X126047500Y-88794166D01*
X126082829Y-88794166D01*
X126083821Y-88456646D01*
X126086909Y-88162100D01*
X126091984Y-87930168D01*
X126098985Y-87762850D01*
X126107853Y-87662147D01*
X126118056Y-87630000D01*
X126137484Y-87598126D01*
X126150297Y-87516001D01*
X126153334Y-87438492D01*
X126165017Y-87292686D01*
X126198610Y-87202932D01*
X126206250Y-87194067D01*
X126243424Y-87113988D01*
X126258828Y-86973814D01*
X126259167Y-86944603D01*
X126264896Y-86837564D01*
X126279692Y-86766177D01*
X126294445Y-86748055D01*
X126316536Y-86716759D01*
X126328823Y-86638576D01*
X126329722Y-86606944D01*
X126338460Y-86508825D01*
X126367426Y-86468394D01*
X126382639Y-86465833D01*
X126419434Y-86442532D01*
X126434595Y-86365290D01*
X126435556Y-86324722D01*
X126443380Y-86236358D01*
X126462926Y-86187209D01*
X126470834Y-86183611D01*
X126494151Y-86152599D01*
X126505807Y-86076343D01*
X126506111Y-86060139D01*
X126517586Y-85968816D01*
X126554209Y-85936890D01*
X126559028Y-85936666D01*
X126598166Y-85909892D01*
X126611849Y-85824440D01*
X126611945Y-85813194D01*
X126620805Y-85731583D01*
X126642593Y-85690788D01*
X126647222Y-85689722D01*
X126673621Y-85659498D01*
X126682500Y-85600420D01*
X126701184Y-85525289D01*
X126735417Y-85490813D01*
X126776536Y-85443598D01*
X126788334Y-85386087D01*
X126800900Y-85321616D01*
X126823611Y-85301666D01*
X126852126Y-85272072D01*
X126858889Y-85230004D01*
X126881877Y-85162168D01*
X126911806Y-85138035D01*
X126956100Y-85090004D01*
X126964722Y-85049459D01*
X126972199Y-84996593D01*
X127002494Y-84940088D01*
X127067402Y-84860081D01*
X127097014Y-84826712D01*
X127135330Y-84755905D01*
X127141111Y-84722103D01*
X127159403Y-84673561D01*
X127176389Y-84666666D01*
X127205052Y-84637120D01*
X127211667Y-84596111D01*
X127233725Y-84538651D01*
X127264584Y-84525555D01*
X127307143Y-84494888D01*
X127317500Y-84437361D01*
X127329576Y-84371063D01*
X127352778Y-84349166D01*
X127384076Y-84320593D01*
X127388056Y-84296250D01*
X127416295Y-84249480D01*
X127440972Y-84243333D01*
X127484013Y-84213694D01*
X127493889Y-84170409D01*
X127518399Y-84103814D01*
X127580415Y-84019234D01*
X127617361Y-83981035D01*
X127690035Y-83905103D01*
X127734410Y-83844490D01*
X127740834Y-83826257D01*
X127763829Y-83777520D01*
X127820084Y-83708875D01*
X127829028Y-83699735D01*
X127888220Y-83630943D01*
X127916757Y-83578915D01*
X127917222Y-83574659D01*
X127945771Y-83541948D01*
X127970139Y-83537778D01*
X128017065Y-83517397D01*
X128023056Y-83499980D01*
X128049778Y-83440134D01*
X128108429Y-83383297D01*
X128161647Y-83361389D01*
X128197894Y-83334286D01*
X128199445Y-83323591D01*
X128221681Y-83267751D01*
X128243542Y-83240089D01*
X128296865Y-83181726D01*
X128364686Y-83103955D01*
X128366781Y-83101498D01*
X128435006Y-83038232D01*
X128494901Y-83008867D01*
X128499073Y-83008611D01*
X128546148Y-82988308D01*
X128552222Y-82970813D01*
X128578944Y-82910968D01*
X128637595Y-82854131D01*
X128690814Y-82832222D01*
X128727061Y-82805119D01*
X128728611Y-82794424D01*
X128752014Y-82740736D01*
X128802788Y-82683755D01*
X128851779Y-82655884D01*
X128853306Y-82655833D01*
X128889514Y-82630913D01*
X128944202Y-82570645D01*
X128946600Y-82567614D01*
X129030195Y-82499514D01*
X129092788Y-82491915D01*
X129135464Y-82496156D01*
X129125486Y-82489353D01*
X129084690Y-82466046D01*
X129081389Y-82459219D01*
X129104228Y-82420372D01*
X129155389Y-82371685D01*
X129208836Y-82334833D01*
X129237199Y-82329514D01*
X129240723Y-82298797D01*
X129244056Y-82203284D01*
X129247147Y-82048730D01*
X129249945Y-81840896D01*
X129252397Y-81585537D01*
X129254452Y-81288413D01*
X129256059Y-80955281D01*
X129257166Y-80591900D01*
X129257722Y-80204027D01*
X129257778Y-80032233D01*
X129257778Y-77714373D01*
X129786945Y-77718856D01*
X130316111Y-77723338D01*
X130316111Y-81597500D01*
X130404306Y-81597500D01*
X130470607Y-81585652D01*
X130492500Y-81562894D01*
X130522434Y-81529456D01*
X130580695Y-81506153D01*
X130646735Y-81478915D01*
X130668889Y-81452564D01*
X130699101Y-81428913D01*
X130757084Y-81421111D01*
X130823390Y-81409578D01*
X130845278Y-81387432D01*
X130876117Y-81359439D01*
X130952006Y-81334041D01*
X130968750Y-81330589D01*
X131050149Y-81307492D01*
X131091077Y-81280553D01*
X131092222Y-81276074D01*
X131122509Y-81252740D01*
X131182937Y-81244722D01*
X131273637Y-81224805D01*
X131326568Y-81191805D01*
X131402992Y-81149577D01*
X131465159Y-81138889D01*
X131530242Y-81126490D01*
X131550834Y-81103611D01*
X131582130Y-81081520D01*
X131660313Y-81069233D01*
X131691945Y-81068333D01*
X131780316Y-81060987D01*
X131829462Y-81042636D01*
X131833056Y-81035217D01*
X131864469Y-81010813D01*
X131944005Y-80987026D01*
X131992240Y-80978230D01*
X132091868Y-80957559D01*
X132158473Y-80933104D01*
X132170711Y-80923151D01*
X132213734Y-80906368D01*
X132305273Y-80895039D01*
X132396642Y-80891944D01*
X132525920Y-80884864D01*
X132602133Y-80865017D01*
X132617289Y-80849938D01*
X132659029Y-80824925D01*
X132757412Y-80804634D01*
X132875993Y-80793321D01*
X133003299Y-80781703D01*
X133103064Y-80765207D01*
X133153946Y-80747375D01*
X133154209Y-80747134D01*
X133197354Y-80737870D01*
X133297692Y-80730236D01*
X133443657Y-80724242D01*
X133623683Y-80719894D01*
X133826203Y-80717202D01*
X134039652Y-80716175D01*
X134252464Y-80716819D01*
X134453073Y-80719145D01*
X134629912Y-80723160D01*
X134771417Y-80728873D01*
X134866020Y-80736292D01*
X134902156Y-80745425D01*
X134902222Y-80745860D01*
X134934809Y-80761429D01*
X135021916Y-80777281D01*
X135147567Y-80790845D01*
X135209761Y-80795352D01*
X135354961Y-80808520D01*
X135464816Y-80826509D01*
X135524229Y-80846594D01*
X135530201Y-80853242D01*
X135570572Y-80874924D01*
X135663210Y-80888700D01*
X135751829Y-80891944D01*
X135862586Y-80896665D01*
X135938272Y-80908921D01*
X135960556Y-80922713D01*
X135991717Y-80946927D01*
X136069602Y-80970113D01*
X136101667Y-80976047D01*
X136189888Y-80997857D01*
X136239094Y-81024977D01*
X136242778Y-81033472D01*
X136273791Y-81056515D01*
X136350050Y-81068032D01*
X136366250Y-81068333D01*
X136447877Y-81076065D01*
X136488662Y-81095075D01*
X136489722Y-81099102D01*
X136520884Y-81123316D01*
X136598769Y-81146502D01*
X136630834Y-81152436D01*
X136719055Y-81174246D01*
X136768261Y-81201366D01*
X136771945Y-81209861D01*
X136802904Y-81233126D01*
X136878802Y-81244497D01*
X136892477Y-81244722D01*
X136976861Y-81254387D01*
X137023545Y-81278011D01*
X137025291Y-81281567D01*
X137066013Y-81313128D01*
X137116426Y-81324352D01*
X137178190Y-81346267D01*
X137195278Y-81375701D01*
X137227649Y-81408889D01*
X137317189Y-81421108D01*
X137318750Y-81421111D01*
X137400375Y-81429014D01*
X137441161Y-81448446D01*
X137442222Y-81452564D01*
X137472120Y-81483621D01*
X137530417Y-81506153D01*
X137596489Y-81534481D01*
X137618611Y-81562894D01*
X137646644Y-81594758D01*
X137664495Y-81597500D01*
X137742110Y-81614086D01*
X137824972Y-81653638D01*
X137885763Y-81700846D01*
X137900558Y-81729791D01*
X137930913Y-81762922D01*
X137989028Y-81773889D01*
X138055345Y-81784663D01*
X138077222Y-81805342D01*
X138107120Y-81836398D01*
X138165417Y-81858931D01*
X138231489Y-81887259D01*
X138253611Y-81915672D01*
X138282195Y-81946377D01*
X138306528Y-81950278D01*
X138353493Y-81968065D01*
X138359445Y-81983178D01*
X138388813Y-82017953D01*
X138438820Y-82041141D01*
X138526904Y-82087852D01*
X138571111Y-82126666D01*
X138648881Y-82187178D01*
X138703403Y-82212192D01*
X138764929Y-82243791D01*
X138782778Y-82270155D01*
X138810016Y-82301740D01*
X138820576Y-82303055D01*
X138880421Y-82329777D01*
X138937258Y-82388428D01*
X138959167Y-82441647D01*
X138985560Y-82477903D01*
X138995934Y-82479444D01*
X139034314Y-82490149D01*
X139091375Y-82529293D01*
X139182358Y-82607419D01*
X139187177Y-82611736D01*
X139247742Y-82649545D01*
X139274147Y-82655833D01*
X139307665Y-82684366D01*
X139311945Y-82708750D01*
X139330438Y-82755705D01*
X139346175Y-82761666D01*
X139387663Y-82785630D01*
X139462182Y-82848220D01*
X139555744Y-82935485D01*
X139654362Y-83033475D01*
X139744047Y-83128238D01*
X139810812Y-83205823D01*
X139840670Y-83252280D01*
X139841111Y-83255308D01*
X139859655Y-83280858D01*
X139870096Y-83277083D01*
X139910188Y-83287398D01*
X139963040Y-83334543D01*
X140005797Y-83394446D01*
X140017500Y-83432347D01*
X140044686Y-83465814D01*
X140055298Y-83467222D01*
X140119481Y-83496161D01*
X140174538Y-83562303D01*
X140193889Y-83625534D01*
X140209283Y-83664744D01*
X140226627Y-83662819D01*
X140261250Y-83674449D01*
X140281921Y-83713654D01*
X140313588Y-83770937D01*
X140337378Y-83784722D01*
X140369090Y-83811857D01*
X140370278Y-83821684D01*
X140394024Y-83868858D01*
X140451855Y-83934146D01*
X140458472Y-83940382D01*
X140519636Y-84018252D01*
X140546603Y-84094514D01*
X140546667Y-84097448D01*
X140567631Y-84158626D01*
X140599584Y-84172778D01*
X140645857Y-84201179D01*
X140652500Y-84227776D01*
X140669603Y-84264291D01*
X140687778Y-84260972D01*
X140713937Y-84273462D01*
X140723056Y-84329446D01*
X140737814Y-84396789D01*
X140767153Y-84419997D01*
X140810744Y-84449762D01*
X140857204Y-84520382D01*
X140891226Y-84604539D01*
X140899445Y-84656061D01*
X140920587Y-84698309D01*
X140934050Y-84701944D01*
X140967488Y-84731877D01*
X140990791Y-84790139D01*
X141018029Y-84856179D01*
X141044380Y-84878333D01*
X141068031Y-84908545D01*
X141075834Y-84966528D01*
X141094234Y-85037460D01*
X141128750Y-85054722D01*
X141171845Y-85084133D01*
X141181667Y-85125278D01*
X141196440Y-85182603D01*
X141216945Y-85195833D01*
X141241714Y-85226488D01*
X141252220Y-85300350D01*
X141252222Y-85301666D01*
X141267999Y-85385688D01*
X141305139Y-85407500D01*
X141347699Y-85438167D01*
X141358056Y-85495694D01*
X141370132Y-85561992D01*
X141393334Y-85583889D01*
X141421662Y-85613543D01*
X141428611Y-85656964D01*
X141452817Y-85742473D01*
X141481528Y-85782956D01*
X141523756Y-85859380D01*
X141534445Y-85921547D01*
X141546843Y-85986630D01*
X141569722Y-86007222D01*
X141591814Y-86038519D01*
X141604101Y-86116702D01*
X141605000Y-86148333D01*
X141613738Y-86246452D01*
X141642704Y-86286883D01*
X141657917Y-86289444D01*
X141697055Y-86316219D01*
X141710738Y-86401671D01*
X141710834Y-86412916D01*
X141719694Y-86494528D01*
X141741482Y-86535322D01*
X141746111Y-86536389D01*
X141766380Y-86568086D01*
X141779136Y-86648999D01*
X141781389Y-86709838D01*
X141789332Y-86819245D01*
X141810343Y-86886060D01*
X141822744Y-86897072D01*
X141847254Y-86937307D01*
X141868375Y-87028652D01*
X141879901Y-87129317D01*
X141892678Y-87242941D01*
X141910275Y-87321943D01*
X141926740Y-87347778D01*
X141941576Y-87380170D01*
X141952550Y-87465858D01*
X141957642Y-87587602D01*
X141957778Y-87612361D01*
X141961692Y-87738825D01*
X141972044Y-87832379D01*
X141986754Y-87875786D01*
X141989745Y-87876944D01*
X142012301Y-87908561D01*
X142035000Y-87989428D01*
X142045972Y-88053333D01*
X142070232Y-88229722D01*
X144056806Y-88229722D01*
X147716306Y-88229722D01*
X147751359Y-88040587D01*
X147790891Y-87820853D01*
X147793452Y-87806389D01*
X147893607Y-87167226D01*
X147963590Y-86544072D01*
X148005138Y-85913942D01*
X148019985Y-85253853D01*
X148016997Y-84845328D01*
X148011909Y-84565848D01*
X148006395Y-84343084D01*
X147999132Y-84163200D01*
X147988798Y-84012363D01*
X147974071Y-83876737D01*
X147953628Y-83742489D01*
X147926147Y-83595785D01*
X147890305Y-83422788D01*
X147873464Y-83343750D01*
X147810063Y-83061442D01*
X147744442Y-82802475D01*
X147670660Y-82546719D01*
X147582777Y-82274044D01*
X147474852Y-81964320D01*
X147428322Y-81835398D01*
X147364835Y-81678518D01*
X147274693Y-81479243D01*
X147167082Y-81255953D01*
X147051186Y-81027027D01*
X146936193Y-80810844D01*
X146831286Y-80625784D01*
X146789139Y-80556476D01*
X146359900Y-79923438D01*
X145899865Y-79347729D01*
X145400197Y-78820187D01*
X144852059Y-78331649D01*
X144246613Y-77872952D01*
X144109722Y-77778445D01*
X143709433Y-77523556D01*
X143287178Y-77289413D01*
X142836352Y-77073562D01*
X142350345Y-76873548D01*
X141822549Y-76686915D01*
X141246357Y-76511209D01*
X140615161Y-76343974D01*
X139922352Y-76182755D01*
X139667503Y-76128015D01*
X139462253Y-76087175D01*
X139210461Y-76040787D01*
X138929819Y-75991770D01*
X138638022Y-75943044D01*
X138352762Y-75897528D01*
X138091733Y-75858141D01*
X137872629Y-75827803D01*
X137777361Y-75816141D01*
X137512005Y-75785930D01*
X137302559Y-75762310D01*
X137134821Y-75743988D01*
X136994588Y-75729675D01*
X136867656Y-75718078D01*
X136739824Y-75707907D01*
X136596887Y-75697872D01*
X136424642Y-75686680D01*
X136208887Y-75673041D01*
X136189861Y-75671839D01*
X135891751Y-75657074D01*
X135541080Y-75646448D01*
X135152757Y-75639893D01*
X134741693Y-75637342D01*
X134322798Y-75638729D01*
G36*
X137018889Y-93274444D02*
X134902222Y-93274444D01*
X134902222Y-93045139D01*
X134900676Y-92921874D01*
X134891949Y-92853217D01*
X134869912Y-92823227D01*
X134828432Y-92815965D01*
X134814028Y-92815833D01*
X134743095Y-92834233D01*
X134725834Y-92868750D01*
X134695167Y-92911309D01*
X134637639Y-92921666D01*
X134571314Y-92931851D01*
X134549445Y-92951389D01*
X134521295Y-92985387D01*
X134451209Y-93033387D01*
X134425972Y-93047606D01*
X134347771Y-93095924D01*
X134305141Y-93134330D01*
X134302500Y-93141355D01*
X134273990Y-93165890D01*
X134252103Y-93168611D01*
X134184070Y-93191124D01*
X134154443Y-93212708D01*
X134080354Y-93269164D01*
X133992633Y-93319674D01*
X133914256Y-93352819D01*
X133868196Y-93357181D01*
X133866478Y-93355829D01*
X133847493Y-93363879D01*
X133843889Y-93392037D01*
X133814536Y-93440308D01*
X133755695Y-93450833D01*
X133689393Y-93462681D01*
X133667500Y-93485439D01*
X133637567Y-93518877D01*
X133579306Y-93542180D01*
X133513265Y-93569417D01*
X133491111Y-93595769D01*
X133463837Y-93625974D01*
X133453314Y-93627222D01*
X133396962Y-93648695D01*
X133366344Y-93671319D01*
X133273592Y-93751325D01*
X133215407Y-93791902D01*
X133176545Y-93803595D01*
X133175100Y-93803611D01*
X133147465Y-93833792D01*
X133138334Y-93891805D01*
X133150181Y-93958107D01*
X133172939Y-93980000D01*
X133206377Y-94009933D01*
X133229680Y-94068194D01*
X133256918Y-94134235D01*
X133283269Y-94156389D01*
X133309300Y-94185800D01*
X133314722Y-94223170D01*
X133339277Y-94288900D01*
X133367639Y-94310257D01*
X133407911Y-94357242D01*
X133420556Y-94419865D01*
X133420556Y-94509166D01*
X133032500Y-94509166D01*
X132876568Y-94511703D01*
X132750550Y-94518580D01*
X132668684Y-94528701D01*
X132644445Y-94539083D01*
X132611390Y-94551879D01*
X132521042Y-94565457D01*
X132386626Y-94578313D01*
X132221368Y-94588939D01*
X132195245Y-94590224D01*
X132010754Y-94601697D01*
X131865139Y-94616280D01*
X131769142Y-94632615D01*
X131733694Y-94648502D01*
X131692673Y-94682361D01*
X131671366Y-94685555D01*
X131626135Y-94700652D01*
X131621166Y-94712014D01*
X131592534Y-94746587D01*
X131524317Y-94792645D01*
X131442427Y-94835439D01*
X131372776Y-94860224D01*
X131357721Y-94861944D01*
X131306309Y-94890437D01*
X131290274Y-94917097D01*
X131255319Y-94953574D01*
X131233583Y-94950293D01*
X131203175Y-94958146D01*
X131198056Y-94983334D01*
X131167662Y-95028023D01*
X131109861Y-95038333D01*
X131043563Y-95050409D01*
X131021667Y-95073611D01*
X131050240Y-95104909D01*
X131074584Y-95108889D01*
X131121536Y-95127581D01*
X131127500Y-95143494D01*
X131157434Y-95176932D01*
X131215695Y-95200235D01*
X131281735Y-95227473D01*
X131303889Y-95253824D01*
X131334844Y-95274876D01*
X131410660Y-95285094D01*
X131423587Y-95285278D01*
X131519941Y-95300806D01*
X131563591Y-95338194D01*
X131611445Y-95381771D01*
X131655560Y-95391111D01*
X131713483Y-95405680D01*
X131727222Y-95426389D01*
X131758482Y-95448643D01*
X131836413Y-95460862D01*
X131865814Y-95461666D01*
X131967293Y-95472465D01*
X132041829Y-95499146D01*
X132051022Y-95506246D01*
X132116655Y-95539941D01*
X132213180Y-95561592D01*
X132221111Y-95562417D01*
X132306484Y-95578364D01*
X132354187Y-95602291D01*
X132356343Y-95606032D01*
X132395510Y-95625649D01*
X132479986Y-95636961D01*
X132519604Y-95638055D01*
X132648644Y-95649932D01*
X132771675Y-95679190D01*
X132790067Y-95685984D01*
X132890150Y-95712933D01*
X133026975Y-95733428D01*
X133138334Y-95741496D01*
X133257390Y-95750016D01*
X133344434Y-95764875D01*
X133379398Y-95781762D01*
X133417010Y-95792347D01*
X133515037Y-95801394D01*
X133663344Y-95808416D01*
X133851799Y-95812927D01*
X134060578Y-95814444D01*
X134271513Y-95812907D01*
X134451967Y-95808612D01*
X134592004Y-95802029D01*
X134681686Y-95793632D01*
X134711078Y-95783891D01*
X134710908Y-95783557D01*
X134734469Y-95768005D01*
X134813715Y-95752858D01*
X134933807Y-95740579D01*
X134991821Y-95736924D01*
X135133932Y-95725060D01*
X135250635Y-95707203D01*
X135322612Y-95686595D01*
X135333383Y-95679617D01*
X135391430Y-95654923D01*
X135490782Y-95640034D01*
X135544278Y-95638055D01*
X135642560Y-95631461D01*
X135703656Y-95614667D01*
X135713611Y-95602778D01*
X135744497Y-95578935D01*
X135819903Y-95567641D01*
X135830341Y-95567500D01*
X135934054Y-95551960D01*
X136015549Y-95515705D01*
X136099837Y-95478153D01*
X136198681Y-95462788D01*
X136276737Y-95452528D01*
X136313010Y-95429046D01*
X136313334Y-95426389D01*
X136343304Y-95399103D01*
X136394785Y-95391111D01*
X136488792Y-95369765D01*
X136544716Y-95339316D01*
X136632639Y-95297050D01*
X136692570Y-95286399D01*
X136754551Y-95272220D01*
X136771945Y-95250000D01*
X136800308Y-95218229D01*
X136822002Y-95214722D01*
X136884907Y-95198889D01*
X136972825Y-95160739D01*
X137057991Y-95114297D01*
X137112639Y-95073586D01*
X137118843Y-95064791D01*
X137159287Y-95042211D01*
X137193898Y-95038333D01*
X137269140Y-95012831D01*
X137301111Y-94985416D01*
X137361173Y-94940587D01*
X137393625Y-94932500D01*
X137437760Y-94914174D01*
X137442222Y-94901046D01*
X137472120Y-94869990D01*
X137530417Y-94847458D01*
X137596489Y-94819129D01*
X137618611Y-94790716D01*
X137647195Y-94760012D01*
X137671528Y-94756111D01*
X137718504Y-94739094D01*
X137724445Y-94724657D01*
X137754342Y-94693601D01*
X137812639Y-94671069D01*
X137878711Y-94642740D01*
X137900834Y-94614328D01*
X137928026Y-94581117D01*
X137938631Y-94579722D01*
X137994983Y-94558249D01*
X138025601Y-94535625D01*
X138118353Y-94455619D01*
X138176538Y-94415042D01*
X138215400Y-94403349D01*
X138216845Y-94403333D01*
X138252352Y-94382830D01*
X138253611Y-94375661D01*
X138281024Y-94341210D01*
X138348464Y-94292210D01*
X138363188Y-94283261D01*
X138440709Y-94226938D01*
X138545994Y-94136887D01*
X138658525Y-94030832D01*
X138678302Y-94011072D01*
X138777441Y-93915324D01*
X138860516Y-93842960D01*
X138913434Y-93806000D01*
X138921503Y-93803611D01*
X138957451Y-93776383D01*
X138959167Y-93764834D01*
X138982790Y-93722377D01*
X139044839Y-93647728D01*
X139132080Y-93556752D01*
X139135556Y-93553342D01*
X139223499Y-93461838D01*
X139286701Y-93385790D01*
X139311913Y-93341194D01*
X139311945Y-93340400D01*
X139335780Y-93290878D01*
X139393798Y-93224419D01*
X139400139Y-93218438D01*
X139459744Y-93157419D01*
X139487981Y-93117140D01*
X139488334Y-93114859D01*
X139514257Y-93068196D01*
X139570408Y-93017788D01*
X139624360Y-92992330D01*
X139626925Y-92992222D01*
X139656957Y-92962499D01*
X139664722Y-92916892D01*
X139689526Y-92841664D01*
X139749552Y-92763000D01*
X139752917Y-92759827D01*
X139813482Y-92688696D01*
X139840963Y-92626799D01*
X139841111Y-92623490D01*
X139859647Y-92575472D01*
X139876389Y-92568889D01*
X139907687Y-92540315D01*
X139911667Y-92515972D01*
X139939906Y-92469202D01*
X139964584Y-92463055D01*
X140007143Y-92432388D01*
X140017500Y-92374861D01*
X140029576Y-92308563D01*
X140052778Y-92286666D01*
X140081292Y-92257072D01*
X140088056Y-92215004D01*
X140111044Y-92147168D01*
X140140972Y-92123035D01*
X140182092Y-92075821D01*
X140193889Y-92018309D01*
X140206064Y-91953833D01*
X140228060Y-91933889D01*
X140247470Y-91959747D01*
X140241924Y-91986805D01*
X140242236Y-92032177D01*
X140258010Y-92039722D01*
X140278946Y-92008728D01*
X140280500Y-91929215D01*
X140278972Y-91915316D01*
X140278572Y-91818787D01*
X140311062Y-91772991D01*
X140316910Y-91770430D01*
X140358384Y-91723072D01*
X140370278Y-91665531D01*
X140382844Y-91601061D01*
X140405556Y-91581111D01*
X140432355Y-91551000D01*
X140440834Y-91495436D01*
X140461955Y-91405946D01*
X140493750Y-91356845D01*
X140529778Y-91286899D01*
X140546518Y-91187552D01*
X140546667Y-91177936D01*
X140555363Y-91095329D01*
X140576798Y-91053291D01*
X140581945Y-91051944D01*
X140608743Y-91021833D01*
X140617222Y-90966270D01*
X140638344Y-90876779D01*
X140670139Y-90827678D01*
X140706133Y-90753755D01*
X140722648Y-90636517D01*
X140723056Y-90613492D01*
X140729083Y-90517936D01*
X140744357Y-90460104D01*
X140753845Y-90452222D01*
X140774154Y-90420446D01*
X140793164Y-90338878D01*
X140802288Y-90268505D01*
X140819237Y-90162478D01*
X140843540Y-90089894D01*
X140859693Y-90071537D01*
X140880795Y-90028843D01*
X140894181Y-89919963D01*
X140899391Y-89748890D01*
X140899445Y-89726088D01*
X140899445Y-89393889D01*
X137018889Y-89393889D01*
X137018889Y-93274444D01*
X137018889Y-93274444D01*
G37*
X137018889Y-93274444D02*
X134902222Y-93274444D01*
X134902222Y-93045139D01*
X134900676Y-92921874D01*
X134891949Y-92853217D01*
X134869912Y-92823227D01*
X134828432Y-92815965D01*
X134814028Y-92815833D01*
X134743095Y-92834233D01*
X134725834Y-92868750D01*
X134695167Y-92911309D01*
X134637639Y-92921666D01*
X134571314Y-92931851D01*
X134549445Y-92951389D01*
X134521295Y-92985387D01*
X134451209Y-93033387D01*
X134425972Y-93047606D01*
X134347771Y-93095924D01*
X134305141Y-93134330D01*
X134302500Y-93141355D01*
X134273990Y-93165890D01*
X134252103Y-93168611D01*
X134184070Y-93191124D01*
X134154443Y-93212708D01*
X134080354Y-93269164D01*
X133992633Y-93319674D01*
X133914256Y-93352819D01*
X133868196Y-93357181D01*
X133866478Y-93355829D01*
X133847493Y-93363879D01*
X133843889Y-93392037D01*
X133814536Y-93440308D01*
X133755695Y-93450833D01*
X133689393Y-93462681D01*
X133667500Y-93485439D01*
X133637567Y-93518877D01*
X133579306Y-93542180D01*
X133513265Y-93569417D01*
X133491111Y-93595769D01*
X133463837Y-93625974D01*
X133453314Y-93627222D01*
X133396962Y-93648695D01*
X133366344Y-93671319D01*
X133273592Y-93751325D01*
X133215407Y-93791902D01*
X133176545Y-93803595D01*
X133175100Y-93803611D01*
X133147465Y-93833792D01*
X133138334Y-93891805D01*
X133150181Y-93958107D01*
X133172939Y-93980000D01*
X133206377Y-94009933D01*
X133229680Y-94068194D01*
X133256918Y-94134235D01*
X133283269Y-94156389D01*
X133309300Y-94185800D01*
X133314722Y-94223170D01*
X133339277Y-94288900D01*
X133367639Y-94310257D01*
X133407911Y-94357242D01*
X133420556Y-94419865D01*
X133420556Y-94509166D01*
X133032500Y-94509166D01*
X132876568Y-94511703D01*
X132750550Y-94518580D01*
X132668684Y-94528701D01*
X132644445Y-94539083D01*
X132611390Y-94551879D01*
X132521042Y-94565457D01*
X132386626Y-94578313D01*
X132221368Y-94588939D01*
X132195245Y-94590224D01*
X132010754Y-94601697D01*
X131865139Y-94616280D01*
X131769142Y-94632615D01*
X131733694Y-94648502D01*
X131692673Y-94682361D01*
X131671366Y-94685555D01*
X131626135Y-94700652D01*
X131621166Y-94712014D01*
X131592534Y-94746587D01*
X131524317Y-94792645D01*
X131442427Y-94835439D01*
X131372776Y-94860224D01*
X131357721Y-94861944D01*
X131306309Y-94890437D01*
X131290274Y-94917097D01*
X131255319Y-94953574D01*
X131233583Y-94950293D01*
X131203175Y-94958146D01*
X131198056Y-94983334D01*
X131167662Y-95028023D01*
X131109861Y-95038333D01*
X131043563Y-95050409D01*
X131021667Y-95073611D01*
X131050240Y-95104909D01*
X131074584Y-95108889D01*
X131121536Y-95127581D01*
X131127500Y-95143494D01*
X131157434Y-95176932D01*
X131215695Y-95200235D01*
X131281735Y-95227473D01*
X131303889Y-95253824D01*
X131334844Y-95274876D01*
X131410660Y-95285094D01*
X131423587Y-95285278D01*
X131519941Y-95300806D01*
X131563591Y-95338194D01*
X131611445Y-95381771D01*
X131655560Y-95391111D01*
X131713483Y-95405680D01*
X131727222Y-95426389D01*
X131758482Y-95448643D01*
X131836413Y-95460862D01*
X131865814Y-95461666D01*
X131967293Y-95472465D01*
X132041829Y-95499146D01*
X132051022Y-95506246D01*
X132116655Y-95539941D01*
X132213180Y-95561592D01*
X132221111Y-95562417D01*
X132306484Y-95578364D01*
X132354187Y-95602291D01*
X132356343Y-95606032D01*
X132395510Y-95625649D01*
X132479986Y-95636961D01*
X132519604Y-95638055D01*
X132648644Y-95649932D01*
X132771675Y-95679190D01*
X132790067Y-95685984D01*
X132890150Y-95712933D01*
X133026975Y-95733428D01*
X133138334Y-95741496D01*
X133257390Y-95750016D01*
X133344434Y-95764875D01*
X133379398Y-95781762D01*
X133417010Y-95792347D01*
X133515037Y-95801394D01*
X133663344Y-95808416D01*
X133851799Y-95812927D01*
X134060578Y-95814444D01*
X134271513Y-95812907D01*
X134451967Y-95808612D01*
X134592004Y-95802029D01*
X134681686Y-95793632D01*
X134711078Y-95783891D01*
X134710908Y-95783557D01*
X134734469Y-95768005D01*
X134813715Y-95752858D01*
X134933807Y-95740579D01*
X134991821Y-95736924D01*
X135133932Y-95725060D01*
X135250635Y-95707203D01*
X135322612Y-95686595D01*
X135333383Y-95679617D01*
X135391430Y-95654923D01*
X135490782Y-95640034D01*
X135544278Y-95638055D01*
X135642560Y-95631461D01*
X135703656Y-95614667D01*
X135713611Y-95602778D01*
X135744497Y-95578935D01*
X135819903Y-95567641D01*
X135830341Y-95567500D01*
X135934054Y-95551960D01*
X136015549Y-95515705D01*
X136099837Y-95478153D01*
X136198681Y-95462788D01*
X136276737Y-95452528D01*
X136313010Y-95429046D01*
X136313334Y-95426389D01*
X136343304Y-95399103D01*
X136394785Y-95391111D01*
X136488792Y-95369765D01*
X136544716Y-95339316D01*
X136632639Y-95297050D01*
X136692570Y-95286399D01*
X136754551Y-95272220D01*
X136771945Y-95250000D01*
X136800308Y-95218229D01*
X136822002Y-95214722D01*
X136884907Y-95198889D01*
X136972825Y-95160739D01*
X137057991Y-95114297D01*
X137112639Y-95073586D01*
X137118843Y-95064791D01*
X137159287Y-95042211D01*
X137193898Y-95038333D01*
X137269140Y-95012831D01*
X137301111Y-94985416D01*
X137361173Y-94940587D01*
X137393625Y-94932500D01*
X137437760Y-94914174D01*
X137442222Y-94901046D01*
X137472120Y-94869990D01*
X137530417Y-94847458D01*
X137596489Y-94819129D01*
X137618611Y-94790716D01*
X137647195Y-94760012D01*
X137671528Y-94756111D01*
X137718504Y-94739094D01*
X137724445Y-94724657D01*
X137754342Y-94693601D01*
X137812639Y-94671069D01*
X137878711Y-94642740D01*
X137900834Y-94614328D01*
X137928026Y-94581117D01*
X137938631Y-94579722D01*
X137994983Y-94558249D01*
X138025601Y-94535625D01*
X138118353Y-94455619D01*
X138176538Y-94415042D01*
X138215400Y-94403349D01*
X138216845Y-94403333D01*
X138252352Y-94382830D01*
X138253611Y-94375661D01*
X138281024Y-94341210D01*
X138348464Y-94292210D01*
X138363188Y-94283261D01*
X138440709Y-94226938D01*
X138545994Y-94136887D01*
X138658525Y-94030832D01*
X138678302Y-94011072D01*
X138777441Y-93915324D01*
X138860516Y-93842960D01*
X138913434Y-93806000D01*
X138921503Y-93803611D01*
X138957451Y-93776383D01*
X138959167Y-93764834D01*
X138982790Y-93722377D01*
X139044839Y-93647728D01*
X139132080Y-93556752D01*
X139135556Y-93553342D01*
X139223499Y-93461838D01*
X139286701Y-93385790D01*
X139311913Y-93341194D01*
X139311945Y-93340400D01*
X139335780Y-93290878D01*
X139393798Y-93224419D01*
X139400139Y-93218438D01*
X139459744Y-93157419D01*
X139487981Y-93117140D01*
X139488334Y-93114859D01*
X139514257Y-93068196D01*
X139570408Y-93017788D01*
X139624360Y-92992330D01*
X139626925Y-92992222D01*
X139656957Y-92962499D01*
X139664722Y-92916892D01*
X139689526Y-92841664D01*
X139749552Y-92763000D01*
X139752917Y-92759827D01*
X139813482Y-92688696D01*
X139840963Y-92626799D01*
X139841111Y-92623490D01*
X139859647Y-92575472D01*
X139876389Y-92568889D01*
X139907687Y-92540315D01*
X139911667Y-92515972D01*
X139939906Y-92469202D01*
X139964584Y-92463055D01*
X140007143Y-92432388D01*
X140017500Y-92374861D01*
X140029576Y-92308563D01*
X140052778Y-92286666D01*
X140081292Y-92257072D01*
X140088056Y-92215004D01*
X140111044Y-92147168D01*
X140140972Y-92123035D01*
X140182092Y-92075821D01*
X140193889Y-92018309D01*
X140206064Y-91953833D01*
X140228060Y-91933889D01*
X140247470Y-91959747D01*
X140241924Y-91986805D01*
X140242236Y-92032177D01*
X140258010Y-92039722D01*
X140278946Y-92008728D01*
X140280500Y-91929215D01*
X140278972Y-91915316D01*
X140278572Y-91818787D01*
X140311062Y-91772991D01*
X140316910Y-91770430D01*
X140358384Y-91723072D01*
X140370278Y-91665531D01*
X140382844Y-91601061D01*
X140405556Y-91581111D01*
X140432355Y-91551000D01*
X140440834Y-91495436D01*
X140461955Y-91405946D01*
X140493750Y-91356845D01*
X140529778Y-91286899D01*
X140546518Y-91187552D01*
X140546667Y-91177936D01*
X140555363Y-91095329D01*
X140576798Y-91053291D01*
X140581945Y-91051944D01*
X140608743Y-91021833D01*
X140617222Y-90966270D01*
X140638344Y-90876779D01*
X140670139Y-90827678D01*
X140706133Y-90753755D01*
X140722648Y-90636517D01*
X140723056Y-90613492D01*
X140729083Y-90517936D01*
X140744357Y-90460104D01*
X140753845Y-90452222D01*
X140774154Y-90420446D01*
X140793164Y-90338878D01*
X140802288Y-90268505D01*
X140819237Y-90162478D01*
X140843540Y-90089894D01*
X140859693Y-90071537D01*
X140880795Y-90028843D01*
X140894181Y-89919963D01*
X140899391Y-89748890D01*
X140899445Y-89726088D01*
X140899445Y-89393889D01*
X137018889Y-89393889D01*
X137018889Y-93274444D01*
G36*
X129893625Y-83245513D02*
X129826401Y-83290673D01*
X129758105Y-83352569D01*
X129696389Y-83390813D01*
X129669326Y-83396666D01*
X129620224Y-83422470D01*
X129561569Y-83484197D01*
X129507187Y-83539631D01*
X129466098Y-83553273D01*
X129465002Y-83552671D01*
X129436324Y-83560209D01*
X129434167Y-83573493D01*
X129407565Y-83634806D01*
X129348940Y-83692313D01*
X129295576Y-83714166D01*
X129259304Y-83739249D01*
X129257778Y-83749041D01*
X129236782Y-83803073D01*
X129189030Y-83861895D01*
X129137379Y-83901434D01*
X129110374Y-83904305D01*
X129083674Y-83913511D01*
X129081389Y-83928405D01*
X129057504Y-83975695D01*
X128996896Y-84047948D01*
X128957917Y-84086868D01*
X128885262Y-84162646D01*
X128840883Y-84222920D01*
X128834445Y-84240964D01*
X128805909Y-84274349D01*
X128781528Y-84278611D01*
X128738433Y-84308022D01*
X128728611Y-84349166D01*
X128713838Y-84406492D01*
X128693334Y-84419722D01*
X128662036Y-84448295D01*
X128658056Y-84472639D01*
X128629817Y-84519409D01*
X128605139Y-84525555D01*
X128558205Y-84545392D01*
X128552222Y-84562322D01*
X128541518Y-84600703D01*
X128502374Y-84657763D01*
X128424248Y-84748746D01*
X128419931Y-84753565D01*
X128382122Y-84814131D01*
X128375834Y-84840535D01*
X128353137Y-84876833D01*
X128344380Y-84878333D01*
X128313458Y-84908264D01*
X128290429Y-84967970D01*
X128263053Y-85026729D01*
X128233688Y-85036444D01*
X128204716Y-85045490D01*
X128199445Y-85072799D01*
X128177005Y-85147876D01*
X128155347Y-85179490D01*
X128077110Y-85271089D01*
X128037189Y-85333401D01*
X128023718Y-85386741D01*
X128023056Y-85406011D01*
X128010114Y-85464163D01*
X127991602Y-85478055D01*
X127960546Y-85507953D01*
X127938014Y-85566250D01*
X127909685Y-85632322D01*
X127881273Y-85654444D01*
X127855257Y-85684638D01*
X127846667Y-85742639D01*
X127835892Y-85808956D01*
X127815214Y-85830833D01*
X127784157Y-85860731D01*
X127761625Y-85919028D01*
X127733297Y-85985099D01*
X127704884Y-86007222D01*
X127680585Y-86037880D01*
X127670281Y-86111747D01*
X127670278Y-86113055D01*
X127660060Y-86187364D01*
X127635439Y-86218880D01*
X127635000Y-86218889D01*
X127608202Y-86249000D01*
X127599722Y-86304563D01*
X127578601Y-86394053D01*
X127546806Y-86443154D01*
X127508400Y-86515565D01*
X127493889Y-86604424D01*
X127483890Y-86679815D01*
X127459719Y-86712724D01*
X127458611Y-86712778D01*
X127436520Y-86744074D01*
X127424233Y-86822257D01*
X127423334Y-86853889D01*
X127414596Y-86952007D01*
X127385630Y-86992439D01*
X127370417Y-86995000D01*
X127339504Y-87011432D01*
X127323013Y-87069597D01*
X127317572Y-87182792D01*
X127317500Y-87203727D01*
X127312329Y-87316913D01*
X127298918Y-87397373D01*
X127284193Y-87424213D01*
X127265815Y-87462811D01*
X127250794Y-87551881D01*
X127243003Y-87659850D01*
X127231167Y-87792925D01*
X127208596Y-87892174D01*
X127188117Y-87930733D01*
X127173680Y-87978701D01*
X127161593Y-88083512D01*
X127151917Y-88233293D01*
X127144714Y-88416176D01*
X127140045Y-88620288D01*
X127137973Y-88833760D01*
X127138560Y-89044720D01*
X127141866Y-89241299D01*
X127147955Y-89411625D01*
X127156887Y-89543828D01*
X127168724Y-89626037D01*
X127179184Y-89647644D01*
X127198969Y-89686303D01*
X127218222Y-89778039D01*
X127233609Y-89905427D01*
X127237142Y-89950445D01*
X127249647Y-90083464D01*
X127265583Y-90184375D01*
X127282110Y-90236734D01*
X127287263Y-90240555D01*
X127304514Y-90272291D01*
X127315461Y-90353432D01*
X127317500Y-90416944D01*
X127323771Y-90517565D01*
X127339804Y-90581430D01*
X127352361Y-90593333D01*
X127379142Y-90624514D01*
X127403759Y-90702444D01*
X127409787Y-90734444D01*
X127430684Y-90822640D01*
X127455537Y-90871856D01*
X127463120Y-90875555D01*
X127483298Y-90906625D01*
X127493562Y-90983210D01*
X127493889Y-91001547D01*
X127508135Y-91101573D01*
X127542830Y-91176125D01*
X127546806Y-91180456D01*
X127589034Y-91256880D01*
X127599722Y-91319047D01*
X127612121Y-91384130D01*
X127635000Y-91404722D01*
X127658607Y-91435665D01*
X127670071Y-91511454D01*
X127670278Y-91524420D01*
X127685807Y-91620774D01*
X127723195Y-91664424D01*
X127766772Y-91712277D01*
X127776111Y-91756393D01*
X127790680Y-91814316D01*
X127811389Y-91828055D01*
X127838330Y-91858126D01*
X127846667Y-91912475D01*
X127866371Y-91985636D01*
X127899584Y-92017202D01*
X127943161Y-92065055D01*
X127952500Y-92109170D01*
X127967069Y-92167094D01*
X127987778Y-92180833D01*
X128016216Y-92210452D01*
X128023056Y-92253073D01*
X128047773Y-92326007D01*
X128107623Y-92403627D01*
X128111250Y-92407049D01*
X128172414Y-92484919D01*
X128199381Y-92561181D01*
X128199445Y-92564114D01*
X128220409Y-92625292D01*
X128252361Y-92639444D01*
X128299132Y-92667683D01*
X128305278Y-92692361D01*
X128324327Y-92739307D01*
X128340556Y-92745278D01*
X128371580Y-92773966D01*
X128375834Y-92799879D01*
X128400064Y-92859830D01*
X128458904Y-92931375D01*
X128464028Y-92936216D01*
X128523724Y-92998160D01*
X128551893Y-93040421D01*
X128552222Y-93042884D01*
X128573080Y-93087306D01*
X128596320Y-93116990D01*
X128676325Y-93209741D01*
X128716902Y-93267927D01*
X128728595Y-93306788D01*
X128728611Y-93308233D01*
X128757161Y-93340843D01*
X128781528Y-93345000D01*
X128828473Y-93364148D01*
X128834445Y-93380465D01*
X128858023Y-93414728D01*
X128921977Y-93487768D01*
X129016136Y-93589224D01*
X129130329Y-93708736D01*
X129254385Y-93835942D01*
X129378132Y-93960483D01*
X129491400Y-94071997D01*
X129584018Y-94160124D01*
X129645814Y-94214503D01*
X129665429Y-94226944D01*
X129713001Y-94253786D01*
X129762559Y-94312787D01*
X129787368Y-94371659D01*
X129787485Y-94374355D01*
X129796798Y-94398402D01*
X129822222Y-94368055D01*
X129850748Y-94339352D01*
X129856960Y-94359236D01*
X129887532Y-94392374D01*
X129945695Y-94403333D01*
X130012012Y-94392558D01*
X130033889Y-94371880D01*
X130063787Y-94340823D01*
X130122084Y-94318291D01*
X130188156Y-94289963D01*
X130210278Y-94261550D01*
X130238862Y-94230845D01*
X130263195Y-94226944D01*
X130310171Y-94209927D01*
X130316111Y-94195491D01*
X130346009Y-94164434D01*
X130404306Y-94141902D01*
X130470378Y-94113574D01*
X130492500Y-94085161D01*
X130522119Y-94057244D01*
X130564595Y-94050555D01*
X130637956Y-94027490D01*
X130722043Y-93971085D01*
X130731804Y-93962361D01*
X130806148Y-93903864D01*
X130865082Y-93874855D01*
X130871376Y-93874166D01*
X130912644Y-93854382D01*
X130915834Y-93842713D01*
X130945731Y-93811657D01*
X131004028Y-93789124D01*
X131070100Y-93760796D01*
X131092222Y-93732383D01*
X131119415Y-93699173D01*
X131130020Y-93697778D01*
X131189866Y-93671056D01*
X131246703Y-93612405D01*
X131268611Y-93559186D01*
X131297145Y-93525668D01*
X131321528Y-93521389D01*
X131364503Y-93491545D01*
X131374445Y-93446059D01*
X131399248Y-93370830D01*
X131459274Y-93292167D01*
X131462639Y-93288993D01*
X131523204Y-93217863D01*
X131550685Y-93155966D01*
X131550834Y-93152656D01*
X131567390Y-93104610D01*
X131582287Y-93098055D01*
X131613343Y-93068158D01*
X131635876Y-93009861D01*
X131664204Y-92943789D01*
X131692617Y-92921666D01*
X131723322Y-92893083D01*
X131727222Y-92868750D01*
X131744240Y-92821774D01*
X131758676Y-92815833D01*
X131789732Y-92785935D01*
X131812265Y-92727639D01*
X131840593Y-92661567D01*
X131869006Y-92639444D01*
X131899711Y-92610860D01*
X131903611Y-92586528D01*
X131922660Y-92539581D01*
X131938889Y-92533611D01*
X131967552Y-92504064D01*
X131974167Y-92463055D01*
X131996225Y-92405595D01*
X132027084Y-92392500D01*
X132073854Y-92364261D01*
X132080000Y-92339583D01*
X132100381Y-92292658D01*
X132117798Y-92286666D01*
X132181912Y-92315569D01*
X132237006Y-92381574D01*
X132256389Y-92444581D01*
X132280689Y-92506375D01*
X132339673Y-92578799D01*
X132344584Y-92583438D01*
X132405747Y-92661308D01*
X132432714Y-92737570D01*
X132432778Y-92740503D01*
X132452421Y-92800293D01*
X132482755Y-92815833D01*
X132541380Y-92842812D01*
X132553310Y-92859930D01*
X132576478Y-92885874D01*
X132594468Y-92859930D01*
X132635016Y-92819198D01*
X132649904Y-92815833D01*
X132703509Y-92794502D01*
X132733935Y-92771736D01*
X132825550Y-92693101D01*
X132885737Y-92652979D01*
X132932823Y-92639856D01*
X132944501Y-92639444D01*
X133005541Y-92615173D01*
X133077606Y-92556247D01*
X133082327Y-92551250D01*
X133160197Y-92490086D01*
X133236459Y-92463119D01*
X133239393Y-92463055D01*
X133299266Y-92449388D01*
X133314722Y-92428450D01*
X133344656Y-92395012D01*
X133402917Y-92371709D01*
X133468957Y-92344471D01*
X133491111Y-92318120D01*
X133518386Y-92287914D01*
X133528909Y-92286666D01*
X133585261Y-92265194D01*
X133615879Y-92242569D01*
X133707494Y-92163934D01*
X133767682Y-92123812D01*
X133814767Y-92110689D01*
X133826446Y-92110278D01*
X133887485Y-92086006D01*
X133959550Y-92027081D01*
X133964272Y-92022083D01*
X134042141Y-91960919D01*
X134118404Y-91933952D01*
X134121337Y-91933889D01*
X134181210Y-91920222D01*
X134196667Y-91899283D01*
X134226600Y-91865845D01*
X134284861Y-91842542D01*
X134350902Y-91815304D01*
X134373056Y-91788953D01*
X134400205Y-91758598D01*
X134409823Y-91757500D01*
X134448203Y-91746795D01*
X134505264Y-91707651D01*
X134596247Y-91629525D01*
X134601066Y-91625208D01*
X134671872Y-91586892D01*
X134705675Y-91581111D01*
X134770286Y-91557674D01*
X134831667Y-91510555D01*
X134844823Y-91495972D01*
X134856233Y-91477153D01*
X134866021Y-91449284D01*
X134874312Y-91407554D01*
X134881231Y-91347147D01*
X134886900Y-91263251D01*
X134891445Y-91151052D01*
X134894989Y-91005737D01*
X134897657Y-90822493D01*
X134899573Y-90596505D01*
X134900862Y-90322961D01*
X134901646Y-89997048D01*
X134902052Y-89613951D01*
X134902202Y-89168858D01*
X134902222Y-88776528D01*
X134902222Y-86113055D01*
X134814028Y-86113055D01*
X134747727Y-86101208D01*
X134725834Y-86078450D01*
X134695906Y-86044986D01*
X134637883Y-86021770D01*
X134579429Y-85995246D01*
X134569409Y-85968181D01*
X134556622Y-85943310D01*
X134516249Y-85936666D01*
X134457798Y-85922545D01*
X134443611Y-85902061D01*
X134413678Y-85868623D01*
X134355417Y-85845320D01*
X134289447Y-85820354D01*
X134267222Y-85798315D01*
X134237763Y-85770679D01*
X134164835Y-85733638D01*
X134143750Y-85725000D01*
X134063558Y-85682361D01*
X134021923Y-85638403D01*
X134020278Y-85630221D01*
X133990010Y-85595066D01*
X133932084Y-85583889D01*
X133865782Y-85572041D01*
X133843889Y-85549283D01*
X133813956Y-85515845D01*
X133755695Y-85492542D01*
X133689654Y-85465304D01*
X133667500Y-85438953D01*
X133638871Y-85411031D01*
X133614584Y-85407500D01*
X133567632Y-85388807D01*
X133561667Y-85372894D01*
X133531734Y-85339456D01*
X133473472Y-85316153D01*
X133407432Y-85288915D01*
X133385278Y-85262564D01*
X133355698Y-85236998D01*
X133314722Y-85231111D01*
X133257397Y-85216337D01*
X133244167Y-85195833D01*
X133215593Y-85164535D01*
X133191250Y-85160555D01*
X133144480Y-85132317D01*
X133138334Y-85107639D01*
X133107667Y-85065079D01*
X133050139Y-85054722D01*
X132983838Y-85042874D01*
X132961945Y-85020116D01*
X132932011Y-84986678D01*
X132873750Y-84963375D01*
X132807710Y-84936138D01*
X132785556Y-84909786D01*
X132756926Y-84881864D01*
X132732639Y-84878333D01*
X132685687Y-84859640D01*
X132679722Y-84843727D01*
X132649789Y-84810289D01*
X132591528Y-84786986D01*
X132525488Y-84759749D01*
X132503334Y-84733398D01*
X132473753Y-84707831D01*
X132432778Y-84701944D01*
X132375453Y-84687171D01*
X132362222Y-84666666D01*
X132333930Y-84634742D01*
X132313080Y-84631389D01*
X132258620Y-84602933D01*
X132243632Y-84578472D01*
X132195778Y-84534895D01*
X132151663Y-84525555D01*
X132093735Y-84511261D01*
X132080000Y-84490950D01*
X132050067Y-84457512D01*
X131991806Y-84434209D01*
X131925765Y-84406971D01*
X131903611Y-84380620D01*
X131874982Y-84352698D01*
X131850695Y-84349166D01*
X131803743Y-84330474D01*
X131797778Y-84314561D01*
X131767845Y-84281123D01*
X131709584Y-84257820D01*
X131643543Y-84230582D01*
X131621389Y-84204231D01*
X131591809Y-84178665D01*
X131550834Y-84172778D01*
X131493508Y-84158004D01*
X131480278Y-84137500D01*
X131451705Y-84106202D01*
X131427361Y-84102222D01*
X131380591Y-84073983D01*
X131374445Y-84049305D01*
X131343778Y-84006746D01*
X131286250Y-83996389D01*
X131219952Y-83984313D01*
X131198056Y-83961111D01*
X131169666Y-83929397D01*
X131147659Y-83925833D01*
X131081397Y-83902607D01*
X131049000Y-83877571D01*
X130975660Y-83827199D01*
X130923008Y-83804638D01*
X130862307Y-83772963D01*
X130845278Y-83747067D01*
X130816669Y-83717867D01*
X130792361Y-83714166D01*
X130745415Y-83695117D01*
X130739445Y-83678889D01*
X130711081Y-83647118D01*
X130689387Y-83643611D01*
X130627099Y-83627544D01*
X130545095Y-83589006D01*
X130469206Y-83542490D01*
X130425264Y-83502490D01*
X130422168Y-83493680D01*
X130393252Y-83470170D01*
X130369028Y-83467222D01*
X130322081Y-83448173D01*
X130316111Y-83431944D01*
X130287722Y-83400230D01*
X130265715Y-83396666D01*
X130197959Y-83373913D01*
X130168701Y-83352158D01*
X130103079Y-83305755D01*
X130021121Y-83262921D01*
X129951133Y-83238784D01*
X129893625Y-83245513D01*
X129893625Y-83245513D01*
G37*
X129893625Y-83245513D02*
X129826401Y-83290673D01*
X129758105Y-83352569D01*
X129696389Y-83390813D01*
X129669326Y-83396666D01*
X129620224Y-83422470D01*
X129561569Y-83484197D01*
X129507187Y-83539631D01*
X129466098Y-83553273D01*
X129465002Y-83552671D01*
X129436324Y-83560209D01*
X129434167Y-83573493D01*
X129407565Y-83634806D01*
X129348940Y-83692313D01*
X129295576Y-83714166D01*
X129259304Y-83739249D01*
X129257778Y-83749041D01*
X129236782Y-83803073D01*
X129189030Y-83861895D01*
X129137379Y-83901434D01*
X129110374Y-83904305D01*
X129083674Y-83913511D01*
X129081389Y-83928405D01*
X129057504Y-83975695D01*
X128996896Y-84047948D01*
X128957917Y-84086868D01*
X128885262Y-84162646D01*
X128840883Y-84222920D01*
X128834445Y-84240964D01*
X128805909Y-84274349D01*
X128781528Y-84278611D01*
X128738433Y-84308022D01*
X128728611Y-84349166D01*
X128713838Y-84406492D01*
X128693334Y-84419722D01*
X128662036Y-84448295D01*
X128658056Y-84472639D01*
X128629817Y-84519409D01*
X128605139Y-84525555D01*
X128558205Y-84545392D01*
X128552222Y-84562322D01*
X128541518Y-84600703D01*
X128502374Y-84657763D01*
X128424248Y-84748746D01*
X128419931Y-84753565D01*
X128382122Y-84814131D01*
X128375834Y-84840535D01*
X128353137Y-84876833D01*
X128344380Y-84878333D01*
X128313458Y-84908264D01*
X128290429Y-84967970D01*
X128263053Y-85026729D01*
X128233688Y-85036444D01*
X128204716Y-85045490D01*
X128199445Y-85072799D01*
X128177005Y-85147876D01*
X128155347Y-85179490D01*
X128077110Y-85271089D01*
X128037189Y-85333401D01*
X128023718Y-85386741D01*
X128023056Y-85406011D01*
X128010114Y-85464163D01*
X127991602Y-85478055D01*
X127960546Y-85507953D01*
X127938014Y-85566250D01*
X127909685Y-85632322D01*
X127881273Y-85654444D01*
X127855257Y-85684638D01*
X127846667Y-85742639D01*
X127835892Y-85808956D01*
X127815214Y-85830833D01*
X127784157Y-85860731D01*
X127761625Y-85919028D01*
X127733297Y-85985099D01*
X127704884Y-86007222D01*
X127680585Y-86037880D01*
X127670281Y-86111747D01*
X127670278Y-86113055D01*
X127660060Y-86187364D01*
X127635439Y-86218880D01*
X127635000Y-86218889D01*
X127608202Y-86249000D01*
X127599722Y-86304563D01*
X127578601Y-86394053D01*
X127546806Y-86443154D01*
X127508400Y-86515565D01*
X127493889Y-86604424D01*
X127483890Y-86679815D01*
X127459719Y-86712724D01*
X127458611Y-86712778D01*
X127436520Y-86744074D01*
X127424233Y-86822257D01*
X127423334Y-86853889D01*
X127414596Y-86952007D01*
X127385630Y-86992439D01*
X127370417Y-86995000D01*
X127339504Y-87011432D01*
X127323013Y-87069597D01*
X127317572Y-87182792D01*
X127317500Y-87203727D01*
X127312329Y-87316913D01*
X127298918Y-87397373D01*
X127284193Y-87424213D01*
X127265815Y-87462811D01*
X127250794Y-87551881D01*
X127243003Y-87659850D01*
X127231167Y-87792925D01*
X127208596Y-87892174D01*
X127188117Y-87930733D01*
X127173680Y-87978701D01*
X127161593Y-88083512D01*
X127151917Y-88233293D01*
X127144714Y-88416176D01*
X127140045Y-88620288D01*
X127137973Y-88833760D01*
X127138560Y-89044720D01*
X127141866Y-89241299D01*
X127147955Y-89411625D01*
X127156887Y-89543828D01*
X127168724Y-89626037D01*
X127179184Y-89647644D01*
X127198969Y-89686303D01*
X127218222Y-89778039D01*
X127233609Y-89905427D01*
X127237142Y-89950445D01*
X127249647Y-90083464D01*
X127265583Y-90184375D01*
X127282110Y-90236734D01*
X127287263Y-90240555D01*
X127304514Y-90272291D01*
X127315461Y-90353432D01*
X127317500Y-90416944D01*
X127323771Y-90517565D01*
X127339804Y-90581430D01*
X127352361Y-90593333D01*
X127379142Y-90624514D01*
X127403759Y-90702444D01*
X127409787Y-90734444D01*
X127430684Y-90822640D01*
X127455537Y-90871856D01*
X127463120Y-90875555D01*
X127483298Y-90906625D01*
X127493562Y-90983210D01*
X127493889Y-91001547D01*
X127508135Y-91101573D01*
X127542830Y-91176125D01*
X127546806Y-91180456D01*
X127589034Y-91256880D01*
X127599722Y-91319047D01*
X127612121Y-91384130D01*
X127635000Y-91404722D01*
X127658607Y-91435665D01*
X127670071Y-91511454D01*
X127670278Y-91524420D01*
X127685807Y-91620774D01*
X127723195Y-91664424D01*
X127766772Y-91712277D01*
X127776111Y-91756393D01*
X127790680Y-91814316D01*
X127811389Y-91828055D01*
X127838330Y-91858126D01*
X127846667Y-91912475D01*
X127866371Y-91985636D01*
X127899584Y-92017202D01*
X127943161Y-92065055D01*
X127952500Y-92109170D01*
X127967069Y-92167094D01*
X127987778Y-92180833D01*
X128016216Y-92210452D01*
X128023056Y-92253073D01*
X128047773Y-92326007D01*
X128107623Y-92403627D01*
X128111250Y-92407049D01*
X128172414Y-92484919D01*
X128199381Y-92561181D01*
X128199445Y-92564114D01*
X128220409Y-92625292D01*
X128252361Y-92639444D01*
X128299132Y-92667683D01*
X128305278Y-92692361D01*
X128324327Y-92739307D01*
X128340556Y-92745278D01*
X128371580Y-92773966D01*
X128375834Y-92799879D01*
X128400064Y-92859830D01*
X128458904Y-92931375D01*
X128464028Y-92936216D01*
X128523724Y-92998160D01*
X128551893Y-93040421D01*
X128552222Y-93042884D01*
X128573080Y-93087306D01*
X128596320Y-93116990D01*
X128676325Y-93209741D01*
X128716902Y-93267927D01*
X128728595Y-93306788D01*
X128728611Y-93308233D01*
X128757161Y-93340843D01*
X128781528Y-93345000D01*
X128828473Y-93364148D01*
X128834445Y-93380465D01*
X128858023Y-93414728D01*
X128921977Y-93487768D01*
X129016136Y-93589224D01*
X129130329Y-93708736D01*
X129254385Y-93835942D01*
X129378132Y-93960483D01*
X129491400Y-94071997D01*
X129584018Y-94160124D01*
X129645814Y-94214503D01*
X129665429Y-94226944D01*
X129713001Y-94253786D01*
X129762559Y-94312787D01*
X129787368Y-94371659D01*
X129787485Y-94374355D01*
X129796798Y-94398402D01*
X129822222Y-94368055D01*
X129850748Y-94339352D01*
X129856960Y-94359236D01*
X129887532Y-94392374D01*
X129945695Y-94403333D01*
X130012012Y-94392558D01*
X130033889Y-94371880D01*
X130063787Y-94340823D01*
X130122084Y-94318291D01*
X130188156Y-94289963D01*
X130210278Y-94261550D01*
X130238862Y-94230845D01*
X130263195Y-94226944D01*
X130310171Y-94209927D01*
X130316111Y-94195491D01*
X130346009Y-94164434D01*
X130404306Y-94141902D01*
X130470378Y-94113574D01*
X130492500Y-94085161D01*
X130522119Y-94057244D01*
X130564595Y-94050555D01*
X130637956Y-94027490D01*
X130722043Y-93971085D01*
X130731804Y-93962361D01*
X130806148Y-93903864D01*
X130865082Y-93874855D01*
X130871376Y-93874166D01*
X130912644Y-93854382D01*
X130915834Y-93842713D01*
X130945731Y-93811657D01*
X131004028Y-93789124D01*
X131070100Y-93760796D01*
X131092222Y-93732383D01*
X131119415Y-93699173D01*
X131130020Y-93697778D01*
X131189866Y-93671056D01*
X131246703Y-93612405D01*
X131268611Y-93559186D01*
X131297145Y-93525668D01*
X131321528Y-93521389D01*
X131364503Y-93491545D01*
X131374445Y-93446059D01*
X131399248Y-93370830D01*
X131459274Y-93292167D01*
X131462639Y-93288993D01*
X131523204Y-93217863D01*
X131550685Y-93155966D01*
X131550834Y-93152656D01*
X131567390Y-93104610D01*
X131582287Y-93098055D01*
X131613343Y-93068158D01*
X131635876Y-93009861D01*
X131664204Y-92943789D01*
X131692617Y-92921666D01*
X131723322Y-92893083D01*
X131727222Y-92868750D01*
X131744240Y-92821774D01*
X131758676Y-92815833D01*
X131789732Y-92785935D01*
X131812265Y-92727639D01*
X131840593Y-92661567D01*
X131869006Y-92639444D01*
X131899711Y-92610860D01*
X131903611Y-92586528D01*
X131922660Y-92539581D01*
X131938889Y-92533611D01*
X131967552Y-92504064D01*
X131974167Y-92463055D01*
X131996225Y-92405595D01*
X132027084Y-92392500D01*
X132073854Y-92364261D01*
X132080000Y-92339583D01*
X132100381Y-92292658D01*
X132117798Y-92286666D01*
X132181912Y-92315569D01*
X132237006Y-92381574D01*
X132256389Y-92444581D01*
X132280689Y-92506375D01*
X132339673Y-92578799D01*
X132344584Y-92583438D01*
X132405747Y-92661308D01*
X132432714Y-92737570D01*
X132432778Y-92740503D01*
X132452421Y-92800293D01*
X132482755Y-92815833D01*
X132541380Y-92842812D01*
X132553310Y-92859930D01*
X132576478Y-92885874D01*
X132594468Y-92859930D01*
X132635016Y-92819198D01*
X132649904Y-92815833D01*
X132703509Y-92794502D01*
X132733935Y-92771736D01*
X132825550Y-92693101D01*
X132885737Y-92652979D01*
X132932823Y-92639856D01*
X132944501Y-92639444D01*
X133005541Y-92615173D01*
X133077606Y-92556247D01*
X133082327Y-92551250D01*
X133160197Y-92490086D01*
X133236459Y-92463119D01*
X133239393Y-92463055D01*
X133299266Y-92449388D01*
X133314722Y-92428450D01*
X133344656Y-92395012D01*
X133402917Y-92371709D01*
X133468957Y-92344471D01*
X133491111Y-92318120D01*
X133518386Y-92287914D01*
X133528909Y-92286666D01*
X133585261Y-92265194D01*
X133615879Y-92242569D01*
X133707494Y-92163934D01*
X133767682Y-92123812D01*
X133814767Y-92110689D01*
X133826446Y-92110278D01*
X133887485Y-92086006D01*
X133959550Y-92027081D01*
X133964272Y-92022083D01*
X134042141Y-91960919D01*
X134118404Y-91933952D01*
X134121337Y-91933889D01*
X134181210Y-91920222D01*
X134196667Y-91899283D01*
X134226600Y-91865845D01*
X134284861Y-91842542D01*
X134350902Y-91815304D01*
X134373056Y-91788953D01*
X134400205Y-91758598D01*
X134409823Y-91757500D01*
X134448203Y-91746795D01*
X134505264Y-91707651D01*
X134596247Y-91629525D01*
X134601066Y-91625208D01*
X134671872Y-91586892D01*
X134705675Y-91581111D01*
X134770286Y-91557674D01*
X134831667Y-91510555D01*
X134844823Y-91495972D01*
X134856233Y-91477153D01*
X134866021Y-91449284D01*
X134874312Y-91407554D01*
X134881231Y-91347147D01*
X134886900Y-91263251D01*
X134891445Y-91151052D01*
X134894989Y-91005737D01*
X134897657Y-90822493D01*
X134899573Y-90596505D01*
X134900862Y-90322961D01*
X134901646Y-89997048D01*
X134902052Y-89613951D01*
X134902202Y-89168858D01*
X134902222Y-88776528D01*
X134902222Y-86113055D01*
X134814028Y-86113055D01*
X134747727Y-86101208D01*
X134725834Y-86078450D01*
X134695906Y-86044986D01*
X134637883Y-86021770D01*
X134579429Y-85995246D01*
X134569409Y-85968181D01*
X134556622Y-85943310D01*
X134516249Y-85936666D01*
X134457798Y-85922545D01*
X134443611Y-85902061D01*
X134413678Y-85868623D01*
X134355417Y-85845320D01*
X134289447Y-85820354D01*
X134267222Y-85798315D01*
X134237763Y-85770679D01*
X134164835Y-85733638D01*
X134143750Y-85725000D01*
X134063558Y-85682361D01*
X134021923Y-85638403D01*
X134020278Y-85630221D01*
X133990010Y-85595066D01*
X133932084Y-85583889D01*
X133865782Y-85572041D01*
X133843889Y-85549283D01*
X133813956Y-85515845D01*
X133755695Y-85492542D01*
X133689654Y-85465304D01*
X133667500Y-85438953D01*
X133638871Y-85411031D01*
X133614584Y-85407500D01*
X133567632Y-85388807D01*
X133561667Y-85372894D01*
X133531734Y-85339456D01*
X133473472Y-85316153D01*
X133407432Y-85288915D01*
X133385278Y-85262564D01*
X133355698Y-85236998D01*
X133314722Y-85231111D01*
X133257397Y-85216337D01*
X133244167Y-85195833D01*
X133215593Y-85164535D01*
X133191250Y-85160555D01*
X133144480Y-85132317D01*
X133138334Y-85107639D01*
X133107667Y-85065079D01*
X133050139Y-85054722D01*
X132983838Y-85042874D01*
X132961945Y-85020116D01*
X132932011Y-84986678D01*
X132873750Y-84963375D01*
X132807710Y-84936138D01*
X132785556Y-84909786D01*
X132756926Y-84881864D01*
X132732639Y-84878333D01*
X132685687Y-84859640D01*
X132679722Y-84843727D01*
X132649789Y-84810289D01*
X132591528Y-84786986D01*
X132525488Y-84759749D01*
X132503334Y-84733398D01*
X132473753Y-84707831D01*
X132432778Y-84701944D01*
X132375453Y-84687171D01*
X132362222Y-84666666D01*
X132333930Y-84634742D01*
X132313080Y-84631389D01*
X132258620Y-84602933D01*
X132243632Y-84578472D01*
X132195778Y-84534895D01*
X132151663Y-84525555D01*
X132093735Y-84511261D01*
X132080000Y-84490950D01*
X132050067Y-84457512D01*
X131991806Y-84434209D01*
X131925765Y-84406971D01*
X131903611Y-84380620D01*
X131874982Y-84352698D01*
X131850695Y-84349166D01*
X131803743Y-84330474D01*
X131797778Y-84314561D01*
X131767845Y-84281123D01*
X131709584Y-84257820D01*
X131643543Y-84230582D01*
X131621389Y-84204231D01*
X131591809Y-84178665D01*
X131550834Y-84172778D01*
X131493508Y-84158004D01*
X131480278Y-84137500D01*
X131451705Y-84106202D01*
X131427361Y-84102222D01*
X131380591Y-84073983D01*
X131374445Y-84049305D01*
X131343778Y-84006746D01*
X131286250Y-83996389D01*
X131219952Y-83984313D01*
X131198056Y-83961111D01*
X131169666Y-83929397D01*
X131147659Y-83925833D01*
X131081397Y-83902607D01*
X131049000Y-83877571D01*
X130975660Y-83827199D01*
X130923008Y-83804638D01*
X130862307Y-83772963D01*
X130845278Y-83747067D01*
X130816669Y-83717867D01*
X130792361Y-83714166D01*
X130745415Y-83695117D01*
X130739445Y-83678889D01*
X130711081Y-83647118D01*
X130689387Y-83643611D01*
X130627099Y-83627544D01*
X130545095Y-83589006D01*
X130469206Y-83542490D01*
X130425264Y-83502490D01*
X130422168Y-83493680D01*
X130393252Y-83470170D01*
X130369028Y-83467222D01*
X130322081Y-83448173D01*
X130316111Y-83431944D01*
X130287722Y-83400230D01*
X130265715Y-83396666D01*
X130197959Y-83373913D01*
X130168701Y-83352158D01*
X130103079Y-83305755D01*
X130021121Y-83262921D01*
X129951133Y-83238784D01*
X129893625Y-83245513D01*
G36*
X140264445Y-93785972D02*
X140282084Y-93803611D01*
X140299722Y-93785972D01*
X140282084Y-93768333D01*
X140264445Y-93785972D01*
X140264445Y-93785972D01*
G37*
X140264445Y-93785972D02*
X140282084Y-93803611D01*
X140299722Y-93785972D01*
X140282084Y-93768333D01*
X140264445Y-93785972D01*
G36*
X140382037Y-93638981D02*
X140386880Y-93659954D01*
X140405556Y-93662500D01*
X140434593Y-93649592D01*
X140429074Y-93638981D01*
X140387208Y-93634759D01*
X140382037Y-93638981D01*
X140382037Y-93638981D01*
G37*
X140382037Y-93638981D02*
X140386880Y-93659954D01*
X140405556Y-93662500D01*
X140434593Y-93649592D01*
X140429074Y-93638981D01*
X140387208Y-93634759D01*
X140382037Y-93638981D01*
G36*
X140440834Y-93539028D02*
X140458472Y-93556666D01*
X140476111Y-93539028D01*
X140458472Y-93521389D01*
X140440834Y-93539028D01*
X140440834Y-93539028D01*
G37*
X140440834Y-93539028D02*
X140458472Y-93556666D01*
X140476111Y-93539028D01*
X140458472Y-93521389D01*
X140440834Y-93539028D01*
G36*
X140547692Y-93371845D02*
X140546667Y-93380278D01*
X140573512Y-93414530D01*
X140581945Y-93415555D01*
X140616197Y-93388710D01*
X140617222Y-93380278D01*
X140590377Y-93346025D01*
X140581945Y-93345000D01*
X140547692Y-93371845D01*
X140547692Y-93371845D01*
G37*
X140547692Y-93371845D02*
X140546667Y-93380278D01*
X140573512Y-93414530D01*
X140581945Y-93415555D01*
X140616197Y-93388710D01*
X140617222Y-93380278D01*
X140590377Y-93346025D01*
X140581945Y-93345000D01*
X140547692Y-93371845D01*
G36*
X140758334Y-93150972D02*
X140775972Y-93168611D01*
X140793611Y-93150972D01*
X140775972Y-93133333D01*
X140758334Y-93150972D01*
X140758334Y-93150972D01*
G37*
X140758334Y-93150972D02*
X140775972Y-93168611D01*
X140793611Y-93150972D01*
X140775972Y-93133333D01*
X140758334Y-93150972D01*
G36*
X140981760Y-92651203D02*
X140977537Y-92693070D01*
X140981760Y-92698240D01*
X141002732Y-92693398D01*
X141005278Y-92674722D01*
X140992370Y-92645684D01*
X140981760Y-92651203D01*
X140981760Y-92651203D01*
G37*
X140981760Y-92651203D02*
X140977537Y-92693070D01*
X140981760Y-92698240D01*
X141002732Y-92693398D01*
X141005278Y-92674722D01*
X140992370Y-92645684D01*
X140981760Y-92651203D01*
G36*
X141087593Y-92474815D02*
X141092435Y-92495787D01*
X141111111Y-92498333D01*
X141140149Y-92485425D01*
X141134630Y-92474815D01*
X141092763Y-92470592D01*
X141087593Y-92474815D01*
X141087593Y-92474815D01*
G37*
X141087593Y-92474815D02*
X141092435Y-92495787D01*
X141111111Y-92498333D01*
X141140149Y-92485425D01*
X141134630Y-92474815D01*
X141092763Y-92470592D01*
X141087593Y-92474815D01*
G36*
X140158611Y-92233750D02*
X140176250Y-92251389D01*
X140193889Y-92233750D01*
X140176250Y-92216111D01*
X140158611Y-92233750D01*
X140158611Y-92233750D01*
G37*
X140158611Y-92233750D02*
X140176250Y-92251389D01*
X140193889Y-92233750D01*
X140176250Y-92216111D01*
X140158611Y-92233750D01*
G36*
X140229167Y-92092639D02*
X140246806Y-92110278D01*
X140264445Y-92092639D01*
X140246806Y-92075000D01*
X140229167Y-92092639D01*
X140229167Y-92092639D01*
G37*
X140229167Y-92092639D02*
X140246806Y-92110278D01*
X140264445Y-92092639D01*
X140246806Y-92075000D01*
X140229167Y-92092639D01*
G36*
X141334537Y-91945648D02*
X141330315Y-91987514D01*
X141334537Y-91992685D01*
X141355510Y-91987842D01*
X141358056Y-91969166D01*
X141345148Y-91940129D01*
X141334537Y-91945648D01*
X141334537Y-91945648D01*
G37*
X141334537Y-91945648D02*
X141330315Y-91987514D01*
X141334537Y-91992685D01*
X141355510Y-91987842D01*
X141358056Y-91969166D01*
X141345148Y-91940129D01*
X141334537Y-91945648D01*
G36*
X141440738Y-91708557D02*
X141446250Y-91722222D01*
X141477951Y-91755876D01*
X141483610Y-91757500D01*
X141498762Y-91730206D01*
X141499167Y-91722222D01*
X141472047Y-91688300D01*
X141461807Y-91686944D01*
X141440738Y-91708557D01*
X141440738Y-91708557D01*
G37*
X141440738Y-91708557D02*
X141446250Y-91722222D01*
X141477951Y-91755876D01*
X141483610Y-91757500D01*
X141498762Y-91730206D01*
X141499167Y-91722222D01*
X141472047Y-91688300D01*
X141461807Y-91686944D01*
X141440738Y-91708557D01*
G36*
X133949826Y-81839480D02*
X133807153Y-81844771D01*
X133641766Y-81853688D01*
X133467896Y-81865168D01*
X133299772Y-81878151D01*
X133151623Y-81891573D01*
X133037681Y-81904373D01*
X132972173Y-81915489D01*
X132961945Y-81920492D01*
X132930300Y-81937900D01*
X132849799Y-81948739D01*
X132794375Y-81950495D01*
X132668916Y-81961998D01*
X132555434Y-81990568D01*
X132525759Y-82003412D01*
X132419487Y-82039608D01*
X132298484Y-82056023D01*
X132290574Y-82056111D01*
X132200788Y-82065874D01*
X132147177Y-82090060D01*
X132142727Y-82097235D01*
X132114141Y-82120343D01*
X132044730Y-82108452D01*
X132016315Y-82099070D01*
X131931235Y-82078760D01*
X131903611Y-82095744D01*
X131872725Y-82162227D01*
X131797425Y-82213944D01*
X131712103Y-82232500D01*
X131644590Y-82242967D01*
X131621389Y-82263851D01*
X131590565Y-82290302D01*
X131514710Y-82314925D01*
X131497917Y-82318367D01*
X131416501Y-82342052D01*
X131375584Y-82370428D01*
X131374445Y-82375209D01*
X131344245Y-82400530D01*
X131286250Y-82408889D01*
X131219940Y-82420130D01*
X131198056Y-82441713D01*
X131168156Y-82472084D01*
X131121444Y-82485810D01*
X131059489Y-82510250D01*
X131029044Y-82548061D01*
X131040355Y-82578773D01*
X131071644Y-82585278D01*
X131120447Y-82603448D01*
X131127500Y-82620555D01*
X131156875Y-82649738D01*
X131194282Y-82655833D01*
X131260449Y-82681459D01*
X131282227Y-82710986D01*
X131317182Y-82747463D01*
X131338918Y-82744181D01*
X131369326Y-82752035D01*
X131374445Y-82777223D01*
X131404839Y-82821912D01*
X131462639Y-82832222D01*
X131528941Y-82844069D01*
X131550834Y-82866828D01*
X131580767Y-82900266D01*
X131639028Y-82923569D01*
X131705069Y-82950806D01*
X131727222Y-82977157D01*
X131755852Y-83005080D01*
X131780139Y-83008611D01*
X131827091Y-83027304D01*
X131833056Y-83043216D01*
X131862989Y-83076655D01*
X131921250Y-83099958D01*
X131987291Y-83127195D01*
X132009445Y-83153546D01*
X132038856Y-83179577D01*
X132076226Y-83185000D01*
X132141956Y-83209554D01*
X132163313Y-83237916D01*
X132211624Y-83284863D01*
X132239725Y-83290833D01*
X132277090Y-83307661D01*
X132274028Y-83326111D01*
X132286518Y-83352270D01*
X132342502Y-83361389D01*
X132409793Y-83372987D01*
X132432778Y-83395994D01*
X132462711Y-83429432D01*
X132520972Y-83452735D01*
X132587013Y-83479973D01*
X132609167Y-83506324D01*
X132637797Y-83534246D01*
X132662084Y-83537778D01*
X132709013Y-83557927D01*
X132715000Y-83575137D01*
X132736613Y-83596206D01*
X132750278Y-83590694D01*
X132782786Y-83593491D01*
X132785556Y-83606251D01*
X132814096Y-83639384D01*
X132838472Y-83643611D01*
X132885419Y-83662660D01*
X132891389Y-83678889D01*
X132920984Y-83707403D01*
X132963052Y-83714166D01*
X133030850Y-83737063D01*
X133054943Y-83766880D01*
X133086806Y-83803603D01*
X133103908Y-83801834D01*
X133148427Y-83809090D01*
X133185886Y-83837314D01*
X133245542Y-83880857D01*
X133276925Y-83890555D01*
X133313199Y-83915452D01*
X133314722Y-83925161D01*
X133344656Y-83958599D01*
X133402917Y-83981902D01*
X133468917Y-84007819D01*
X133491111Y-84031666D01*
X133520964Y-84059835D01*
X133579306Y-84081431D01*
X133645378Y-84109759D01*
X133667500Y-84138172D01*
X133696084Y-84168877D01*
X133720417Y-84172778D01*
X133767364Y-84191826D01*
X133773334Y-84208055D01*
X133802928Y-84236570D01*
X133844996Y-84243333D01*
X133912832Y-84266321D01*
X133936965Y-84296250D01*
X133985074Y-84340868D01*
X134024052Y-84349166D01*
X134079296Y-84364684D01*
X134090834Y-84384444D01*
X134119407Y-84415742D01*
X134143750Y-84419722D01*
X134190702Y-84438415D01*
X134196667Y-84454328D01*
X134226600Y-84487766D01*
X134284861Y-84511069D01*
X134350902Y-84538306D01*
X134373056Y-84564657D01*
X134402683Y-84590091D01*
X134444719Y-84596111D01*
X134512554Y-84619099D01*
X134536687Y-84649028D01*
X134581105Y-84695913D01*
X134606136Y-84701944D01*
X134650607Y-84722254D01*
X134655278Y-84737222D01*
X134684873Y-84765736D01*
X134726941Y-84772500D01*
X134794776Y-84795488D01*
X134818910Y-84825416D01*
X134850126Y-84878326D01*
X134875529Y-84865316D01*
X134893341Y-84790909D01*
X134901781Y-84659624D01*
X134902222Y-84613750D01*
X134902222Y-84349166D01*
X137018889Y-84349166D01*
X137018889Y-88229722D01*
X140902905Y-88229722D01*
X140896826Y-87876944D01*
X140890407Y-87697017D01*
X140878108Y-87582763D01*
X140859292Y-87529493D01*
X140848772Y-87524166D01*
X140820341Y-87491334D01*
X140801848Y-87402153D01*
X140798311Y-87356597D01*
X140786927Y-87255957D01*
X140767613Y-87189959D01*
X140756441Y-87177268D01*
X140736369Y-87138172D01*
X140724466Y-87053114D01*
X140723056Y-87007179D01*
X140710542Y-86887416D01*
X140677604Y-86804669D01*
X140670139Y-86795932D01*
X140627911Y-86719508D01*
X140617222Y-86657341D01*
X140604824Y-86592258D01*
X140581945Y-86571666D01*
X140559854Y-86540370D01*
X140547567Y-86462187D01*
X140546667Y-86430555D01*
X140537929Y-86332436D01*
X140508963Y-86292005D01*
X140493750Y-86289444D01*
X140451191Y-86258777D01*
X140440834Y-86201250D01*
X140428758Y-86134952D01*
X140405556Y-86113055D01*
X140381949Y-86082113D01*
X140370485Y-86006324D01*
X140370278Y-85993357D01*
X140354749Y-85897003D01*
X140317361Y-85853353D01*
X140273784Y-85805500D01*
X140264445Y-85761385D01*
X140249876Y-85703461D01*
X140229167Y-85689722D01*
X140202226Y-85659651D01*
X140193889Y-85605302D01*
X140174185Y-85532141D01*
X140140972Y-85500576D01*
X140097396Y-85452722D01*
X140088056Y-85408607D01*
X140073487Y-85350683D01*
X140052778Y-85336944D01*
X140021480Y-85308371D01*
X140017500Y-85284028D01*
X139998807Y-85237076D01*
X139982895Y-85231111D01*
X139949457Y-85201178D01*
X139926154Y-85142916D01*
X139898916Y-85076876D01*
X139872565Y-85054722D01*
X139842359Y-85027448D01*
X139841111Y-85016924D01*
X139819639Y-84960573D01*
X139797014Y-84929954D01*
X139716449Y-84836617D01*
X139675737Y-84778678D01*
X139664722Y-84742485D01*
X139636611Y-84702580D01*
X139611806Y-84689187D01*
X139568655Y-84641441D01*
X139558889Y-84595136D01*
X139545482Y-84545664D01*
X139523611Y-84543194D01*
X139491146Y-84539449D01*
X139488334Y-84525953D01*
X139464531Y-84477282D01*
X139406581Y-84411246D01*
X139400139Y-84405173D01*
X139340529Y-84344104D01*
X139312296Y-84303718D01*
X139311945Y-84301427D01*
X139289953Y-84253866D01*
X139240607Y-84199373D01*
X139188850Y-84162043D01*
X139164541Y-84159028D01*
X139141099Y-84145515D01*
X139135556Y-84109245D01*
X139109049Y-84041073D01*
X139047361Y-83975318D01*
X138985102Y-83915493D01*
X138959167Y-83864587D01*
X138959167Y-83864543D01*
X138935541Y-83823267D01*
X138921369Y-83820000D01*
X138861524Y-83793278D01*
X138804687Y-83734627D01*
X138782778Y-83681408D01*
X138755675Y-83645161D01*
X138744980Y-83643611D01*
X138688629Y-83622138D01*
X138658010Y-83599514D01*
X138565259Y-83519508D01*
X138507073Y-83478931D01*
X138468212Y-83467238D01*
X138466767Y-83467222D01*
X138434157Y-83438672D01*
X138430000Y-83414305D01*
X138410103Y-83367372D01*
X138393119Y-83361389D01*
X138345410Y-83338432D01*
X138277302Y-83282258D01*
X138268043Y-83273194D01*
X138194844Y-83213577D01*
X138133456Y-83185349D01*
X138128536Y-83185000D01*
X138082627Y-83165435D01*
X138077222Y-83149722D01*
X138050048Y-83115871D01*
X138039425Y-83114444D01*
X137983073Y-83092971D01*
X137952455Y-83070347D01*
X137859703Y-82990342D01*
X137801518Y-82949764D01*
X137762656Y-82938071D01*
X137761211Y-82938055D01*
X137725752Y-82912582D01*
X137724445Y-82903450D01*
X137694511Y-82870012D01*
X137636250Y-82846709D01*
X137570210Y-82819471D01*
X137548056Y-82793120D01*
X137519426Y-82765198D01*
X137495139Y-82761666D01*
X137448187Y-82742974D01*
X137442222Y-82727061D01*
X137412289Y-82693623D01*
X137354028Y-82670320D01*
X137287988Y-82643082D01*
X137265834Y-82616731D01*
X137235621Y-82593080D01*
X137177639Y-82585278D01*
X137111338Y-82573430D01*
X137089445Y-82550672D01*
X137059511Y-82517234D01*
X137001250Y-82493931D01*
X136935210Y-82466693D01*
X136913056Y-82440342D01*
X136882921Y-82416441D01*
X136827381Y-82408889D01*
X136737891Y-82387768D01*
X136688790Y-82355972D01*
X136610971Y-82311579D01*
X136562798Y-82303055D01*
X136504118Y-82288740D01*
X136489722Y-82267778D01*
X136458711Y-82244460D01*
X136382454Y-82232804D01*
X136366250Y-82232500D01*
X136284637Y-82223743D01*
X136243844Y-82202213D01*
X136242778Y-82197639D01*
X136211597Y-82170858D01*
X136133667Y-82146241D01*
X136101667Y-82140213D01*
X136013471Y-82119316D01*
X135964255Y-82094463D01*
X135960556Y-82086880D01*
X135928851Y-82069200D01*
X135847922Y-82058074D01*
X135787107Y-82056111D01*
X135677699Y-82048168D01*
X135610884Y-82027157D01*
X135599873Y-82014756D01*
X135559637Y-81990246D01*
X135468293Y-81969125D01*
X135367627Y-81957599D01*
X135254015Y-81945584D01*
X135175014Y-81929974D01*
X135149167Y-81915941D01*
X135116006Y-81906678D01*
X135024874Y-81895476D01*
X134888303Y-81883219D01*
X134718820Y-81870789D01*
X134528956Y-81859069D01*
X134331239Y-81848943D01*
X134138199Y-81841293D01*
X134055556Y-81838877D01*
X133949826Y-81839480D01*
X133949826Y-81839480D01*
G37*
X133949826Y-81839480D02*
X133807153Y-81844771D01*
X133641766Y-81853688D01*
X133467896Y-81865168D01*
X133299772Y-81878151D01*
X133151623Y-81891573D01*
X133037681Y-81904373D01*
X132972173Y-81915489D01*
X132961945Y-81920492D01*
X132930300Y-81937900D01*
X132849799Y-81948739D01*
X132794375Y-81950495D01*
X132668916Y-81961998D01*
X132555434Y-81990568D01*
X132525759Y-82003412D01*
X132419487Y-82039608D01*
X132298484Y-82056023D01*
X132290574Y-82056111D01*
X132200788Y-82065874D01*
X132147177Y-82090060D01*
X132142727Y-82097235D01*
X132114141Y-82120343D01*
X132044730Y-82108452D01*
X132016315Y-82099070D01*
X131931235Y-82078760D01*
X131903611Y-82095744D01*
X131872725Y-82162227D01*
X131797425Y-82213944D01*
X131712103Y-82232500D01*
X131644590Y-82242967D01*
X131621389Y-82263851D01*
X131590565Y-82290302D01*
X131514710Y-82314925D01*
X131497917Y-82318367D01*
X131416501Y-82342052D01*
X131375584Y-82370428D01*
X131374445Y-82375209D01*
X131344245Y-82400530D01*
X131286250Y-82408889D01*
X131219940Y-82420130D01*
X131198056Y-82441713D01*
X131168156Y-82472084D01*
X131121444Y-82485810D01*
X131059489Y-82510250D01*
X131029044Y-82548061D01*
X131040355Y-82578773D01*
X131071644Y-82585278D01*
X131120447Y-82603448D01*
X131127500Y-82620555D01*
X131156875Y-82649738D01*
X131194282Y-82655833D01*
X131260449Y-82681459D01*
X131282227Y-82710986D01*
X131317182Y-82747463D01*
X131338918Y-82744181D01*
X131369326Y-82752035D01*
X131374445Y-82777223D01*
X131404839Y-82821912D01*
X131462639Y-82832222D01*
X131528941Y-82844069D01*
X131550834Y-82866828D01*
X131580767Y-82900266D01*
X131639028Y-82923569D01*
X131705069Y-82950806D01*
X131727222Y-82977157D01*
X131755852Y-83005080D01*
X131780139Y-83008611D01*
X131827091Y-83027304D01*
X131833056Y-83043216D01*
X131862989Y-83076655D01*
X131921250Y-83099958D01*
X131987291Y-83127195D01*
X132009445Y-83153546D01*
X132038856Y-83179577D01*
X132076226Y-83185000D01*
X132141956Y-83209554D01*
X132163313Y-83237916D01*
X132211624Y-83284863D01*
X132239725Y-83290833D01*
X132277090Y-83307661D01*
X132274028Y-83326111D01*
X132286518Y-83352270D01*
X132342502Y-83361389D01*
X132409793Y-83372987D01*
X132432778Y-83395994D01*
X132462711Y-83429432D01*
X132520972Y-83452735D01*
X132587013Y-83479973D01*
X132609167Y-83506324D01*
X132637797Y-83534246D01*
X132662084Y-83537778D01*
X132709013Y-83557927D01*
X132715000Y-83575137D01*
X132736613Y-83596206D01*
X132750278Y-83590694D01*
X132782786Y-83593491D01*
X132785556Y-83606251D01*
X132814096Y-83639384D01*
X132838472Y-83643611D01*
X132885419Y-83662660D01*
X132891389Y-83678889D01*
X132920984Y-83707403D01*
X132963052Y-83714166D01*
X133030850Y-83737063D01*
X133054943Y-83766880D01*
X133086806Y-83803603D01*
X133103908Y-83801834D01*
X133148427Y-83809090D01*
X133185886Y-83837314D01*
X133245542Y-83880857D01*
X133276925Y-83890555D01*
X133313199Y-83915452D01*
X133314722Y-83925161D01*
X133344656Y-83958599D01*
X133402917Y-83981902D01*
X133468917Y-84007819D01*
X133491111Y-84031666D01*
X133520964Y-84059835D01*
X133579306Y-84081431D01*
X133645378Y-84109759D01*
X133667500Y-84138172D01*
X133696084Y-84168877D01*
X133720417Y-84172778D01*
X133767364Y-84191826D01*
X133773334Y-84208055D01*
X133802928Y-84236570D01*
X133844996Y-84243333D01*
X133912832Y-84266321D01*
X133936965Y-84296250D01*
X133985074Y-84340868D01*
X134024052Y-84349166D01*
X134079296Y-84364684D01*
X134090834Y-84384444D01*
X134119407Y-84415742D01*
X134143750Y-84419722D01*
X134190702Y-84438415D01*
X134196667Y-84454328D01*
X134226600Y-84487766D01*
X134284861Y-84511069D01*
X134350902Y-84538306D01*
X134373056Y-84564657D01*
X134402683Y-84590091D01*
X134444719Y-84596111D01*
X134512554Y-84619099D01*
X134536687Y-84649028D01*
X134581105Y-84695913D01*
X134606136Y-84701944D01*
X134650607Y-84722254D01*
X134655278Y-84737222D01*
X134684873Y-84765736D01*
X134726941Y-84772500D01*
X134794776Y-84795488D01*
X134818910Y-84825416D01*
X134850126Y-84878326D01*
X134875529Y-84865316D01*
X134893341Y-84790909D01*
X134901781Y-84659624D01*
X134902222Y-84613750D01*
X134902222Y-84349166D01*
X137018889Y-84349166D01*
X137018889Y-88229722D01*
X140902905Y-88229722D01*
X140896826Y-87876944D01*
X140890407Y-87697017D01*
X140878108Y-87582763D01*
X140859292Y-87529493D01*
X140848772Y-87524166D01*
X140820341Y-87491334D01*
X140801848Y-87402153D01*
X140798311Y-87356597D01*
X140786927Y-87255957D01*
X140767613Y-87189959D01*
X140756441Y-87177268D01*
X140736369Y-87138172D01*
X140724466Y-87053114D01*
X140723056Y-87007179D01*
X140710542Y-86887416D01*
X140677604Y-86804669D01*
X140670139Y-86795932D01*
X140627911Y-86719508D01*
X140617222Y-86657341D01*
X140604824Y-86592258D01*
X140581945Y-86571666D01*
X140559854Y-86540370D01*
X140547567Y-86462187D01*
X140546667Y-86430555D01*
X140537929Y-86332436D01*
X140508963Y-86292005D01*
X140493750Y-86289444D01*
X140451191Y-86258777D01*
X140440834Y-86201250D01*
X140428758Y-86134952D01*
X140405556Y-86113055D01*
X140381949Y-86082113D01*
X140370485Y-86006324D01*
X140370278Y-85993357D01*
X140354749Y-85897003D01*
X140317361Y-85853353D01*
X140273784Y-85805500D01*
X140264445Y-85761385D01*
X140249876Y-85703461D01*
X140229167Y-85689722D01*
X140202226Y-85659651D01*
X140193889Y-85605302D01*
X140174185Y-85532141D01*
X140140972Y-85500576D01*
X140097396Y-85452722D01*
X140088056Y-85408607D01*
X140073487Y-85350683D01*
X140052778Y-85336944D01*
X140021480Y-85308371D01*
X140017500Y-85284028D01*
X139998807Y-85237076D01*
X139982895Y-85231111D01*
X139949457Y-85201178D01*
X139926154Y-85142916D01*
X139898916Y-85076876D01*
X139872565Y-85054722D01*
X139842359Y-85027448D01*
X139841111Y-85016924D01*
X139819639Y-84960573D01*
X139797014Y-84929954D01*
X139716449Y-84836617D01*
X139675737Y-84778678D01*
X139664722Y-84742485D01*
X139636611Y-84702580D01*
X139611806Y-84689187D01*
X139568655Y-84641441D01*
X139558889Y-84595136D01*
X139545482Y-84545664D01*
X139523611Y-84543194D01*
X139491146Y-84539449D01*
X139488334Y-84525953D01*
X139464531Y-84477282D01*
X139406581Y-84411246D01*
X139400139Y-84405173D01*
X139340529Y-84344104D01*
X139312296Y-84303718D01*
X139311945Y-84301427D01*
X139289953Y-84253866D01*
X139240607Y-84199373D01*
X139188850Y-84162043D01*
X139164541Y-84159028D01*
X139141099Y-84145515D01*
X139135556Y-84109245D01*
X139109049Y-84041073D01*
X139047361Y-83975318D01*
X138985102Y-83915493D01*
X138959167Y-83864587D01*
X138959167Y-83864543D01*
X138935541Y-83823267D01*
X138921369Y-83820000D01*
X138861524Y-83793278D01*
X138804687Y-83734627D01*
X138782778Y-83681408D01*
X138755675Y-83645161D01*
X138744980Y-83643611D01*
X138688629Y-83622138D01*
X138658010Y-83599514D01*
X138565259Y-83519508D01*
X138507073Y-83478931D01*
X138468212Y-83467238D01*
X138466767Y-83467222D01*
X138434157Y-83438672D01*
X138430000Y-83414305D01*
X138410103Y-83367372D01*
X138393119Y-83361389D01*
X138345410Y-83338432D01*
X138277302Y-83282258D01*
X138268043Y-83273194D01*
X138194844Y-83213577D01*
X138133456Y-83185349D01*
X138128536Y-83185000D01*
X138082627Y-83165435D01*
X138077222Y-83149722D01*
X138050048Y-83115871D01*
X138039425Y-83114444D01*
X137983073Y-83092971D01*
X137952455Y-83070347D01*
X137859703Y-82990342D01*
X137801518Y-82949764D01*
X137762656Y-82938071D01*
X137761211Y-82938055D01*
X137725752Y-82912582D01*
X137724445Y-82903450D01*
X137694511Y-82870012D01*
X137636250Y-82846709D01*
X137570210Y-82819471D01*
X137548056Y-82793120D01*
X137519426Y-82765198D01*
X137495139Y-82761666D01*
X137448187Y-82742974D01*
X137442222Y-82727061D01*
X137412289Y-82693623D01*
X137354028Y-82670320D01*
X137287988Y-82643082D01*
X137265834Y-82616731D01*
X137235621Y-82593080D01*
X137177639Y-82585278D01*
X137111338Y-82573430D01*
X137089445Y-82550672D01*
X137059511Y-82517234D01*
X137001250Y-82493931D01*
X136935210Y-82466693D01*
X136913056Y-82440342D01*
X136882921Y-82416441D01*
X136827381Y-82408889D01*
X136737891Y-82387768D01*
X136688790Y-82355972D01*
X136610971Y-82311579D01*
X136562798Y-82303055D01*
X136504118Y-82288740D01*
X136489722Y-82267778D01*
X136458711Y-82244460D01*
X136382454Y-82232804D01*
X136366250Y-82232500D01*
X136284637Y-82223743D01*
X136243844Y-82202213D01*
X136242778Y-82197639D01*
X136211597Y-82170858D01*
X136133667Y-82146241D01*
X136101667Y-82140213D01*
X136013471Y-82119316D01*
X135964255Y-82094463D01*
X135960556Y-82086880D01*
X135928851Y-82069200D01*
X135847922Y-82058074D01*
X135787107Y-82056111D01*
X135677699Y-82048168D01*
X135610884Y-82027157D01*
X135599873Y-82014756D01*
X135559637Y-81990246D01*
X135468293Y-81969125D01*
X135367627Y-81957599D01*
X135254015Y-81945584D01*
X135175014Y-81929974D01*
X135149167Y-81915941D01*
X135116006Y-81906678D01*
X135024874Y-81895476D01*
X134888303Y-81883219D01*
X134718820Y-81870789D01*
X134528956Y-81859069D01*
X134331239Y-81848943D01*
X134138199Y-81841293D01*
X134055556Y-81838877D01*
X133949826Y-81839480D01*
G36*
X129222500Y-82426528D02*
X129240139Y-82444166D01*
X129257778Y-82426528D01*
X129240139Y-82408889D01*
X129222500Y-82426528D01*
X129222500Y-82426528D01*
G37*
X129222500Y-82426528D02*
X129240139Y-82444166D01*
X129257778Y-82426528D01*
X129240139Y-82408889D01*
X129222500Y-82426528D01*
G36*
X131673372Y-82133480D02*
X131683959Y-82159722D01*
X131716882Y-82177315D01*
X131758096Y-82188056D01*
X131741188Y-82162213D01*
X131736630Y-82157567D01*
X131690377Y-82129701D01*
X131673372Y-82133480D01*
X131673372Y-82133480D01*
G37*
X131673372Y-82133480D02*
X131683959Y-82159722D01*
X131716882Y-82177315D01*
X131758096Y-82188056D01*
X131741188Y-82162213D01*
X131736630Y-82157567D01*
X131690377Y-82129701D01*
X131673372Y-82133480D01*
G36*
X154180057Y-67514196D02*
X154185927Y-68125507D01*
X154192653Y-68637427D01*
X154201790Y-69060997D01*
X154214894Y-69407258D01*
X154233519Y-69687252D01*
X154259220Y-69912020D01*
X154293552Y-70092604D01*
X154338070Y-70240045D01*
X154394329Y-70365384D01*
X154463884Y-70479662D01*
X154548290Y-70593921D01*
X154627718Y-70692939D01*
X154933624Y-70984708D01*
X155305703Y-71201922D01*
X155722735Y-71337540D01*
X156163497Y-71384520D01*
X156581630Y-71341326D01*
X157006774Y-71202243D01*
X157388687Y-70981509D01*
X157708289Y-70693673D01*
X157946500Y-70353283D01*
X157987717Y-70269204D01*
X158018407Y-70199105D01*
X158043806Y-70129711D01*
X158064498Y-70050169D01*
X158081071Y-69949631D01*
X158094111Y-69817244D01*
X158104203Y-69642159D01*
X158111933Y-69413525D01*
X158117888Y-69120491D01*
X158122652Y-68752206D01*
X158126814Y-68297820D01*
X158130957Y-67746482D01*
X158132024Y-67597040D01*
X158149048Y-65206036D01*
X157828329Y-65222692D01*
X157507609Y-65239348D01*
X157480000Y-67558478D01*
X157452392Y-69877609D01*
X157300824Y-70135442D01*
X157094065Y-70384013D01*
X156816161Y-70570541D01*
X156491701Y-70688033D01*
X156145275Y-70729496D01*
X155801474Y-70687936D01*
X155602609Y-70618404D01*
X155321051Y-70458787D01*
X155113609Y-70257685D01*
X154976040Y-70043261D01*
X154946749Y-69985225D01*
X154922522Y-69922912D01*
X154902726Y-69845434D01*
X154886725Y-69741905D01*
X154873885Y-69601437D01*
X154863570Y-69413145D01*
X154855147Y-69166140D01*
X154847980Y-68849536D01*
X154841435Y-68452447D01*
X154834878Y-67963986D01*
X154829566Y-67530870D01*
X154801957Y-65239348D01*
X154480659Y-65222675D01*
X154159360Y-65206001D01*
X154180057Y-67514196D01*
X154180057Y-67514196D01*
G37*
X154180057Y-67514196D02*
X154185927Y-68125507D01*
X154192653Y-68637427D01*
X154201790Y-69060997D01*
X154214894Y-69407258D01*
X154233519Y-69687252D01*
X154259220Y-69912020D01*
X154293552Y-70092604D01*
X154338070Y-70240045D01*
X154394329Y-70365384D01*
X154463884Y-70479662D01*
X154548290Y-70593921D01*
X154627718Y-70692939D01*
X154933624Y-70984708D01*
X155305703Y-71201922D01*
X155722735Y-71337540D01*
X156163497Y-71384520D01*
X156581630Y-71341326D01*
X157006774Y-71202243D01*
X157388687Y-70981509D01*
X157708289Y-70693673D01*
X157946500Y-70353283D01*
X157987717Y-70269204D01*
X158018407Y-70199105D01*
X158043806Y-70129711D01*
X158064498Y-70050169D01*
X158081071Y-69949631D01*
X158094111Y-69817244D01*
X158104203Y-69642159D01*
X158111933Y-69413525D01*
X158117888Y-69120491D01*
X158122652Y-68752206D01*
X158126814Y-68297820D01*
X158130957Y-67746482D01*
X158132024Y-67597040D01*
X158149048Y-65206036D01*
X157828329Y-65222692D01*
X157507609Y-65239348D01*
X157480000Y-67558478D01*
X157452392Y-69877609D01*
X157300824Y-70135442D01*
X157094065Y-70384013D01*
X156816161Y-70570541D01*
X156491701Y-70688033D01*
X156145275Y-70729496D01*
X155801474Y-70687936D01*
X155602609Y-70618404D01*
X155321051Y-70458787D01*
X155113609Y-70257685D01*
X154976040Y-70043261D01*
X154946749Y-69985225D01*
X154922522Y-69922912D01*
X154902726Y-69845434D01*
X154886725Y-69741905D01*
X154873885Y-69601437D01*
X154863570Y-69413145D01*
X154855147Y-69166140D01*
X154847980Y-68849536D01*
X154841435Y-68452447D01*
X154834878Y-67963986D01*
X154829566Y-67530870D01*
X154801957Y-65239348D01*
X154480659Y-65222675D01*
X154159360Y-65206001D01*
X154180057Y-67514196D01*
G36*
X149310206Y-65122226D02*
X148890243Y-65190513D01*
X148495871Y-65314450D01*
X148215795Y-65437995D01*
X148048004Y-65534951D01*
X147855748Y-65669621D01*
X147657367Y-65825867D01*
X147471203Y-65987549D01*
X147315595Y-66138526D01*
X147208884Y-66262661D01*
X147169412Y-66343813D01*
X147172530Y-66356051D01*
X147234053Y-66416134D01*
X147354053Y-66510015D01*
X147428322Y-66563101D01*
X147651915Y-66718051D01*
X147946066Y-66439855D01*
X148359011Y-66117107D01*
X148803296Y-65890209D01*
X149266940Y-65755333D01*
X149737961Y-65708648D01*
X150204380Y-65746326D01*
X150654214Y-65864538D01*
X151075483Y-66059456D01*
X151456205Y-66327250D01*
X151784400Y-66664092D01*
X152048087Y-67066153D01*
X152235283Y-67529603D01*
X152305470Y-67833023D01*
X152338437Y-68335414D01*
X152270042Y-68823553D01*
X152108883Y-69284062D01*
X151863554Y-69703558D01*
X151542653Y-70068661D01*
X151154775Y-70365990D01*
X150708517Y-70582165D01*
X150497204Y-70647781D01*
X149949661Y-70735661D01*
X149409354Y-70715624D01*
X148886126Y-70590157D01*
X148389815Y-70361747D01*
X147930263Y-70032882D01*
X147876545Y-69985423D01*
X147649946Y-69780705D01*
X147427338Y-69934973D01*
X147293190Y-70031892D01*
X147202104Y-70105074D01*
X147182120Y-70125823D01*
X147197709Y-70197935D01*
X147286183Y-70316924D01*
X147430516Y-70465543D01*
X147613681Y-70626545D01*
X147818651Y-70782683D01*
X147856489Y-70808901D01*
X148380599Y-71100746D01*
X148946717Y-71290861D01*
X149552973Y-71378860D01*
X150197495Y-71364356D01*
X150414902Y-71337506D01*
X150963263Y-71203761D01*
X151463579Y-70976684D01*
X151907810Y-70665876D01*
X152287916Y-70280938D01*
X152595859Y-69831470D01*
X152823597Y-69327075D01*
X152963092Y-68777354D01*
X153006576Y-68242428D01*
X152967706Y-67662751D01*
X152844836Y-67146661D01*
X152632161Y-66679762D01*
X152323878Y-66247660D01*
X152109654Y-66017828D01*
X151703896Y-65664287D01*
X151287970Y-65404058D01*
X150841190Y-65228951D01*
X150342872Y-65130776D01*
X149794609Y-65101304D01*
X149310206Y-65122226D01*
X149310206Y-65122226D01*
G37*
X149310206Y-65122226D02*
X148890243Y-65190513D01*
X148495871Y-65314450D01*
X148215795Y-65437995D01*
X148048004Y-65534951D01*
X147855748Y-65669621D01*
X147657367Y-65825867D01*
X147471203Y-65987549D01*
X147315595Y-66138526D01*
X147208884Y-66262661D01*
X147169412Y-66343813D01*
X147172530Y-66356051D01*
X147234053Y-66416134D01*
X147354053Y-66510015D01*
X147428322Y-66563101D01*
X147651915Y-66718051D01*
X147946066Y-66439855D01*
X148359011Y-66117107D01*
X148803296Y-65890209D01*
X149266940Y-65755333D01*
X149737961Y-65708648D01*
X150204380Y-65746326D01*
X150654214Y-65864538D01*
X151075483Y-66059456D01*
X151456205Y-66327250D01*
X151784400Y-66664092D01*
X152048087Y-67066153D01*
X152235283Y-67529603D01*
X152305470Y-67833023D01*
X152338437Y-68335414D01*
X152270042Y-68823553D01*
X152108883Y-69284062D01*
X151863554Y-69703558D01*
X151542653Y-70068661D01*
X151154775Y-70365990D01*
X150708517Y-70582165D01*
X150497204Y-70647781D01*
X149949661Y-70735661D01*
X149409354Y-70715624D01*
X148886126Y-70590157D01*
X148389815Y-70361747D01*
X147930263Y-70032882D01*
X147876545Y-69985423D01*
X147649946Y-69780705D01*
X147427338Y-69934973D01*
X147293190Y-70031892D01*
X147202104Y-70105074D01*
X147182120Y-70125823D01*
X147197709Y-70197935D01*
X147286183Y-70316924D01*
X147430516Y-70465543D01*
X147613681Y-70626545D01*
X147818651Y-70782683D01*
X147856489Y-70808901D01*
X148380599Y-71100746D01*
X148946717Y-71290861D01*
X149552973Y-71378860D01*
X150197495Y-71364356D01*
X150414902Y-71337506D01*
X150963263Y-71203761D01*
X151463579Y-70976684D01*
X151907810Y-70665876D01*
X152287916Y-70280938D01*
X152595859Y-69831470D01*
X152823597Y-69327075D01*
X152963092Y-68777354D01*
X153006576Y-68242428D01*
X152967706Y-67662751D01*
X152844836Y-67146661D01*
X152632161Y-66679762D01*
X152323878Y-66247660D01*
X152109654Y-66017828D01*
X151703896Y-65664287D01*
X151287970Y-65404058D01*
X150841190Y-65228951D01*
X150342872Y-65130776D01*
X149794609Y-65101304D01*
X149310206Y-65122226D01*
G36*
X144085664Y-65148161D02*
X143772465Y-65212315D01*
X143509505Y-65330995D01*
X143269582Y-65513819D01*
X143200699Y-65579939D01*
X142973310Y-65851527D01*
X142835281Y-66135433D01*
X142772918Y-66465274D01*
X142765845Y-66647391D01*
X142771549Y-66883783D01*
X142796928Y-67053782D01*
X142851754Y-67200987D01*
X142916626Y-67320196D01*
X143037292Y-67494230D01*
X143172260Y-67644465D01*
X143234126Y-67696673D01*
X143342460Y-67783375D01*
X143397742Y-67846316D01*
X143399566Y-67853377D01*
X143355544Y-67901201D01*
X143245285Y-67974187D01*
X143196715Y-68001465D01*
X142917109Y-68211254D01*
X142688349Y-68500728D01*
X142522126Y-68846311D01*
X142430134Y-69224427D01*
X142420033Y-69567495D01*
X142495607Y-69993364D01*
X142658833Y-70368392D01*
X142920749Y-70717400D01*
X142941178Y-70739483D01*
X143298611Y-71044081D01*
X143707763Y-71254219D01*
X144158268Y-71366767D01*
X144639761Y-71378597D01*
X144926048Y-71338689D01*
X145263196Y-71229835D01*
X145597609Y-71049055D01*
X145878831Y-70824014D01*
X145895267Y-70807271D01*
X146067669Y-70585302D01*
X146230122Y-70302358D01*
X146357510Y-70006853D01*
X146415127Y-69805129D01*
X146450326Y-69629130D01*
X145839540Y-69629130D01*
X145675239Y-69980233D01*
X145486258Y-70301400D01*
X145257036Y-70528440D01*
X144973038Y-70670266D01*
X144619730Y-70735790D01*
X144431606Y-70742761D01*
X144037640Y-70696899D01*
X143689855Y-70564170D01*
X143402337Y-70353378D01*
X143189173Y-70073327D01*
X143119632Y-69922795D01*
X143066378Y-69669361D01*
X143068721Y-69376840D01*
X143123615Y-69099727D01*
X143172331Y-68978999D01*
X143376842Y-68685942D01*
X143653925Y-68470339D01*
X144008001Y-68329616D01*
X144400879Y-68264463D01*
X144780000Y-68232679D01*
X144780000Y-67586087D01*
X144588811Y-67586087D01*
X144337229Y-67550748D01*
X144063862Y-67457387D01*
X143812857Y-67324990D01*
X143629054Y-67173337D01*
X143471357Y-66923425D01*
X143411841Y-66661820D01*
X143441673Y-66404096D01*
X143552021Y-66165833D01*
X143734051Y-65962606D01*
X143978929Y-65809994D01*
X144277824Y-65723572D01*
X144458906Y-65709908D01*
X144788408Y-65748665D01*
X145062354Y-65873385D01*
X145292192Y-66091664D01*
X145476297Y-66385109D01*
X145610122Y-66647391D01*
X145944217Y-66647391D01*
X146127692Y-66644898D01*
X146223587Y-66631056D01*
X146254743Y-66596327D01*
X146243998Y-66531169D01*
X146241658Y-66523152D01*
X146070013Y-66090793D01*
X145833213Y-65719846D01*
X145543350Y-65426381D01*
X145295166Y-65265140D01*
X145153079Y-65200101D01*
X145014523Y-65159469D01*
X144846756Y-65137795D01*
X144617031Y-65129632D01*
X144476305Y-65128913D01*
X144085664Y-65148161D01*
X144085664Y-65148161D01*
G37*
X144085664Y-65148161D02*
X143772465Y-65212315D01*
X143509505Y-65330995D01*
X143269582Y-65513819D01*
X143200699Y-65579939D01*
X142973310Y-65851527D01*
X142835281Y-66135433D01*
X142772918Y-66465274D01*
X142765845Y-66647391D01*
X142771549Y-66883783D01*
X142796928Y-67053782D01*
X142851754Y-67200987D01*
X142916626Y-67320196D01*
X143037292Y-67494230D01*
X143172260Y-67644465D01*
X143234126Y-67696673D01*
X143342460Y-67783375D01*
X143397742Y-67846316D01*
X143399566Y-67853377D01*
X143355544Y-67901201D01*
X143245285Y-67974187D01*
X143196715Y-68001465D01*
X142917109Y-68211254D01*
X142688349Y-68500728D01*
X142522126Y-68846311D01*
X142430134Y-69224427D01*
X142420033Y-69567495D01*
X142495607Y-69993364D01*
X142658833Y-70368392D01*
X142920749Y-70717400D01*
X142941178Y-70739483D01*
X143298611Y-71044081D01*
X143707763Y-71254219D01*
X144158268Y-71366767D01*
X144639761Y-71378597D01*
X144926048Y-71338689D01*
X145263196Y-71229835D01*
X145597609Y-71049055D01*
X145878831Y-70824014D01*
X145895267Y-70807271D01*
X146067669Y-70585302D01*
X146230122Y-70302358D01*
X146357510Y-70006853D01*
X146415127Y-69805129D01*
X146450326Y-69629130D01*
X145839540Y-69629130D01*
X145675239Y-69980233D01*
X145486258Y-70301400D01*
X145257036Y-70528440D01*
X144973038Y-70670266D01*
X144619730Y-70735790D01*
X144431606Y-70742761D01*
X144037640Y-70696899D01*
X143689855Y-70564170D01*
X143402337Y-70353378D01*
X143189173Y-70073327D01*
X143119632Y-69922795D01*
X143066378Y-69669361D01*
X143068721Y-69376840D01*
X143123615Y-69099727D01*
X143172331Y-68978999D01*
X143376842Y-68685942D01*
X143653925Y-68470339D01*
X144008001Y-68329616D01*
X144400879Y-68264463D01*
X144780000Y-68232679D01*
X144780000Y-67586087D01*
X144588811Y-67586087D01*
X144337229Y-67550748D01*
X144063862Y-67457387D01*
X143812857Y-67324990D01*
X143629054Y-67173337D01*
X143471357Y-66923425D01*
X143411841Y-66661820D01*
X143441673Y-66404096D01*
X143552021Y-66165833D01*
X143734051Y-65962606D01*
X143978929Y-65809994D01*
X144277824Y-65723572D01*
X144458906Y-65709908D01*
X144788408Y-65748665D01*
X145062354Y-65873385D01*
X145292192Y-66091664D01*
X145476297Y-66385109D01*
X145610122Y-66647391D01*
X145944217Y-66647391D01*
X146127692Y-66644898D01*
X146223587Y-66631056D01*
X146254743Y-66596327D01*
X146243998Y-66531169D01*
X146241658Y-66523152D01*
X146070013Y-66090793D01*
X145833213Y-65719846D01*
X145543350Y-65426381D01*
X145295166Y-65265140D01*
X145153079Y-65200101D01*
X145014523Y-65159469D01*
X144846756Y-65137795D01*
X144617031Y-65129632D01*
X144476305Y-65128913D01*
X144085664Y-65148161D01*
G36*
X130102238Y-68378705D02*
X130119783Y-69999585D01*
X130313044Y-70378258D01*
X130555561Y-70745698D01*
X130862861Y-71023823D01*
X131235963Y-71213485D01*
X131360141Y-71253054D01*
X131691429Y-71313628D01*
X132069884Y-71332306D01*
X132440043Y-71307969D01*
X132609516Y-71278240D01*
X132967292Y-71146231D01*
X133296858Y-70928272D01*
X133575081Y-70645680D01*
X133778833Y-70319775D01*
X133848984Y-70135878D01*
X133890814Y-69936182D01*
X133927798Y-69646051D01*
X133958702Y-69285427D01*
X133982291Y-68874250D01*
X133997331Y-68432462D01*
X134002590Y-67980004D01*
X134000217Y-67691967D01*
X133985000Y-66785435D01*
X133377609Y-66785435D01*
X133350000Y-68303913D01*
X133340296Y-68793115D01*
X133329014Y-69185501D01*
X133313330Y-69494683D01*
X133290420Y-69734273D01*
X133257458Y-69917882D01*
X133211620Y-70059122D01*
X133150082Y-70171606D01*
X133070018Y-70268945D01*
X132968604Y-70364750D01*
X132912215Y-70413588D01*
X132617385Y-70599980D01*
X132280864Y-70704653D01*
X131927740Y-70727943D01*
X131583101Y-70670185D01*
X131272034Y-70531715D01*
X131090043Y-70389241D01*
X130989101Y-70288551D01*
X130908836Y-70196535D01*
X130846717Y-70099410D01*
X130800210Y-69983390D01*
X130766786Y-69834693D01*
X130743910Y-69639533D01*
X130729052Y-69384125D01*
X130719678Y-69054686D01*
X130713258Y-68637431D01*
X130709527Y-68317717D01*
X130691880Y-66757826D01*
X130084694Y-66757826D01*
X130102238Y-68378705D01*
X130102238Y-68378705D01*
G37*
X130102238Y-68378705D02*
X130119783Y-69999585D01*
X130313044Y-70378258D01*
X130555561Y-70745698D01*
X130862861Y-71023823D01*
X131235963Y-71213485D01*
X131360141Y-71253054D01*
X131691429Y-71313628D01*
X132069884Y-71332306D01*
X132440043Y-71307969D01*
X132609516Y-71278240D01*
X132967292Y-71146231D01*
X133296858Y-70928272D01*
X133575081Y-70645680D01*
X133778833Y-70319775D01*
X133848984Y-70135878D01*
X133890814Y-69936182D01*
X133927798Y-69646051D01*
X133958702Y-69285427D01*
X133982291Y-68874250D01*
X133997331Y-68432462D01*
X134002590Y-67980004D01*
X134000217Y-67691967D01*
X133985000Y-66785435D01*
X133377609Y-66785435D01*
X133350000Y-68303913D01*
X133340296Y-68793115D01*
X133329014Y-69185501D01*
X133313330Y-69494683D01*
X133290420Y-69734273D01*
X133257458Y-69917882D01*
X133211620Y-70059122D01*
X133150082Y-70171606D01*
X133070018Y-70268945D01*
X132968604Y-70364750D01*
X132912215Y-70413588D01*
X132617385Y-70599980D01*
X132280864Y-70704653D01*
X131927740Y-70727943D01*
X131583101Y-70670185D01*
X131272034Y-70531715D01*
X131090043Y-70389241D01*
X130989101Y-70288551D01*
X130908836Y-70196535D01*
X130846717Y-70099410D01*
X130800210Y-69983390D01*
X130766786Y-69834693D01*
X130743910Y-69639533D01*
X130729052Y-69384125D01*
X130719678Y-69054686D01*
X130713258Y-68637431D01*
X130709527Y-68317717D01*
X130691880Y-66757826D01*
X130084694Y-66757826D01*
X130102238Y-68378705D01*
G36*
X127574001Y-66700646D02*
X127219187Y-66824978D01*
X127025188Y-66934003D01*
X126850275Y-67055286D01*
X126766180Y-67129048D01*
X126618551Y-67283140D01*
X126976337Y-67709304D01*
X127140017Y-67572638D01*
X127415534Y-67388126D01*
X127692631Y-67283825D01*
X127954638Y-67259346D01*
X128184886Y-67314298D01*
X128366707Y-67448292D01*
X128462590Y-67603573D01*
X128513390Y-67806641D01*
X128484690Y-67997772D01*
X128370352Y-68185305D01*
X128164236Y-68377577D01*
X127860204Y-68582929D01*
X127654196Y-68701616D01*
X127269780Y-68940414D01*
X126968887Y-69184007D01*
X126760532Y-69424103D01*
X126665674Y-69610678D01*
X126609147Y-69949106D01*
X126647885Y-70297040D01*
X126772402Y-70629009D01*
X126973212Y-70919542D01*
X127235084Y-71139642D01*
X127546735Y-71273134D01*
X127905612Y-71329968D01*
X128276870Y-71307384D01*
X128527730Y-71242036D01*
X128748127Y-71145168D01*
X128958970Y-71021813D01*
X129131255Y-70891775D01*
X129235977Y-70774854D01*
X129248122Y-70750204D01*
X129229502Y-70659875D01*
X129135597Y-70527888D01*
X129079537Y-70468116D01*
X128879476Y-70268055D01*
X128698977Y-70442163D01*
X128484373Y-70610645D01*
X128253009Y-70702625D01*
X127964928Y-70733213D01*
X127928605Y-70733478D01*
X127753806Y-70724472D01*
X127629522Y-70683255D01*
X127506736Y-70588528D01*
X127435243Y-70519105D01*
X127306097Y-70376676D01*
X127242085Y-70256042D01*
X127221697Y-70110530D01*
X127220870Y-70053994D01*
X127237052Y-69884709D01*
X127294536Y-69738013D01*
X127406728Y-69599393D01*
X127587037Y-69454336D01*
X127848870Y-69288328D01*
X128018269Y-69190835D01*
X128428272Y-68933230D01*
X128734302Y-68677697D01*
X128942328Y-68415839D01*
X129058313Y-68139256D01*
X129088225Y-67839550D01*
X129076121Y-67701564D01*
X128979685Y-67360966D01*
X128801432Y-67080320D01*
X128556550Y-66866796D01*
X128260226Y-66727563D01*
X127927647Y-66669789D01*
X127574001Y-66700646D01*
X127574001Y-66700646D01*
G37*
X127574001Y-66700646D02*
X127219187Y-66824978D01*
X127025188Y-66934003D01*
X126850275Y-67055286D01*
X126766180Y-67129048D01*
X126618551Y-67283140D01*
X126976337Y-67709304D01*
X127140017Y-67572638D01*
X127415534Y-67388126D01*
X127692631Y-67283825D01*
X127954638Y-67259346D01*
X128184886Y-67314298D01*
X128366707Y-67448292D01*
X128462590Y-67603573D01*
X128513390Y-67806641D01*
X128484690Y-67997772D01*
X128370352Y-68185305D01*
X128164236Y-68377577D01*
X127860204Y-68582929D01*
X127654196Y-68701616D01*
X127269780Y-68940414D01*
X126968887Y-69184007D01*
X126760532Y-69424103D01*
X126665674Y-69610678D01*
X126609147Y-69949106D01*
X126647885Y-70297040D01*
X126772402Y-70629009D01*
X126973212Y-70919542D01*
X127235084Y-71139642D01*
X127546735Y-71273134D01*
X127905612Y-71329968D01*
X128276870Y-71307384D01*
X128527730Y-71242036D01*
X128748127Y-71145168D01*
X128958970Y-71021813D01*
X129131255Y-70891775D01*
X129235977Y-70774854D01*
X129248122Y-70750204D01*
X129229502Y-70659875D01*
X129135597Y-70527888D01*
X129079537Y-70468116D01*
X128879476Y-70268055D01*
X128698977Y-70442163D01*
X128484373Y-70610645D01*
X128253009Y-70702625D01*
X127964928Y-70733213D01*
X127928605Y-70733478D01*
X127753806Y-70724472D01*
X127629522Y-70683255D01*
X127506736Y-70588528D01*
X127435243Y-70519105D01*
X127306097Y-70376676D01*
X127242085Y-70256042D01*
X127221697Y-70110530D01*
X127220870Y-70053994D01*
X127237052Y-69884709D01*
X127294536Y-69738013D01*
X127406728Y-69599393D01*
X127587037Y-69454336D01*
X127848870Y-69288328D01*
X128018269Y-69190835D01*
X128428272Y-68933230D01*
X128734302Y-68677697D01*
X128942328Y-68415839D01*
X129058313Y-68139256D01*
X129088225Y-67839550D01*
X129076121Y-67701564D01*
X128979685Y-67360966D01*
X128801432Y-67080320D01*
X128556550Y-66866796D01*
X128260226Y-66727563D01*
X127927647Y-66669789D01*
X127574001Y-66700646D01*
G36*
X121304443Y-66696145D02*
X120840828Y-66810057D01*
X120426228Y-66986522D01*
X120078807Y-67215595D01*
X119816728Y-67487333D01*
X119789846Y-67525314D01*
X119657743Y-67719721D01*
X120125435Y-68013543D01*
X120389527Y-67768301D01*
X120644098Y-67555803D01*
X120888357Y-67412813D01*
X121154482Y-67327638D01*
X121474655Y-67288583D01*
X121726740Y-67282391D01*
X121994387Y-67285703D01*
X122186500Y-67299781D01*
X122337884Y-67330840D01*
X122483344Y-67385097D01*
X122594450Y-67437340D01*
X122952198Y-67669334D01*
X123231003Y-67965572D01*
X123427918Y-68310170D01*
X123539995Y-68687243D01*
X123564286Y-69080909D01*
X123497846Y-69475281D01*
X123337725Y-69854477D01*
X123103095Y-70178548D01*
X122840412Y-70408115D01*
X122521675Y-70594946D01*
X122226476Y-70701789D01*
X122084782Y-70722388D01*
X121881137Y-70736184D01*
X121697291Y-70739958D01*
X121241203Y-70686822D01*
X120825056Y-70530789D01*
X120450301Y-70272418D01*
X120428864Y-70253404D01*
X120267180Y-70115314D01*
X120148449Y-70050584D01*
X120037779Y-70058124D01*
X119900275Y-70136842D01*
X119770540Y-70232825D01*
X119636515Y-70334586D01*
X119936192Y-70634055D01*
X120312539Y-70934625D01*
X120751453Y-71156471D01*
X121233499Y-71294834D01*
X121739239Y-71344955D01*
X122249237Y-71302077D01*
X122466397Y-71253487D01*
X122922245Y-71076679D01*
X123336919Y-70809627D01*
X123690514Y-70468378D01*
X123963130Y-70068979D01*
X123983065Y-70030626D01*
X124142975Y-69597275D01*
X124205732Y-69137145D01*
X124174706Y-68669181D01*
X124053267Y-68212331D01*
X123844787Y-67785541D01*
X123552635Y-67407756D01*
X123508525Y-67363073D01*
X123124549Y-67060232D01*
X122679541Y-66838482D01*
X122193493Y-66703870D01*
X121686395Y-66662445D01*
X121304443Y-66696145D01*
X121304443Y-66696145D01*
G37*
X121304443Y-66696145D02*
X120840828Y-66810057D01*
X120426228Y-66986522D01*
X120078807Y-67215595D01*
X119816728Y-67487333D01*
X119789846Y-67525314D01*
X119657743Y-67719721D01*
X120125435Y-68013543D01*
X120389527Y-67768301D01*
X120644098Y-67555803D01*
X120888357Y-67412813D01*
X121154482Y-67327638D01*
X121474655Y-67288583D01*
X121726740Y-67282391D01*
X121994387Y-67285703D01*
X122186500Y-67299781D01*
X122337884Y-67330840D01*
X122483344Y-67385097D01*
X122594450Y-67437340D01*
X122952198Y-67669334D01*
X123231003Y-67965572D01*
X123427918Y-68310170D01*
X123539995Y-68687243D01*
X123564286Y-69080909D01*
X123497846Y-69475281D01*
X123337725Y-69854477D01*
X123103095Y-70178548D01*
X122840412Y-70408115D01*
X122521675Y-70594946D01*
X122226476Y-70701789D01*
X122084782Y-70722388D01*
X121881137Y-70736184D01*
X121697291Y-70739958D01*
X121241203Y-70686822D01*
X120825056Y-70530789D01*
X120450301Y-70272418D01*
X120428864Y-70253404D01*
X120267180Y-70115314D01*
X120148449Y-70050584D01*
X120037779Y-70058124D01*
X119900275Y-70136842D01*
X119770540Y-70232825D01*
X119636515Y-70334586D01*
X119936192Y-70634055D01*
X120312539Y-70934625D01*
X120751453Y-71156471D01*
X121233499Y-71294834D01*
X121739239Y-71344955D01*
X122249237Y-71302077D01*
X122466397Y-71253487D01*
X122922245Y-71076679D01*
X123336919Y-70809627D01*
X123690514Y-70468378D01*
X123963130Y-70068979D01*
X123983065Y-70030626D01*
X124142975Y-69597275D01*
X124205732Y-69137145D01*
X124174706Y-68669181D01*
X124053267Y-68212331D01*
X123844787Y-67785541D01*
X123552635Y-67407756D01*
X123508525Y-67363073D01*
X123124549Y-67060232D01*
X122679541Y-66838482D01*
X122193493Y-66703870D01*
X121686395Y-66662445D01*
X121304443Y-66696145D01*
G36*
X113316176Y-66717746D02*
X112886011Y-66849879D01*
X112487919Y-67060395D01*
X112137279Y-67346926D01*
X111849469Y-67707104D01*
X111751443Y-67878948D01*
X111678088Y-68061262D01*
X111603867Y-68307197D01*
X111539755Y-68572546D01*
X111496726Y-68813104D01*
X111484872Y-68952717D01*
X111483913Y-69076957D01*
X115474576Y-69076957D01*
X115438990Y-69336585D01*
X115332347Y-69736750D01*
X115136354Y-70088580D01*
X114864306Y-70378403D01*
X114529498Y-70592545D01*
X114145224Y-70717334D01*
X114086942Y-70727087D01*
X113648267Y-70739098D01*
X113232419Y-70645536D01*
X112849361Y-70450513D01*
X112509054Y-70158137D01*
X112399869Y-70031026D01*
X112126869Y-69687487D01*
X111929630Y-69805189D01*
X111794081Y-69889054D01*
X111699004Y-69953205D01*
X111684799Y-69964408D01*
X111686605Y-70029989D01*
X111745705Y-70155438D01*
X111846520Y-70317643D01*
X111973471Y-70493492D01*
X112110978Y-70659875D01*
X112243464Y-70793681D01*
X112244306Y-70794422D01*
X112402983Y-70911936D01*
X112613981Y-71040479D01*
X112798701Y-71136145D01*
X113002671Y-71222685D01*
X113189777Y-71276115D01*
X113403786Y-71305808D01*
X113657186Y-71320046D01*
X113962308Y-71320159D01*
X114242582Y-71300416D01*
X114444476Y-71266388D01*
X114875868Y-71099999D01*
X115264844Y-70831680D01*
X115478282Y-70621270D01*
X115776274Y-70211948D01*
X115977793Y-69764292D01*
X116083146Y-69293162D01*
X116092642Y-68813418D01*
X116040185Y-68524783D01*
X115401615Y-68524783D01*
X113801677Y-68524783D01*
X113282902Y-68522873D01*
X112862229Y-68517207D01*
X112542382Y-68507880D01*
X112326083Y-68494987D01*
X112216056Y-68478623D01*
X112201740Y-68468963D01*
X112232441Y-68350300D01*
X112311420Y-68179846D01*
X112418987Y-67992853D01*
X112535450Y-67824572D01*
X112609437Y-67739059D01*
X112928046Y-67497369D01*
X113309255Y-67345435D01*
X113749516Y-67284582D01*
X113830653Y-67283391D01*
X114090436Y-67291589D01*
X114281447Y-67320063D01*
X114444632Y-67376543D01*
X114520870Y-67413661D01*
X114828189Y-67609793D01*
X115065252Y-67850864D01*
X115253188Y-68161724D01*
X115349846Y-68388620D01*
X115401615Y-68524783D01*
X116040185Y-68524783D01*
X116006587Y-68339917D01*
X115825290Y-67887520D01*
X115549057Y-67471086D01*
X115409884Y-67315683D01*
X115050018Y-67020390D01*
X114645336Y-66815317D01*
X114211217Y-66698097D01*
X113763037Y-66666363D01*
X113316176Y-66717746D01*
X113316176Y-66717746D01*
G37*
X113316176Y-66717746D02*
X112886011Y-66849879D01*
X112487919Y-67060395D01*
X112137279Y-67346926D01*
X111849469Y-67707104D01*
X111751443Y-67878948D01*
X111678088Y-68061262D01*
X111603867Y-68307197D01*
X111539755Y-68572546D01*
X111496726Y-68813104D01*
X111484872Y-68952717D01*
X111483913Y-69076957D01*
X115474576Y-69076957D01*
X115438990Y-69336585D01*
X115332347Y-69736750D01*
X115136354Y-70088580D01*
X114864306Y-70378403D01*
X114529498Y-70592545D01*
X114145224Y-70717334D01*
X114086942Y-70727087D01*
X113648267Y-70739098D01*
X113232419Y-70645536D01*
X112849361Y-70450513D01*
X112509054Y-70158137D01*
X112399869Y-70031026D01*
X112126869Y-69687487D01*
X111929630Y-69805189D01*
X111794081Y-69889054D01*
X111699004Y-69953205D01*
X111684799Y-69964408D01*
X111686605Y-70029989D01*
X111745705Y-70155438D01*
X111846520Y-70317643D01*
X111973471Y-70493492D01*
X112110978Y-70659875D01*
X112243464Y-70793681D01*
X112244306Y-70794422D01*
X112402983Y-70911936D01*
X112613981Y-71040479D01*
X112798701Y-71136145D01*
X113002671Y-71222685D01*
X113189777Y-71276115D01*
X113403786Y-71305808D01*
X113657186Y-71320046D01*
X113962308Y-71320159D01*
X114242582Y-71300416D01*
X114444476Y-71266388D01*
X114875868Y-71099999D01*
X115264844Y-70831680D01*
X115478282Y-70621270D01*
X115776274Y-70211948D01*
X115977793Y-69764292D01*
X116083146Y-69293162D01*
X116092642Y-68813418D01*
X116040185Y-68524783D01*
X115401615Y-68524783D01*
X113801677Y-68524783D01*
X113282902Y-68522873D01*
X112862229Y-68517207D01*
X112542382Y-68507880D01*
X112326083Y-68494987D01*
X112216056Y-68478623D01*
X112201740Y-68468963D01*
X112232441Y-68350300D01*
X112311420Y-68179846D01*
X112418987Y-67992853D01*
X112535450Y-67824572D01*
X112609437Y-67739059D01*
X112928046Y-67497369D01*
X113309255Y-67345435D01*
X113749516Y-67284582D01*
X113830653Y-67283391D01*
X114090436Y-67291589D01*
X114281447Y-67320063D01*
X114444632Y-67376543D01*
X114520870Y-67413661D01*
X114828189Y-67609793D01*
X115065252Y-67850864D01*
X115253188Y-68161724D01*
X115349846Y-68388620D01*
X115401615Y-68524783D01*
X116040185Y-68524783D01*
X116006587Y-68339917D01*
X115825290Y-67887520D01*
X115549057Y-67471086D01*
X115409884Y-67315683D01*
X115050018Y-67020390D01*
X114645336Y-66815317D01*
X114211217Y-66698097D01*
X113763037Y-66666363D01*
X113316176Y-66717746D01*
G36*
X135795889Y-65283358D02*
X135758231Y-65445150D01*
X135707800Y-65711732D01*
X135644449Y-66083991D01*
X135568029Y-66562812D01*
X135478392Y-67149082D01*
X135375389Y-67843688D01*
X135327752Y-68170379D01*
X135247097Y-68726786D01*
X135171324Y-69251142D01*
X135101910Y-69733111D01*
X135040331Y-70162360D01*
X134988066Y-70528556D01*
X134946591Y-70821364D01*
X134917383Y-71030452D01*
X134901920Y-71145484D01*
X134899817Y-71164169D01*
X134930635Y-71205839D01*
X135039640Y-71222728D01*
X135212800Y-71219386D01*
X135529512Y-71202826D01*
X135817703Y-69159783D01*
X135882895Y-68697911D01*
X135943215Y-68271124D01*
X135996934Y-67891613D01*
X136042321Y-67571571D01*
X136077647Y-67323190D01*
X136101185Y-67158661D01*
X136111203Y-67090177D01*
X136111385Y-67089130D01*
X136136421Y-67130828D01*
X136205722Y-67261306D01*
X136314175Y-67470566D01*
X136456668Y-67748608D01*
X136628086Y-68085432D01*
X136823317Y-68471039D01*
X137037247Y-68895430D01*
X137163148Y-69145978D01*
X137438213Y-69691480D01*
X137669009Y-70143402D01*
X137858862Y-70507816D01*
X138011104Y-70790790D01*
X138129061Y-70998396D01*
X138216064Y-71136705D01*
X138275441Y-71211786D01*
X138306203Y-71230435D01*
X138344315Y-71204155D01*
X138405922Y-71121138D01*
X138494390Y-70975117D01*
X138613080Y-70759823D01*
X138765355Y-70468991D01*
X138954579Y-70096351D01*
X139184114Y-69635638D01*
X139431379Y-69133502D01*
X139686843Y-68614092D01*
X139898670Y-68187160D01*
X140070770Y-67845508D01*
X140207056Y-67581938D01*
X140311436Y-67389253D01*
X140387822Y-67260255D01*
X140440124Y-67187746D01*
X140472253Y-67164530D01*
X140488120Y-67183408D01*
X140488916Y-67187089D01*
X140503009Y-67275694D01*
X140530015Y-67460154D01*
X140568027Y-67726887D01*
X140615134Y-68062312D01*
X140669428Y-68452849D01*
X140729000Y-68884915D01*
X140783636Y-69284022D01*
X141049211Y-71230435D01*
X141374505Y-71230435D01*
X141555112Y-71227612D01*
X141648991Y-71212536D01*
X141679820Y-71175295D01*
X141671331Y-71106196D01*
X141658308Y-71028717D01*
X141631540Y-70852620D01*
X141592582Y-70588658D01*
X141542985Y-70247583D01*
X141484303Y-69840148D01*
X141418089Y-69377105D01*
X141345896Y-68869206D01*
X141269276Y-68327204D01*
X141242662Y-68138261D01*
X141164752Y-67589929D01*
X141090067Y-67074379D01*
X141020215Y-66602021D01*
X140956803Y-66183266D01*
X140901439Y-65828523D01*
X140855730Y-65548205D01*
X140821284Y-65352720D01*
X140799708Y-65252480D01*
X140795401Y-65241714D01*
X140723982Y-65230131D01*
X140672695Y-65269323D01*
X140633865Y-65333974D01*
X140552014Y-65487953D01*
X140432205Y-65721171D01*
X140279504Y-66023539D01*
X140098976Y-66384970D01*
X139895685Y-66795375D01*
X139674696Y-67244665D01*
X139444502Y-67715715D01*
X138291957Y-70081646D01*
X137090924Y-67642110D01*
X136792157Y-67038540D01*
X136530210Y-66516192D01*
X136306659Y-66078066D01*
X136123079Y-65727159D01*
X135981046Y-65466472D01*
X135882138Y-65299004D01*
X135827929Y-65227752D01*
X135820924Y-65225469D01*
X135795889Y-65283358D01*
X135795889Y-65283358D01*
G37*
X135795889Y-65283358D02*
X135758231Y-65445150D01*
X135707800Y-65711732D01*
X135644449Y-66083991D01*
X135568029Y-66562812D01*
X135478392Y-67149082D01*
X135375389Y-67843688D01*
X135327752Y-68170379D01*
X135247097Y-68726786D01*
X135171324Y-69251142D01*
X135101910Y-69733111D01*
X135040331Y-70162360D01*
X134988066Y-70528556D01*
X134946591Y-70821364D01*
X134917383Y-71030452D01*
X134901920Y-71145484D01*
X134899817Y-71164169D01*
X134930635Y-71205839D01*
X135039640Y-71222728D01*
X135212800Y-71219386D01*
X135529512Y-71202826D01*
X135817703Y-69159783D01*
X135882895Y-68697911D01*
X135943215Y-68271124D01*
X135996934Y-67891613D01*
X136042321Y-67571571D01*
X136077647Y-67323190D01*
X136101185Y-67158661D01*
X136111203Y-67090177D01*
X136111385Y-67089130D01*
X136136421Y-67130828D01*
X136205722Y-67261306D01*
X136314175Y-67470566D01*
X136456668Y-67748608D01*
X136628086Y-68085432D01*
X136823317Y-68471039D01*
X137037247Y-68895430D01*
X137163148Y-69145978D01*
X137438213Y-69691480D01*
X137669009Y-70143402D01*
X137858862Y-70507816D01*
X138011104Y-70790790D01*
X138129061Y-70998396D01*
X138216064Y-71136705D01*
X138275441Y-71211786D01*
X138306203Y-71230435D01*
X138344315Y-71204155D01*
X138405922Y-71121138D01*
X138494390Y-70975117D01*
X138613080Y-70759823D01*
X138765355Y-70468991D01*
X138954579Y-70096351D01*
X139184114Y-69635638D01*
X139431379Y-69133502D01*
X139686843Y-68614092D01*
X139898670Y-68187160D01*
X140070770Y-67845508D01*
X140207056Y-67581938D01*
X140311436Y-67389253D01*
X140387822Y-67260255D01*
X140440124Y-67187746D01*
X140472253Y-67164530D01*
X140488120Y-67183408D01*
X140488916Y-67187089D01*
X140503009Y-67275694D01*
X140530015Y-67460154D01*
X140568027Y-67726887D01*
X140615134Y-68062312D01*
X140669428Y-68452849D01*
X140729000Y-68884915D01*
X140783636Y-69284022D01*
X141049211Y-71230435D01*
X141374505Y-71230435D01*
X141555112Y-71227612D01*
X141648991Y-71212536D01*
X141679820Y-71175295D01*
X141671331Y-71106196D01*
X141658308Y-71028717D01*
X141631540Y-70852620D01*
X141592582Y-70588658D01*
X141542985Y-70247583D01*
X141484303Y-69840148D01*
X141418089Y-69377105D01*
X141345896Y-68869206D01*
X141269276Y-68327204D01*
X141242662Y-68138261D01*
X141164752Y-67589929D01*
X141090067Y-67074379D01*
X141020215Y-66602021D01*
X140956803Y-66183266D01*
X140901439Y-65828523D01*
X140855730Y-65548205D01*
X140821284Y-65352720D01*
X140799708Y-65252480D01*
X140795401Y-65241714D01*
X140723982Y-65230131D01*
X140672695Y-65269323D01*
X140633865Y-65333974D01*
X140552014Y-65487953D01*
X140432205Y-65721171D01*
X140279504Y-66023539D01*
X140098976Y-66384970D01*
X139895685Y-66795375D01*
X139674696Y-67244665D01*
X139444502Y-67715715D01*
X138291957Y-70081646D01*
X137090924Y-67642110D01*
X136792157Y-67038540D01*
X136530210Y-66516192D01*
X136306659Y-66078066D01*
X136123079Y-65727159D01*
X135981046Y-65466472D01*
X135882138Y-65299004D01*
X135827929Y-65227752D01*
X135820924Y-65225469D01*
X135795889Y-65283358D01*
G36*
X125122609Y-71230435D02*
X125730000Y-71230435D01*
X125730000Y-66757826D01*
X125122609Y-66757826D01*
X125122609Y-71230435D01*
X125122609Y-71230435D01*
G37*
X125122609Y-71230435D02*
X125730000Y-71230435D01*
X125730000Y-66757826D01*
X125122609Y-66757826D01*
X125122609Y-71230435D01*
G36*
X116729566Y-69242609D02*
X118993479Y-69242609D01*
X118993479Y-68690435D01*
X116729566Y-68690435D01*
X116729566Y-69242609D01*
X116729566Y-69242609D01*
G37*
X116729566Y-69242609D02*
X118993479Y-69242609D01*
X118993479Y-68690435D01*
X116729566Y-68690435D01*
X116729566Y-69242609D01*
G36*
X125220973Y-65027494D02*
X125060315Y-65142059D01*
X124957817Y-65313942D01*
X124934870Y-65460217D01*
X124983467Y-65676415D01*
X125115630Y-65839326D01*
X125310923Y-65932795D01*
X125543682Y-65941478D01*
X125720269Y-65865536D01*
X125843646Y-65718439D01*
X125904812Y-65530233D01*
X125894769Y-65330962D01*
X125804515Y-65150671D01*
X125786636Y-65130423D01*
X125610659Y-65011406D01*
X125413263Y-64980520D01*
X125220973Y-65027494D01*
X125220973Y-65027494D01*
G37*
X125220973Y-65027494D02*
X125060315Y-65142059D01*
X124957817Y-65313942D01*
X124934870Y-65460217D01*
X124983467Y-65676415D01*
X125115630Y-65839326D01*
X125310923Y-65932795D01*
X125543682Y-65941478D01*
X125720269Y-65865536D01*
X125843646Y-65718439D01*
X125904812Y-65530233D01*
X125894769Y-65330962D01*
X125804515Y-65150671D01*
X125786636Y-65130423D01*
X125610659Y-65011406D01*
X125413263Y-64980520D01*
X125220973Y-65027494D01*
%LPC*%
D13*
X173510000Y-102820000D03*
X173510000Y-96520000D03*
X173510000Y-90220000D03*
X189710000Y-102820000D03*
X189710000Y-96520000D03*
X189710000Y-90220000D03*
X179550000Y-67360000D03*
X179550000Y-73660000D03*
X179550000Y-79960000D03*
X163350000Y-67360000D03*
X163350000Y-73660000D03*
X163350000Y-79960000D03*
X201140000Y-67360000D03*
X201140000Y-73660000D03*
X201140000Y-79960000D03*
X184940000Y-67360000D03*
X184940000Y-73660000D03*
X184940000Y-79960000D03*
D14*
X110490000Y-86360000D03*
X110490000Y-81280000D03*
X118110000Y-86360000D03*
X118110000Y-81280000D03*
X121920000Y-104140000D03*
X121920000Y-109220000D03*
X114300000Y-104140000D03*
X114300000Y-109220000D03*
D15*
X130810000Y-109220000D03*
X128270000Y-109220000D03*
X125730000Y-109220000D03*
X133350000Y-109220000D03*
X135890000Y-109220000D03*
X138430000Y-109220000D03*
X151130000Y-109220000D03*
X148590000Y-109220000D03*
X153670000Y-109220000D03*
X156210000Y-109220000D03*
X146050000Y-109220000D03*
X143510000Y-109220000D03*
X148590000Y-60960000D03*
X146050000Y-60960000D03*
X151130000Y-60960000D03*
X153670000Y-60960000D03*
X156210000Y-60960000D03*
X143510000Y-60960000D03*
X140970000Y-60960000D03*
X138430000Y-60960000D03*
X126746000Y-60960000D03*
X124206000Y-60960000D03*
X121666000Y-60960000D03*
X119126000Y-60960000D03*
X116586000Y-60960000D03*
X129286000Y-60960000D03*
X131826000Y-60960000D03*
X134366000Y-60960000D03*
M02*
