M48
;DRILL file {KiCad 0.201510170916+6271~30~ubuntu14.04.1-product} date Tue 27 Oct 2015 03:45:06 PM CET
;FORMAT={-:-/ absolute / metric / decimal}
FMAT,2
METRIC,TZ
T1C0.635
T2C0.800
T3C1.016
T4C2.100
T5C3.200
%
G90
G05
M71
T1
X152.781Y-87.122
X154.559Y-80.2
X156.845Y-80.2
T2
X110.49Y-81.28
X110.49Y-86.36
X114.3Y-104.14
X114.3Y-109.22
X118.11Y-81.28
X118.11Y-86.36
X121.92Y-104.14
X121.92Y-109.22
T3
X116.586Y-60.96
X119.126Y-60.96
X121.666Y-60.96
X124.206Y-60.96
X125.73Y-109.22
X126.746Y-60.96
X128.27Y-109.22
X129.286Y-60.96
X130.81Y-109.22
X131.826Y-60.96
X133.35Y-109.22
X134.366Y-60.96
X135.89Y-109.22
X138.43Y-60.96
X138.43Y-109.22
X140.97Y-60.96
X143.51Y-60.96
X143.51Y-109.22
X146.05Y-60.96
X146.05Y-109.22
X148.59Y-60.96
X148.59Y-109.22
X151.13Y-60.96
X151.13Y-109.22
X153.67Y-60.96
X153.67Y-109.22
X156.21Y-60.96
X156.21Y-109.22
T4
X163.35Y-67.36
X163.35Y-73.66
X163.35Y-79.96
X173.51Y-90.22
X173.51Y-96.52
X173.51Y-102.82
X179.55Y-67.36
X179.55Y-73.66
X179.55Y-79.96
X184.94Y-67.36
X184.94Y-73.66
X184.94Y-79.96
X189.71Y-90.22
X189.71Y-96.52
X189.71Y-102.82
X201.14Y-67.36
X201.14Y-73.66
X201.14Y-79.96
T5
X107.95Y-60.96
X158.75Y-76.2
X158.75Y-104.14
T0
M30
