G04 #@! TF.FileFunction,Soldermask,Bot*
%FSLAX46Y46*%
G04 Gerber Fmt 4.6, Leading zero omitted, Abs format (unit mm)*
G04 Created by KiCad (PCBNEW 0.201510170916+6271~30~ubuntu14.04.1-product) date Tue 27 Oct 2015 03:36:54 PM CET*
%MOMM*%
G01*
G04 APERTURE LIST*
%ADD10C,0.100000*%
%ADD11C,2.500000*%
%ADD12O,1.900000X1.500000*%
%ADD13O,1.524000X2.032000*%
G04 APERTURE END LIST*
D10*
D11*
X173510000Y-102820000D03*
X173510000Y-96520000D03*
X173510000Y-90220000D03*
X189710000Y-102820000D03*
X189710000Y-96520000D03*
X189710000Y-90220000D03*
X179550000Y-67360000D03*
X179550000Y-73660000D03*
X179550000Y-79960000D03*
X163350000Y-67360000D03*
X163350000Y-73660000D03*
X163350000Y-79960000D03*
X201140000Y-67360000D03*
X201140000Y-73660000D03*
X201140000Y-79960000D03*
X184940000Y-67360000D03*
X184940000Y-73660000D03*
X184940000Y-79960000D03*
D12*
X110490000Y-86360000D03*
X110490000Y-81280000D03*
X118110000Y-86360000D03*
X118110000Y-81280000D03*
X121920000Y-104140000D03*
X121920000Y-109220000D03*
X114300000Y-104140000D03*
X114300000Y-109220000D03*
D13*
X130810000Y-109220000D03*
X128270000Y-109220000D03*
X125730000Y-109220000D03*
X133350000Y-109220000D03*
X135890000Y-109220000D03*
X138430000Y-109220000D03*
X151130000Y-109220000D03*
X148590000Y-109220000D03*
X153670000Y-109220000D03*
X156210000Y-109220000D03*
X146050000Y-109220000D03*
X143510000Y-109220000D03*
X148590000Y-60960000D03*
X146050000Y-60960000D03*
X151130000Y-60960000D03*
X153670000Y-60960000D03*
X156210000Y-60960000D03*
X143510000Y-60960000D03*
X140970000Y-60960000D03*
X138430000Y-60960000D03*
X126746000Y-60960000D03*
X124206000Y-60960000D03*
X121666000Y-60960000D03*
X119126000Y-60960000D03*
X116586000Y-60960000D03*
X129286000Y-60960000D03*
X131826000Y-60960000D03*
X134366000Y-60960000D03*
M02*
