G04 #@! TF.FileFunction,Legend,Top*
%FSLAX46Y46*%
G04 Gerber Fmt 4.6, Leading zero omitted, Abs format (unit mm)*
G04 Created by KiCad (PCBNEW 0.201510170916+6271~30~ubuntu14.04.1-product) date Tue 27 Oct 2015 03:36:54 PM CET*
%MOMM*%
G01*
G04 APERTURE LIST*
%ADD10C,0.100000*%
%ADD11C,0.600000*%
%ADD12C,0.500000*%
%ADD13C,0.150000*%
%ADD14C,0.203200*%
%ADD15C,0.010000*%
%ADD16C,0.300000*%
%ADD17R,1.500000X1.250000*%
%ADD18C,2.500000*%
%ADD19R,1.300000X1.500000*%
%ADD20O,1.900000X1.500000*%
%ADD21R,0.600000X0.400000*%
%ADD22O,1.524000X2.032000*%
%ADD23R,0.750000X1.400000*%
%ADD24R,1.450000X0.300000*%
G04 APERTURE END LIST*
D10*
D11*
X115379429Y-90048000D02*
X116808000Y-90048000D01*
X115093714Y-90905143D02*
X116093714Y-87905143D01*
X117093714Y-90905143D01*
X119093715Y-89333714D02*
X119522286Y-89476571D01*
X119665143Y-89619429D01*
X119808000Y-89905143D01*
X119808000Y-90333714D01*
X119665143Y-90619429D01*
X119522286Y-90762286D01*
X119236572Y-90905143D01*
X118093715Y-90905143D01*
X118093715Y-87905143D01*
X119093715Y-87905143D01*
X119379429Y-88048000D01*
X119522286Y-88190857D01*
X119665143Y-88476571D01*
X119665143Y-88762286D01*
X119522286Y-89048000D01*
X119379429Y-89190857D01*
X119093715Y-89333714D01*
X118093715Y-89333714D01*
X122093715Y-89333714D02*
X122522286Y-89476571D01*
X122665143Y-89619429D01*
X122808000Y-89905143D01*
X122808000Y-90333714D01*
X122665143Y-90619429D01*
X122522286Y-90762286D01*
X122236572Y-90905143D01*
X121093715Y-90905143D01*
X121093715Y-87905143D01*
X122093715Y-87905143D01*
X122379429Y-88048000D01*
X122522286Y-88190857D01*
X122665143Y-88476571D01*
X122665143Y-88762286D01*
X122522286Y-89048000D01*
X122379429Y-89190857D01*
X122093715Y-89333714D01*
X121093715Y-89333714D01*
X124522286Y-90905143D02*
X124236572Y-90762286D01*
X124093715Y-90476571D01*
X124093715Y-87905143D01*
X125665144Y-90905143D02*
X125665144Y-88905143D01*
X125665144Y-87905143D02*
X125522287Y-88048000D01*
X125665144Y-88190857D01*
X125808001Y-88048000D01*
X125665144Y-87905143D01*
X125665144Y-88190857D01*
X127093715Y-88905143D02*
X127093715Y-90905143D01*
X127093715Y-89190857D02*
X127236572Y-89048000D01*
X127522286Y-88905143D01*
X127950858Y-88905143D01*
X128236572Y-89048000D01*
X128379429Y-89333714D01*
X128379429Y-90905143D01*
X131093715Y-90905143D02*
X131093715Y-87905143D01*
X131093715Y-90762286D02*
X130808001Y-90905143D01*
X130236572Y-90905143D01*
X129950858Y-90762286D01*
X129808001Y-90619429D01*
X129665144Y-90333714D01*
X129665144Y-89476571D01*
X129808001Y-89190857D01*
X129950858Y-89048000D01*
X130236572Y-88905143D01*
X130808001Y-88905143D01*
X131093715Y-89048000D01*
X116522286Y-94133714D02*
X116950857Y-94276571D01*
X117093714Y-94419429D01*
X117236571Y-94705143D01*
X117236571Y-95133714D01*
X117093714Y-95419429D01*
X116950857Y-95562286D01*
X116665143Y-95705143D01*
X115522286Y-95705143D01*
X115522286Y-92705143D01*
X116522286Y-92705143D01*
X116808000Y-92848000D01*
X116950857Y-92990857D01*
X117093714Y-93276571D01*
X117093714Y-93562286D01*
X116950857Y-93848000D01*
X116808000Y-93990857D01*
X116522286Y-94133714D01*
X115522286Y-94133714D01*
X118950857Y-95705143D02*
X118665143Y-95562286D01*
X118522286Y-95276571D01*
X118522286Y-92705143D01*
X120093715Y-95705143D02*
X120093715Y-93705143D01*
X120093715Y-92705143D02*
X119950858Y-92848000D01*
X120093715Y-92990857D01*
X120236572Y-92848000D01*
X120093715Y-92705143D01*
X120093715Y-92990857D01*
X121522286Y-93705143D02*
X121522286Y-95705143D01*
X121522286Y-93990857D02*
X121665143Y-93848000D01*
X121950857Y-93705143D01*
X122379429Y-93705143D01*
X122665143Y-93848000D01*
X122808000Y-94133714D01*
X122808000Y-95705143D01*
X125522286Y-95705143D02*
X125522286Y-92705143D01*
X125522286Y-95562286D02*
X125236572Y-95705143D01*
X124665143Y-95705143D01*
X124379429Y-95562286D01*
X124236572Y-95419429D01*
X124093715Y-95133714D01*
X124093715Y-94276571D01*
X124236572Y-93990857D01*
X124379429Y-93848000D01*
X124665143Y-93705143D01*
X125236572Y-93705143D01*
X125522286Y-93848000D01*
X128808000Y-93705143D02*
X129950857Y-93705143D01*
X129236572Y-92705143D02*
X129236572Y-95276571D01*
X129379429Y-95562286D01*
X129665143Y-95705143D01*
X129950857Y-95705143D01*
X132093715Y-95562286D02*
X131808001Y-95705143D01*
X131236572Y-95705143D01*
X130950858Y-95562286D01*
X130808001Y-95276571D01*
X130808001Y-94133714D01*
X130950858Y-93848000D01*
X131236572Y-93705143D01*
X131808001Y-93705143D01*
X132093715Y-93848000D01*
X132236572Y-94133714D01*
X132236572Y-94419429D01*
X130808001Y-94705143D01*
X133379430Y-95562286D02*
X133665144Y-95705143D01*
X134236572Y-95705143D01*
X134522287Y-95562286D01*
X134665144Y-95276571D01*
X134665144Y-95133714D01*
X134522287Y-94848000D01*
X134236572Y-94705143D01*
X133808001Y-94705143D01*
X133522287Y-94562286D01*
X133379430Y-94276571D01*
X133379430Y-94133714D01*
X133522287Y-93848000D01*
X133808001Y-93705143D01*
X134236572Y-93705143D01*
X134522287Y-93848000D01*
X135522286Y-93705143D02*
X136665143Y-93705143D01*
X135950858Y-92705143D02*
X135950858Y-95276571D01*
X136093715Y-95562286D01*
X136379429Y-95705143D01*
X136665143Y-95705143D01*
X139950858Y-93705143D02*
X139950858Y-96705143D01*
X139950858Y-93848000D02*
X140236572Y-93705143D01*
X140808001Y-93705143D01*
X141093715Y-93848000D01*
X141236572Y-93990857D01*
X141379429Y-94276571D01*
X141379429Y-95133714D01*
X141236572Y-95419429D01*
X141093715Y-95562286D01*
X140808001Y-95705143D01*
X140236572Y-95705143D01*
X139950858Y-95562286D01*
X143808001Y-95562286D02*
X143522287Y-95705143D01*
X142950858Y-95705143D01*
X142665144Y-95562286D01*
X142522287Y-95276571D01*
X142522287Y-94133714D01*
X142665144Y-93848000D01*
X142950858Y-93705143D01*
X143522287Y-93705143D01*
X143808001Y-93848000D01*
X143950858Y-94133714D01*
X143950858Y-94419429D01*
X142522287Y-94705143D01*
X146522287Y-95705143D02*
X146522287Y-92705143D01*
X146522287Y-95562286D02*
X146236573Y-95705143D01*
X145665144Y-95705143D01*
X145379430Y-95562286D01*
X145236573Y-95419429D01*
X145093716Y-95133714D01*
X145093716Y-94276571D01*
X145236573Y-93990857D01*
X145379430Y-93848000D01*
X145665144Y-93705143D01*
X146236573Y-93705143D01*
X146522287Y-93848000D01*
X149236573Y-95705143D02*
X149236573Y-94133714D01*
X149093716Y-93848000D01*
X148808002Y-93705143D01*
X148236573Y-93705143D01*
X147950859Y-93848000D01*
X149236573Y-95562286D02*
X148950859Y-95705143D01*
X148236573Y-95705143D01*
X147950859Y-95562286D01*
X147808002Y-95276571D01*
X147808002Y-94990857D01*
X147950859Y-94705143D01*
X148236573Y-94562286D01*
X148950859Y-94562286D01*
X149236573Y-94419429D01*
X151093716Y-95705143D02*
X150808002Y-95562286D01*
X150665145Y-95276571D01*
X150665145Y-92705143D01*
X165108000Y-88693715D02*
X165108000Y-90122286D01*
X164250857Y-88408000D02*
X167250857Y-89408000D01*
X164250857Y-90408000D01*
D12*
X166116000Y-86868000D02*
X165608000Y-87376000D01*
X166624000Y-87376000D02*
X166116000Y-86868000D01*
X165100000Y-87376000D02*
X166624000Y-87376000D01*
X166116000Y-86360000D02*
X165100000Y-87376000D01*
X167132000Y-87376000D02*
X166116000Y-86360000D01*
X167640000Y-87376000D02*
X167132000Y-87376000D01*
X164592000Y-87376000D02*
X167640000Y-87376000D01*
X166116000Y-85852000D02*
X164592000Y-87376000D01*
X167640000Y-87376000D02*
X166116000Y-85852000D01*
X168148000Y-87376000D02*
X167640000Y-87376000D01*
X166116000Y-85344000D02*
X168148000Y-87376000D01*
X164084000Y-87376000D02*
X166116000Y-85344000D01*
X167640000Y-87376000D02*
X164084000Y-87376000D01*
X201168000Y-87376000D02*
X197612000Y-87376000D01*
X197612000Y-87376000D02*
X199644000Y-85344000D01*
X199644000Y-85344000D02*
X201676000Y-87376000D01*
X201676000Y-87376000D02*
X201168000Y-87376000D01*
X201168000Y-87376000D02*
X199644000Y-85852000D01*
X199644000Y-85852000D02*
X198120000Y-87376000D01*
X198120000Y-87376000D02*
X201168000Y-87376000D01*
X201168000Y-87376000D02*
X200660000Y-87376000D01*
X200660000Y-87376000D02*
X199644000Y-86360000D01*
X199644000Y-86360000D02*
X198628000Y-87376000D01*
X198628000Y-87376000D02*
X200152000Y-87376000D01*
X200152000Y-87376000D02*
X199644000Y-86868000D01*
X199644000Y-86868000D02*
X199136000Y-87376000D01*
D11*
X199350286Y-89622286D02*
X199207429Y-90050857D01*
X199064571Y-90193714D01*
X198778857Y-90336571D01*
X198350286Y-90336571D01*
X198064571Y-90193714D01*
X197921714Y-90050857D01*
X197778857Y-89765143D01*
X197778857Y-88622286D01*
X200778857Y-88622286D01*
X200778857Y-89622286D01*
X200636000Y-89908000D01*
X200493143Y-90050857D01*
X200207429Y-90193714D01*
X199921714Y-90193714D01*
X199636000Y-90050857D01*
X199493143Y-89908000D01*
X199350286Y-89622286D01*
X199350286Y-88622286D01*
D12*
X195072000Y-108204000D02*
X195580000Y-107696000D01*
X194564000Y-107696000D02*
X195072000Y-108204000D01*
X196088000Y-107696000D02*
X194564000Y-107696000D01*
X195072000Y-108712000D02*
X196088000Y-107696000D01*
X194056000Y-107696000D02*
X195072000Y-108712000D01*
X193548000Y-107696000D02*
X194056000Y-107696000D01*
X196596000Y-107696000D02*
X193548000Y-107696000D01*
X195072000Y-109220000D02*
X196596000Y-107696000D01*
X193548000Y-107696000D02*
X195072000Y-109220000D01*
X193040000Y-107696000D02*
X193548000Y-107696000D01*
X195072000Y-109728000D02*
X193040000Y-107696000D01*
X197104000Y-107696000D02*
X195072000Y-109728000D01*
X193548000Y-107696000D02*
X197104000Y-107696000D01*
D11*
X196714857Y-99616000D02*
X196714857Y-100187429D01*
X196572000Y-100473143D01*
X196286286Y-100758857D01*
X195714857Y-100901715D01*
X194714857Y-100901715D01*
X194143429Y-100758857D01*
X193857714Y-100473143D01*
X193714857Y-100187429D01*
X193714857Y-99616000D01*
X193857714Y-99330286D01*
X194143429Y-99044572D01*
X194714857Y-98901715D01*
X195714857Y-98901715D01*
X196286286Y-99044572D01*
X196572000Y-99330286D01*
X196714857Y-99616000D01*
X196714857Y-102187429D02*
X194286286Y-102187429D01*
X194000571Y-102330286D01*
X193857714Y-102473143D01*
X193714857Y-102758857D01*
X193714857Y-103330286D01*
X193857714Y-103616000D01*
X194000571Y-103758857D01*
X194286286Y-103901714D01*
X196714857Y-103901714D01*
X196714857Y-104901714D02*
X196714857Y-106616000D01*
X193714857Y-105758857D02*
X196714857Y-105758857D01*
D13*
X125484000Y-105498000D02*
X126484000Y-105498000D01*
X126484000Y-103798000D02*
X125484000Y-103798000D01*
X131580000Y-105625000D02*
X132580000Y-105625000D01*
X132580000Y-103925000D02*
X131580000Y-103925000D01*
X132580000Y-96940000D02*
X131580000Y-96940000D01*
X131580000Y-98640000D02*
X132580000Y-98640000D01*
X158234000Y-84748000D02*
X157234000Y-84748000D01*
X157234000Y-86448000D02*
X158234000Y-86448000D01*
X158107000Y-92368000D02*
X157107000Y-92368000D01*
X157107000Y-94068000D02*
X158107000Y-94068000D01*
X191610000Y-107020000D02*
X191610000Y-115020000D01*
X191610000Y-115020000D02*
X171610000Y-115020000D01*
X171610000Y-115020000D02*
X171610000Y-107020000D01*
X171610000Y-86020000D02*
X171610000Y-107020000D01*
X171610000Y-107020000D02*
X191610000Y-107020000D01*
X191610000Y-107020000D02*
X191610000Y-86020000D01*
X191610000Y-86020000D02*
X171610000Y-86020000D01*
X161450000Y-63160000D02*
X161450000Y-55160000D01*
X161450000Y-55160000D02*
X181450000Y-55160000D01*
X181450000Y-55160000D02*
X181450000Y-63160000D01*
X181450000Y-84160000D02*
X181450000Y-63160000D01*
X181450000Y-63160000D02*
X161450000Y-63160000D01*
X161450000Y-63160000D02*
X161450000Y-84160000D01*
X161450000Y-84160000D02*
X181450000Y-84160000D01*
X183040000Y-63160000D02*
X183040000Y-55160000D01*
X183040000Y-55160000D02*
X203040000Y-55160000D01*
X203040000Y-55160000D02*
X203040000Y-63160000D01*
X203040000Y-84160000D02*
X203040000Y-63160000D01*
X203040000Y-63160000D02*
X183040000Y-63160000D01*
X183040000Y-63160000D02*
X183040000Y-84160000D01*
X183040000Y-84160000D02*
X203040000Y-84160000D01*
X138825000Y-76800000D02*
X138825000Y-75600000D01*
X140575000Y-75600000D02*
X140575000Y-76800000D01*
X136285000Y-76800000D02*
X136285000Y-75600000D01*
X138035000Y-75600000D02*
X138035000Y-76800000D01*
X132475000Y-76800000D02*
X132475000Y-75600000D01*
X134225000Y-75600000D02*
X134225000Y-76800000D01*
X129935000Y-76800000D02*
X129935000Y-75600000D01*
X131685000Y-75600000D02*
X131685000Y-76800000D01*
X126125000Y-76800000D02*
X126125000Y-75600000D01*
X127875000Y-75600000D02*
X127875000Y-76800000D01*
X123585000Y-76800000D02*
X123585000Y-75600000D01*
X125335000Y-75600000D02*
X125335000Y-76800000D01*
X111760000Y-81280000D02*
X116840000Y-81280000D01*
X116840000Y-81280000D02*
X116840000Y-86360000D01*
X116840000Y-86360000D02*
X111760000Y-86360000D01*
X111760000Y-86360000D02*
X111760000Y-81280000D01*
X116096051Y-83820000D02*
G75*
G03X116096051Y-83820000I-1796051J0D01*
G01*
X120650000Y-109220000D02*
X115570000Y-109220000D01*
X115570000Y-109220000D02*
X115570000Y-104140000D01*
X115570000Y-104140000D02*
X120650000Y-104140000D01*
X120650000Y-104140000D02*
X120650000Y-109220000D01*
X119906051Y-106680000D02*
G75*
G03X119906051Y-106680000I-1796051J0D01*
G01*
X131380000Y-103000000D02*
X131380000Y-100100000D01*
X131380000Y-100100000D02*
X132780000Y-100100000D01*
X132780000Y-103000000D02*
X131280000Y-103000000D01*
X132780000Y-100100000D02*
X132780000Y-103100000D01*
X132880000Y-101600000D02*
X132880000Y-103100000D01*
X132880000Y-103100000D02*
X131280000Y-103100000D01*
X131280000Y-103100000D02*
X131280000Y-100000000D01*
X131280000Y-100000000D02*
X132880000Y-100000000D01*
X132880000Y-100000000D02*
X132880000Y-101600000D01*
D14*
X157480000Y-107950000D02*
X157480000Y-110490000D01*
X139700000Y-107950000D02*
X124460000Y-107950000D01*
X124460000Y-107950000D02*
X124460000Y-110490000D01*
X124460000Y-110490000D02*
X139700000Y-110490000D01*
X139700000Y-107950000D02*
X139700000Y-110490000D01*
X142240000Y-107950000D02*
X157480000Y-107950000D01*
X157480000Y-110490000D02*
X142240000Y-110490000D01*
X142240000Y-110490000D02*
X142240000Y-107950000D01*
X135636000Y-59690000D02*
X115316000Y-59690000D01*
X115316000Y-59690000D02*
X115316000Y-62230000D01*
X115316000Y-62230000D02*
X135636000Y-62230000D01*
X135636000Y-62230000D02*
X135636000Y-59690000D01*
X157480000Y-59690000D02*
X137160000Y-59690000D01*
X137160000Y-59690000D02*
X137160000Y-62230000D01*
X137160000Y-62230000D02*
X157480000Y-62230000D01*
X157480000Y-62230000D02*
X157480000Y-59690000D01*
D13*
X137230000Y-85520000D02*
X137030000Y-85520000D01*
X138630000Y-85520000D02*
X138230000Y-85520000D01*
X139830000Y-85520000D02*
X139630000Y-85520000D01*
X137230000Y-82120000D02*
X137030000Y-82120000D01*
X138630000Y-82120000D02*
X138230000Y-82120000D01*
X139830000Y-82120000D02*
X139630000Y-82120000D01*
X137030000Y-82120000D02*
X137030000Y-85520000D01*
X139830000Y-85520000D02*
X139830000Y-82120000D01*
X130880000Y-85520000D02*
X130680000Y-85520000D01*
X132280000Y-85520000D02*
X131880000Y-85520000D01*
X133480000Y-85520000D02*
X133280000Y-85520000D01*
X130880000Y-82120000D02*
X130680000Y-82120000D01*
X132280000Y-82120000D02*
X131880000Y-82120000D01*
X133480000Y-82120000D02*
X133280000Y-82120000D01*
X130680000Y-82120000D02*
X130680000Y-85520000D01*
X133480000Y-85520000D02*
X133480000Y-82120000D01*
X124530000Y-85520000D02*
X124330000Y-85520000D01*
X125930000Y-85520000D02*
X125530000Y-85520000D01*
X127130000Y-85520000D02*
X126930000Y-85520000D01*
X124530000Y-82120000D02*
X124330000Y-82120000D01*
X125930000Y-82120000D02*
X125530000Y-82120000D01*
X127130000Y-82120000D02*
X126930000Y-82120000D01*
X124330000Y-82120000D02*
X124330000Y-85520000D01*
X127130000Y-85520000D02*
X127130000Y-82120000D01*
X153186000Y-81050000D02*
X156186000Y-81050000D01*
X156186000Y-81050000D02*
X156186000Y-84050000D01*
X156186000Y-84050000D02*
X153186000Y-84050000D01*
X153186000Y-84050000D02*
X153186000Y-81050000D01*
X153186000Y-88670000D02*
X156186000Y-88670000D01*
X156186000Y-88670000D02*
X156186000Y-91670000D01*
X156186000Y-91670000D02*
X153186000Y-91670000D01*
X153186000Y-91670000D02*
X153186000Y-88670000D01*
D15*
G36*
X116426610Y-83091152D02*
X115487430Y-82932103D01*
X114580820Y-82674379D01*
X113715306Y-82318096D01*
X113671752Y-82296959D01*
X113234349Y-82070931D01*
X112875775Y-81860303D01*
X112600864Y-81668987D01*
X112414450Y-81500891D01*
X112321367Y-81359928D01*
X112326448Y-81250008D01*
X112346586Y-81224871D01*
X112422213Y-81203996D01*
X112594112Y-81185920D01*
X112848144Y-81171072D01*
X113170173Y-81159877D01*
X113546060Y-81152762D01*
X113961668Y-81150155D01*
X114402859Y-81152481D01*
X114636479Y-81155761D01*
X115442306Y-81169565D01*
X115774544Y-81392657D01*
X116120957Y-81580473D01*
X116441700Y-81661106D01*
X116737601Y-81634583D01*
X117009488Y-81500932D01*
X117092480Y-81434732D01*
X117310085Y-81197566D01*
X117417522Y-80964032D01*
X117414939Y-80732673D01*
X117302484Y-80502030D01*
X117199990Y-80381229D01*
X116934853Y-80179793D01*
X116632472Y-80082244D01*
X116362852Y-80079741D01*
X116215013Y-80108907D01*
X116064303Y-80170071D01*
X115887710Y-80275831D01*
X115662224Y-80438783D01*
X115552250Y-80523529D01*
X115506889Y-80556490D01*
X115456327Y-80583011D01*
X115388571Y-80603920D01*
X115291630Y-80620045D01*
X115153509Y-80632215D01*
X114962218Y-80641256D01*
X114705764Y-80647997D01*
X114372154Y-80653265D01*
X113949397Y-80657890D01*
X113552936Y-80661556D01*
X112952594Y-80665107D01*
X112458380Y-80663936D01*
X112066083Y-80657945D01*
X111771495Y-80647041D01*
X111570405Y-80631126D01*
X111472522Y-80614324D01*
X111287302Y-80533162D01*
X111093895Y-80398763D01*
X110917299Y-80235168D01*
X110782511Y-80066419D01*
X110714529Y-79916558D01*
X110710870Y-79881787D01*
X110753694Y-79740009D01*
X110819902Y-79679446D01*
X110895868Y-79666062D01*
X111070531Y-79654968D01*
X111345522Y-79646145D01*
X111722467Y-79639573D01*
X112202996Y-79635232D01*
X112788737Y-79633104D01*
X113481319Y-79633169D01*
X114282370Y-79635406D01*
X114450457Y-79636091D01*
X117971980Y-79651087D01*
X118320617Y-79883923D01*
X118594144Y-80048654D01*
X118817949Y-80137112D01*
X119016472Y-80154850D01*
X119214156Y-80107421D01*
X119246835Y-80094368D01*
X119546863Y-79914348D01*
X119765826Y-79659912D01*
X119856563Y-79474226D01*
X119911616Y-79297382D01*
X119915473Y-79152935D01*
X119881988Y-79011105D01*
X119770120Y-78785933D01*
X119587287Y-78566233D01*
X119368609Y-78388114D01*
X119189532Y-78299182D01*
X118986686Y-78252876D01*
X118803843Y-78264714D01*
X118620372Y-78343287D01*
X118415642Y-78497186D01*
X118186828Y-78716726D01*
X117786236Y-79126522D01*
X113997332Y-79126522D01*
X113238598Y-79126585D01*
X112582403Y-79126369D01*
X112020851Y-79125264D01*
X111546047Y-79122661D01*
X111150094Y-79117952D01*
X110825097Y-79110527D01*
X110563161Y-79099777D01*
X110356390Y-79085093D01*
X110196888Y-79065867D01*
X110076760Y-79041488D01*
X109988110Y-79011349D01*
X109923042Y-78974840D01*
X109873661Y-78931351D01*
X109832072Y-78880275D01*
X109790378Y-78821002D01*
X109776236Y-78800922D01*
X109668045Y-78637097D01*
X109536982Y-78420692D01*
X109394110Y-78172204D01*
X109250488Y-77912129D01*
X109117177Y-77660963D01*
X109005236Y-77439201D01*
X108925727Y-77267339D01*
X108889710Y-77165873D01*
X108888696Y-77156229D01*
X108931400Y-77034228D01*
X109011417Y-76948566D01*
X109038496Y-76935619D01*
X109084613Y-76924022D01*
X109155533Y-76913703D01*
X109257023Y-76904589D01*
X109394849Y-76896606D01*
X109574776Y-76889682D01*
X109802572Y-76883745D01*
X110084002Y-76878721D01*
X110424832Y-76874539D01*
X110830829Y-76871124D01*
X111307758Y-76868404D01*
X111861386Y-76866307D01*
X112497479Y-76864759D01*
X113221802Y-76863689D01*
X114040123Y-76863022D01*
X114958206Y-76862687D01*
X115822080Y-76862609D01*
X122510022Y-76862609D01*
X122740426Y-76986848D01*
X122880195Y-77077053D01*
X123072025Y-77220731D01*
X123296020Y-77400735D01*
X123532288Y-77599922D01*
X123760934Y-77801147D01*
X123962065Y-77987265D01*
X124115785Y-78141133D01*
X124202201Y-78245606D01*
X124203483Y-78247695D01*
X124267879Y-78388840D01*
X124329737Y-78578574D01*
X124350338Y-78660622D01*
X124465893Y-78976795D01*
X124646056Y-79219938D01*
X124876367Y-79381899D01*
X125142367Y-79454527D01*
X125429595Y-79429672D01*
X125602343Y-79366370D01*
X125803391Y-79218509D01*
X125970323Y-78999454D01*
X126076379Y-78748198D01*
X126095774Y-78647318D01*
X126073109Y-78407178D01*
X125962170Y-78164397D01*
X125779790Y-77950222D01*
X125677222Y-77870369D01*
X125465537Y-77750906D01*
X125269330Y-77703961D01*
X125042190Y-77721823D01*
X124929348Y-77746087D01*
X124737358Y-77780088D01*
X124568930Y-77789700D01*
X124502047Y-77782253D01*
X124415658Y-77736798D01*
X124262175Y-77632469D01*
X124058718Y-77481834D01*
X123822409Y-77297460D01*
X123638740Y-77148572D01*
X123382749Y-76943118D01*
X123140469Y-76758486D01*
X122930973Y-76608489D01*
X122773334Y-76506941D01*
X122705182Y-76472494D01*
X122658174Y-76460917D01*
X122578774Y-76450357D01*
X122461626Y-76440736D01*
X122301373Y-76431973D01*
X122092659Y-76423990D01*
X121830127Y-76416709D01*
X121508422Y-76410050D01*
X121122186Y-76403935D01*
X120666063Y-76398285D01*
X120134697Y-76393020D01*
X119522732Y-76388062D01*
X118824810Y-76383332D01*
X118035576Y-76378751D01*
X117149673Y-76374240D01*
X116161745Y-76369721D01*
X115550947Y-76367111D01*
X108602111Y-76338043D01*
X108469590Y-76172391D01*
X108355227Y-75973005D01*
X108322729Y-75778913D01*
X108373552Y-75615674D01*
X108434159Y-75550875D01*
X108463366Y-75543330D01*
X108532957Y-75536363D01*
X108646405Y-75529959D01*
X108807184Y-75524105D01*
X109018765Y-75518787D01*
X109284622Y-75513991D01*
X109608227Y-75509703D01*
X109993053Y-75505910D01*
X110442573Y-75502599D01*
X110960259Y-75499754D01*
X111549585Y-75497363D01*
X112214023Y-75495413D01*
X112957046Y-75493888D01*
X113782126Y-75492776D01*
X114692738Y-75492063D01*
X115692352Y-75491734D01*
X116784442Y-75491777D01*
X117972481Y-75492178D01*
X119259942Y-75492923D01*
X120650297Y-75493997D01*
X122147020Y-75495388D01*
X122414145Y-75495657D01*
X136304130Y-75509783D01*
X136939130Y-75794374D01*
X137162692Y-75895687D01*
X137465132Y-76034382D01*
X137825444Y-76200737D01*
X138222620Y-76385030D01*
X138635655Y-76577539D01*
X139009783Y-76752695D01*
X139403414Y-76936901D01*
X139786369Y-77115151D01*
X140140902Y-77279258D01*
X140449265Y-77421032D01*
X140693714Y-77532288D01*
X140856502Y-77604836D01*
X140859565Y-77606167D01*
X141004101Y-77670629D01*
X141234528Y-77775568D01*
X141536789Y-77914486D01*
X141896830Y-78080886D01*
X142300594Y-78268271D01*
X142734024Y-78470144D01*
X143183066Y-78680008D01*
X143206304Y-78690889D01*
X145138913Y-79595870D01*
X148233600Y-79623478D01*
X148899796Y-79629625D01*
X149464398Y-79635449D01*
X149936241Y-79641296D01*
X150324165Y-79647511D01*
X150637006Y-79654438D01*
X150883602Y-79662422D01*
X151072790Y-79671809D01*
X151213408Y-79682943D01*
X151314294Y-79696169D01*
X151384285Y-79711832D01*
X151432218Y-79730277D01*
X151463817Y-79749550D01*
X151600123Y-79848552D01*
X151760420Y-79964949D01*
X151786970Y-79984224D01*
X152034518Y-80106623D01*
X152282510Y-80121872D01*
X152517370Y-80030864D01*
X152643983Y-79927988D01*
X152803010Y-79708210D01*
X152883227Y-79462701D01*
X152892536Y-79209002D01*
X152838837Y-78964656D01*
X152730031Y-78747203D01*
X152574018Y-78574186D01*
X152378701Y-78463146D01*
X152151979Y-78431625D01*
X151984722Y-78464292D01*
X151826753Y-78550474D01*
X151656571Y-78695322D01*
X151588880Y-78769431D01*
X151449885Y-78915871D01*
X151311809Y-79030194D01*
X151242856Y-79070302D01*
X151158702Y-79085004D01*
X150982132Y-79096960D01*
X150710455Y-79106205D01*
X150340980Y-79112779D01*
X149871016Y-79116718D01*
X149297872Y-79118060D01*
X148618856Y-79116844D01*
X148090980Y-79114553D01*
X145083696Y-79098913D01*
X144365870Y-78762532D01*
X144115250Y-78645453D01*
X143787250Y-78492772D01*
X143404776Y-78315122D01*
X142990739Y-78123135D01*
X142568047Y-77927445D01*
X142240000Y-77775809D01*
X141323920Y-77352612D01*
X140503963Y-76973643D01*
X139775934Y-76636954D01*
X139135637Y-76340598D01*
X138578876Y-76082630D01*
X138101457Y-75861102D01*
X137699184Y-75674066D01*
X137367861Y-75519577D01*
X137103293Y-75395688D01*
X136901285Y-75300451D01*
X136757641Y-75231919D01*
X136745870Y-75226239D01*
X136304130Y-75012826D01*
X132306859Y-74985217D01*
X131542818Y-74979780D01*
X130881708Y-74974619D01*
X130316026Y-74969513D01*
X129838268Y-74964242D01*
X129440933Y-74958584D01*
X129116517Y-74952317D01*
X128857517Y-74945220D01*
X128656431Y-74937073D01*
X128505755Y-74927653D01*
X128397986Y-74916739D01*
X128325623Y-74904111D01*
X128281161Y-74889546D01*
X128257098Y-74872824D01*
X128251581Y-74865604D01*
X128232226Y-74792469D01*
X128272662Y-74699925D01*
X128384488Y-74562311D01*
X128392882Y-74552989D01*
X128563103Y-74350013D01*
X128664459Y-74183585D01*
X128713202Y-74019891D01*
X128725354Y-73861171D01*
X128690806Y-73611891D01*
X128572880Y-73357330D01*
X128429459Y-73155875D01*
X128350605Y-72999273D01*
X128364236Y-72862645D01*
X128465770Y-72769796D01*
X128506503Y-72755629D01*
X128623956Y-72738571D01*
X128809701Y-72726434D01*
X129003830Y-72722058D01*
X129320867Y-72699076D01*
X129558728Y-72628872D01*
X129583613Y-72616777D01*
X129676699Y-72549199D01*
X129832770Y-72413018D01*
X130039272Y-72220189D01*
X130283650Y-71982668D01*
X130553351Y-71712412D01*
X130803949Y-71454621D01*
X131083324Y-71166874D01*
X131346060Y-70902317D01*
X131580113Y-70672606D01*
X131773440Y-70489395D01*
X131913995Y-70364341D01*
X131985720Y-70310994D01*
X132099420Y-70264286D01*
X132217861Y-70252763D01*
X132383044Y-70274890D01*
X132473363Y-70293191D01*
X132788258Y-70333966D01*
X133043962Y-70302996D01*
X133268950Y-70195701D01*
X133323814Y-70156354D01*
X133505321Y-69959972D01*
X133628638Y-69709745D01*
X133684781Y-69439005D01*
X133664765Y-69181084D01*
X133619461Y-69059522D01*
X133446181Y-68812578D01*
X133221367Y-68624555D01*
X132970025Y-68510383D01*
X132717164Y-68484987D01*
X132668542Y-68491888D01*
X132433051Y-68575227D01*
X132236754Y-68734885D01*
X132072563Y-68980216D01*
X131933386Y-69320575D01*
X131864733Y-69552412D01*
X131793408Y-69717250D01*
X131653103Y-69923043D01*
X131435415Y-70181760D01*
X131380278Y-70242629D01*
X131047407Y-70602926D01*
X130722113Y-70948408D01*
X130414289Y-71269082D01*
X130133825Y-71554957D01*
X129890614Y-71796041D01*
X129694547Y-71982343D01*
X129555516Y-72103870D01*
X129496373Y-72145605D01*
X129465983Y-72155005D01*
X129409450Y-72163643D01*
X129322423Y-72171549D01*
X129200552Y-72178755D01*
X129039485Y-72185291D01*
X128834873Y-72191188D01*
X128582364Y-72196477D01*
X128277607Y-72201190D01*
X127916251Y-72205356D01*
X127493946Y-72209007D01*
X127006341Y-72212174D01*
X126449085Y-72214887D01*
X125817828Y-72217178D01*
X125108217Y-72219077D01*
X124315903Y-72220616D01*
X123436535Y-72221824D01*
X122465761Y-72222734D01*
X121399232Y-72223376D01*
X120232596Y-72223781D01*
X118961502Y-72223980D01*
X118458703Y-72224008D01*
X117231412Y-72223791D01*
X116057615Y-72223075D01*
X114941247Y-72221877D01*
X113886245Y-72220216D01*
X112896543Y-72218109D01*
X111976078Y-72215575D01*
X111128784Y-72212630D01*
X110358597Y-72209294D01*
X109669453Y-72205584D01*
X109065287Y-72201518D01*
X108550035Y-72197113D01*
X108127631Y-72192389D01*
X107802012Y-72187362D01*
X107577114Y-72182052D01*
X107456870Y-72176475D01*
X107437653Y-72173776D01*
X107292196Y-72066863D01*
X107212477Y-71903950D01*
X107200233Y-71719033D01*
X107257200Y-71546107D01*
X107385113Y-71419170D01*
X107398743Y-71411879D01*
X107480526Y-71398123D01*
X107661139Y-71385710D01*
X107928986Y-71374661D01*
X108272470Y-71364996D01*
X108679994Y-71356735D01*
X109139961Y-71349898D01*
X109640776Y-71344507D01*
X110170840Y-71340580D01*
X110718559Y-71338139D01*
X111272334Y-71337204D01*
X111820569Y-71337794D01*
X112351668Y-71339930D01*
X112854035Y-71343633D01*
X113316071Y-71348922D01*
X113726181Y-71355819D01*
X114072768Y-71364342D01*
X114344235Y-71374513D01*
X114528986Y-71386352D01*
X114613905Y-71399270D01*
X114741464Y-71475199D01*
X114890751Y-71602488D01*
X114962609Y-71677756D01*
X115109213Y-71822171D01*
X115256328Y-71900845D01*
X115435091Y-71940727D01*
X115730834Y-71956662D01*
X115956498Y-71896810D01*
X116128087Y-71754561D01*
X116216557Y-71617906D01*
X116313289Y-71396966D01*
X116333937Y-71220140D01*
X116278624Y-71051614D01*
X116218804Y-70953786D01*
X116010217Y-70715493D01*
X115779078Y-70584345D01*
X115520663Y-70559260D01*
X115230246Y-70639157D01*
X115106233Y-70699104D01*
X114835726Y-70843913D01*
X111033950Y-70843913D01*
X110293880Y-70843843D01*
X109656335Y-70843486D01*
X109113407Y-70842617D01*
X108657184Y-70841014D01*
X108279759Y-70838453D01*
X107973221Y-70834711D01*
X107729661Y-70829565D01*
X107541170Y-70822791D01*
X107399839Y-70814167D01*
X107297757Y-70803468D01*
X107227015Y-70790472D01*
X107179704Y-70774956D01*
X107147915Y-70756695D01*
X107123737Y-70735467D01*
X107121739Y-70733478D01*
X107040559Y-70633243D01*
X107011304Y-70564196D01*
X107059126Y-70416919D01*
X107175810Y-70302205D01*
X107244522Y-70273406D01*
X107318741Y-70268000D01*
X107494606Y-70261979D01*
X107763330Y-70255477D01*
X108116127Y-70248629D01*
X108544210Y-70241567D01*
X109038793Y-70234427D01*
X109591090Y-70227342D01*
X110192313Y-70220446D01*
X110833676Y-70213874D01*
X111506393Y-70207760D01*
X111597775Y-70206988D01*
X115825334Y-70171606D01*
X116245077Y-70312509D01*
X116395334Y-70365204D01*
X116562370Y-70428843D01*
X116758495Y-70508761D01*
X116996019Y-70610289D01*
X117287251Y-70738764D01*
X117644500Y-70899517D01*
X118080077Y-71097883D01*
X118468913Y-71276085D01*
X118910652Y-71478913D01*
X122720652Y-71495218D01*
X123364158Y-71497490D01*
X123978708Y-71498729D01*
X124554828Y-71498973D01*
X125083045Y-71498263D01*
X125553884Y-71496638D01*
X125957872Y-71494138D01*
X126285536Y-71490802D01*
X126527401Y-71486671D01*
X126673994Y-71481783D01*
X126712286Y-71478503D01*
X126817121Y-71439862D01*
X126947700Y-71351639D01*
X127117686Y-71202748D01*
X127340745Y-70982103D01*
X127402504Y-70918472D01*
X127652877Y-70664119D01*
X127848631Y-70481356D01*
X128007858Y-70358652D01*
X128148650Y-70284477D01*
X128289096Y-70247298D01*
X128447289Y-70235585D01*
X128474323Y-70235309D01*
X128808810Y-70185810D01*
X129104774Y-70049702D01*
X129342974Y-69840803D01*
X129504165Y-69572930D01*
X129537779Y-69471727D01*
X129563295Y-69215234D01*
X129492366Y-68970687D01*
X129319816Y-68723161D01*
X129253824Y-68652546D01*
X128988625Y-68435096D01*
X128726683Y-68327843D01*
X128465917Y-68330677D01*
X128204243Y-68443489D01*
X128019384Y-68587866D01*
X127825890Y-68801323D01*
X127714831Y-69023376D01*
X127675377Y-69285579D01*
X127688723Y-69551374D01*
X127704860Y-69761644D01*
X127694200Y-69905082D01*
X127650881Y-70023287D01*
X127612878Y-70089601D01*
X127482564Y-70262410D01*
X127299264Y-70458361D01*
X127091912Y-70650878D01*
X126889442Y-70813384D01*
X126720790Y-70919303D01*
X126698662Y-70929313D01*
X126645524Y-70945550D01*
X126564360Y-70959512D01*
X126447406Y-70971360D01*
X126286901Y-70981251D01*
X126075083Y-70989348D01*
X125804189Y-70995809D01*
X125466457Y-71000795D01*
X125054124Y-71004465D01*
X124559429Y-71006980D01*
X123974608Y-71008499D01*
X123291900Y-71009183D01*
X122819056Y-71009257D01*
X121967372Y-71008346D01*
X121224161Y-71005742D01*
X120587477Y-71001415D01*
X120055370Y-70995335D01*
X119625892Y-70987471D01*
X119297095Y-70977793D01*
X119067032Y-70966270D01*
X118933753Y-70952872D01*
X118910652Y-70948027D01*
X118801816Y-70909662D01*
X118608043Y-70832696D01*
X118345141Y-70723766D01*
X118028919Y-70589506D01*
X117675185Y-70436552D01*
X117313188Y-70277493D01*
X115936593Y-69667882D01*
X111512971Y-69708012D01*
X110710273Y-69715228D01*
X110010672Y-69721261D01*
X109406833Y-69726005D01*
X108891424Y-69729356D01*
X108457110Y-69731209D01*
X108096559Y-69731457D01*
X107802437Y-69729996D01*
X107567411Y-69726720D01*
X107384147Y-69721524D01*
X107245312Y-69714302D01*
X107143573Y-69704950D01*
X107071595Y-69693361D01*
X107022046Y-69679431D01*
X106987593Y-69663054D01*
X106960901Y-69644124D01*
X106959000Y-69642592D01*
X106873524Y-69544050D01*
X106824750Y-69399950D01*
X106803326Y-69231659D01*
X106793659Y-69154818D01*
X106782156Y-69086475D01*
X106774854Y-69026134D01*
X106777788Y-68973301D01*
X106796993Y-68927483D01*
X106838505Y-68888183D01*
X106908358Y-68854908D01*
X107012588Y-68827163D01*
X107157230Y-68804454D01*
X107348320Y-68786286D01*
X107591893Y-68772165D01*
X107893984Y-68761597D01*
X108260629Y-68754086D01*
X108697863Y-68749138D01*
X109211720Y-68746259D01*
X109808238Y-68744955D01*
X110493450Y-68744731D01*
X111273392Y-68745091D01*
X112154099Y-68745543D01*
X112735164Y-68745652D01*
X113655134Y-68745560D01*
X114471977Y-68745479D01*
X115192999Y-68745704D01*
X115825506Y-68746529D01*
X116376806Y-68748248D01*
X116854206Y-68751155D01*
X117265011Y-68755544D01*
X117616530Y-68761710D01*
X117916068Y-68769946D01*
X118170933Y-68780547D01*
X118388431Y-68793806D01*
X118575868Y-68810018D01*
X118740553Y-68829477D01*
X118889791Y-68852478D01*
X119030889Y-68879313D01*
X119171154Y-68910278D01*
X119317893Y-68945666D01*
X119478413Y-68985772D01*
X119628478Y-69023133D01*
X119804942Y-69065916D01*
X120068636Y-69128889D01*
X120399222Y-69207243D01*
X120776361Y-69296167D01*
X121179716Y-69390851D01*
X121500055Y-69465751D01*
X121885980Y-69556879D01*
X122239701Y-69642417D01*
X122545956Y-69718513D01*
X122789482Y-69781316D01*
X122955018Y-69826973D01*
X123025968Y-69850867D01*
X123110298Y-69918661D01*
X123234639Y-70044269D01*
X123356257Y-70182027D01*
X123575070Y-70412190D01*
X123778405Y-70552280D01*
X123989129Y-70615790D01*
X124103804Y-70623043D01*
X124400102Y-70570585D01*
X124658402Y-70417223D01*
X124858031Y-70185283D01*
X124982192Y-69907779D01*
X124997163Y-69636443D01*
X124904185Y-69376778D01*
X124704501Y-69134285D01*
X124601247Y-69048047D01*
X124426068Y-68946288D01*
X124236662Y-68880590D01*
X124199785Y-68874148D01*
X124074776Y-68869194D01*
X123954011Y-68897997D01*
X123805292Y-68972257D01*
X123631739Y-69080584D01*
X123414008Y-69211865D01*
X123246032Y-69284021D01*
X123094107Y-69310245D01*
X123042946Y-69311086D01*
X122913039Y-69296484D01*
X122687603Y-69256521D01*
X122377959Y-69193756D01*
X121995426Y-69110746D01*
X121551323Y-69010049D01*
X121056969Y-68894223D01*
X120523685Y-68765826D01*
X119962789Y-68627417D01*
X119490435Y-68508305D01*
X118579348Y-68276304D01*
X112742061Y-68248696D01*
X111798192Y-68244413D01*
X110958622Y-68240734D01*
X110217222Y-68237255D01*
X109567859Y-68233568D01*
X109004403Y-68229268D01*
X108520724Y-68223949D01*
X108110691Y-68217205D01*
X107768173Y-68208630D01*
X107487039Y-68197818D01*
X107261159Y-68184363D01*
X107084401Y-68167860D01*
X106950636Y-68147903D01*
X106853732Y-68124085D01*
X106787559Y-68096001D01*
X106745986Y-68063244D01*
X106722882Y-68025409D01*
X106712116Y-67982091D01*
X106707558Y-67932882D01*
X106703078Y-67877377D01*
X106699190Y-67848602D01*
X106692270Y-67691556D01*
X106749051Y-67573078D01*
X106808967Y-67507317D01*
X106951067Y-67365217D01*
X122334363Y-67365217D01*
X123882774Y-67365251D01*
X125324572Y-67365369D01*
X126663581Y-67365591D01*
X127903622Y-67365942D01*
X129048519Y-67366443D01*
X130102092Y-67367116D01*
X131068166Y-67367984D01*
X131950562Y-67369069D01*
X132753103Y-67370394D01*
X133479611Y-67371980D01*
X134133909Y-67373851D01*
X134719819Y-67376029D01*
X135241164Y-67378535D01*
X135701766Y-67381393D01*
X136105447Y-67384624D01*
X136456030Y-67388251D01*
X136757338Y-67392297D01*
X137013192Y-67396783D01*
X137227416Y-67401732D01*
X137403832Y-67407167D01*
X137546262Y-67413109D01*
X137658528Y-67419581D01*
X137744454Y-67426606D01*
X137807861Y-67434205D01*
X137852572Y-67442401D01*
X137882409Y-67451217D01*
X137893552Y-67456176D01*
X137986760Y-67522128D01*
X138143037Y-67652420D01*
X138347162Y-67833506D01*
X138583909Y-68051843D01*
X138838057Y-68293885D01*
X138871029Y-68325850D01*
X139177607Y-68621548D01*
X139516477Y-68944842D01*
X139857764Y-69267457D01*
X140171594Y-69561116D01*
X140362719Y-69737774D01*
X140659002Y-70012146D01*
X140989675Y-70322455D01*
X141319064Y-70634990D01*
X141611496Y-70916040D01*
X141677451Y-70980165D01*
X141916832Y-71215784D01*
X142089370Y-71393532D01*
X142179306Y-71497305D01*
X140566704Y-71497305D01*
X140549499Y-71226664D01*
X140422898Y-70968966D01*
X140187123Y-70724939D01*
X140145619Y-70692065D01*
X139905686Y-70552792D01*
X139662519Y-70513534D01*
X139386902Y-70569802D01*
X139375549Y-70573711D01*
X139200538Y-70612218D01*
X139026854Y-70595853D01*
X138835367Y-70517178D01*
X138606947Y-70368753D01*
X138370162Y-70182774D01*
X138105706Y-69956142D01*
X137920336Y-69773229D01*
X137801305Y-69616415D01*
X137735866Y-69468079D01*
X137711273Y-69310600D01*
X137710041Y-69270217D01*
X137676561Y-69003985D01*
X137593065Y-68744550D01*
X137475607Y-68539473D01*
X137455199Y-68515394D01*
X137216564Y-68328544D01*
X136929136Y-68222868D01*
X136624669Y-68205575D01*
X136368801Y-68268796D01*
X136151304Y-68410981D01*
X135963922Y-68627753D01*
X135836991Y-68883264D01*
X135829999Y-68905495D01*
X135797738Y-69054260D01*
X135809985Y-69185597D01*
X135872471Y-69353804D01*
X135878866Y-69368342D01*
X136008843Y-69592608D01*
X136182004Y-69755056D01*
X136416090Y-69865335D01*
X136728840Y-69933092D01*
X136961994Y-69957376D01*
X137484940Y-69996928D01*
X137998883Y-70414581D01*
X138261414Y-70629818D01*
X138451573Y-70794073D01*
X138583552Y-70924943D01*
X138671538Y-71040024D01*
X138729721Y-71156914D01*
X138772292Y-71293209D01*
X138800072Y-71408161D01*
X138920629Y-71764170D01*
X139095263Y-72028103D01*
X139321010Y-72197302D01*
X139594905Y-72269106D01*
X139757307Y-72266886D01*
X140061005Y-72186544D01*
X140307666Y-72013243D01*
X140474294Y-71780158D01*
X140566704Y-71497305D01*
X142179306Y-71497305D01*
X142208676Y-71531193D01*
X142288358Y-71646551D01*
X142342024Y-71757388D01*
X142383285Y-71881488D01*
X142392760Y-71914884D01*
X142529362Y-72243701D01*
X142730173Y-72489869D01*
X142989078Y-72646391D01*
X143050326Y-72667237D01*
X143204882Y-72704055D01*
X143326953Y-72696879D01*
X143473002Y-72639697D01*
X143518937Y-72617349D01*
X143758699Y-72465886D01*
X143903962Y-72283844D01*
X143970540Y-72045908D01*
X143979348Y-71880159D01*
X143972559Y-71689942D01*
X143940154Y-71562968D01*
X143864080Y-71452307D01*
X143781410Y-71365642D01*
X143563219Y-71199639D01*
X143313393Y-71118431D01*
X143006140Y-71114305D01*
X142957826Y-71119352D01*
X142772003Y-71135057D01*
X142622732Y-71125644D01*
X142488302Y-71079878D01*
X142347005Y-70986527D01*
X142177130Y-70834355D01*
X141956967Y-70612129D01*
X141936304Y-70590752D01*
X141715877Y-70369613D01*
X141489733Y-70154771D01*
X141285381Y-69971699D01*
X141138414Y-69851846D01*
X141014337Y-69750686D01*
X140826139Y-69586033D01*
X140588757Y-69371500D01*
X140317129Y-69120699D01*
X140026195Y-68847244D01*
X139817583Y-68648224D01*
X139333524Y-68188066D01*
X138920065Y-67805266D01*
X138572847Y-67496078D01*
X138287515Y-67256757D01*
X138059712Y-67083556D01*
X137885082Y-66972732D01*
X137844812Y-66952223D01*
X137818224Y-66943713D01*
X137773074Y-66935790D01*
X137705594Y-66928431D01*
X137612014Y-66921618D01*
X137488565Y-66915329D01*
X137331478Y-66909545D01*
X137136983Y-66904244D01*
X136901312Y-66899407D01*
X136620696Y-66895012D01*
X136291364Y-66891040D01*
X135909548Y-66887470D01*
X135471479Y-66884281D01*
X134973388Y-66881454D01*
X134411505Y-66878968D01*
X133782061Y-66876801D01*
X133081286Y-66874935D01*
X132305413Y-66873349D01*
X131450671Y-66872021D01*
X130513291Y-66870932D01*
X129489505Y-66870061D01*
X128375542Y-66869389D01*
X127167634Y-66868893D01*
X125862012Y-66868555D01*
X124454906Y-66868353D01*
X122942547Y-66868267D01*
X122347830Y-66868261D01*
X120644900Y-66868106D01*
X119050633Y-66867637D01*
X117563258Y-66866847D01*
X116181002Y-66865730D01*
X114902096Y-66864278D01*
X113724766Y-66862484D01*
X112647243Y-66860342D01*
X111667753Y-66857845D01*
X110784527Y-66854987D01*
X109995792Y-66851760D01*
X109299777Y-66848157D01*
X108694710Y-66844172D01*
X108178821Y-66839797D01*
X107750337Y-66835027D01*
X107407488Y-66829854D01*
X107148502Y-66824272D01*
X106971607Y-66818273D01*
X106875032Y-66811851D01*
X106856716Y-66808626D01*
X106711191Y-66707592D01*
X106622250Y-66547527D01*
X106595017Y-66362998D01*
X106634616Y-66188570D01*
X106745616Y-66059168D01*
X106794074Y-66054459D01*
X106925593Y-66049720D01*
X107141200Y-66044948D01*
X107441926Y-66040137D01*
X107828799Y-66035283D01*
X108302848Y-66030382D01*
X108865102Y-66025429D01*
X109516591Y-66020420D01*
X110258344Y-66015349D01*
X111091390Y-66010213D01*
X112016757Y-66005007D01*
X113035475Y-65999725D01*
X114148573Y-65994365D01*
X115357081Y-65988921D01*
X116662026Y-65983388D01*
X118064439Y-65977762D01*
X119565348Y-65972039D01*
X121165783Y-65966214D01*
X122866772Y-65960282D01*
X124669345Y-65954239D01*
X126574531Y-65948081D01*
X128583359Y-65941802D01*
X130696857Y-65935399D01*
X132916056Y-65928866D01*
X135241984Y-65922199D01*
X137675670Y-65915394D01*
X140218143Y-65908446D01*
X141798261Y-65904201D01*
X142836860Y-65901348D01*
X143851234Y-65898405D01*
X144835366Y-65895397D01*
X145783244Y-65892348D01*
X146688852Y-65889282D01*
X147546177Y-65886223D01*
X148349203Y-65883196D01*
X149091918Y-65880225D01*
X149768306Y-65877334D01*
X150372353Y-65874548D01*
X150898044Y-65871891D01*
X151339366Y-65869387D01*
X151690305Y-65867061D01*
X151944845Y-65864937D01*
X152096972Y-65863039D01*
X152123913Y-65862460D01*
X152400059Y-65851725D01*
X152601933Y-65832255D01*
X152765688Y-65796690D01*
X152927478Y-65737669D01*
X153082613Y-65667283D01*
X153461529Y-65487826D01*
X156332102Y-65487826D01*
X156496157Y-65625870D01*
X156713104Y-65741734D01*
X156958808Y-65754472D01*
X157222468Y-65664063D01*
X157286739Y-65627310D01*
X157357321Y-65585425D01*
X157425960Y-65553143D01*
X157507455Y-65529194D01*
X157616608Y-65512306D01*
X157768221Y-65501207D01*
X157977094Y-65494627D01*
X158258028Y-65491295D01*
X158625826Y-65489939D01*
X158890804Y-65489549D01*
X159361422Y-65490678D01*
X159729825Y-65495613D01*
X160004181Y-65504719D01*
X160192656Y-65518358D01*
X160303418Y-65536894D01*
X160340261Y-65554087D01*
X160389392Y-65664295D01*
X160404511Y-65830096D01*
X160384664Y-66001711D01*
X160350655Y-66096431D01*
X160262494Y-66179861D01*
X160118804Y-66248745D01*
X160093802Y-66256315D01*
X159945806Y-66284156D01*
X159837235Y-66254692D01*
X159733913Y-66178102D01*
X159500241Y-66037373D01*
X159255091Y-66003802D01*
X158988424Y-66076490D01*
X158927586Y-66105769D01*
X158667506Y-66290899D01*
X158501023Y-66519683D01*
X158429378Y-66775227D01*
X158453807Y-67040640D01*
X158575551Y-67299031D01*
X158795848Y-67533506D01*
X158821406Y-67553511D01*
X158996002Y-67655546D01*
X159192457Y-67700022D01*
X159437820Y-67689637D01*
X159699228Y-67641005D01*
X159990622Y-67605842D01*
X160220556Y-67652058D01*
X160407321Y-67784643D01*
X160463611Y-67849486D01*
X160511081Y-67923495D01*
X160542538Y-68017000D01*
X160561117Y-68152782D01*
X160569951Y-68353624D01*
X160572174Y-68638656D01*
X160571212Y-68916220D01*
X160565546Y-69105291D01*
X160551007Y-69227806D01*
X160523426Y-69305707D01*
X160478633Y-69360932D01*
X160426684Y-69404253D01*
X160257305Y-69482211D01*
X160025746Y-69519411D01*
X159772752Y-69515126D01*
X159539064Y-69468628D01*
X159428489Y-69422065D01*
X159329913Y-69347435D01*
X159176636Y-69206968D01*
X158986518Y-69018079D01*
X158777417Y-68798184D01*
X158683915Y-68696000D01*
X158470209Y-68459123D01*
X158293423Y-68261663D01*
X158135794Y-68083135D01*
X157979557Y-67903051D01*
X157806948Y-67700925D01*
X157600205Y-67456270D01*
X157341562Y-67148601D01*
X157323315Y-67126867D01*
X157130725Y-66913292D01*
X156958153Y-66751671D01*
X156824918Y-66659712D01*
X156804314Y-66651107D01*
X156724577Y-66640321D01*
X156549483Y-66630668D01*
X156277471Y-66622133D01*
X155906979Y-66614700D01*
X155436444Y-66608353D01*
X154864305Y-66603078D01*
X154189000Y-66598859D01*
X153408967Y-66595680D01*
X152522644Y-66593527D01*
X151528469Y-66592383D01*
X150822759Y-66592174D01*
X145010259Y-66592174D01*
X144593382Y-66371304D01*
X144289508Y-66229449D01*
X144039718Y-66161259D01*
X143818849Y-66163491D01*
X143601734Y-66232900D01*
X143583995Y-66241152D01*
X143359804Y-66403086D01*
X143205734Y-66627511D01*
X143129301Y-66887864D01*
X143138022Y-67157584D01*
X143239415Y-67410109D01*
X143249031Y-67424759D01*
X143453802Y-67654153D01*
X143696276Y-67804980D01*
X143951643Y-67862053D01*
X143963535Y-67862174D01*
X144130984Y-67850608D01*
X144274169Y-67806084D01*
X144418293Y-67713862D01*
X144588558Y-67559202D01*
X144728352Y-67414854D01*
X145035617Y-67089130D01*
X146329656Y-67081819D01*
X146942087Y-67078984D01*
X147595293Y-67077103D01*
X148280738Y-67076127D01*
X148989886Y-67076006D01*
X149714202Y-67076692D01*
X150445148Y-67078136D01*
X151174190Y-67080287D01*
X151892791Y-67083097D01*
X152592416Y-67086517D01*
X153264528Y-67090496D01*
X153900592Y-67094987D01*
X154492072Y-67099940D01*
X155030431Y-67105305D01*
X155507134Y-67111034D01*
X155913645Y-67117076D01*
X156241428Y-67123383D01*
X156481947Y-67129906D01*
X156626666Y-67136596D01*
X156666659Y-67141450D01*
X156769992Y-67209256D01*
X156925571Y-67345366D01*
X157120699Y-67535484D01*
X157342679Y-67765312D01*
X157578816Y-68020554D01*
X157816412Y-68286911D01*
X158042772Y-68550088D01*
X158245198Y-68795787D01*
X158410995Y-69009711D01*
X158527466Y-69177563D01*
X158581915Y-69285046D01*
X158584348Y-69300897D01*
X158562675Y-69385327D01*
X158488741Y-69445982D01*
X158349170Y-69486151D01*
X158130587Y-69509124D01*
X157819619Y-69518193D01*
X157699040Y-69518696D01*
X157356488Y-69513284D01*
X157107335Y-69495964D01*
X156935025Y-69465109D01*
X156853345Y-69435588D01*
X156746372Y-69360446D01*
X156591665Y-69221456D01*
X156411766Y-69039956D01*
X156265217Y-68878897D01*
X156074900Y-68672289D01*
X155885124Y-68485088D01*
X155721157Y-68341274D01*
X155630217Y-68276252D01*
X155409348Y-68147190D01*
X151204049Y-68101313D01*
X146998751Y-68055435D01*
X146786658Y-67873867D01*
X146478863Y-67648133D01*
X146199601Y-67526249D01*
X145941398Y-67507666D01*
X145696780Y-67591831D01*
X145460252Y-67776229D01*
X145265912Y-68010229D01*
X145177757Y-68229064D01*
X145195291Y-68446121D01*
X145318021Y-68674788D01*
X145422351Y-68801735D01*
X145665714Y-69005192D01*
X145929675Y-69100333D01*
X146213246Y-69087149D01*
X146515444Y-68965630D01*
X146738758Y-68815150D01*
X147005123Y-68607609D01*
X151124255Y-68592759D01*
X151976758Y-68590245D01*
X152723194Y-68589275D01*
X153367918Y-68589897D01*
X153915287Y-68592159D01*
X154369659Y-68596110D01*
X154735389Y-68601799D01*
X155016834Y-68609275D01*
X155218351Y-68618584D01*
X155344297Y-68629777D01*
X155394002Y-68640297D01*
X155515128Y-68715485D01*
X155660296Y-68839816D01*
X155803904Y-68986417D01*
X155920352Y-69128413D01*
X155984041Y-69238929D01*
X155989130Y-69265040D01*
X155981136Y-69336740D01*
X155948816Y-69392842D01*
X155879665Y-69435798D01*
X155761180Y-69468062D01*
X155580854Y-69492086D01*
X155326184Y-69510324D01*
X154984665Y-69525229D01*
X154599706Y-69537615D01*
X154297846Y-69544801D01*
X153901901Y-69551530D01*
X153428219Y-69557660D01*
X152893150Y-69563049D01*
X152313041Y-69567556D01*
X151704241Y-69571037D01*
X151083100Y-69573352D01*
X150465966Y-69574357D01*
X150368018Y-69574387D01*
X149703264Y-69574410D01*
X149139433Y-69574862D01*
X148667015Y-69576558D01*
X148276499Y-69580315D01*
X147958374Y-69586948D01*
X147703130Y-69597275D01*
X147501255Y-69612110D01*
X147343239Y-69632269D01*
X147219571Y-69658569D01*
X147120741Y-69691825D01*
X147037238Y-69732854D01*
X146959551Y-69782472D01*
X146878169Y-69841494D01*
X146828682Y-69878045D01*
X146766663Y-69921829D01*
X146705409Y-69955175D01*
X146629741Y-69979504D01*
X146524482Y-69996237D01*
X146374455Y-70006796D01*
X146164481Y-70012603D01*
X145879383Y-70015078D01*
X145503983Y-70015643D01*
X145359322Y-70015652D01*
X144077585Y-70015652D01*
X143862814Y-69872548D01*
X143716869Y-69763322D01*
X143530198Y-69607320D01*
X143340122Y-69435899D01*
X143316739Y-69413766D01*
X143120556Y-69230086D01*
X142916371Y-69044082D01*
X142746318Y-68894102D01*
X142736957Y-68886093D01*
X142608516Y-68773302D01*
X142420662Y-68604194D01*
X142194542Y-68397995D01*
X141951298Y-68173930D01*
X141836680Y-68067551D01*
X141567353Y-67812150D01*
X141366498Y-67608342D01*
X141217744Y-67437028D01*
X141104722Y-67279105D01*
X141011062Y-67115472D01*
X140996807Y-67087539D01*
X140845709Y-66817619D01*
X140701465Y-66638466D01*
X140543182Y-66533954D01*
X140349966Y-66487959D01*
X140211834Y-66481739D01*
X139906164Y-66517880D01*
X139674049Y-66630517D01*
X139503767Y-66825972D01*
X139473875Y-66879865D01*
X139379742Y-67170145D01*
X139392252Y-67453622D01*
X139507751Y-67717998D01*
X139722583Y-67950974D01*
X139811749Y-68016911D01*
X139955891Y-68093412D01*
X140111969Y-68123994D01*
X140307257Y-68108934D01*
X140569032Y-68048509D01*
X140651219Y-68025440D01*
X140886178Y-67981023D01*
X141051933Y-68002912D01*
X141162106Y-68068048D01*
X141342598Y-68204510D01*
X141585620Y-68405549D01*
X141883386Y-68664419D01*
X142228107Y-68974373D01*
X142611997Y-69328663D01*
X142955312Y-69652053D01*
X143195008Y-69876575D01*
X143419056Y-70080528D01*
X143610369Y-70248800D01*
X143751856Y-70366276D01*
X143813551Y-70411086D01*
X143882881Y-70446422D01*
X143969504Y-70472556D01*
X144090032Y-70490834D01*
X144261081Y-70502603D01*
X144499266Y-70509209D01*
X144821201Y-70511999D01*
X145063774Y-70512402D01*
X145486187Y-70512786D01*
X145810086Y-70518386D01*
X146047380Y-70536147D01*
X146209978Y-70573015D01*
X146309786Y-70635935D01*
X146358714Y-70731852D01*
X146368669Y-70867712D01*
X146351560Y-71050460D01*
X146324640Y-71247791D01*
X146296009Y-71473564D01*
X146281329Y-71659799D01*
X146282421Y-71834650D01*
X146301104Y-72026269D01*
X146339199Y-72262811D01*
X146398526Y-72572429D01*
X146415919Y-72659704D01*
X146412526Y-72818076D01*
X146331839Y-72936422D01*
X146303926Y-72962317D01*
X146270206Y-72984047D01*
X146221409Y-73001977D01*
X146148266Y-73016473D01*
X146041506Y-73027899D01*
X145891861Y-73036621D01*
X145690060Y-73043003D01*
X145426835Y-73047412D01*
X145092915Y-73050211D01*
X144679030Y-73051766D01*
X144175912Y-73052443D01*
X143574291Y-73052605D01*
X143382027Y-73052609D01*
X142746117Y-73052412D01*
X142210370Y-73051586D01*
X141764515Y-73049775D01*
X141398282Y-73046624D01*
X141101399Y-73041778D01*
X140863594Y-73034881D01*
X140674598Y-73025579D01*
X140524138Y-73013517D01*
X140401943Y-72998338D01*
X140297744Y-72979688D01*
X140201267Y-72957212D01*
X140138005Y-72940429D01*
X139958463Y-72892391D01*
X139695271Y-72823347D01*
X139371845Y-72739371D01*
X139011596Y-72646538D01*
X138637940Y-72550921D01*
X138559081Y-72530833D01*
X138209195Y-72440297D01*
X137890091Y-72354935D01*
X137619277Y-72279653D01*
X137414259Y-72219359D01*
X137292546Y-72178960D01*
X137272344Y-72170152D01*
X137180318Y-72090931D01*
X137061797Y-71949729D01*
X136965108Y-71811392D01*
X136749474Y-71529628D01*
X136521909Y-71347718D01*
X136268123Y-71255105D01*
X136197803Y-71244542D01*
X135942460Y-71255956D01*
X135710568Y-71357751D01*
X135483013Y-71558791D01*
X135456458Y-71588448D01*
X135317245Y-71823790D01*
X135280530Y-72083661D01*
X135347837Y-72347864D01*
X135392745Y-72431918D01*
X135587472Y-72653964D01*
X135840310Y-72787131D01*
X136139766Y-72828277D01*
X136474346Y-72774261D01*
X136552609Y-72748913D01*
X136765653Y-72694747D01*
X136991052Y-72667029D01*
X137030270Y-72666087D01*
X137151357Y-72680010D01*
X137361313Y-72718940D01*
X137642516Y-72778621D01*
X137977348Y-72854793D01*
X138348190Y-72943201D01*
X138737422Y-73039586D01*
X139127426Y-73139692D01*
X139500582Y-73239259D01*
X139839270Y-73334032D01*
X140041062Y-73393615D01*
X140131615Y-73420109D01*
X140221192Y-73442628D01*
X140319529Y-73461601D01*
X140436363Y-73477458D01*
X140581433Y-73490629D01*
X140764477Y-73501545D01*
X140995231Y-73510634D01*
X141283433Y-73518327D01*
X141638822Y-73525054D01*
X142071134Y-73531245D01*
X142590107Y-73537329D01*
X143205480Y-73543738D01*
X143510000Y-73546778D01*
X144225732Y-73554565D01*
X144837035Y-73562779D01*
X145349914Y-73571601D01*
X145770374Y-73581218D01*
X146104420Y-73591814D01*
X146358058Y-73603574D01*
X146537293Y-73616681D01*
X146648130Y-73631321D01*
X146692164Y-73644585D01*
X146789649Y-73741947D01*
X146879419Y-73896531D01*
X146942710Y-74065605D01*
X146960755Y-74206435D01*
X146953487Y-74239676D01*
X146878383Y-74338862D01*
X146826638Y-74375902D01*
X146756300Y-74384582D01*
X146583395Y-74392958D01*
X146315791Y-74400918D01*
X145961358Y-74408353D01*
X145527962Y-74415150D01*
X145023472Y-74421198D01*
X144455756Y-74426386D01*
X143832683Y-74430603D01*
X143162120Y-74433738D01*
X142622808Y-74435334D01*
X138512826Y-74444540D01*
X137795000Y-74250928D01*
X137541503Y-74182754D01*
X137205007Y-74092557D01*
X136809242Y-73986680D01*
X136377936Y-73871468D01*
X135934821Y-73753264D01*
X135586304Y-73660420D01*
X135000636Y-73504615D01*
X134512002Y-73374060D01*
X134110874Y-73265018D01*
X133787726Y-73173749D01*
X133533029Y-73096516D01*
X133337255Y-73029581D01*
X133190877Y-72969205D01*
X133084366Y-72911650D01*
X133008196Y-72853177D01*
X132952839Y-72790049D01*
X132908766Y-72718528D01*
X132866450Y-72634874D01*
X132840936Y-72583261D01*
X132643165Y-72275780D01*
X132411876Y-72067713D01*
X132153926Y-71961708D01*
X131876173Y-71960414D01*
X131585475Y-72066477D01*
X131551785Y-72085524D01*
X131348513Y-72251610D01*
X131195927Y-72467344D01*
X131111405Y-72700684D01*
X131108571Y-72902746D01*
X131199135Y-73147146D01*
X131354827Y-73372572D01*
X131545934Y-73538791D01*
X131600265Y-73568544D01*
X131889961Y-73650823D01*
X132199670Y-73629107D01*
X132438913Y-73549565D01*
X132630545Y-73483145D01*
X132814999Y-73443777D01*
X132877752Y-73439130D01*
X132965582Y-73453316D01*
X133148964Y-73494024D01*
X133416972Y-73558479D01*
X133758682Y-73643906D01*
X134163167Y-73747530D01*
X134619503Y-73866577D01*
X135116762Y-73998270D01*
X135644021Y-74139835D01*
X135758283Y-74170761D01*
X138457609Y-74902391D01*
X142884393Y-74930000D01*
X147311176Y-74957609D01*
X147453632Y-75091473D01*
X147567786Y-75225583D01*
X147585748Y-75336654D01*
X147511240Y-75448690D01*
X147509317Y-75450621D01*
X147464267Y-75480638D01*
X147387767Y-75503031D01*
X147265264Y-75518841D01*
X147082203Y-75529112D01*
X146824032Y-75534884D01*
X146476198Y-75537199D01*
X146297209Y-75537391D01*
X145171871Y-75537391D01*
X144713653Y-75738930D01*
X144393265Y-75870942D01*
X144144336Y-75947516D01*
X143943409Y-75969665D01*
X143767030Y-75938406D01*
X143591741Y-75854753D01*
X143494418Y-75791699D01*
X143195927Y-75613373D01*
X142936646Y-75522155D01*
X142696026Y-75512284D01*
X142579369Y-75535220D01*
X142283720Y-75666149D01*
X142061086Y-75879899D01*
X141958189Y-76057616D01*
X141879574Y-76262508D01*
X141863276Y-76428029D01*
X141910101Y-76603759D01*
X141969217Y-76735521D01*
X142141544Y-76972726D01*
X142382109Y-77143642D01*
X142663734Y-77237584D01*
X142959240Y-77243867D01*
X143142998Y-77196988D01*
X143246380Y-77136510D01*
X143401269Y-77021281D01*
X143579323Y-76872840D01*
X143636370Y-76822019D01*
X143855545Y-76638826D01*
X144075133Y-76494391D01*
X144336093Y-76363998D01*
X144533640Y-76280574D01*
X145074683Y-76061956D01*
X146846146Y-76062967D01*
X148617609Y-76063977D01*
X149106740Y-76268647D01*
X149314952Y-76345706D01*
X149611522Y-76441421D01*
X149977024Y-76550382D01*
X150392034Y-76667181D01*
X150837129Y-76786407D01*
X151292884Y-76902651D01*
X151739876Y-77010505D01*
X151916848Y-77051213D01*
X152028429Y-77112061D01*
X152071331Y-77205179D01*
X152036230Y-77293402D01*
X151985393Y-77324499D01*
X151914946Y-77330635D01*
X151745150Y-77335886D01*
X151487085Y-77340171D01*
X151151835Y-77343410D01*
X150750480Y-77345526D01*
X150294104Y-77346437D01*
X149793788Y-77346065D01*
X149260614Y-77344331D01*
X149234170Y-77344211D01*
X146566249Y-77331956D01*
X146230780Y-77124891D01*
X146015853Y-77004020D01*
X145842378Y-76940113D01*
X145667718Y-76918550D01*
X145627547Y-76918032D01*
X145332341Y-76962759D01*
X145094171Y-77084143D01*
X144919664Y-77263734D01*
X144815449Y-77483079D01*
X144788152Y-77723729D01*
X144844402Y-77967233D01*
X144990825Y-78195138D01*
X145125051Y-78316969D01*
X145379753Y-78459855D01*
X145635110Y-78501297D01*
X145899476Y-78440007D01*
X146181208Y-78274692D01*
X146360800Y-78126175D01*
X146658560Y-77856522D01*
X151210813Y-77856522D01*
X152120413Y-77857066D01*
X152922977Y-77858730D01*
X153621896Y-77861557D01*
X154220561Y-77865592D01*
X154722366Y-77870879D01*
X155130703Y-77877462D01*
X155448964Y-77885386D01*
X155680541Y-77894695D01*
X155828826Y-77905434D01*
X155897212Y-77917647D01*
X155897617Y-77917828D01*
X156045622Y-78039549D01*
X156130010Y-78243870D01*
X156153570Y-78507924D01*
X156106167Y-78836000D01*
X155964499Y-79142401D01*
X155724603Y-79431823D01*
X155382519Y-79708964D01*
X154934284Y-79978522D01*
X154896682Y-79998352D01*
X154105320Y-80367976D01*
X153274512Y-80666968D01*
X152383229Y-80902097D01*
X151654565Y-81041902D01*
X151326673Y-81082491D01*
X150911724Y-81113092D01*
X150432642Y-81133713D01*
X149912353Y-81144359D01*
X149373780Y-81145038D01*
X148839849Y-81135754D01*
X148333483Y-81116515D01*
X147877609Y-81087327D01*
X147495150Y-81048196D01*
X147440466Y-81040752D01*
X146887739Y-80957298D01*
X146376104Y-80868450D01*
X145883852Y-80768927D01*
X145389272Y-80653449D01*
X144870658Y-80516735D01*
X144306299Y-80353504D01*
X143674487Y-80158476D01*
X143233913Y-80017511D01*
X142473667Y-79770786D01*
X141810864Y-79553503D01*
X141237373Y-79362706D01*
X140745060Y-79195442D01*
X140325794Y-79048753D01*
X139971442Y-78919687D01*
X139673872Y-78805286D01*
X139424951Y-78702597D01*
X139216548Y-78608664D01*
X139040529Y-78520531D01*
X138903205Y-78443802D01*
X138615796Y-78278251D01*
X138272892Y-78086878D01*
X137890061Y-77877816D01*
X137482868Y-77659193D01*
X137066881Y-77439140D01*
X136657667Y-77225787D01*
X136270793Y-77027265D01*
X135921825Y-76851702D01*
X135626331Y-76707230D01*
X135399877Y-76601979D01*
X135282609Y-76552875D01*
X134868478Y-76396759D01*
X132816112Y-76367401D01*
X132284977Y-76359578D01*
X131852991Y-76352337D01*
X131508874Y-76344936D01*
X131241347Y-76336635D01*
X131039133Y-76326694D01*
X130890953Y-76314372D01*
X130785527Y-76298928D01*
X130711578Y-76279621D01*
X130657826Y-76255711D01*
X130612993Y-76226457D01*
X130607417Y-76222359D01*
X130271976Y-76023928D01*
X129948928Y-75931213D01*
X129644027Y-75943910D01*
X129363028Y-76061714D01*
X129111685Y-76284317D01*
X129096346Y-76302607D01*
X128957163Y-76542684D01*
X128927668Y-76787171D01*
X129007736Y-77028769D01*
X129111203Y-77172608D01*
X129361629Y-77388915D01*
X129648194Y-77503064D01*
X129872273Y-77525217D01*
X130076383Y-77503508D01*
X130272054Y-77429566D01*
X130486675Y-77290167D01*
X130670702Y-77139782D01*
X130828194Y-77015398D01*
X130971085Y-76922574D01*
X131047692Y-76888255D01*
X131129385Y-76881765D01*
X131308270Y-76876626D01*
X131571112Y-76872926D01*
X131904675Y-76870752D01*
X132295724Y-76870192D01*
X132731024Y-76871332D01*
X133184348Y-76874156D01*
X135199783Y-76890217D01*
X136000435Y-77333736D01*
X136316062Y-77511899D01*
X136543264Y-77648691D01*
X136692715Y-77751474D01*
X136775091Y-77827610D01*
X136801067Y-77884461D01*
X136801087Y-77885910D01*
X136797724Y-77930639D01*
X136778786Y-77962017D01*
X136730997Y-77979515D01*
X136641083Y-77982608D01*
X136495768Y-77970769D01*
X136281777Y-77943472D01*
X135985836Y-77900190D01*
X135594669Y-77840396D01*
X135574251Y-77837253D01*
X134440397Y-77713256D01*
X133279062Y-77683049D01*
X132121157Y-77746684D01*
X131439730Y-77830110D01*
X130970050Y-77900764D01*
X130593759Y-77959140D01*
X130294887Y-78008329D01*
X130057464Y-78051419D01*
X129865517Y-78091499D01*
X129703077Y-78131659D01*
X129554171Y-78174987D01*
X129406089Y-78223465D01*
X129029054Y-78325168D01*
X128720931Y-78348506D01*
X128472890Y-78293549D01*
X128361350Y-78231710D01*
X128052331Y-77998347D01*
X127793186Y-77768279D01*
X127606468Y-77561887D01*
X127580155Y-77525755D01*
X127513371Y-77417197D01*
X127474267Y-77308268D01*
X127456855Y-77166422D01*
X127455148Y-76959113D01*
X127457327Y-76858134D01*
X127460586Y-76622831D01*
X127451321Y-76465442D01*
X127422700Y-76353595D01*
X127367890Y-76254916D01*
X127314646Y-76182057D01*
X127101978Y-75963800D01*
X126866024Y-75847213D01*
X126588180Y-75823632D01*
X126551444Y-75826611D01*
X126265406Y-75902091D01*
X126026157Y-76057266D01*
X125850150Y-76272859D01*
X125753835Y-76529593D01*
X125747326Y-76768886D01*
X125837574Y-77049476D01*
X126017697Y-77282389D01*
X126272366Y-77453545D01*
X126586253Y-77548860D01*
X126598211Y-77550662D01*
X126815676Y-77604179D01*
X127032020Y-77690065D01*
X127082826Y-77717081D01*
X127228997Y-77819545D01*
X127400530Y-77966056D01*
X127576991Y-78135526D01*
X127737945Y-78306863D01*
X127862958Y-78458980D01*
X127931594Y-78570787D01*
X127938696Y-78600367D01*
X127905476Y-78702560D01*
X127799985Y-78819396D01*
X127613474Y-78957833D01*
X127337195Y-79124828D01*
X127148424Y-79228886D01*
X126912361Y-79359467D01*
X126612410Y-79530575D01*
X126278672Y-79724757D01*
X125941250Y-79924562D01*
X125747697Y-80041006D01*
X125456219Y-80213566D01*
X125181482Y-80368822D01*
X124943532Y-80496000D01*
X124762414Y-80584330D01*
X124669290Y-80620509D01*
X124528559Y-80641532D01*
X124296954Y-80656302D01*
X123993897Y-80664129D01*
X123638808Y-80664320D01*
X123497465Y-80662304D01*
X123149035Y-80656097D01*
X122888754Y-80647762D01*
X122694416Y-80630925D01*
X122543817Y-80599214D01*
X122414752Y-80546256D01*
X122285015Y-80465678D01*
X122132402Y-80351108D01*
X121970437Y-80224057D01*
X121741841Y-80108126D01*
X121492331Y-80083471D01*
X121242449Y-80139008D01*
X121012736Y-80263654D01*
X120823732Y-80446325D01*
X120695978Y-80675938D01*
X120650000Y-80936539D01*
X120701914Y-81230172D01*
X120848889Y-81483232D01*
X121053109Y-81657782D01*
X121316137Y-81777973D01*
X121566980Y-81804300D01*
X121819527Y-81733986D01*
X122087669Y-81564258D01*
X122258094Y-81417036D01*
X122522660Y-81169565D01*
X122940889Y-81169565D01*
X123169011Y-81175000D01*
X123307543Y-81193832D01*
X123376914Y-81229850D01*
X123391171Y-81253094D01*
X123387059Y-81363326D01*
X123359032Y-81413971D01*
X123278086Y-81473951D01*
X123112948Y-81568674D01*
X122881071Y-81689709D01*
X122599910Y-81828630D01*
X122286921Y-81977006D01*
X121959557Y-82126410D01*
X121635273Y-82268412D01*
X121331523Y-82394585D01*
X121312609Y-82402157D01*
X120338485Y-82738246D01*
X119354297Y-82975073D01*
X118368570Y-83112755D01*
X117389832Y-83151409D01*
X116426610Y-83091152D01*
X116426610Y-83091152D01*
G37*
X116426610Y-83091152D02*
X115487430Y-82932103D01*
X114580820Y-82674379D01*
X113715306Y-82318096D01*
X113671752Y-82296959D01*
X113234349Y-82070931D01*
X112875775Y-81860303D01*
X112600864Y-81668987D01*
X112414450Y-81500891D01*
X112321367Y-81359928D01*
X112326448Y-81250008D01*
X112346586Y-81224871D01*
X112422213Y-81203996D01*
X112594112Y-81185920D01*
X112848144Y-81171072D01*
X113170173Y-81159877D01*
X113546060Y-81152762D01*
X113961668Y-81150155D01*
X114402859Y-81152481D01*
X114636479Y-81155761D01*
X115442306Y-81169565D01*
X115774544Y-81392657D01*
X116120957Y-81580473D01*
X116441700Y-81661106D01*
X116737601Y-81634583D01*
X117009488Y-81500932D01*
X117092480Y-81434732D01*
X117310085Y-81197566D01*
X117417522Y-80964032D01*
X117414939Y-80732673D01*
X117302484Y-80502030D01*
X117199990Y-80381229D01*
X116934853Y-80179793D01*
X116632472Y-80082244D01*
X116362852Y-80079741D01*
X116215013Y-80108907D01*
X116064303Y-80170071D01*
X115887710Y-80275831D01*
X115662224Y-80438783D01*
X115552250Y-80523529D01*
X115506889Y-80556490D01*
X115456327Y-80583011D01*
X115388571Y-80603920D01*
X115291630Y-80620045D01*
X115153509Y-80632215D01*
X114962218Y-80641256D01*
X114705764Y-80647997D01*
X114372154Y-80653265D01*
X113949397Y-80657890D01*
X113552936Y-80661556D01*
X112952594Y-80665107D01*
X112458380Y-80663936D01*
X112066083Y-80657945D01*
X111771495Y-80647041D01*
X111570405Y-80631126D01*
X111472522Y-80614324D01*
X111287302Y-80533162D01*
X111093895Y-80398763D01*
X110917299Y-80235168D01*
X110782511Y-80066419D01*
X110714529Y-79916558D01*
X110710870Y-79881787D01*
X110753694Y-79740009D01*
X110819902Y-79679446D01*
X110895868Y-79666062D01*
X111070531Y-79654968D01*
X111345522Y-79646145D01*
X111722467Y-79639573D01*
X112202996Y-79635232D01*
X112788737Y-79633104D01*
X113481319Y-79633169D01*
X114282370Y-79635406D01*
X114450457Y-79636091D01*
X117971980Y-79651087D01*
X118320617Y-79883923D01*
X118594144Y-80048654D01*
X118817949Y-80137112D01*
X119016472Y-80154850D01*
X119214156Y-80107421D01*
X119246835Y-80094368D01*
X119546863Y-79914348D01*
X119765826Y-79659912D01*
X119856563Y-79474226D01*
X119911616Y-79297382D01*
X119915473Y-79152935D01*
X119881988Y-79011105D01*
X119770120Y-78785933D01*
X119587287Y-78566233D01*
X119368609Y-78388114D01*
X119189532Y-78299182D01*
X118986686Y-78252876D01*
X118803843Y-78264714D01*
X118620372Y-78343287D01*
X118415642Y-78497186D01*
X118186828Y-78716726D01*
X117786236Y-79126522D01*
X113997332Y-79126522D01*
X113238598Y-79126585D01*
X112582403Y-79126369D01*
X112020851Y-79125264D01*
X111546047Y-79122661D01*
X111150094Y-79117952D01*
X110825097Y-79110527D01*
X110563161Y-79099777D01*
X110356390Y-79085093D01*
X110196888Y-79065867D01*
X110076760Y-79041488D01*
X109988110Y-79011349D01*
X109923042Y-78974840D01*
X109873661Y-78931351D01*
X109832072Y-78880275D01*
X109790378Y-78821002D01*
X109776236Y-78800922D01*
X109668045Y-78637097D01*
X109536982Y-78420692D01*
X109394110Y-78172204D01*
X109250488Y-77912129D01*
X109117177Y-77660963D01*
X109005236Y-77439201D01*
X108925727Y-77267339D01*
X108889710Y-77165873D01*
X108888696Y-77156229D01*
X108931400Y-77034228D01*
X109011417Y-76948566D01*
X109038496Y-76935619D01*
X109084613Y-76924022D01*
X109155533Y-76913703D01*
X109257023Y-76904589D01*
X109394849Y-76896606D01*
X109574776Y-76889682D01*
X109802572Y-76883745D01*
X110084002Y-76878721D01*
X110424832Y-76874539D01*
X110830829Y-76871124D01*
X111307758Y-76868404D01*
X111861386Y-76866307D01*
X112497479Y-76864759D01*
X113221802Y-76863689D01*
X114040123Y-76863022D01*
X114958206Y-76862687D01*
X115822080Y-76862609D01*
X122510022Y-76862609D01*
X122740426Y-76986848D01*
X122880195Y-77077053D01*
X123072025Y-77220731D01*
X123296020Y-77400735D01*
X123532288Y-77599922D01*
X123760934Y-77801147D01*
X123962065Y-77987265D01*
X124115785Y-78141133D01*
X124202201Y-78245606D01*
X124203483Y-78247695D01*
X124267879Y-78388840D01*
X124329737Y-78578574D01*
X124350338Y-78660622D01*
X124465893Y-78976795D01*
X124646056Y-79219938D01*
X124876367Y-79381899D01*
X125142367Y-79454527D01*
X125429595Y-79429672D01*
X125602343Y-79366370D01*
X125803391Y-79218509D01*
X125970323Y-78999454D01*
X126076379Y-78748198D01*
X126095774Y-78647318D01*
X126073109Y-78407178D01*
X125962170Y-78164397D01*
X125779790Y-77950222D01*
X125677222Y-77870369D01*
X125465537Y-77750906D01*
X125269330Y-77703961D01*
X125042190Y-77721823D01*
X124929348Y-77746087D01*
X124737358Y-77780088D01*
X124568930Y-77789700D01*
X124502047Y-77782253D01*
X124415658Y-77736798D01*
X124262175Y-77632469D01*
X124058718Y-77481834D01*
X123822409Y-77297460D01*
X123638740Y-77148572D01*
X123382749Y-76943118D01*
X123140469Y-76758486D01*
X122930973Y-76608489D01*
X122773334Y-76506941D01*
X122705182Y-76472494D01*
X122658174Y-76460917D01*
X122578774Y-76450357D01*
X122461626Y-76440736D01*
X122301373Y-76431973D01*
X122092659Y-76423990D01*
X121830127Y-76416709D01*
X121508422Y-76410050D01*
X121122186Y-76403935D01*
X120666063Y-76398285D01*
X120134697Y-76393020D01*
X119522732Y-76388062D01*
X118824810Y-76383332D01*
X118035576Y-76378751D01*
X117149673Y-76374240D01*
X116161745Y-76369721D01*
X115550947Y-76367111D01*
X108602111Y-76338043D01*
X108469590Y-76172391D01*
X108355227Y-75973005D01*
X108322729Y-75778913D01*
X108373552Y-75615674D01*
X108434159Y-75550875D01*
X108463366Y-75543330D01*
X108532957Y-75536363D01*
X108646405Y-75529959D01*
X108807184Y-75524105D01*
X109018765Y-75518787D01*
X109284622Y-75513991D01*
X109608227Y-75509703D01*
X109993053Y-75505910D01*
X110442573Y-75502599D01*
X110960259Y-75499754D01*
X111549585Y-75497363D01*
X112214023Y-75495413D01*
X112957046Y-75493888D01*
X113782126Y-75492776D01*
X114692738Y-75492063D01*
X115692352Y-75491734D01*
X116784442Y-75491777D01*
X117972481Y-75492178D01*
X119259942Y-75492923D01*
X120650297Y-75493997D01*
X122147020Y-75495388D01*
X122414145Y-75495657D01*
X136304130Y-75509783D01*
X136939130Y-75794374D01*
X137162692Y-75895687D01*
X137465132Y-76034382D01*
X137825444Y-76200737D01*
X138222620Y-76385030D01*
X138635655Y-76577539D01*
X139009783Y-76752695D01*
X139403414Y-76936901D01*
X139786369Y-77115151D01*
X140140902Y-77279258D01*
X140449265Y-77421032D01*
X140693714Y-77532288D01*
X140856502Y-77604836D01*
X140859565Y-77606167D01*
X141004101Y-77670629D01*
X141234528Y-77775568D01*
X141536789Y-77914486D01*
X141896830Y-78080886D01*
X142300594Y-78268271D01*
X142734024Y-78470144D01*
X143183066Y-78680008D01*
X143206304Y-78690889D01*
X145138913Y-79595870D01*
X148233600Y-79623478D01*
X148899796Y-79629625D01*
X149464398Y-79635449D01*
X149936241Y-79641296D01*
X150324165Y-79647511D01*
X150637006Y-79654438D01*
X150883602Y-79662422D01*
X151072790Y-79671809D01*
X151213408Y-79682943D01*
X151314294Y-79696169D01*
X151384285Y-79711832D01*
X151432218Y-79730277D01*
X151463817Y-79749550D01*
X151600123Y-79848552D01*
X151760420Y-79964949D01*
X151786970Y-79984224D01*
X152034518Y-80106623D01*
X152282510Y-80121872D01*
X152517370Y-80030864D01*
X152643983Y-79927988D01*
X152803010Y-79708210D01*
X152883227Y-79462701D01*
X152892536Y-79209002D01*
X152838837Y-78964656D01*
X152730031Y-78747203D01*
X152574018Y-78574186D01*
X152378701Y-78463146D01*
X152151979Y-78431625D01*
X151984722Y-78464292D01*
X151826753Y-78550474D01*
X151656571Y-78695322D01*
X151588880Y-78769431D01*
X151449885Y-78915871D01*
X151311809Y-79030194D01*
X151242856Y-79070302D01*
X151158702Y-79085004D01*
X150982132Y-79096960D01*
X150710455Y-79106205D01*
X150340980Y-79112779D01*
X149871016Y-79116718D01*
X149297872Y-79118060D01*
X148618856Y-79116844D01*
X148090980Y-79114553D01*
X145083696Y-79098913D01*
X144365870Y-78762532D01*
X144115250Y-78645453D01*
X143787250Y-78492772D01*
X143404776Y-78315122D01*
X142990739Y-78123135D01*
X142568047Y-77927445D01*
X142240000Y-77775809D01*
X141323920Y-77352612D01*
X140503963Y-76973643D01*
X139775934Y-76636954D01*
X139135637Y-76340598D01*
X138578876Y-76082630D01*
X138101457Y-75861102D01*
X137699184Y-75674066D01*
X137367861Y-75519577D01*
X137103293Y-75395688D01*
X136901285Y-75300451D01*
X136757641Y-75231919D01*
X136745870Y-75226239D01*
X136304130Y-75012826D01*
X132306859Y-74985217D01*
X131542818Y-74979780D01*
X130881708Y-74974619D01*
X130316026Y-74969513D01*
X129838268Y-74964242D01*
X129440933Y-74958584D01*
X129116517Y-74952317D01*
X128857517Y-74945220D01*
X128656431Y-74937073D01*
X128505755Y-74927653D01*
X128397986Y-74916739D01*
X128325623Y-74904111D01*
X128281161Y-74889546D01*
X128257098Y-74872824D01*
X128251581Y-74865604D01*
X128232226Y-74792469D01*
X128272662Y-74699925D01*
X128384488Y-74562311D01*
X128392882Y-74552989D01*
X128563103Y-74350013D01*
X128664459Y-74183585D01*
X128713202Y-74019891D01*
X128725354Y-73861171D01*
X128690806Y-73611891D01*
X128572880Y-73357330D01*
X128429459Y-73155875D01*
X128350605Y-72999273D01*
X128364236Y-72862645D01*
X128465770Y-72769796D01*
X128506503Y-72755629D01*
X128623956Y-72738571D01*
X128809701Y-72726434D01*
X129003830Y-72722058D01*
X129320867Y-72699076D01*
X129558728Y-72628872D01*
X129583613Y-72616777D01*
X129676699Y-72549199D01*
X129832770Y-72413018D01*
X130039272Y-72220189D01*
X130283650Y-71982668D01*
X130553351Y-71712412D01*
X130803949Y-71454621D01*
X131083324Y-71166874D01*
X131346060Y-70902317D01*
X131580113Y-70672606D01*
X131773440Y-70489395D01*
X131913995Y-70364341D01*
X131985720Y-70310994D01*
X132099420Y-70264286D01*
X132217861Y-70252763D01*
X132383044Y-70274890D01*
X132473363Y-70293191D01*
X132788258Y-70333966D01*
X133043962Y-70302996D01*
X133268950Y-70195701D01*
X133323814Y-70156354D01*
X133505321Y-69959972D01*
X133628638Y-69709745D01*
X133684781Y-69439005D01*
X133664765Y-69181084D01*
X133619461Y-69059522D01*
X133446181Y-68812578D01*
X133221367Y-68624555D01*
X132970025Y-68510383D01*
X132717164Y-68484987D01*
X132668542Y-68491888D01*
X132433051Y-68575227D01*
X132236754Y-68734885D01*
X132072563Y-68980216D01*
X131933386Y-69320575D01*
X131864733Y-69552412D01*
X131793408Y-69717250D01*
X131653103Y-69923043D01*
X131435415Y-70181760D01*
X131380278Y-70242629D01*
X131047407Y-70602926D01*
X130722113Y-70948408D01*
X130414289Y-71269082D01*
X130133825Y-71554957D01*
X129890614Y-71796041D01*
X129694547Y-71982343D01*
X129555516Y-72103870D01*
X129496373Y-72145605D01*
X129465983Y-72155005D01*
X129409450Y-72163643D01*
X129322423Y-72171549D01*
X129200552Y-72178755D01*
X129039485Y-72185291D01*
X128834873Y-72191188D01*
X128582364Y-72196477D01*
X128277607Y-72201190D01*
X127916251Y-72205356D01*
X127493946Y-72209007D01*
X127006341Y-72212174D01*
X126449085Y-72214887D01*
X125817828Y-72217178D01*
X125108217Y-72219077D01*
X124315903Y-72220616D01*
X123436535Y-72221824D01*
X122465761Y-72222734D01*
X121399232Y-72223376D01*
X120232596Y-72223781D01*
X118961502Y-72223980D01*
X118458703Y-72224008D01*
X117231412Y-72223791D01*
X116057615Y-72223075D01*
X114941247Y-72221877D01*
X113886245Y-72220216D01*
X112896543Y-72218109D01*
X111976078Y-72215575D01*
X111128784Y-72212630D01*
X110358597Y-72209294D01*
X109669453Y-72205584D01*
X109065287Y-72201518D01*
X108550035Y-72197113D01*
X108127631Y-72192389D01*
X107802012Y-72187362D01*
X107577114Y-72182052D01*
X107456870Y-72176475D01*
X107437653Y-72173776D01*
X107292196Y-72066863D01*
X107212477Y-71903950D01*
X107200233Y-71719033D01*
X107257200Y-71546107D01*
X107385113Y-71419170D01*
X107398743Y-71411879D01*
X107480526Y-71398123D01*
X107661139Y-71385710D01*
X107928986Y-71374661D01*
X108272470Y-71364996D01*
X108679994Y-71356735D01*
X109139961Y-71349898D01*
X109640776Y-71344507D01*
X110170840Y-71340580D01*
X110718559Y-71338139D01*
X111272334Y-71337204D01*
X111820569Y-71337794D01*
X112351668Y-71339930D01*
X112854035Y-71343633D01*
X113316071Y-71348922D01*
X113726181Y-71355819D01*
X114072768Y-71364342D01*
X114344235Y-71374513D01*
X114528986Y-71386352D01*
X114613905Y-71399270D01*
X114741464Y-71475199D01*
X114890751Y-71602488D01*
X114962609Y-71677756D01*
X115109213Y-71822171D01*
X115256328Y-71900845D01*
X115435091Y-71940727D01*
X115730834Y-71956662D01*
X115956498Y-71896810D01*
X116128087Y-71754561D01*
X116216557Y-71617906D01*
X116313289Y-71396966D01*
X116333937Y-71220140D01*
X116278624Y-71051614D01*
X116218804Y-70953786D01*
X116010217Y-70715493D01*
X115779078Y-70584345D01*
X115520663Y-70559260D01*
X115230246Y-70639157D01*
X115106233Y-70699104D01*
X114835726Y-70843913D01*
X111033950Y-70843913D01*
X110293880Y-70843843D01*
X109656335Y-70843486D01*
X109113407Y-70842617D01*
X108657184Y-70841014D01*
X108279759Y-70838453D01*
X107973221Y-70834711D01*
X107729661Y-70829565D01*
X107541170Y-70822791D01*
X107399839Y-70814167D01*
X107297757Y-70803468D01*
X107227015Y-70790472D01*
X107179704Y-70774956D01*
X107147915Y-70756695D01*
X107123737Y-70735467D01*
X107121739Y-70733478D01*
X107040559Y-70633243D01*
X107011304Y-70564196D01*
X107059126Y-70416919D01*
X107175810Y-70302205D01*
X107244522Y-70273406D01*
X107318741Y-70268000D01*
X107494606Y-70261979D01*
X107763330Y-70255477D01*
X108116127Y-70248629D01*
X108544210Y-70241567D01*
X109038793Y-70234427D01*
X109591090Y-70227342D01*
X110192313Y-70220446D01*
X110833676Y-70213874D01*
X111506393Y-70207760D01*
X111597775Y-70206988D01*
X115825334Y-70171606D01*
X116245077Y-70312509D01*
X116395334Y-70365204D01*
X116562370Y-70428843D01*
X116758495Y-70508761D01*
X116996019Y-70610289D01*
X117287251Y-70738764D01*
X117644500Y-70899517D01*
X118080077Y-71097883D01*
X118468913Y-71276085D01*
X118910652Y-71478913D01*
X122720652Y-71495218D01*
X123364158Y-71497490D01*
X123978708Y-71498729D01*
X124554828Y-71498973D01*
X125083045Y-71498263D01*
X125553884Y-71496638D01*
X125957872Y-71494138D01*
X126285536Y-71490802D01*
X126527401Y-71486671D01*
X126673994Y-71481783D01*
X126712286Y-71478503D01*
X126817121Y-71439862D01*
X126947700Y-71351639D01*
X127117686Y-71202748D01*
X127340745Y-70982103D01*
X127402504Y-70918472D01*
X127652877Y-70664119D01*
X127848631Y-70481356D01*
X128007858Y-70358652D01*
X128148650Y-70284477D01*
X128289096Y-70247298D01*
X128447289Y-70235585D01*
X128474323Y-70235309D01*
X128808810Y-70185810D01*
X129104774Y-70049702D01*
X129342974Y-69840803D01*
X129504165Y-69572930D01*
X129537779Y-69471727D01*
X129563295Y-69215234D01*
X129492366Y-68970687D01*
X129319816Y-68723161D01*
X129253824Y-68652546D01*
X128988625Y-68435096D01*
X128726683Y-68327843D01*
X128465917Y-68330677D01*
X128204243Y-68443489D01*
X128019384Y-68587866D01*
X127825890Y-68801323D01*
X127714831Y-69023376D01*
X127675377Y-69285579D01*
X127688723Y-69551374D01*
X127704860Y-69761644D01*
X127694200Y-69905082D01*
X127650881Y-70023287D01*
X127612878Y-70089601D01*
X127482564Y-70262410D01*
X127299264Y-70458361D01*
X127091912Y-70650878D01*
X126889442Y-70813384D01*
X126720790Y-70919303D01*
X126698662Y-70929313D01*
X126645524Y-70945550D01*
X126564360Y-70959512D01*
X126447406Y-70971360D01*
X126286901Y-70981251D01*
X126075083Y-70989348D01*
X125804189Y-70995809D01*
X125466457Y-71000795D01*
X125054124Y-71004465D01*
X124559429Y-71006980D01*
X123974608Y-71008499D01*
X123291900Y-71009183D01*
X122819056Y-71009257D01*
X121967372Y-71008346D01*
X121224161Y-71005742D01*
X120587477Y-71001415D01*
X120055370Y-70995335D01*
X119625892Y-70987471D01*
X119297095Y-70977793D01*
X119067032Y-70966270D01*
X118933753Y-70952872D01*
X118910652Y-70948027D01*
X118801816Y-70909662D01*
X118608043Y-70832696D01*
X118345141Y-70723766D01*
X118028919Y-70589506D01*
X117675185Y-70436552D01*
X117313188Y-70277493D01*
X115936593Y-69667882D01*
X111512971Y-69708012D01*
X110710273Y-69715228D01*
X110010672Y-69721261D01*
X109406833Y-69726005D01*
X108891424Y-69729356D01*
X108457110Y-69731209D01*
X108096559Y-69731457D01*
X107802437Y-69729996D01*
X107567411Y-69726720D01*
X107384147Y-69721524D01*
X107245312Y-69714302D01*
X107143573Y-69704950D01*
X107071595Y-69693361D01*
X107022046Y-69679431D01*
X106987593Y-69663054D01*
X106960901Y-69644124D01*
X106959000Y-69642592D01*
X106873524Y-69544050D01*
X106824750Y-69399950D01*
X106803326Y-69231659D01*
X106793659Y-69154818D01*
X106782156Y-69086475D01*
X106774854Y-69026134D01*
X106777788Y-68973301D01*
X106796993Y-68927483D01*
X106838505Y-68888183D01*
X106908358Y-68854908D01*
X107012588Y-68827163D01*
X107157230Y-68804454D01*
X107348320Y-68786286D01*
X107591893Y-68772165D01*
X107893984Y-68761597D01*
X108260629Y-68754086D01*
X108697863Y-68749138D01*
X109211720Y-68746259D01*
X109808238Y-68744955D01*
X110493450Y-68744731D01*
X111273392Y-68745091D01*
X112154099Y-68745543D01*
X112735164Y-68745652D01*
X113655134Y-68745560D01*
X114471977Y-68745479D01*
X115192999Y-68745704D01*
X115825506Y-68746529D01*
X116376806Y-68748248D01*
X116854206Y-68751155D01*
X117265011Y-68755544D01*
X117616530Y-68761710D01*
X117916068Y-68769946D01*
X118170933Y-68780547D01*
X118388431Y-68793806D01*
X118575868Y-68810018D01*
X118740553Y-68829477D01*
X118889791Y-68852478D01*
X119030889Y-68879313D01*
X119171154Y-68910278D01*
X119317893Y-68945666D01*
X119478413Y-68985772D01*
X119628478Y-69023133D01*
X119804942Y-69065916D01*
X120068636Y-69128889D01*
X120399222Y-69207243D01*
X120776361Y-69296167D01*
X121179716Y-69390851D01*
X121500055Y-69465751D01*
X121885980Y-69556879D01*
X122239701Y-69642417D01*
X122545956Y-69718513D01*
X122789482Y-69781316D01*
X122955018Y-69826973D01*
X123025968Y-69850867D01*
X123110298Y-69918661D01*
X123234639Y-70044269D01*
X123356257Y-70182027D01*
X123575070Y-70412190D01*
X123778405Y-70552280D01*
X123989129Y-70615790D01*
X124103804Y-70623043D01*
X124400102Y-70570585D01*
X124658402Y-70417223D01*
X124858031Y-70185283D01*
X124982192Y-69907779D01*
X124997163Y-69636443D01*
X124904185Y-69376778D01*
X124704501Y-69134285D01*
X124601247Y-69048047D01*
X124426068Y-68946288D01*
X124236662Y-68880590D01*
X124199785Y-68874148D01*
X124074776Y-68869194D01*
X123954011Y-68897997D01*
X123805292Y-68972257D01*
X123631739Y-69080584D01*
X123414008Y-69211865D01*
X123246032Y-69284021D01*
X123094107Y-69310245D01*
X123042946Y-69311086D01*
X122913039Y-69296484D01*
X122687603Y-69256521D01*
X122377959Y-69193756D01*
X121995426Y-69110746D01*
X121551323Y-69010049D01*
X121056969Y-68894223D01*
X120523685Y-68765826D01*
X119962789Y-68627417D01*
X119490435Y-68508305D01*
X118579348Y-68276304D01*
X112742061Y-68248696D01*
X111798192Y-68244413D01*
X110958622Y-68240734D01*
X110217222Y-68237255D01*
X109567859Y-68233568D01*
X109004403Y-68229268D01*
X108520724Y-68223949D01*
X108110691Y-68217205D01*
X107768173Y-68208630D01*
X107487039Y-68197818D01*
X107261159Y-68184363D01*
X107084401Y-68167860D01*
X106950636Y-68147903D01*
X106853732Y-68124085D01*
X106787559Y-68096001D01*
X106745986Y-68063244D01*
X106722882Y-68025409D01*
X106712116Y-67982091D01*
X106707558Y-67932882D01*
X106703078Y-67877377D01*
X106699190Y-67848602D01*
X106692270Y-67691556D01*
X106749051Y-67573078D01*
X106808967Y-67507317D01*
X106951067Y-67365217D01*
X122334363Y-67365217D01*
X123882774Y-67365251D01*
X125324572Y-67365369D01*
X126663581Y-67365591D01*
X127903622Y-67365942D01*
X129048519Y-67366443D01*
X130102092Y-67367116D01*
X131068166Y-67367984D01*
X131950562Y-67369069D01*
X132753103Y-67370394D01*
X133479611Y-67371980D01*
X134133909Y-67373851D01*
X134719819Y-67376029D01*
X135241164Y-67378535D01*
X135701766Y-67381393D01*
X136105447Y-67384624D01*
X136456030Y-67388251D01*
X136757338Y-67392297D01*
X137013192Y-67396783D01*
X137227416Y-67401732D01*
X137403832Y-67407167D01*
X137546262Y-67413109D01*
X137658528Y-67419581D01*
X137744454Y-67426606D01*
X137807861Y-67434205D01*
X137852572Y-67442401D01*
X137882409Y-67451217D01*
X137893552Y-67456176D01*
X137986760Y-67522128D01*
X138143037Y-67652420D01*
X138347162Y-67833506D01*
X138583909Y-68051843D01*
X138838057Y-68293885D01*
X138871029Y-68325850D01*
X139177607Y-68621548D01*
X139516477Y-68944842D01*
X139857764Y-69267457D01*
X140171594Y-69561116D01*
X140362719Y-69737774D01*
X140659002Y-70012146D01*
X140989675Y-70322455D01*
X141319064Y-70634990D01*
X141611496Y-70916040D01*
X141677451Y-70980165D01*
X141916832Y-71215784D01*
X142089370Y-71393532D01*
X142179306Y-71497305D01*
X140566704Y-71497305D01*
X140549499Y-71226664D01*
X140422898Y-70968966D01*
X140187123Y-70724939D01*
X140145619Y-70692065D01*
X139905686Y-70552792D01*
X139662519Y-70513534D01*
X139386902Y-70569802D01*
X139375549Y-70573711D01*
X139200538Y-70612218D01*
X139026854Y-70595853D01*
X138835367Y-70517178D01*
X138606947Y-70368753D01*
X138370162Y-70182774D01*
X138105706Y-69956142D01*
X137920336Y-69773229D01*
X137801305Y-69616415D01*
X137735866Y-69468079D01*
X137711273Y-69310600D01*
X137710041Y-69270217D01*
X137676561Y-69003985D01*
X137593065Y-68744550D01*
X137475607Y-68539473D01*
X137455199Y-68515394D01*
X137216564Y-68328544D01*
X136929136Y-68222868D01*
X136624669Y-68205575D01*
X136368801Y-68268796D01*
X136151304Y-68410981D01*
X135963922Y-68627753D01*
X135836991Y-68883264D01*
X135829999Y-68905495D01*
X135797738Y-69054260D01*
X135809985Y-69185597D01*
X135872471Y-69353804D01*
X135878866Y-69368342D01*
X136008843Y-69592608D01*
X136182004Y-69755056D01*
X136416090Y-69865335D01*
X136728840Y-69933092D01*
X136961994Y-69957376D01*
X137484940Y-69996928D01*
X137998883Y-70414581D01*
X138261414Y-70629818D01*
X138451573Y-70794073D01*
X138583552Y-70924943D01*
X138671538Y-71040024D01*
X138729721Y-71156914D01*
X138772292Y-71293209D01*
X138800072Y-71408161D01*
X138920629Y-71764170D01*
X139095263Y-72028103D01*
X139321010Y-72197302D01*
X139594905Y-72269106D01*
X139757307Y-72266886D01*
X140061005Y-72186544D01*
X140307666Y-72013243D01*
X140474294Y-71780158D01*
X140566704Y-71497305D01*
X142179306Y-71497305D01*
X142208676Y-71531193D01*
X142288358Y-71646551D01*
X142342024Y-71757388D01*
X142383285Y-71881488D01*
X142392760Y-71914884D01*
X142529362Y-72243701D01*
X142730173Y-72489869D01*
X142989078Y-72646391D01*
X143050326Y-72667237D01*
X143204882Y-72704055D01*
X143326953Y-72696879D01*
X143473002Y-72639697D01*
X143518937Y-72617349D01*
X143758699Y-72465886D01*
X143903962Y-72283844D01*
X143970540Y-72045908D01*
X143979348Y-71880159D01*
X143972559Y-71689942D01*
X143940154Y-71562968D01*
X143864080Y-71452307D01*
X143781410Y-71365642D01*
X143563219Y-71199639D01*
X143313393Y-71118431D01*
X143006140Y-71114305D01*
X142957826Y-71119352D01*
X142772003Y-71135057D01*
X142622732Y-71125644D01*
X142488302Y-71079878D01*
X142347005Y-70986527D01*
X142177130Y-70834355D01*
X141956967Y-70612129D01*
X141936304Y-70590752D01*
X141715877Y-70369613D01*
X141489733Y-70154771D01*
X141285381Y-69971699D01*
X141138414Y-69851846D01*
X141014337Y-69750686D01*
X140826139Y-69586033D01*
X140588757Y-69371500D01*
X140317129Y-69120699D01*
X140026195Y-68847244D01*
X139817583Y-68648224D01*
X139333524Y-68188066D01*
X138920065Y-67805266D01*
X138572847Y-67496078D01*
X138287515Y-67256757D01*
X138059712Y-67083556D01*
X137885082Y-66972732D01*
X137844812Y-66952223D01*
X137818224Y-66943713D01*
X137773074Y-66935790D01*
X137705594Y-66928431D01*
X137612014Y-66921618D01*
X137488565Y-66915329D01*
X137331478Y-66909545D01*
X137136983Y-66904244D01*
X136901312Y-66899407D01*
X136620696Y-66895012D01*
X136291364Y-66891040D01*
X135909548Y-66887470D01*
X135471479Y-66884281D01*
X134973388Y-66881454D01*
X134411505Y-66878968D01*
X133782061Y-66876801D01*
X133081286Y-66874935D01*
X132305413Y-66873349D01*
X131450671Y-66872021D01*
X130513291Y-66870932D01*
X129489505Y-66870061D01*
X128375542Y-66869389D01*
X127167634Y-66868893D01*
X125862012Y-66868555D01*
X124454906Y-66868353D01*
X122942547Y-66868267D01*
X122347830Y-66868261D01*
X120644900Y-66868106D01*
X119050633Y-66867637D01*
X117563258Y-66866847D01*
X116181002Y-66865730D01*
X114902096Y-66864278D01*
X113724766Y-66862484D01*
X112647243Y-66860342D01*
X111667753Y-66857845D01*
X110784527Y-66854987D01*
X109995792Y-66851760D01*
X109299777Y-66848157D01*
X108694710Y-66844172D01*
X108178821Y-66839797D01*
X107750337Y-66835027D01*
X107407488Y-66829854D01*
X107148502Y-66824272D01*
X106971607Y-66818273D01*
X106875032Y-66811851D01*
X106856716Y-66808626D01*
X106711191Y-66707592D01*
X106622250Y-66547527D01*
X106595017Y-66362998D01*
X106634616Y-66188570D01*
X106745616Y-66059168D01*
X106794074Y-66054459D01*
X106925593Y-66049720D01*
X107141200Y-66044948D01*
X107441926Y-66040137D01*
X107828799Y-66035283D01*
X108302848Y-66030382D01*
X108865102Y-66025429D01*
X109516591Y-66020420D01*
X110258344Y-66015349D01*
X111091390Y-66010213D01*
X112016757Y-66005007D01*
X113035475Y-65999725D01*
X114148573Y-65994365D01*
X115357081Y-65988921D01*
X116662026Y-65983388D01*
X118064439Y-65977762D01*
X119565348Y-65972039D01*
X121165783Y-65966214D01*
X122866772Y-65960282D01*
X124669345Y-65954239D01*
X126574531Y-65948081D01*
X128583359Y-65941802D01*
X130696857Y-65935399D01*
X132916056Y-65928866D01*
X135241984Y-65922199D01*
X137675670Y-65915394D01*
X140218143Y-65908446D01*
X141798261Y-65904201D01*
X142836860Y-65901348D01*
X143851234Y-65898405D01*
X144835366Y-65895397D01*
X145783244Y-65892348D01*
X146688852Y-65889282D01*
X147546177Y-65886223D01*
X148349203Y-65883196D01*
X149091918Y-65880225D01*
X149768306Y-65877334D01*
X150372353Y-65874548D01*
X150898044Y-65871891D01*
X151339366Y-65869387D01*
X151690305Y-65867061D01*
X151944845Y-65864937D01*
X152096972Y-65863039D01*
X152123913Y-65862460D01*
X152400059Y-65851725D01*
X152601933Y-65832255D01*
X152765688Y-65796690D01*
X152927478Y-65737669D01*
X153082613Y-65667283D01*
X153461529Y-65487826D01*
X156332102Y-65487826D01*
X156496157Y-65625870D01*
X156713104Y-65741734D01*
X156958808Y-65754472D01*
X157222468Y-65664063D01*
X157286739Y-65627310D01*
X157357321Y-65585425D01*
X157425960Y-65553143D01*
X157507455Y-65529194D01*
X157616608Y-65512306D01*
X157768221Y-65501207D01*
X157977094Y-65494627D01*
X158258028Y-65491295D01*
X158625826Y-65489939D01*
X158890804Y-65489549D01*
X159361422Y-65490678D01*
X159729825Y-65495613D01*
X160004181Y-65504719D01*
X160192656Y-65518358D01*
X160303418Y-65536894D01*
X160340261Y-65554087D01*
X160389392Y-65664295D01*
X160404511Y-65830096D01*
X160384664Y-66001711D01*
X160350655Y-66096431D01*
X160262494Y-66179861D01*
X160118804Y-66248745D01*
X160093802Y-66256315D01*
X159945806Y-66284156D01*
X159837235Y-66254692D01*
X159733913Y-66178102D01*
X159500241Y-66037373D01*
X159255091Y-66003802D01*
X158988424Y-66076490D01*
X158927586Y-66105769D01*
X158667506Y-66290899D01*
X158501023Y-66519683D01*
X158429378Y-66775227D01*
X158453807Y-67040640D01*
X158575551Y-67299031D01*
X158795848Y-67533506D01*
X158821406Y-67553511D01*
X158996002Y-67655546D01*
X159192457Y-67700022D01*
X159437820Y-67689637D01*
X159699228Y-67641005D01*
X159990622Y-67605842D01*
X160220556Y-67652058D01*
X160407321Y-67784643D01*
X160463611Y-67849486D01*
X160511081Y-67923495D01*
X160542538Y-68017000D01*
X160561117Y-68152782D01*
X160569951Y-68353624D01*
X160572174Y-68638656D01*
X160571212Y-68916220D01*
X160565546Y-69105291D01*
X160551007Y-69227806D01*
X160523426Y-69305707D01*
X160478633Y-69360932D01*
X160426684Y-69404253D01*
X160257305Y-69482211D01*
X160025746Y-69519411D01*
X159772752Y-69515126D01*
X159539064Y-69468628D01*
X159428489Y-69422065D01*
X159329913Y-69347435D01*
X159176636Y-69206968D01*
X158986518Y-69018079D01*
X158777417Y-68798184D01*
X158683915Y-68696000D01*
X158470209Y-68459123D01*
X158293423Y-68261663D01*
X158135794Y-68083135D01*
X157979557Y-67903051D01*
X157806948Y-67700925D01*
X157600205Y-67456270D01*
X157341562Y-67148601D01*
X157323315Y-67126867D01*
X157130725Y-66913292D01*
X156958153Y-66751671D01*
X156824918Y-66659712D01*
X156804314Y-66651107D01*
X156724577Y-66640321D01*
X156549483Y-66630668D01*
X156277471Y-66622133D01*
X155906979Y-66614700D01*
X155436444Y-66608353D01*
X154864305Y-66603078D01*
X154189000Y-66598859D01*
X153408967Y-66595680D01*
X152522644Y-66593527D01*
X151528469Y-66592383D01*
X150822759Y-66592174D01*
X145010259Y-66592174D01*
X144593382Y-66371304D01*
X144289508Y-66229449D01*
X144039718Y-66161259D01*
X143818849Y-66163491D01*
X143601734Y-66232900D01*
X143583995Y-66241152D01*
X143359804Y-66403086D01*
X143205734Y-66627511D01*
X143129301Y-66887864D01*
X143138022Y-67157584D01*
X143239415Y-67410109D01*
X143249031Y-67424759D01*
X143453802Y-67654153D01*
X143696276Y-67804980D01*
X143951643Y-67862053D01*
X143963535Y-67862174D01*
X144130984Y-67850608D01*
X144274169Y-67806084D01*
X144418293Y-67713862D01*
X144588558Y-67559202D01*
X144728352Y-67414854D01*
X145035617Y-67089130D01*
X146329656Y-67081819D01*
X146942087Y-67078984D01*
X147595293Y-67077103D01*
X148280738Y-67076127D01*
X148989886Y-67076006D01*
X149714202Y-67076692D01*
X150445148Y-67078136D01*
X151174190Y-67080287D01*
X151892791Y-67083097D01*
X152592416Y-67086517D01*
X153264528Y-67090496D01*
X153900592Y-67094987D01*
X154492072Y-67099940D01*
X155030431Y-67105305D01*
X155507134Y-67111034D01*
X155913645Y-67117076D01*
X156241428Y-67123383D01*
X156481947Y-67129906D01*
X156626666Y-67136596D01*
X156666659Y-67141450D01*
X156769992Y-67209256D01*
X156925571Y-67345366D01*
X157120699Y-67535484D01*
X157342679Y-67765312D01*
X157578816Y-68020554D01*
X157816412Y-68286911D01*
X158042772Y-68550088D01*
X158245198Y-68795787D01*
X158410995Y-69009711D01*
X158527466Y-69177563D01*
X158581915Y-69285046D01*
X158584348Y-69300897D01*
X158562675Y-69385327D01*
X158488741Y-69445982D01*
X158349170Y-69486151D01*
X158130587Y-69509124D01*
X157819619Y-69518193D01*
X157699040Y-69518696D01*
X157356488Y-69513284D01*
X157107335Y-69495964D01*
X156935025Y-69465109D01*
X156853345Y-69435588D01*
X156746372Y-69360446D01*
X156591665Y-69221456D01*
X156411766Y-69039956D01*
X156265217Y-68878897D01*
X156074900Y-68672289D01*
X155885124Y-68485088D01*
X155721157Y-68341274D01*
X155630217Y-68276252D01*
X155409348Y-68147190D01*
X151204049Y-68101313D01*
X146998751Y-68055435D01*
X146786658Y-67873867D01*
X146478863Y-67648133D01*
X146199601Y-67526249D01*
X145941398Y-67507666D01*
X145696780Y-67591831D01*
X145460252Y-67776229D01*
X145265912Y-68010229D01*
X145177757Y-68229064D01*
X145195291Y-68446121D01*
X145318021Y-68674788D01*
X145422351Y-68801735D01*
X145665714Y-69005192D01*
X145929675Y-69100333D01*
X146213246Y-69087149D01*
X146515444Y-68965630D01*
X146738758Y-68815150D01*
X147005123Y-68607609D01*
X151124255Y-68592759D01*
X151976758Y-68590245D01*
X152723194Y-68589275D01*
X153367918Y-68589897D01*
X153915287Y-68592159D01*
X154369659Y-68596110D01*
X154735389Y-68601799D01*
X155016834Y-68609275D01*
X155218351Y-68618584D01*
X155344297Y-68629777D01*
X155394002Y-68640297D01*
X155515128Y-68715485D01*
X155660296Y-68839816D01*
X155803904Y-68986417D01*
X155920352Y-69128413D01*
X155984041Y-69238929D01*
X155989130Y-69265040D01*
X155981136Y-69336740D01*
X155948816Y-69392842D01*
X155879665Y-69435798D01*
X155761180Y-69468062D01*
X155580854Y-69492086D01*
X155326184Y-69510324D01*
X154984665Y-69525229D01*
X154599706Y-69537615D01*
X154297846Y-69544801D01*
X153901901Y-69551530D01*
X153428219Y-69557660D01*
X152893150Y-69563049D01*
X152313041Y-69567556D01*
X151704241Y-69571037D01*
X151083100Y-69573352D01*
X150465966Y-69574357D01*
X150368018Y-69574387D01*
X149703264Y-69574410D01*
X149139433Y-69574862D01*
X148667015Y-69576558D01*
X148276499Y-69580315D01*
X147958374Y-69586948D01*
X147703130Y-69597275D01*
X147501255Y-69612110D01*
X147343239Y-69632269D01*
X147219571Y-69658569D01*
X147120741Y-69691825D01*
X147037238Y-69732854D01*
X146959551Y-69782472D01*
X146878169Y-69841494D01*
X146828682Y-69878045D01*
X146766663Y-69921829D01*
X146705409Y-69955175D01*
X146629741Y-69979504D01*
X146524482Y-69996237D01*
X146374455Y-70006796D01*
X146164481Y-70012603D01*
X145879383Y-70015078D01*
X145503983Y-70015643D01*
X145359322Y-70015652D01*
X144077585Y-70015652D01*
X143862814Y-69872548D01*
X143716869Y-69763322D01*
X143530198Y-69607320D01*
X143340122Y-69435899D01*
X143316739Y-69413766D01*
X143120556Y-69230086D01*
X142916371Y-69044082D01*
X142746318Y-68894102D01*
X142736957Y-68886093D01*
X142608516Y-68773302D01*
X142420662Y-68604194D01*
X142194542Y-68397995D01*
X141951298Y-68173930D01*
X141836680Y-68067551D01*
X141567353Y-67812150D01*
X141366498Y-67608342D01*
X141217744Y-67437028D01*
X141104722Y-67279105D01*
X141011062Y-67115472D01*
X140996807Y-67087539D01*
X140845709Y-66817619D01*
X140701465Y-66638466D01*
X140543182Y-66533954D01*
X140349966Y-66487959D01*
X140211834Y-66481739D01*
X139906164Y-66517880D01*
X139674049Y-66630517D01*
X139503767Y-66825972D01*
X139473875Y-66879865D01*
X139379742Y-67170145D01*
X139392252Y-67453622D01*
X139507751Y-67717998D01*
X139722583Y-67950974D01*
X139811749Y-68016911D01*
X139955891Y-68093412D01*
X140111969Y-68123994D01*
X140307257Y-68108934D01*
X140569032Y-68048509D01*
X140651219Y-68025440D01*
X140886178Y-67981023D01*
X141051933Y-68002912D01*
X141162106Y-68068048D01*
X141342598Y-68204510D01*
X141585620Y-68405549D01*
X141883386Y-68664419D01*
X142228107Y-68974373D01*
X142611997Y-69328663D01*
X142955312Y-69652053D01*
X143195008Y-69876575D01*
X143419056Y-70080528D01*
X143610369Y-70248800D01*
X143751856Y-70366276D01*
X143813551Y-70411086D01*
X143882881Y-70446422D01*
X143969504Y-70472556D01*
X144090032Y-70490834D01*
X144261081Y-70502603D01*
X144499266Y-70509209D01*
X144821201Y-70511999D01*
X145063774Y-70512402D01*
X145486187Y-70512786D01*
X145810086Y-70518386D01*
X146047380Y-70536147D01*
X146209978Y-70573015D01*
X146309786Y-70635935D01*
X146358714Y-70731852D01*
X146368669Y-70867712D01*
X146351560Y-71050460D01*
X146324640Y-71247791D01*
X146296009Y-71473564D01*
X146281329Y-71659799D01*
X146282421Y-71834650D01*
X146301104Y-72026269D01*
X146339199Y-72262811D01*
X146398526Y-72572429D01*
X146415919Y-72659704D01*
X146412526Y-72818076D01*
X146331839Y-72936422D01*
X146303926Y-72962317D01*
X146270206Y-72984047D01*
X146221409Y-73001977D01*
X146148266Y-73016473D01*
X146041506Y-73027899D01*
X145891861Y-73036621D01*
X145690060Y-73043003D01*
X145426835Y-73047412D01*
X145092915Y-73050211D01*
X144679030Y-73051766D01*
X144175912Y-73052443D01*
X143574291Y-73052605D01*
X143382027Y-73052609D01*
X142746117Y-73052412D01*
X142210370Y-73051586D01*
X141764515Y-73049775D01*
X141398282Y-73046624D01*
X141101399Y-73041778D01*
X140863594Y-73034881D01*
X140674598Y-73025579D01*
X140524138Y-73013517D01*
X140401943Y-72998338D01*
X140297744Y-72979688D01*
X140201267Y-72957212D01*
X140138005Y-72940429D01*
X139958463Y-72892391D01*
X139695271Y-72823347D01*
X139371845Y-72739371D01*
X139011596Y-72646538D01*
X138637940Y-72550921D01*
X138559081Y-72530833D01*
X138209195Y-72440297D01*
X137890091Y-72354935D01*
X137619277Y-72279653D01*
X137414259Y-72219359D01*
X137292546Y-72178960D01*
X137272344Y-72170152D01*
X137180318Y-72090931D01*
X137061797Y-71949729D01*
X136965108Y-71811392D01*
X136749474Y-71529628D01*
X136521909Y-71347718D01*
X136268123Y-71255105D01*
X136197803Y-71244542D01*
X135942460Y-71255956D01*
X135710568Y-71357751D01*
X135483013Y-71558791D01*
X135456458Y-71588448D01*
X135317245Y-71823790D01*
X135280530Y-72083661D01*
X135347837Y-72347864D01*
X135392745Y-72431918D01*
X135587472Y-72653964D01*
X135840310Y-72787131D01*
X136139766Y-72828277D01*
X136474346Y-72774261D01*
X136552609Y-72748913D01*
X136765653Y-72694747D01*
X136991052Y-72667029D01*
X137030270Y-72666087D01*
X137151357Y-72680010D01*
X137361313Y-72718940D01*
X137642516Y-72778621D01*
X137977348Y-72854793D01*
X138348190Y-72943201D01*
X138737422Y-73039586D01*
X139127426Y-73139692D01*
X139500582Y-73239259D01*
X139839270Y-73334032D01*
X140041062Y-73393615D01*
X140131615Y-73420109D01*
X140221192Y-73442628D01*
X140319529Y-73461601D01*
X140436363Y-73477458D01*
X140581433Y-73490629D01*
X140764477Y-73501545D01*
X140995231Y-73510634D01*
X141283433Y-73518327D01*
X141638822Y-73525054D01*
X142071134Y-73531245D01*
X142590107Y-73537329D01*
X143205480Y-73543738D01*
X143510000Y-73546778D01*
X144225732Y-73554565D01*
X144837035Y-73562779D01*
X145349914Y-73571601D01*
X145770374Y-73581218D01*
X146104420Y-73591814D01*
X146358058Y-73603574D01*
X146537293Y-73616681D01*
X146648130Y-73631321D01*
X146692164Y-73644585D01*
X146789649Y-73741947D01*
X146879419Y-73896531D01*
X146942710Y-74065605D01*
X146960755Y-74206435D01*
X146953487Y-74239676D01*
X146878383Y-74338862D01*
X146826638Y-74375902D01*
X146756300Y-74384582D01*
X146583395Y-74392958D01*
X146315791Y-74400918D01*
X145961358Y-74408353D01*
X145527962Y-74415150D01*
X145023472Y-74421198D01*
X144455756Y-74426386D01*
X143832683Y-74430603D01*
X143162120Y-74433738D01*
X142622808Y-74435334D01*
X138512826Y-74444540D01*
X137795000Y-74250928D01*
X137541503Y-74182754D01*
X137205007Y-74092557D01*
X136809242Y-73986680D01*
X136377936Y-73871468D01*
X135934821Y-73753264D01*
X135586304Y-73660420D01*
X135000636Y-73504615D01*
X134512002Y-73374060D01*
X134110874Y-73265018D01*
X133787726Y-73173749D01*
X133533029Y-73096516D01*
X133337255Y-73029581D01*
X133190877Y-72969205D01*
X133084366Y-72911650D01*
X133008196Y-72853177D01*
X132952839Y-72790049D01*
X132908766Y-72718528D01*
X132866450Y-72634874D01*
X132840936Y-72583261D01*
X132643165Y-72275780D01*
X132411876Y-72067713D01*
X132153926Y-71961708D01*
X131876173Y-71960414D01*
X131585475Y-72066477D01*
X131551785Y-72085524D01*
X131348513Y-72251610D01*
X131195927Y-72467344D01*
X131111405Y-72700684D01*
X131108571Y-72902746D01*
X131199135Y-73147146D01*
X131354827Y-73372572D01*
X131545934Y-73538791D01*
X131600265Y-73568544D01*
X131889961Y-73650823D01*
X132199670Y-73629107D01*
X132438913Y-73549565D01*
X132630545Y-73483145D01*
X132814999Y-73443777D01*
X132877752Y-73439130D01*
X132965582Y-73453316D01*
X133148964Y-73494024D01*
X133416972Y-73558479D01*
X133758682Y-73643906D01*
X134163167Y-73747530D01*
X134619503Y-73866577D01*
X135116762Y-73998270D01*
X135644021Y-74139835D01*
X135758283Y-74170761D01*
X138457609Y-74902391D01*
X142884393Y-74930000D01*
X147311176Y-74957609D01*
X147453632Y-75091473D01*
X147567786Y-75225583D01*
X147585748Y-75336654D01*
X147511240Y-75448690D01*
X147509317Y-75450621D01*
X147464267Y-75480638D01*
X147387767Y-75503031D01*
X147265264Y-75518841D01*
X147082203Y-75529112D01*
X146824032Y-75534884D01*
X146476198Y-75537199D01*
X146297209Y-75537391D01*
X145171871Y-75537391D01*
X144713653Y-75738930D01*
X144393265Y-75870942D01*
X144144336Y-75947516D01*
X143943409Y-75969665D01*
X143767030Y-75938406D01*
X143591741Y-75854753D01*
X143494418Y-75791699D01*
X143195927Y-75613373D01*
X142936646Y-75522155D01*
X142696026Y-75512284D01*
X142579369Y-75535220D01*
X142283720Y-75666149D01*
X142061086Y-75879899D01*
X141958189Y-76057616D01*
X141879574Y-76262508D01*
X141863276Y-76428029D01*
X141910101Y-76603759D01*
X141969217Y-76735521D01*
X142141544Y-76972726D01*
X142382109Y-77143642D01*
X142663734Y-77237584D01*
X142959240Y-77243867D01*
X143142998Y-77196988D01*
X143246380Y-77136510D01*
X143401269Y-77021281D01*
X143579323Y-76872840D01*
X143636370Y-76822019D01*
X143855545Y-76638826D01*
X144075133Y-76494391D01*
X144336093Y-76363998D01*
X144533640Y-76280574D01*
X145074683Y-76061956D01*
X146846146Y-76062967D01*
X148617609Y-76063977D01*
X149106740Y-76268647D01*
X149314952Y-76345706D01*
X149611522Y-76441421D01*
X149977024Y-76550382D01*
X150392034Y-76667181D01*
X150837129Y-76786407D01*
X151292884Y-76902651D01*
X151739876Y-77010505D01*
X151916848Y-77051213D01*
X152028429Y-77112061D01*
X152071331Y-77205179D01*
X152036230Y-77293402D01*
X151985393Y-77324499D01*
X151914946Y-77330635D01*
X151745150Y-77335886D01*
X151487085Y-77340171D01*
X151151835Y-77343410D01*
X150750480Y-77345526D01*
X150294104Y-77346437D01*
X149793788Y-77346065D01*
X149260614Y-77344331D01*
X149234170Y-77344211D01*
X146566249Y-77331956D01*
X146230780Y-77124891D01*
X146015853Y-77004020D01*
X145842378Y-76940113D01*
X145667718Y-76918550D01*
X145627547Y-76918032D01*
X145332341Y-76962759D01*
X145094171Y-77084143D01*
X144919664Y-77263734D01*
X144815449Y-77483079D01*
X144788152Y-77723729D01*
X144844402Y-77967233D01*
X144990825Y-78195138D01*
X145125051Y-78316969D01*
X145379753Y-78459855D01*
X145635110Y-78501297D01*
X145899476Y-78440007D01*
X146181208Y-78274692D01*
X146360800Y-78126175D01*
X146658560Y-77856522D01*
X151210813Y-77856522D01*
X152120413Y-77857066D01*
X152922977Y-77858730D01*
X153621896Y-77861557D01*
X154220561Y-77865592D01*
X154722366Y-77870879D01*
X155130703Y-77877462D01*
X155448964Y-77885386D01*
X155680541Y-77894695D01*
X155828826Y-77905434D01*
X155897212Y-77917647D01*
X155897617Y-77917828D01*
X156045622Y-78039549D01*
X156130010Y-78243870D01*
X156153570Y-78507924D01*
X156106167Y-78836000D01*
X155964499Y-79142401D01*
X155724603Y-79431823D01*
X155382519Y-79708964D01*
X154934284Y-79978522D01*
X154896682Y-79998352D01*
X154105320Y-80367976D01*
X153274512Y-80666968D01*
X152383229Y-80902097D01*
X151654565Y-81041902D01*
X151326673Y-81082491D01*
X150911724Y-81113092D01*
X150432642Y-81133713D01*
X149912353Y-81144359D01*
X149373780Y-81145038D01*
X148839849Y-81135754D01*
X148333483Y-81116515D01*
X147877609Y-81087327D01*
X147495150Y-81048196D01*
X147440466Y-81040752D01*
X146887739Y-80957298D01*
X146376104Y-80868450D01*
X145883852Y-80768927D01*
X145389272Y-80653449D01*
X144870658Y-80516735D01*
X144306299Y-80353504D01*
X143674487Y-80158476D01*
X143233913Y-80017511D01*
X142473667Y-79770786D01*
X141810864Y-79553503D01*
X141237373Y-79362706D01*
X140745060Y-79195442D01*
X140325794Y-79048753D01*
X139971442Y-78919687D01*
X139673872Y-78805286D01*
X139424951Y-78702597D01*
X139216548Y-78608664D01*
X139040529Y-78520531D01*
X138903205Y-78443802D01*
X138615796Y-78278251D01*
X138272892Y-78086878D01*
X137890061Y-77877816D01*
X137482868Y-77659193D01*
X137066881Y-77439140D01*
X136657667Y-77225787D01*
X136270793Y-77027265D01*
X135921825Y-76851702D01*
X135626331Y-76707230D01*
X135399877Y-76601979D01*
X135282609Y-76552875D01*
X134868478Y-76396759D01*
X132816112Y-76367401D01*
X132284977Y-76359578D01*
X131852991Y-76352337D01*
X131508874Y-76344936D01*
X131241347Y-76336635D01*
X131039133Y-76326694D01*
X130890953Y-76314372D01*
X130785527Y-76298928D01*
X130711578Y-76279621D01*
X130657826Y-76255711D01*
X130612993Y-76226457D01*
X130607417Y-76222359D01*
X130271976Y-76023928D01*
X129948928Y-75931213D01*
X129644027Y-75943910D01*
X129363028Y-76061714D01*
X129111685Y-76284317D01*
X129096346Y-76302607D01*
X128957163Y-76542684D01*
X128927668Y-76787171D01*
X129007736Y-77028769D01*
X129111203Y-77172608D01*
X129361629Y-77388915D01*
X129648194Y-77503064D01*
X129872273Y-77525217D01*
X130076383Y-77503508D01*
X130272054Y-77429566D01*
X130486675Y-77290167D01*
X130670702Y-77139782D01*
X130828194Y-77015398D01*
X130971085Y-76922574D01*
X131047692Y-76888255D01*
X131129385Y-76881765D01*
X131308270Y-76876626D01*
X131571112Y-76872926D01*
X131904675Y-76870752D01*
X132295724Y-76870192D01*
X132731024Y-76871332D01*
X133184348Y-76874156D01*
X135199783Y-76890217D01*
X136000435Y-77333736D01*
X136316062Y-77511899D01*
X136543264Y-77648691D01*
X136692715Y-77751474D01*
X136775091Y-77827610D01*
X136801067Y-77884461D01*
X136801087Y-77885910D01*
X136797724Y-77930639D01*
X136778786Y-77962017D01*
X136730997Y-77979515D01*
X136641083Y-77982608D01*
X136495768Y-77970769D01*
X136281777Y-77943472D01*
X135985836Y-77900190D01*
X135594669Y-77840396D01*
X135574251Y-77837253D01*
X134440397Y-77713256D01*
X133279062Y-77683049D01*
X132121157Y-77746684D01*
X131439730Y-77830110D01*
X130970050Y-77900764D01*
X130593759Y-77959140D01*
X130294887Y-78008329D01*
X130057464Y-78051419D01*
X129865517Y-78091499D01*
X129703077Y-78131659D01*
X129554171Y-78174987D01*
X129406089Y-78223465D01*
X129029054Y-78325168D01*
X128720931Y-78348506D01*
X128472890Y-78293549D01*
X128361350Y-78231710D01*
X128052331Y-77998347D01*
X127793186Y-77768279D01*
X127606468Y-77561887D01*
X127580155Y-77525755D01*
X127513371Y-77417197D01*
X127474267Y-77308268D01*
X127456855Y-77166422D01*
X127455148Y-76959113D01*
X127457327Y-76858134D01*
X127460586Y-76622831D01*
X127451321Y-76465442D01*
X127422700Y-76353595D01*
X127367890Y-76254916D01*
X127314646Y-76182057D01*
X127101978Y-75963800D01*
X126866024Y-75847213D01*
X126588180Y-75823632D01*
X126551444Y-75826611D01*
X126265406Y-75902091D01*
X126026157Y-76057266D01*
X125850150Y-76272859D01*
X125753835Y-76529593D01*
X125747326Y-76768886D01*
X125837574Y-77049476D01*
X126017697Y-77282389D01*
X126272366Y-77453545D01*
X126586253Y-77548860D01*
X126598211Y-77550662D01*
X126815676Y-77604179D01*
X127032020Y-77690065D01*
X127082826Y-77717081D01*
X127228997Y-77819545D01*
X127400530Y-77966056D01*
X127576991Y-78135526D01*
X127737945Y-78306863D01*
X127862958Y-78458980D01*
X127931594Y-78570787D01*
X127938696Y-78600367D01*
X127905476Y-78702560D01*
X127799985Y-78819396D01*
X127613474Y-78957833D01*
X127337195Y-79124828D01*
X127148424Y-79228886D01*
X126912361Y-79359467D01*
X126612410Y-79530575D01*
X126278672Y-79724757D01*
X125941250Y-79924562D01*
X125747697Y-80041006D01*
X125456219Y-80213566D01*
X125181482Y-80368822D01*
X124943532Y-80496000D01*
X124762414Y-80584330D01*
X124669290Y-80620509D01*
X124528559Y-80641532D01*
X124296954Y-80656302D01*
X123993897Y-80664129D01*
X123638808Y-80664320D01*
X123497465Y-80662304D01*
X123149035Y-80656097D01*
X122888754Y-80647762D01*
X122694416Y-80630925D01*
X122543817Y-80599214D01*
X122414752Y-80546256D01*
X122285015Y-80465678D01*
X122132402Y-80351108D01*
X121970437Y-80224057D01*
X121741841Y-80108126D01*
X121492331Y-80083471D01*
X121242449Y-80139008D01*
X121012736Y-80263654D01*
X120823732Y-80446325D01*
X120695978Y-80675938D01*
X120650000Y-80936539D01*
X120701914Y-81230172D01*
X120848889Y-81483232D01*
X121053109Y-81657782D01*
X121316137Y-81777973D01*
X121566980Y-81804300D01*
X121819527Y-81733986D01*
X122087669Y-81564258D01*
X122258094Y-81417036D01*
X122522660Y-81169565D01*
X122940889Y-81169565D01*
X123169011Y-81175000D01*
X123307543Y-81193832D01*
X123376914Y-81229850D01*
X123391171Y-81253094D01*
X123387059Y-81363326D01*
X123359032Y-81413971D01*
X123278086Y-81473951D01*
X123112948Y-81568674D01*
X122881071Y-81689709D01*
X122599910Y-81828630D01*
X122286921Y-81977006D01*
X121959557Y-82126410D01*
X121635273Y-82268412D01*
X121331523Y-82394585D01*
X121312609Y-82402157D01*
X120338485Y-82738246D01*
X119354297Y-82975073D01*
X118368570Y-83112755D01*
X117389832Y-83151409D01*
X116426610Y-83091152D01*
G36*
X159141937Y-67232041D02*
X158995788Y-67136769D01*
X158909689Y-66973833D01*
X158897246Y-66868261D01*
X158942544Y-66675576D01*
X159061164Y-66544052D01*
X159227200Y-66486382D01*
X159414745Y-66515257D01*
X159510757Y-66567696D01*
X159601231Y-66670717D01*
X159632813Y-66830438D01*
X159633478Y-66868261D01*
X159610805Y-67042358D01*
X159532120Y-67152700D01*
X159510757Y-67168825D01*
X159322229Y-67246957D01*
X159141937Y-67232041D01*
X159141937Y-67232041D01*
G37*
X159141937Y-67232041D02*
X158995788Y-67136769D01*
X158909689Y-66973833D01*
X158897246Y-66868261D01*
X158942544Y-66675576D01*
X159061164Y-66544052D01*
X159227200Y-66486382D01*
X159414745Y-66515257D01*
X159510757Y-66567696D01*
X159601231Y-66670717D01*
X159632813Y-66830438D01*
X159633478Y-66868261D01*
X159610805Y-67042358D01*
X159532120Y-67152700D01*
X159510757Y-67168825D01*
X159322229Y-67246957D01*
X159141937Y-67232041D01*
G36*
X143763954Y-67343317D02*
X143643496Y-67217513D01*
X143588307Y-67052730D01*
X143584302Y-66897075D01*
X143659744Y-66773960D01*
X143669900Y-66763578D01*
X143824128Y-66672760D01*
X144008391Y-66649363D01*
X144177448Y-66694577D01*
X144246877Y-66748370D01*
X144333766Y-66913463D01*
X144330492Y-67088062D01*
X144250521Y-67243506D01*
X144107320Y-67351134D01*
X143948397Y-67383623D01*
X143763954Y-67343317D01*
X143763954Y-67343317D01*
G37*
X143763954Y-67343317D02*
X143643496Y-67217513D01*
X143588307Y-67052730D01*
X143584302Y-66897075D01*
X143659744Y-66773960D01*
X143669900Y-66763578D01*
X143824128Y-66672760D01*
X144008391Y-66649363D01*
X144177448Y-66694577D01*
X144246877Y-66748370D01*
X144333766Y-66913463D01*
X144330492Y-67088062D01*
X144250521Y-67243506D01*
X144107320Y-67351134D01*
X143948397Y-67383623D01*
X143763954Y-67343317D01*
G36*
X140106284Y-67624182D02*
X139972072Y-67541405D01*
X139885150Y-67389021D01*
X139865652Y-67251054D01*
X139909956Y-67089844D01*
X140021769Y-66978013D01*
X140169440Y-66926805D01*
X140321319Y-66947462D01*
X140442304Y-67046199D01*
X140520702Y-67236115D01*
X140495693Y-67419043D01*
X140417826Y-67530870D01*
X140263098Y-67624840D01*
X140106284Y-67624182D01*
X140106284Y-67624182D01*
G37*
X140106284Y-67624182D02*
X139972072Y-67541405D01*
X139885150Y-67389021D01*
X139865652Y-67251054D01*
X139909956Y-67089844D01*
X140021769Y-66978013D01*
X140169440Y-66926805D01*
X140321319Y-66947462D01*
X140442304Y-67046199D01*
X140520702Y-67236115D01*
X140495693Y-67419043D01*
X140417826Y-67530870D01*
X140263098Y-67624840D01*
X140106284Y-67624182D01*
G36*
X145888816Y-68581851D02*
X145740443Y-68481352D01*
X145680661Y-68356165D01*
X145697026Y-68226175D01*
X145777090Y-68111271D01*
X145908408Y-68031340D01*
X146078533Y-68006270D01*
X146229569Y-68037377D01*
X146359663Y-68132666D01*
X146427132Y-68277527D01*
X146415271Y-68429492D01*
X146397520Y-68464307D01*
X146266545Y-68577855D01*
X146082817Y-68619255D01*
X145888816Y-68581851D01*
X145888816Y-68581851D01*
G37*
X145888816Y-68581851D02*
X145740443Y-68481352D01*
X145680661Y-68356165D01*
X145697026Y-68226175D01*
X145777090Y-68111271D01*
X145908408Y-68031340D01*
X146078533Y-68006270D01*
X146229569Y-68037377D01*
X146359663Y-68132666D01*
X146427132Y-68277527D01*
X146415271Y-68429492D01*
X146397520Y-68464307D01*
X146266545Y-68577855D01*
X146082817Y-68619255D01*
X145888816Y-68581851D01*
G36*
X128331441Y-69650681D02*
X128208173Y-69506347D01*
X128159599Y-69305799D01*
X128159565Y-69299936D01*
X128186303Y-69119782D01*
X128252956Y-68976814D01*
X128256196Y-68972805D01*
X128413369Y-68861587D01*
X128613612Y-68822393D01*
X128809597Y-68863814D01*
X128822174Y-68870080D01*
X128985674Y-69009014D01*
X129064186Y-69191825D01*
X129054996Y-69388727D01*
X128955395Y-69569932D01*
X128891348Y-69630004D01*
X128698835Y-69724150D01*
X128503597Y-69727162D01*
X128331441Y-69650681D01*
X128331441Y-69650681D01*
G37*
X128331441Y-69650681D02*
X128208173Y-69506347D01*
X128159599Y-69305799D01*
X128159565Y-69299936D01*
X128186303Y-69119782D01*
X128252956Y-68976814D01*
X128256196Y-68972805D01*
X128413369Y-68861587D01*
X128613612Y-68822393D01*
X128809597Y-68863814D01*
X128822174Y-68870080D01*
X128985674Y-69009014D01*
X129064186Y-69191825D01*
X129054996Y-69388727D01*
X128955395Y-69569932D01*
X128891348Y-69630004D01*
X128698835Y-69724150D01*
X128503597Y-69727162D01*
X128331441Y-69650681D01*
G36*
X132666211Y-69801345D02*
X132554171Y-69676303D01*
X132483691Y-69506263D01*
X132463503Y-69322612D01*
X132502337Y-69156736D01*
X132589243Y-69052479D01*
X132783507Y-68974499D01*
X132979701Y-68999739D01*
X133028358Y-69023844D01*
X133108245Y-69111102D01*
X133177659Y-69250435D01*
X133181863Y-69262690D01*
X133209150Y-69481904D01*
X133149371Y-69667536D01*
X133016451Y-69797527D01*
X132824318Y-69849815D01*
X132811081Y-69850000D01*
X132666211Y-69801345D01*
X132666211Y-69801345D01*
G37*
X132666211Y-69801345D02*
X132554171Y-69676303D01*
X132483691Y-69506263D01*
X132463503Y-69322612D01*
X132502337Y-69156736D01*
X132589243Y-69052479D01*
X132783507Y-68974499D01*
X132979701Y-68999739D01*
X133028358Y-69023844D01*
X133108245Y-69111102D01*
X133177659Y-69250435D01*
X133181863Y-69262690D01*
X133209150Y-69481904D01*
X133149371Y-69667536D01*
X133016451Y-69797527D01*
X132824318Y-69849815D01*
X132811081Y-69850000D01*
X132666211Y-69801345D01*
G36*
X123954598Y-70103413D02*
X123844257Y-70024729D01*
X123828131Y-70003366D01*
X123753119Y-69823559D01*
X123759100Y-69641791D01*
X123843152Y-69499645D01*
X123993872Y-69422933D01*
X124174888Y-69409201D01*
X124340847Y-69456021D01*
X124429260Y-69530982D01*
X124509823Y-69721766D01*
X124494172Y-69899116D01*
X124394454Y-70038983D01*
X124222818Y-70117313D01*
X124128696Y-70126087D01*
X123954598Y-70103413D01*
X123954598Y-70103413D01*
G37*
X123954598Y-70103413D02*
X123844257Y-70024729D01*
X123828131Y-70003366D01*
X123753119Y-69823559D01*
X123759100Y-69641791D01*
X123843152Y-69499645D01*
X123993872Y-69422933D01*
X124174888Y-69409201D01*
X124340847Y-69456021D01*
X124429260Y-69530982D01*
X124509823Y-69721766D01*
X124494172Y-69899116D01*
X124394454Y-70038983D01*
X124222818Y-70117313D01*
X124128696Y-70126087D01*
X123954598Y-70103413D01*
G36*
X115433029Y-71571888D02*
X115297181Y-71454992D01*
X115231312Y-71293731D01*
X115246953Y-71115567D01*
X115349130Y-70954348D01*
X115514549Y-70857262D01*
X115696423Y-70856090D01*
X115860499Y-70948639D01*
X115897297Y-70989403D01*
X115977128Y-71118137D01*
X116011700Y-71227889D01*
X116011739Y-71230435D01*
X115964373Y-71382181D01*
X115847386Y-71519808D01*
X115698447Y-71605441D01*
X115627327Y-71616956D01*
X115433029Y-71571888D01*
X115433029Y-71571888D01*
G37*
X115433029Y-71571888D02*
X115297181Y-71454992D01*
X115231312Y-71293731D01*
X115246953Y-71115567D01*
X115349130Y-70954348D01*
X115514549Y-70857262D01*
X115696423Y-70856090D01*
X115860499Y-70948639D01*
X115897297Y-70989403D01*
X115977128Y-71118137D01*
X116011700Y-71227889D01*
X116011739Y-71230435D01*
X115964373Y-71382181D01*
X115847386Y-71519808D01*
X115698447Y-71605441D01*
X115627327Y-71616956D01*
X115433029Y-71571888D01*
G36*
X143071623Y-72126164D02*
X142980357Y-72031087D01*
X142921934Y-71923015D01*
X142931383Y-71838041D01*
X142980357Y-71755000D01*
X143106513Y-71641110D01*
X143236370Y-71616956D01*
X143379338Y-71647595D01*
X143464830Y-71755000D01*
X143498959Y-71929194D01*
X143446476Y-72072162D01*
X143322242Y-72156960D01*
X143236370Y-72169130D01*
X143071623Y-72126164D01*
X143071623Y-72126164D01*
G37*
X143071623Y-72126164D02*
X142980357Y-72031087D01*
X142921934Y-71923015D01*
X142931383Y-71838041D01*
X142980357Y-71755000D01*
X143106513Y-71641110D01*
X143236370Y-71616956D01*
X143379338Y-71647595D01*
X143464830Y-71755000D01*
X143498959Y-71929194D01*
X143446476Y-72072162D01*
X143322242Y-72156960D01*
X143236370Y-72169130D01*
X143071623Y-72126164D01*
G36*
X135910746Y-72281876D02*
X135866335Y-72248012D01*
X135794109Y-72117019D01*
X135783833Y-71962580D01*
X135833512Y-71830906D01*
X135886370Y-71784551D01*
X136058177Y-71734009D01*
X136243226Y-71739066D01*
X136390497Y-71796841D01*
X136410621Y-71814161D01*
X136487960Y-71960523D01*
X136475715Y-72124369D01*
X136396413Y-72243398D01*
X136249424Y-72316240D01*
X136070106Y-72329218D01*
X135910746Y-72281876D01*
X135910746Y-72281876D01*
G37*
X135910746Y-72281876D02*
X135866335Y-72248012D01*
X135794109Y-72117019D01*
X135783833Y-71962580D01*
X135833512Y-71830906D01*
X135886370Y-71784551D01*
X136058177Y-71734009D01*
X136243226Y-71739066D01*
X136390497Y-71796841D01*
X136410621Y-71814161D01*
X136487960Y-71960523D01*
X136475715Y-72124369D01*
X136396413Y-72243398D01*
X136249424Y-72316240D01*
X136070106Y-72329218D01*
X135910746Y-72281876D01*
G36*
X131795468Y-73140370D02*
X131685126Y-73061685D01*
X131669001Y-73040322D01*
X131588438Y-72849539D01*
X131604089Y-72672188D01*
X131703807Y-72532322D01*
X131875443Y-72453992D01*
X131969565Y-72445217D01*
X132143663Y-72467891D01*
X132254004Y-72546576D01*
X132270130Y-72567938D01*
X132350693Y-72758722D01*
X132335041Y-72936073D01*
X132235324Y-73075939D01*
X132063687Y-73154269D01*
X131969565Y-73163043D01*
X131795468Y-73140370D01*
X131795468Y-73140370D01*
G37*
X131795468Y-73140370D02*
X131685126Y-73061685D01*
X131669001Y-73040322D01*
X131588438Y-72849539D01*
X131604089Y-72672188D01*
X131703807Y-72532322D01*
X131875443Y-72453992D01*
X131969565Y-72445217D01*
X132143663Y-72467891D01*
X132254004Y-72546576D01*
X132270130Y-72567938D01*
X132350693Y-72758722D01*
X132335041Y-72936073D01*
X132235324Y-73075939D01*
X132063687Y-73154269D01*
X131969565Y-73163043D01*
X131795468Y-73140370D01*
G36*
X112118119Y-73759207D02*
X111370936Y-73758236D01*
X110708410Y-73756674D01*
X110126245Y-73754494D01*
X109620144Y-73751670D01*
X109185811Y-73748177D01*
X108818950Y-73743989D01*
X108515265Y-73739081D01*
X108270459Y-73733426D01*
X108080237Y-73726999D01*
X107940303Y-73719773D01*
X107846359Y-73711725D01*
X107794110Y-73702827D01*
X107784348Y-73699245D01*
X107629157Y-73561164D01*
X107517137Y-73334018D01*
X107470730Y-73140204D01*
X107469723Y-72977529D01*
X107542386Y-72853360D01*
X107557262Y-72837955D01*
X107673913Y-72721304D01*
X117323152Y-72727710D01*
X118348115Y-72728527D01*
X119343875Y-72729589D01*
X120304770Y-72730879D01*
X121225135Y-72732378D01*
X122099308Y-72734068D01*
X122921624Y-72735931D01*
X123686421Y-72737951D01*
X124388034Y-72740108D01*
X125020801Y-72742385D01*
X125579057Y-72744764D01*
X126057140Y-72747227D01*
X126449385Y-72749756D01*
X126750130Y-72752334D01*
X126953710Y-72754942D01*
X127054463Y-72757563D01*
X127064320Y-72758462D01*
X127173624Y-72828966D01*
X127190216Y-72956631D01*
X127114671Y-73139515D01*
X126947564Y-73375675D01*
X126846066Y-73494963D01*
X126626111Y-73742826D01*
X117274251Y-73756078D01*
X116039342Y-73757682D01*
X114910570Y-73758823D01*
X113883640Y-73759474D01*
X112954255Y-73759611D01*
X112118119Y-73759207D01*
X112118119Y-73759207D01*
G37*
X112118119Y-73759207D02*
X111370936Y-73758236D01*
X110708410Y-73756674D01*
X110126245Y-73754494D01*
X109620144Y-73751670D01*
X109185811Y-73748177D01*
X108818950Y-73743989D01*
X108515265Y-73739081D01*
X108270459Y-73733426D01*
X108080237Y-73726999D01*
X107940303Y-73719773D01*
X107846359Y-73711725D01*
X107794110Y-73702827D01*
X107784348Y-73699245D01*
X107629157Y-73561164D01*
X107517137Y-73334018D01*
X107470730Y-73140204D01*
X107469723Y-72977529D01*
X107542386Y-72853360D01*
X107557262Y-72837955D01*
X107673913Y-72721304D01*
X117323152Y-72727710D01*
X118348115Y-72728527D01*
X119343875Y-72729589D01*
X120304770Y-72730879D01*
X121225135Y-72732378D01*
X122099308Y-72734068D01*
X122921624Y-72735931D01*
X123686421Y-72737951D01*
X124388034Y-72740108D01*
X125020801Y-72742385D01*
X125579057Y-72744764D01*
X126057140Y-72747227D01*
X126449385Y-72749756D01*
X126750130Y-72752334D01*
X126953710Y-72754942D01*
X127054463Y-72757563D01*
X127064320Y-72758462D01*
X127173624Y-72828966D01*
X127190216Y-72956631D01*
X127114671Y-73139515D01*
X126947564Y-73375675D01*
X126846066Y-73494963D01*
X126626111Y-73742826D01*
X117274251Y-73756078D01*
X116039342Y-73757682D01*
X114910570Y-73758823D01*
X113883640Y-73759474D01*
X112954255Y-73759611D01*
X112118119Y-73759207D01*
G36*
X127575493Y-74259607D02*
X127426185Y-74133262D01*
X127341849Y-73942618D01*
X127331304Y-73835277D01*
X127378451Y-73630128D01*
X127502718Y-73477670D01*
X127678342Y-73390451D01*
X127879561Y-73381023D01*
X128080613Y-73461934D01*
X128087689Y-73466808D01*
X128208691Y-73611024D01*
X128250080Y-73795280D01*
X128216329Y-73988023D01*
X128111910Y-74157700D01*
X127975535Y-74258048D01*
X127766401Y-74306316D01*
X127575493Y-74259607D01*
X127575493Y-74259607D01*
G37*
X127575493Y-74259607D02*
X127426185Y-74133262D01*
X127341849Y-73942618D01*
X127331304Y-73835277D01*
X127378451Y-73630128D01*
X127502718Y-73477670D01*
X127678342Y-73390451D01*
X127879561Y-73381023D01*
X128080613Y-73461934D01*
X128087689Y-73466808D01*
X128208691Y-73611024D01*
X128250080Y-73795280D01*
X128216329Y-73988023D01*
X128111910Y-74157700D01*
X127975535Y-74258048D01*
X127766401Y-74306316D01*
X127575493Y-74259607D01*
G36*
X108040470Y-74870930D02*
X107933800Y-74737136D01*
X107890157Y-74576572D01*
X107912189Y-74426465D01*
X108001587Y-74324551D01*
X108067802Y-74316192D01*
X108234471Y-74308512D01*
X108502403Y-74301506D01*
X108872403Y-74295168D01*
X109345279Y-74289495D01*
X109921838Y-74284481D01*
X110602888Y-74280122D01*
X111389234Y-74276412D01*
X112281685Y-74273346D01*
X113281047Y-74270920D01*
X114388128Y-74269129D01*
X115603734Y-74267968D01*
X116928672Y-74267432D01*
X117437732Y-74267391D01*
X126767072Y-74267391D01*
X127035384Y-74452294D01*
X127194763Y-74573439D01*
X127276906Y-74672504D01*
X127303231Y-74777039D01*
X127303696Y-74797403D01*
X127303696Y-74957609D01*
X108186158Y-74985529D01*
X108040470Y-74870930D01*
X108040470Y-74870930D01*
G37*
X108040470Y-74870930D02*
X107933800Y-74737136D01*
X107890157Y-74576572D01*
X107912189Y-74426465D01*
X108001587Y-74324551D01*
X108067802Y-74316192D01*
X108234471Y-74308512D01*
X108502403Y-74301506D01*
X108872403Y-74295168D01*
X109345279Y-74289495D01*
X109921838Y-74284481D01*
X110602888Y-74280122D01*
X111389234Y-74276412D01*
X112281685Y-74273346D01*
X113281047Y-74270920D01*
X114388128Y-74269129D01*
X115603734Y-74267968D01*
X116928672Y-74267432D01*
X117437732Y-74267391D01*
X126767072Y-74267391D01*
X127035384Y-74452294D01*
X127194763Y-74573439D01*
X127276906Y-74672504D01*
X127303231Y-74777039D01*
X127303696Y-74797403D01*
X127303696Y-74957609D01*
X108186158Y-74985529D01*
X108040470Y-74870930D01*
G36*
X142569601Y-76732297D02*
X142426507Y-76608241D01*
X142354243Y-76430658D01*
X142350435Y-76375399D01*
X142399414Y-76211728D01*
X142526191Y-76085882D01*
X142700527Y-76012801D01*
X142892182Y-76007427D01*
X143013043Y-76048004D01*
X143133061Y-76164689D01*
X143182714Y-76329206D01*
X143164710Y-76506585D01*
X143081758Y-76661855D01*
X142958528Y-76751883D01*
X142756087Y-76785840D01*
X142569601Y-76732297D01*
X142569601Y-76732297D01*
G37*
X142569601Y-76732297D02*
X142426507Y-76608241D01*
X142354243Y-76430658D01*
X142350435Y-76375399D01*
X142399414Y-76211728D01*
X142526191Y-76085882D01*
X142700527Y-76012801D01*
X142892182Y-76007427D01*
X143013043Y-76048004D01*
X143133061Y-76164689D01*
X143182714Y-76329206D01*
X143164710Y-76506585D01*
X143081758Y-76661855D01*
X142958528Y-76751883D01*
X142756087Y-76785840D01*
X142569601Y-76732297D01*
G36*
X126347106Y-76899239D02*
X126318341Y-76872065D01*
X126236522Y-76716309D01*
X126244086Y-76556864D01*
X126323158Y-76416338D01*
X126455862Y-76317336D01*
X126624321Y-76282467D01*
X126761716Y-76311335D01*
X126902786Y-76419448D01*
X126988704Y-76583729D01*
X127000000Y-76665718D01*
X126951735Y-76802323D01*
X126829088Y-76904036D01*
X126665284Y-76960798D01*
X126493549Y-76962551D01*
X126347106Y-76899239D01*
X126347106Y-76899239D01*
G37*
X126347106Y-76899239D02*
X126318341Y-76872065D01*
X126236522Y-76716309D01*
X126244086Y-76556864D01*
X126323158Y-76416338D01*
X126455862Y-76317336D01*
X126624321Y-76282467D01*
X126761716Y-76311335D01*
X126902786Y-76419448D01*
X126988704Y-76583729D01*
X127000000Y-76665718D01*
X126951735Y-76802323D01*
X126829088Y-76904036D01*
X126665284Y-76960798D01*
X126493549Y-76962551D01*
X126347106Y-76899239D01*
G36*
X129672940Y-77006486D02*
X129534571Y-76940658D01*
X129520949Y-76927283D01*
X129435908Y-76772584D01*
X129448212Y-76626112D01*
X129545329Y-76507202D01*
X129714730Y-76435189D01*
X129848044Y-76422549D01*
X130014731Y-76437676D01*
X130145840Y-76472748D01*
X130161196Y-76480510D01*
X130235909Y-76580070D01*
X130254915Y-76727858D01*
X130217192Y-76876155D01*
X130171056Y-76941491D01*
X130039871Y-77007966D01*
X129857603Y-77029276D01*
X129672940Y-77006486D01*
X129672940Y-77006486D01*
G37*
X129672940Y-77006486D02*
X129534571Y-76940658D01*
X129520949Y-76927283D01*
X129435908Y-76772584D01*
X129448212Y-76626112D01*
X129545329Y-76507202D01*
X129714730Y-76435189D01*
X129848044Y-76422549D01*
X130014731Y-76437676D01*
X130145840Y-76472748D01*
X130161196Y-76480510D01*
X130235909Y-76580070D01*
X130254915Y-76727858D01*
X130217192Y-76876155D01*
X130171056Y-76941491D01*
X130039871Y-77007966D01*
X129857603Y-77029276D01*
X129672940Y-77006486D01*
G36*
X145439002Y-77953734D02*
X145315107Y-77848517D01*
X145276957Y-77687240D01*
X145326545Y-77528435D01*
X145453745Y-77409412D01*
X145626212Y-77359702D01*
X145635870Y-77359565D01*
X145767724Y-77390769D01*
X145872062Y-77445522D01*
X145978041Y-77572192D01*
X145995533Y-77717765D01*
X145936069Y-77854330D01*
X145811183Y-77953974D01*
X145647500Y-77989043D01*
X145439002Y-77953734D01*
X145439002Y-77953734D01*
G37*
X145439002Y-77953734D02*
X145315107Y-77848517D01*
X145276957Y-77687240D01*
X145326545Y-77528435D01*
X145453745Y-77409412D01*
X145626212Y-77359702D01*
X145635870Y-77359565D01*
X145767724Y-77390769D01*
X145872062Y-77445522D01*
X145978041Y-77572192D01*
X145995533Y-77717765D01*
X145936069Y-77854330D01*
X145811183Y-77953974D01*
X145647500Y-77989043D01*
X145439002Y-77953734D01*
G36*
X125030474Y-78916731D02*
X124897312Y-78792698D01*
X124846654Y-78601348D01*
X124846522Y-78589670D01*
X124893655Y-78431851D01*
X125013663Y-78315209D01*
X125174457Y-78250202D01*
X125343952Y-78247287D01*
X125490058Y-78316919D01*
X125533608Y-78365764D01*
X125614171Y-78556548D01*
X125598520Y-78733899D01*
X125498802Y-78873765D01*
X125327166Y-78952095D01*
X125233043Y-78960870D01*
X125030474Y-78916731D01*
X125030474Y-78916731D01*
G37*
X125030474Y-78916731D02*
X124897312Y-78792698D01*
X124846654Y-78601348D01*
X124846522Y-78589670D01*
X124893655Y-78431851D01*
X125013663Y-78315209D01*
X125174457Y-78250202D01*
X125343952Y-78247287D01*
X125490058Y-78316919D01*
X125533608Y-78365764D01*
X125614171Y-78556548D01*
X125598520Y-78733899D01*
X125498802Y-78873765D01*
X125327166Y-78952095D01*
X125233043Y-78960870D01*
X125030474Y-78916731D01*
G36*
X118711341Y-79606166D02*
X118632055Y-79543162D01*
X118517873Y-79367223D01*
X118495338Y-79182660D01*
X118549379Y-79009269D01*
X118664929Y-78866847D01*
X118826918Y-78775192D01*
X119020278Y-78754100D01*
X119194244Y-78804582D01*
X119316360Y-78911875D01*
X119407234Y-79073982D01*
X119435217Y-79209348D01*
X119387819Y-79407968D01*
X119264067Y-79558458D01*
X119091627Y-79649320D01*
X118898164Y-79669055D01*
X118711341Y-79606166D01*
X118711341Y-79606166D01*
G37*
X118711341Y-79606166D02*
X118632055Y-79543162D01*
X118517873Y-79367223D01*
X118495338Y-79182660D01*
X118549379Y-79009269D01*
X118664929Y-78866847D01*
X118826918Y-78775192D01*
X119020278Y-78754100D01*
X119194244Y-78804582D01*
X119316360Y-78911875D01*
X119407234Y-79073982D01*
X119435217Y-79209348D01*
X119387819Y-79407968D01*
X119264067Y-79558458D01*
X119091627Y-79649320D01*
X118898164Y-79669055D01*
X118711341Y-79606166D01*
G36*
X152043050Y-79547760D02*
X151977705Y-79386994D01*
X151968040Y-79316393D01*
X151974206Y-79144443D01*
X152034766Y-79042249D01*
X152047616Y-79032094D01*
X152139810Y-78974833D01*
X152179130Y-78960870D01*
X152246205Y-78989864D01*
X152310645Y-79032094D01*
X152379230Y-79127206D01*
X152392256Y-79287913D01*
X152390221Y-79316393D01*
X152341246Y-79505399D01*
X152250163Y-79606962D01*
X152142317Y-79621082D01*
X152043050Y-79547760D01*
X152043050Y-79547760D01*
G37*
X152043050Y-79547760D02*
X151977705Y-79386994D01*
X151968040Y-79316393D01*
X151974206Y-79144443D01*
X152034766Y-79042249D01*
X152047616Y-79032094D01*
X152139810Y-78974833D01*
X152179130Y-78960870D01*
X152246205Y-78989864D01*
X152310645Y-79032094D01*
X152379230Y-79127206D01*
X152392256Y-79287913D01*
X152390221Y-79316393D01*
X152341246Y-79505399D01*
X152250163Y-79606962D01*
X152142317Y-79621082D01*
X152043050Y-79547760D01*
G36*
X121369620Y-81300949D02*
X121254306Y-81233387D01*
X121149638Y-81088962D01*
X121129678Y-80919853D01*
X121183186Y-80756052D01*
X121298922Y-80627552D01*
X121465643Y-80564345D01*
X121505870Y-80562174D01*
X121642119Y-80596442D01*
X121757434Y-80664004D01*
X121862102Y-80808429D01*
X121882061Y-80977539D01*
X121828553Y-81141339D01*
X121712818Y-81269840D01*
X121546096Y-81333046D01*
X121505870Y-81335217D01*
X121369620Y-81300949D01*
X121369620Y-81300949D01*
G37*
X121369620Y-81300949D02*
X121254306Y-81233387D01*
X121149638Y-81088962D01*
X121129678Y-80919853D01*
X121183186Y-80756052D01*
X121298922Y-80627552D01*
X121465643Y-80564345D01*
X121505870Y-80562174D01*
X121642119Y-80596442D01*
X121757434Y-80664004D01*
X121862102Y-80808429D01*
X121882061Y-80977539D01*
X121828553Y-81141339D01*
X121712818Y-81269840D01*
X121546096Y-81333046D01*
X121505870Y-81335217D01*
X121369620Y-81300949D01*
G36*
X116274068Y-81133275D02*
X116135336Y-81038998D01*
X116068172Y-80908620D01*
X116085454Y-80764032D01*
X116167935Y-80653558D01*
X116311078Y-80583160D01*
X116497436Y-80562365D01*
X116678794Y-80590447D01*
X116803833Y-80663152D01*
X116889225Y-80817932D01*
X116876917Y-80964092D01*
X116779183Y-81082928D01*
X116608294Y-81155739D01*
X116471493Y-81169565D01*
X116274068Y-81133275D01*
X116274068Y-81133275D01*
G37*
X116274068Y-81133275D02*
X116135336Y-81038998D01*
X116068172Y-80908620D01*
X116085454Y-80764032D01*
X116167935Y-80653558D01*
X116311078Y-80583160D01*
X116497436Y-80562365D01*
X116678794Y-80590447D01*
X116803833Y-80663152D01*
X116889225Y-80817932D01*
X116876917Y-80964092D01*
X116779183Y-81082928D01*
X116608294Y-81155739D01*
X116471493Y-81169565D01*
X116274068Y-81133275D01*
G36*
X136623320Y-69446114D02*
X136435091Y-69349308D01*
X136412055Y-69327945D01*
X136299613Y-69169287D01*
X136292822Y-69011679D01*
X136390865Y-68836052D01*
X136390964Y-68835925D01*
X136495659Y-68736573D01*
X136629661Y-68695554D01*
X136741319Y-68690435D01*
X136957417Y-68720820D01*
X137068616Y-68791413D01*
X137145327Y-68942133D01*
X137159060Y-69123149D01*
X137112239Y-69289108D01*
X137037279Y-69377521D01*
X136837743Y-69456605D01*
X136623320Y-69446114D01*
X136623320Y-69446114D01*
G37*
X136623320Y-69446114D02*
X136435091Y-69349308D01*
X136412055Y-69327945D01*
X136299613Y-69169287D01*
X136292822Y-69011679D01*
X136390865Y-68836052D01*
X136390964Y-68835925D01*
X136495659Y-68736573D01*
X136629661Y-68695554D01*
X136741319Y-68690435D01*
X136957417Y-68720820D01*
X137068616Y-68791413D01*
X137145327Y-68942133D01*
X137159060Y-69123149D01*
X137112239Y-69289108D01*
X137037279Y-69377521D01*
X136837743Y-69456605D01*
X136623320Y-69446114D01*
G36*
X139525903Y-71759935D02*
X139415561Y-71681250D01*
X139399435Y-71659888D01*
X139318873Y-71469104D01*
X139334524Y-71291753D01*
X139434241Y-71151887D01*
X139605878Y-71073557D01*
X139700000Y-71064783D01*
X139874097Y-71087456D01*
X139984439Y-71166141D01*
X140000565Y-71187504D01*
X140081127Y-71378287D01*
X140065476Y-71555638D01*
X139965759Y-71695504D01*
X139794122Y-71773834D01*
X139700000Y-71782609D01*
X139525903Y-71759935D01*
X139525903Y-71759935D01*
G37*
X139525903Y-71759935D02*
X139415561Y-71681250D01*
X139399435Y-71659888D01*
X139318873Y-71469104D01*
X139334524Y-71291753D01*
X139434241Y-71151887D01*
X139605878Y-71073557D01*
X139700000Y-71064783D01*
X139874097Y-71087456D01*
X139984439Y-71166141D01*
X140000565Y-71187504D01*
X140081127Y-71378287D01*
X140065476Y-71555638D01*
X139965759Y-71695504D01*
X139794122Y-71773834D01*
X139700000Y-71782609D01*
X139525903Y-71759935D01*
D13*
X124293334Y-103227143D02*
X124245715Y-103274762D01*
X124102858Y-103322381D01*
X124007620Y-103322381D01*
X123864762Y-103274762D01*
X123769524Y-103179524D01*
X123721905Y-103084286D01*
X123674286Y-102893810D01*
X123674286Y-102750952D01*
X123721905Y-102560476D01*
X123769524Y-102465238D01*
X123864762Y-102370000D01*
X124007620Y-102322381D01*
X124102858Y-102322381D01*
X124245715Y-102370000D01*
X124293334Y-102417619D01*
X125245715Y-103322381D02*
X124674286Y-103322381D01*
X124960000Y-103322381D02*
X124960000Y-102322381D01*
X124864762Y-102465238D01*
X124769524Y-102560476D01*
X124674286Y-102608095D01*
X135469334Y-105005143D02*
X135421715Y-105052762D01*
X135278858Y-105100381D01*
X135183620Y-105100381D01*
X135040762Y-105052762D01*
X134945524Y-104957524D01*
X134897905Y-104862286D01*
X134850286Y-104671810D01*
X134850286Y-104528952D01*
X134897905Y-104338476D01*
X134945524Y-104243238D01*
X135040762Y-104148000D01*
X135183620Y-104100381D01*
X135278858Y-104100381D01*
X135421715Y-104148000D01*
X135469334Y-104195619D01*
X135850286Y-104195619D02*
X135897905Y-104148000D01*
X135993143Y-104100381D01*
X136231239Y-104100381D01*
X136326477Y-104148000D01*
X136374096Y-104195619D01*
X136421715Y-104290857D01*
X136421715Y-104386095D01*
X136374096Y-104528952D01*
X135802667Y-105100381D01*
X136421715Y-105100381D01*
X135469334Y-98401143D02*
X135421715Y-98448762D01*
X135278858Y-98496381D01*
X135183620Y-98496381D01*
X135040762Y-98448762D01*
X134945524Y-98353524D01*
X134897905Y-98258286D01*
X134850286Y-98067810D01*
X134850286Y-97924952D01*
X134897905Y-97734476D01*
X134945524Y-97639238D01*
X135040762Y-97544000D01*
X135183620Y-97496381D01*
X135278858Y-97496381D01*
X135421715Y-97544000D01*
X135469334Y-97591619D01*
X135802667Y-97496381D02*
X136421715Y-97496381D01*
X136088381Y-97877333D01*
X136231239Y-97877333D01*
X136326477Y-97924952D01*
X136374096Y-97972571D01*
X136421715Y-98067810D01*
X136421715Y-98305905D01*
X136374096Y-98401143D01*
X136326477Y-98448762D01*
X136231239Y-98496381D01*
X135945524Y-98496381D01*
X135850286Y-98448762D01*
X135802667Y-98401143D01*
X158583334Y-87987143D02*
X158535715Y-88034762D01*
X158392858Y-88082381D01*
X158297620Y-88082381D01*
X158154762Y-88034762D01*
X158059524Y-87939524D01*
X158011905Y-87844286D01*
X157964286Y-87653810D01*
X157964286Y-87510952D01*
X158011905Y-87320476D01*
X158059524Y-87225238D01*
X158154762Y-87130000D01*
X158297620Y-87082381D01*
X158392858Y-87082381D01*
X158535715Y-87130000D01*
X158583334Y-87177619D01*
X159440477Y-87415714D02*
X159440477Y-88082381D01*
X159202381Y-87034762D02*
X158964286Y-87749048D01*
X159583334Y-87749048D01*
X158583334Y-95607143D02*
X158535715Y-95654762D01*
X158392858Y-95702381D01*
X158297620Y-95702381D01*
X158154762Y-95654762D01*
X158059524Y-95559524D01*
X158011905Y-95464286D01*
X157964286Y-95273810D01*
X157964286Y-95130952D01*
X158011905Y-94940476D01*
X158059524Y-94845238D01*
X158154762Y-94750000D01*
X158297620Y-94702381D01*
X158392858Y-94702381D01*
X158535715Y-94750000D01*
X158583334Y-94797619D01*
X159488096Y-94702381D02*
X159011905Y-94702381D01*
X158964286Y-95178571D01*
X159011905Y-95130952D01*
X159107143Y-95083333D01*
X159345239Y-95083333D01*
X159440477Y-95130952D01*
X159488096Y-95178571D01*
X159535715Y-95273810D01*
X159535715Y-95511905D01*
X159488096Y-95607143D01*
X159440477Y-95654762D01*
X159345239Y-95702381D01*
X159107143Y-95702381D01*
X159011905Y-95654762D01*
X158964286Y-95607143D01*
X172386667Y-86320381D02*
X172386667Y-87034667D01*
X172339047Y-87177524D01*
X172243809Y-87272762D01*
X172100952Y-87320381D01*
X172005714Y-87320381D01*
X173386667Y-87320381D02*
X172815238Y-87320381D01*
X173100952Y-87320381D02*
X173100952Y-86320381D01*
X173005714Y-86463238D01*
X172910476Y-86558476D01*
X172815238Y-86606095D01*
X180006667Y-82764381D02*
X180006667Y-83478667D01*
X179959047Y-83621524D01*
X179863809Y-83716762D01*
X179720952Y-83764381D01*
X179625714Y-83764381D01*
X180435238Y-82859619D02*
X180482857Y-82812000D01*
X180578095Y-82764381D01*
X180816191Y-82764381D01*
X180911429Y-82812000D01*
X180959048Y-82859619D01*
X181006667Y-82954857D01*
X181006667Y-83050095D01*
X180959048Y-83192952D01*
X180387619Y-83764381D01*
X181006667Y-83764381D01*
X184070667Y-82764381D02*
X184070667Y-83478667D01*
X184023047Y-83621524D01*
X183927809Y-83716762D01*
X183784952Y-83764381D01*
X183689714Y-83764381D01*
X184451619Y-82764381D02*
X185070667Y-82764381D01*
X184737333Y-83145333D01*
X184880191Y-83145333D01*
X184975429Y-83192952D01*
X185023048Y-83240571D01*
X185070667Y-83335810D01*
X185070667Y-83573905D01*
X185023048Y-83669143D01*
X184975429Y-83716762D01*
X184880191Y-83764381D01*
X184594476Y-83764381D01*
X184499238Y-83716762D01*
X184451619Y-83669143D01*
X139533334Y-80208381D02*
X139200000Y-79732190D01*
X138961905Y-80208381D02*
X138961905Y-79208381D01*
X139342858Y-79208381D01*
X139438096Y-79256000D01*
X139485715Y-79303619D01*
X139533334Y-79398857D01*
X139533334Y-79541714D01*
X139485715Y-79636952D01*
X139438096Y-79684571D01*
X139342858Y-79732190D01*
X138961905Y-79732190D01*
X140485715Y-80208381D02*
X139914286Y-80208381D01*
X140200000Y-80208381D02*
X140200000Y-79208381D01*
X140104762Y-79351238D01*
X140009524Y-79446476D01*
X139914286Y-79494095D01*
X136993334Y-80208381D02*
X136660000Y-79732190D01*
X136421905Y-80208381D02*
X136421905Y-79208381D01*
X136802858Y-79208381D01*
X136898096Y-79256000D01*
X136945715Y-79303619D01*
X136993334Y-79398857D01*
X136993334Y-79541714D01*
X136945715Y-79636952D01*
X136898096Y-79684571D01*
X136802858Y-79732190D01*
X136421905Y-79732190D01*
X137374286Y-79303619D02*
X137421905Y-79256000D01*
X137517143Y-79208381D01*
X137755239Y-79208381D01*
X137850477Y-79256000D01*
X137898096Y-79303619D01*
X137945715Y-79398857D01*
X137945715Y-79494095D01*
X137898096Y-79636952D01*
X137326667Y-80208381D01*
X137945715Y-80208381D01*
X132929334Y-80208381D02*
X132596000Y-79732190D01*
X132357905Y-80208381D02*
X132357905Y-79208381D01*
X132738858Y-79208381D01*
X132834096Y-79256000D01*
X132881715Y-79303619D01*
X132929334Y-79398857D01*
X132929334Y-79541714D01*
X132881715Y-79636952D01*
X132834096Y-79684571D01*
X132738858Y-79732190D01*
X132357905Y-79732190D01*
X133262667Y-79208381D02*
X133881715Y-79208381D01*
X133548381Y-79589333D01*
X133691239Y-79589333D01*
X133786477Y-79636952D01*
X133834096Y-79684571D01*
X133881715Y-79779810D01*
X133881715Y-80017905D01*
X133834096Y-80113143D01*
X133786477Y-80160762D01*
X133691239Y-80208381D01*
X133405524Y-80208381D01*
X133310286Y-80160762D01*
X133262667Y-80113143D01*
X130389334Y-80208381D02*
X130056000Y-79732190D01*
X129817905Y-80208381D02*
X129817905Y-79208381D01*
X130198858Y-79208381D01*
X130294096Y-79256000D01*
X130341715Y-79303619D01*
X130389334Y-79398857D01*
X130389334Y-79541714D01*
X130341715Y-79636952D01*
X130294096Y-79684571D01*
X130198858Y-79732190D01*
X129817905Y-79732190D01*
X131246477Y-79541714D02*
X131246477Y-80208381D01*
X131008381Y-79160762D02*
X130770286Y-79875048D01*
X131389334Y-79875048D01*
X126833334Y-80208381D02*
X126500000Y-79732190D01*
X126261905Y-80208381D02*
X126261905Y-79208381D01*
X126642858Y-79208381D01*
X126738096Y-79256000D01*
X126785715Y-79303619D01*
X126833334Y-79398857D01*
X126833334Y-79541714D01*
X126785715Y-79636952D01*
X126738096Y-79684571D01*
X126642858Y-79732190D01*
X126261905Y-79732190D01*
X127738096Y-79208381D02*
X127261905Y-79208381D01*
X127214286Y-79684571D01*
X127261905Y-79636952D01*
X127357143Y-79589333D01*
X127595239Y-79589333D01*
X127690477Y-79636952D01*
X127738096Y-79684571D01*
X127785715Y-79779810D01*
X127785715Y-80017905D01*
X127738096Y-80113143D01*
X127690477Y-80160762D01*
X127595239Y-80208381D01*
X127357143Y-80208381D01*
X127261905Y-80160762D01*
X127214286Y-80113143D01*
X123277334Y-80208381D02*
X122944000Y-79732190D01*
X122705905Y-80208381D02*
X122705905Y-79208381D01*
X123086858Y-79208381D01*
X123182096Y-79256000D01*
X123229715Y-79303619D01*
X123277334Y-79398857D01*
X123277334Y-79541714D01*
X123229715Y-79636952D01*
X123182096Y-79684571D01*
X123086858Y-79732190D01*
X122705905Y-79732190D01*
X124134477Y-79208381D02*
X123944000Y-79208381D01*
X123848762Y-79256000D01*
X123801143Y-79303619D01*
X123705905Y-79446476D01*
X123658286Y-79636952D01*
X123658286Y-80017905D01*
X123705905Y-80113143D01*
X123753524Y-80160762D01*
X123848762Y-80208381D01*
X124039239Y-80208381D01*
X124134477Y-80160762D01*
X124182096Y-80113143D01*
X124229715Y-80017905D01*
X124229715Y-79779810D01*
X124182096Y-79684571D01*
X124134477Y-79636952D01*
X124039239Y-79589333D01*
X123848762Y-79589333D01*
X123753524Y-79636952D01*
X123705905Y-79684571D01*
X123658286Y-79779810D01*
X108394667Y-84224762D02*
X108537524Y-84272381D01*
X108775620Y-84272381D01*
X108870858Y-84224762D01*
X108918477Y-84177143D01*
X108966096Y-84081905D01*
X108966096Y-83986667D01*
X108918477Y-83891429D01*
X108870858Y-83843810D01*
X108775620Y-83796190D01*
X108585143Y-83748571D01*
X108489905Y-83700952D01*
X108442286Y-83653333D01*
X108394667Y-83558095D01*
X108394667Y-83462857D01*
X108442286Y-83367619D01*
X108489905Y-83320000D01*
X108585143Y-83272381D01*
X108823239Y-83272381D01*
X108966096Y-83320000D01*
X109299429Y-83272381D02*
X109537524Y-84272381D01*
X109728001Y-83558095D01*
X109918477Y-84272381D01*
X110156572Y-83272381D01*
X111061334Y-84272381D02*
X110489905Y-84272381D01*
X110775619Y-84272381D02*
X110775619Y-83272381D01*
X110680381Y-83415238D01*
X110585143Y-83510476D01*
X110489905Y-83558095D01*
X112331667Y-107084762D02*
X112474524Y-107132381D01*
X112712620Y-107132381D01*
X112807858Y-107084762D01*
X112855477Y-107037143D01*
X112903096Y-106941905D01*
X112903096Y-106846667D01*
X112855477Y-106751429D01*
X112807858Y-106703810D01*
X112712620Y-106656190D01*
X112522143Y-106608571D01*
X112426905Y-106560952D01*
X112379286Y-106513333D01*
X112331667Y-106418095D01*
X112331667Y-106322857D01*
X112379286Y-106227619D01*
X112426905Y-106180000D01*
X112522143Y-106132381D01*
X112760239Y-106132381D01*
X112903096Y-106180000D01*
X113236429Y-106132381D02*
X113474524Y-107132381D01*
X113665001Y-106418095D01*
X113855477Y-107132381D01*
X114093572Y-106132381D01*
X114426905Y-106227619D02*
X114474524Y-106180000D01*
X114569762Y-106132381D01*
X114807858Y-106132381D01*
X114903096Y-106180000D01*
X114950715Y-106227619D01*
X114998334Y-106322857D01*
X114998334Y-106418095D01*
X114950715Y-106560952D01*
X114379286Y-107132381D01*
X114998334Y-107132381D01*
X134366095Y-101052381D02*
X134366095Y-101861905D01*
X134413714Y-101957143D01*
X134461333Y-102004762D01*
X134556571Y-102052381D01*
X134747048Y-102052381D01*
X134842286Y-102004762D01*
X134889905Y-101957143D01*
X134937524Y-101861905D01*
X134937524Y-101052381D01*
X135318476Y-101052381D02*
X135937524Y-101052381D01*
X135604190Y-101433333D01*
X135747048Y-101433333D01*
X135842286Y-101480952D01*
X135889905Y-101528571D01*
X135937524Y-101623810D01*
X135937524Y-101861905D01*
X135889905Y-101957143D01*
X135842286Y-102004762D01*
X135747048Y-102052381D01*
X135461333Y-102052381D01*
X135366095Y-102004762D01*
X135318476Y-101957143D01*
D14*
X124622077Y-107070676D02*
X124334210Y-106659438D01*
X124128591Y-107070676D02*
X124128591Y-106207076D01*
X124457582Y-106207076D01*
X124539829Y-106248200D01*
X124580953Y-106289324D01*
X124622077Y-106371571D01*
X124622077Y-106494943D01*
X124580953Y-106577190D01*
X124539829Y-106618314D01*
X124457582Y-106659438D01*
X124128591Y-106659438D01*
X124951067Y-107029552D02*
X125074439Y-107070676D01*
X125280058Y-107070676D01*
X125362305Y-107029552D01*
X125403429Y-106988429D01*
X125444553Y-106906181D01*
X125444553Y-106823933D01*
X125403429Y-106741686D01*
X125362305Y-106700562D01*
X125280058Y-106659438D01*
X125115562Y-106618314D01*
X125033315Y-106577190D01*
X124992191Y-106536067D01*
X124951067Y-106453819D01*
X124951067Y-106371571D01*
X124992191Y-106289324D01*
X125033315Y-106248200D01*
X125115562Y-106207076D01*
X125321182Y-106207076D01*
X125444553Y-106248200D01*
X125691296Y-106207076D02*
X126184781Y-106207076D01*
X125938038Y-107070676D02*
X125938038Y-106207076D01*
X127200781Y-106207076D02*
X127735391Y-106207076D01*
X127447524Y-106536067D01*
X127570896Y-106536067D01*
X127653143Y-106577190D01*
X127694267Y-106618314D01*
X127735391Y-106700562D01*
X127735391Y-106906181D01*
X127694267Y-106988429D01*
X127653143Y-107029552D01*
X127570896Y-107070676D01*
X127324153Y-107070676D01*
X127241905Y-107029552D01*
X127200781Y-106988429D01*
X127982134Y-106207076D02*
X128270000Y-107070676D01*
X128557867Y-106207076D01*
X128763486Y-106207076D02*
X129298096Y-106207076D01*
X129010229Y-106536067D01*
X129133601Y-106536067D01*
X129215848Y-106577190D01*
X129256972Y-106618314D01*
X129298096Y-106700562D01*
X129298096Y-106906181D01*
X129256972Y-106988429D01*
X129215848Y-107029552D01*
X129133601Y-107070676D01*
X128886858Y-107070676D01*
X128804610Y-107029552D01*
X128763486Y-106988429D01*
X130645505Y-106207076D02*
X130234267Y-106207076D01*
X130193143Y-106618314D01*
X130234267Y-106577190D01*
X130316515Y-106536067D01*
X130522134Y-106536067D01*
X130604381Y-106577190D01*
X130645505Y-106618314D01*
X130686629Y-106700562D01*
X130686629Y-106906181D01*
X130645505Y-106988429D01*
X130604381Y-107029552D01*
X130522134Y-107070676D01*
X130316515Y-107070676D01*
X130234267Y-107029552D01*
X130193143Y-106988429D01*
X130933372Y-106207076D02*
X131221238Y-107070676D01*
X131509105Y-106207076D01*
X133613677Y-106248200D02*
X133487886Y-106207076D01*
X133299201Y-106207076D01*
X133110515Y-106248200D01*
X132984724Y-106330448D01*
X132921829Y-106412695D01*
X132858934Y-106577190D01*
X132858934Y-106700562D01*
X132921829Y-106865057D01*
X132984724Y-106947305D01*
X133110515Y-107029552D01*
X133299201Y-107070676D01*
X133424991Y-107070676D01*
X133613677Y-107029552D01*
X133676572Y-106988429D01*
X133676572Y-106700562D01*
X133424991Y-106700562D01*
X134242629Y-107070676D02*
X134242629Y-106207076D01*
X134997372Y-107070676D01*
X134997372Y-106207076D01*
X135626324Y-107070676D02*
X135626324Y-106207076D01*
X135940800Y-106207076D01*
X136129486Y-106248200D01*
X136255277Y-106330448D01*
X136318172Y-106412695D01*
X136381067Y-106577190D01*
X136381067Y-106700562D01*
X136318172Y-106865057D01*
X136255277Y-106947305D01*
X136129486Y-107029552D01*
X135940800Y-107070676D01*
X135626324Y-107070676D01*
X137484153Y-106207076D02*
X137772019Y-107070676D01*
X138059886Y-106207076D01*
X138347753Y-107070676D02*
X138347753Y-106207076D01*
X138758991Y-107070676D02*
X138758991Y-106207076D01*
X139252477Y-107070676D01*
X139252477Y-106207076D01*
X155593143Y-106823933D02*
X156004381Y-106823933D01*
X155510896Y-107070676D02*
X155798762Y-106207076D01*
X156086629Y-107070676D01*
X156785734Y-106207076D02*
X156374496Y-106207076D01*
X156333372Y-106618314D01*
X156374496Y-106577190D01*
X156456744Y-106536067D01*
X156662363Y-106536067D01*
X156744610Y-106577190D01*
X156785734Y-106618314D01*
X156826858Y-106700562D01*
X156826858Y-106906181D01*
X156785734Y-106988429D01*
X156744610Y-107029552D01*
X156662363Y-107070676D01*
X156456744Y-107070676D01*
X156374496Y-107029552D01*
X156333372Y-106988429D01*
X153053143Y-106823933D02*
X153464381Y-106823933D01*
X152970896Y-107070676D02*
X153258762Y-106207076D01*
X153546629Y-107070676D01*
X154204610Y-106494943D02*
X154204610Y-107070676D01*
X153998991Y-106165952D02*
X153793372Y-106782810D01*
X154327982Y-106782810D01*
X150513143Y-106823933D02*
X150924381Y-106823933D01*
X150430896Y-107070676D02*
X150718762Y-106207076D01*
X151006629Y-107070676D01*
X151212248Y-106207076D02*
X151746858Y-106207076D01*
X151458991Y-106536067D01*
X151582363Y-106536067D01*
X151664610Y-106577190D01*
X151705734Y-106618314D01*
X151746858Y-106700562D01*
X151746858Y-106906181D01*
X151705734Y-106988429D01*
X151664610Y-107029552D01*
X151582363Y-107070676D01*
X151335620Y-107070676D01*
X151253372Y-107029552D01*
X151212248Y-106988429D01*
X147973143Y-106823933D02*
X148384381Y-106823933D01*
X147890896Y-107070676D02*
X148178762Y-106207076D01*
X148466629Y-107070676D01*
X148713372Y-106289324D02*
X148754496Y-106248200D01*
X148836744Y-106207076D01*
X149042363Y-106207076D01*
X149124610Y-106248200D01*
X149165734Y-106289324D01*
X149206858Y-106371571D01*
X149206858Y-106453819D01*
X149165734Y-106577190D01*
X148672248Y-107070676D01*
X149206858Y-107070676D01*
X145433143Y-106823933D02*
X145844381Y-106823933D01*
X145350896Y-107070676D02*
X145638762Y-106207076D01*
X145926629Y-107070676D01*
X146666858Y-107070676D02*
X146173372Y-107070676D01*
X146420115Y-107070676D02*
X146420115Y-106207076D01*
X146337867Y-106330448D01*
X146255620Y-106412695D01*
X146173372Y-106453819D01*
X142893143Y-106823933D02*
X143304381Y-106823933D01*
X142810896Y-107070676D02*
X143098762Y-106207076D01*
X143386629Y-107070676D01*
X143838991Y-106207076D02*
X143921239Y-106207076D01*
X144003487Y-106248200D01*
X144044610Y-106289324D01*
X144085734Y-106371571D01*
X144126858Y-106536067D01*
X144126858Y-106741686D01*
X144085734Y-106906181D01*
X144044610Y-106988429D01*
X144003487Y-107029552D01*
X143921239Y-107070676D01*
X143838991Y-107070676D01*
X143756744Y-107029552D01*
X143715620Y-106988429D01*
X143674496Y-106906181D01*
X143633372Y-106741686D01*
X143633372Y-106536067D01*
X143674496Y-106371571D01*
X143715620Y-106289324D01*
X143756744Y-106248200D01*
X143838991Y-106207076D01*
X116983933Y-65533210D02*
X116983933Y-65121972D01*
X117230676Y-65615457D02*
X116367076Y-65327591D01*
X117230676Y-65039724D01*
X117230676Y-64258371D02*
X116819438Y-64546238D01*
X117230676Y-64751857D02*
X116367076Y-64751857D01*
X116367076Y-64422866D01*
X116408200Y-64340619D01*
X116449324Y-64299495D01*
X116531571Y-64258371D01*
X116654943Y-64258371D01*
X116737190Y-64299495D01*
X116778314Y-64340619D01*
X116819438Y-64422866D01*
X116819438Y-64751857D01*
X116778314Y-63888257D02*
X116778314Y-63600390D01*
X117230676Y-63477019D02*
X117230676Y-63888257D01*
X116367076Y-63888257D01*
X116367076Y-63477019D01*
X116778314Y-62819038D02*
X116778314Y-63106905D01*
X117230676Y-63106905D02*
X116367076Y-63106905D01*
X116367076Y-62695667D01*
X118948200Y-64792981D02*
X118907076Y-64875229D01*
X118907076Y-64998600D01*
X118948200Y-65121972D01*
X119030448Y-65204219D01*
X119112695Y-65245343D01*
X119277190Y-65286467D01*
X119400562Y-65286467D01*
X119565057Y-65245343D01*
X119647305Y-65204219D01*
X119729552Y-65121972D01*
X119770676Y-64998600D01*
X119770676Y-64916352D01*
X119729552Y-64792981D01*
X119688429Y-64751857D01*
X119400562Y-64751857D01*
X119400562Y-64916352D01*
X119770676Y-64381743D02*
X118907076Y-64381743D01*
X119770676Y-63888257D01*
X118907076Y-63888257D01*
X119770676Y-63477019D02*
X118907076Y-63477019D01*
X118907076Y-63271400D01*
X118948200Y-63148028D01*
X119030448Y-63065781D01*
X119112695Y-63024657D01*
X119277190Y-62983533D01*
X119400562Y-62983533D01*
X119565057Y-63024657D01*
X119647305Y-63065781D01*
X119729552Y-63148028D01*
X119770676Y-63271400D01*
X119770676Y-63477019D01*
X121755505Y-63890676D02*
X121262019Y-63890676D01*
X121508762Y-63890676D02*
X121508762Y-63027076D01*
X121426514Y-63150448D01*
X121344267Y-63232695D01*
X121262019Y-63273819D01*
X122043371Y-63027076D02*
X122577981Y-63027076D01*
X122290114Y-63356067D01*
X122413486Y-63356067D01*
X122495733Y-63397190D01*
X122536857Y-63438314D01*
X122577981Y-63520562D01*
X122577981Y-63726181D01*
X122536857Y-63808429D01*
X122495733Y-63849552D01*
X122413486Y-63890676D01*
X122166743Y-63890676D01*
X122084495Y-63849552D01*
X122043371Y-63808429D01*
X124295505Y-63890676D02*
X123802019Y-63890676D01*
X124048762Y-63890676D02*
X124048762Y-63027076D01*
X123966514Y-63150448D01*
X123884267Y-63232695D01*
X123802019Y-63273819D01*
X124624495Y-63109324D02*
X124665619Y-63068200D01*
X124747867Y-63027076D01*
X124953486Y-63027076D01*
X125035733Y-63068200D01*
X125076857Y-63109324D01*
X125117981Y-63191571D01*
X125117981Y-63273819D01*
X125076857Y-63397190D01*
X124583371Y-63890676D01*
X125117981Y-63890676D01*
X126835505Y-63890676D02*
X126342019Y-63890676D01*
X126588762Y-63890676D02*
X126588762Y-63027076D01*
X126506514Y-63150448D01*
X126424267Y-63232695D01*
X126342019Y-63273819D01*
X127657981Y-63890676D02*
X127164495Y-63890676D01*
X127411238Y-63890676D02*
X127411238Y-63027076D01*
X127328990Y-63150448D01*
X127246743Y-63232695D01*
X127164495Y-63273819D01*
X129375505Y-63890676D02*
X128882019Y-63890676D01*
X129128762Y-63890676D02*
X129128762Y-63027076D01*
X129046514Y-63150448D01*
X128964267Y-63232695D01*
X128882019Y-63273819D01*
X129910114Y-63027076D02*
X129992362Y-63027076D01*
X130074610Y-63068200D01*
X130115733Y-63109324D01*
X130156857Y-63191571D01*
X130197981Y-63356067D01*
X130197981Y-63561686D01*
X130156857Y-63726181D01*
X130115733Y-63808429D01*
X130074610Y-63849552D01*
X129992362Y-63890676D01*
X129910114Y-63890676D01*
X129827867Y-63849552D01*
X129786743Y-63808429D01*
X129745619Y-63726181D01*
X129704495Y-63561686D01*
X129704495Y-63356067D01*
X129745619Y-63191571D01*
X129786743Y-63109324D01*
X129827867Y-63068200D01*
X129910114Y-63027076D01*
X131915505Y-63890676D02*
X132080000Y-63890676D01*
X132162248Y-63849552D01*
X132203372Y-63808429D01*
X132285619Y-63685057D01*
X132326743Y-63520562D01*
X132326743Y-63191571D01*
X132285619Y-63109324D01*
X132244495Y-63068200D01*
X132162248Y-63027076D01*
X131997752Y-63027076D01*
X131915505Y-63068200D01*
X131874381Y-63109324D01*
X131833257Y-63191571D01*
X131833257Y-63397190D01*
X131874381Y-63479438D01*
X131915505Y-63520562D01*
X131997752Y-63561686D01*
X132162248Y-63561686D01*
X132244495Y-63520562D01*
X132285619Y-63479438D01*
X132326743Y-63397190D01*
X134537752Y-63397190D02*
X134455505Y-63356067D01*
X134414381Y-63314943D01*
X134373257Y-63232695D01*
X134373257Y-63191571D01*
X134414381Y-63109324D01*
X134455505Y-63068200D01*
X134537752Y-63027076D01*
X134702248Y-63027076D01*
X134784495Y-63068200D01*
X134825619Y-63109324D01*
X134866743Y-63191571D01*
X134866743Y-63232695D01*
X134825619Y-63314943D01*
X134784495Y-63356067D01*
X134702248Y-63397190D01*
X134537752Y-63397190D01*
X134455505Y-63438314D01*
X134414381Y-63479438D01*
X134373257Y-63561686D01*
X134373257Y-63726181D01*
X134414381Y-63808429D01*
X134455505Y-63849552D01*
X134537752Y-63890676D01*
X134702248Y-63890676D01*
X134784495Y-63849552D01*
X134825619Y-63808429D01*
X134866743Y-63726181D01*
X134866743Y-63561686D01*
X134825619Y-63479438D01*
X134784495Y-63438314D01*
X134702248Y-63397190D01*
X138142133Y-63027076D02*
X138717867Y-63027076D01*
X138347752Y-63890676D01*
X141134495Y-63027076D02*
X140970000Y-63027076D01*
X140887752Y-63068200D01*
X140846629Y-63109324D01*
X140764381Y-63232695D01*
X140723257Y-63397190D01*
X140723257Y-63726181D01*
X140764381Y-63808429D01*
X140805505Y-63849552D01*
X140887752Y-63890676D01*
X141052248Y-63890676D01*
X141134495Y-63849552D01*
X141175619Y-63808429D01*
X141216743Y-63726181D01*
X141216743Y-63520562D01*
X141175619Y-63438314D01*
X141134495Y-63397190D01*
X141052248Y-63356067D01*
X140887752Y-63356067D01*
X140805505Y-63397190D01*
X140764381Y-63438314D01*
X140723257Y-63520562D01*
X143715619Y-63027076D02*
X143304381Y-63027076D01*
X143263257Y-63438314D01*
X143304381Y-63397190D01*
X143386629Y-63356067D01*
X143592248Y-63356067D01*
X143674495Y-63397190D01*
X143715619Y-63438314D01*
X143756743Y-63520562D01*
X143756743Y-63726181D01*
X143715619Y-63808429D01*
X143674495Y-63849552D01*
X143592248Y-63890676D01*
X143386629Y-63890676D01*
X143304381Y-63849552D01*
X143263257Y-63808429D01*
X146214495Y-63314943D02*
X146214495Y-63890676D01*
X146008876Y-62985952D02*
X145803257Y-63602810D01*
X146337867Y-63602810D01*
X148302133Y-63027076D02*
X148836743Y-63027076D01*
X148548876Y-63356067D01*
X148672248Y-63356067D01*
X148754495Y-63397190D01*
X148795619Y-63438314D01*
X148836743Y-63520562D01*
X148836743Y-63726181D01*
X148795619Y-63808429D01*
X148754495Y-63849552D01*
X148672248Y-63890676D01*
X148425505Y-63890676D01*
X148343257Y-63849552D01*
X148302133Y-63808429D01*
X150883257Y-63109324D02*
X150924381Y-63068200D01*
X151006629Y-63027076D01*
X151212248Y-63027076D01*
X151294495Y-63068200D01*
X151335619Y-63109324D01*
X151376743Y-63191571D01*
X151376743Y-63273819D01*
X151335619Y-63397190D01*
X150842133Y-63890676D01*
X151376743Y-63890676D01*
X153916743Y-63890676D02*
X153423257Y-63890676D01*
X153670000Y-63890676D02*
X153670000Y-63027076D01*
X153587752Y-63150448D01*
X153505505Y-63232695D01*
X153423257Y-63273819D01*
X156168876Y-63027076D02*
X156251124Y-63027076D01*
X156333372Y-63068200D01*
X156374495Y-63109324D01*
X156415619Y-63191571D01*
X156456743Y-63356067D01*
X156456743Y-63561686D01*
X156415619Y-63726181D01*
X156374495Y-63808429D01*
X156333372Y-63849552D01*
X156251124Y-63890676D01*
X156168876Y-63890676D01*
X156086629Y-63849552D01*
X156045505Y-63808429D01*
X156004381Y-63726181D01*
X155963257Y-63561686D01*
X155963257Y-63356067D01*
X156004381Y-63191571D01*
X156045505Y-63109324D01*
X156086629Y-63068200D01*
X156168876Y-63027076D01*
D13*
X140485905Y-85796381D02*
X140485905Y-84796381D01*
X140724000Y-84796381D01*
X140866858Y-84844000D01*
X140962096Y-84939238D01*
X141009715Y-85034476D01*
X141057334Y-85224952D01*
X141057334Y-85367810D01*
X141009715Y-85558286D01*
X140962096Y-85653524D01*
X140866858Y-85748762D01*
X140724000Y-85796381D01*
X140485905Y-85796381D01*
X142009715Y-85796381D02*
X141438286Y-85796381D01*
X141724000Y-85796381D02*
X141724000Y-84796381D01*
X141628762Y-84939238D01*
X141533524Y-85034476D01*
X141438286Y-85082095D01*
X133881905Y-85796381D02*
X133881905Y-84796381D01*
X134120000Y-84796381D01*
X134262858Y-84844000D01*
X134358096Y-84939238D01*
X134405715Y-85034476D01*
X134453334Y-85224952D01*
X134453334Y-85367810D01*
X134405715Y-85558286D01*
X134358096Y-85653524D01*
X134262858Y-85748762D01*
X134120000Y-85796381D01*
X133881905Y-85796381D01*
X134834286Y-84891619D02*
X134881905Y-84844000D01*
X134977143Y-84796381D01*
X135215239Y-84796381D01*
X135310477Y-84844000D01*
X135358096Y-84891619D01*
X135405715Y-84986857D01*
X135405715Y-85082095D01*
X135358096Y-85224952D01*
X134786667Y-85796381D01*
X135405715Y-85796381D01*
X127785905Y-85796381D02*
X127785905Y-84796381D01*
X128024000Y-84796381D01*
X128166858Y-84844000D01*
X128262096Y-84939238D01*
X128309715Y-85034476D01*
X128357334Y-85224952D01*
X128357334Y-85367810D01*
X128309715Y-85558286D01*
X128262096Y-85653524D01*
X128166858Y-85748762D01*
X128024000Y-85796381D01*
X127785905Y-85796381D01*
X128690667Y-84796381D02*
X129309715Y-84796381D01*
X128976381Y-85177333D01*
X129119239Y-85177333D01*
X129214477Y-85224952D01*
X129262096Y-85272571D01*
X129309715Y-85367810D01*
X129309715Y-85605905D01*
X129262096Y-85701143D01*
X129214477Y-85748762D01*
X129119239Y-85796381D01*
X128833524Y-85796381D01*
X128738286Y-85748762D01*
X128690667Y-85701143D01*
X152273095Y-84542381D02*
X152273095Y-85351905D01*
X152320714Y-85447143D01*
X152368333Y-85494762D01*
X152463571Y-85542381D01*
X152654048Y-85542381D01*
X152749286Y-85494762D01*
X152796905Y-85447143D01*
X152844524Y-85351905D01*
X152844524Y-84542381D01*
X153844524Y-85542381D02*
X153273095Y-85542381D01*
X153558809Y-85542381D02*
X153558809Y-84542381D01*
X153463571Y-84685238D01*
X153368333Y-84780476D01*
X153273095Y-84828095D01*
X152273095Y-92162381D02*
X152273095Y-92971905D01*
X152320714Y-93067143D01*
X152368333Y-93114762D01*
X152463571Y-93162381D01*
X152654048Y-93162381D01*
X152749286Y-93114762D01*
X152796905Y-93067143D01*
X152844524Y-92971905D01*
X152844524Y-92162381D01*
X153273095Y-92257619D02*
X153320714Y-92210000D01*
X153415952Y-92162381D01*
X153654048Y-92162381D01*
X153749286Y-92210000D01*
X153796905Y-92257619D01*
X153844524Y-92352857D01*
X153844524Y-92448095D01*
X153796905Y-92590952D01*
X153225476Y-93162381D01*
X153844524Y-93162381D01*
%LPC*%
D16*
X121162001Y-78910571D02*
X120662001Y-78196286D01*
X120304858Y-78910571D02*
X120304858Y-77410571D01*
X120876286Y-77410571D01*
X121019144Y-77482000D01*
X121090572Y-77553429D01*
X121162001Y-77696286D01*
X121162001Y-77910571D01*
X121090572Y-78053429D01*
X121019144Y-78124857D01*
X120876286Y-78196286D01*
X120304858Y-78196286D01*
X122447715Y-77410571D02*
X122162001Y-77410571D01*
X122019144Y-77482000D01*
X121947715Y-77553429D01*
X121804858Y-77767714D01*
X121733429Y-78053429D01*
X121733429Y-78624857D01*
X121804858Y-78767714D01*
X121876286Y-78839143D01*
X122019144Y-78910571D01*
X122304858Y-78910571D01*
X122447715Y-78839143D01*
X122519144Y-78767714D01*
X122590572Y-78624857D01*
X122590572Y-78267714D01*
X122519144Y-78124857D01*
X122447715Y-78053429D01*
X122304858Y-77982000D01*
X122019144Y-77982000D01*
X121876286Y-78053429D01*
X121804858Y-78124857D01*
X121733429Y-78267714D01*
D17*
X127234000Y-104648000D03*
X124734000Y-104648000D03*
X133330000Y-104775000D03*
X130830000Y-104775000D03*
X130830000Y-97790000D03*
X133330000Y-97790000D03*
X156484000Y-85598000D03*
X158984000Y-85598000D03*
X156357000Y-93218000D03*
X158857000Y-93218000D03*
D18*
X173510000Y-102820000D03*
X173510000Y-96520000D03*
X173510000Y-90220000D03*
X189710000Y-102820000D03*
X189710000Y-96520000D03*
X189710000Y-90220000D03*
X179550000Y-67360000D03*
X179550000Y-73660000D03*
X179550000Y-79960000D03*
X163350000Y-67360000D03*
X163350000Y-73660000D03*
X163350000Y-79960000D03*
X201140000Y-67360000D03*
X201140000Y-73660000D03*
X201140000Y-79960000D03*
X184940000Y-67360000D03*
X184940000Y-73660000D03*
X184940000Y-79960000D03*
D19*
X139700000Y-74850000D03*
X139700000Y-77550000D03*
X137160000Y-74850000D03*
X137160000Y-77550000D03*
X133350000Y-74850000D03*
X133350000Y-77550000D03*
X130810000Y-74850000D03*
X130810000Y-77550000D03*
X127000000Y-74850000D03*
X127000000Y-77550000D03*
X124460000Y-74850000D03*
X124460000Y-77550000D03*
D20*
X110490000Y-86360000D03*
X110490000Y-81280000D03*
X118110000Y-86360000D03*
X118110000Y-81280000D03*
X121920000Y-104140000D03*
X121920000Y-109220000D03*
X114300000Y-104140000D03*
X114300000Y-109220000D03*
D21*
X130780000Y-100650000D03*
X130780000Y-101600000D03*
X130780000Y-102550000D03*
X133380000Y-102550000D03*
X133380000Y-100650000D03*
D22*
X130810000Y-109220000D03*
X128270000Y-109220000D03*
X125730000Y-109220000D03*
X133350000Y-109220000D03*
X135890000Y-109220000D03*
X138430000Y-109220000D03*
X151130000Y-109220000D03*
X148590000Y-109220000D03*
X153670000Y-109220000D03*
X156210000Y-109220000D03*
X146050000Y-109220000D03*
X143510000Y-109220000D03*
X148590000Y-60960000D03*
X146050000Y-60960000D03*
X151130000Y-60960000D03*
X153670000Y-60960000D03*
X156210000Y-60960000D03*
X143510000Y-60960000D03*
X140970000Y-60960000D03*
X138430000Y-60960000D03*
X126746000Y-60960000D03*
X124206000Y-60960000D03*
X121666000Y-60960000D03*
X119126000Y-60960000D03*
X116586000Y-60960000D03*
X129286000Y-60960000D03*
X131826000Y-60960000D03*
X134366000Y-60960000D03*
D23*
X137705000Y-85470000D03*
X137705000Y-82170000D03*
X139155000Y-82170000D03*
X139155000Y-85470000D03*
X131355000Y-85470000D03*
X131355000Y-82170000D03*
X132805000Y-82170000D03*
X132805000Y-85470000D03*
X125005000Y-85470000D03*
X125005000Y-82170000D03*
X126455000Y-82170000D03*
X126455000Y-85470000D03*
D24*
X156886000Y-83550000D03*
X156886000Y-83050000D03*
X156886000Y-82550000D03*
X156886000Y-82050000D03*
X156886000Y-81550000D03*
X152486000Y-81550000D03*
X152486000Y-82050000D03*
X152486000Y-82550000D03*
X152486000Y-83050000D03*
X152486000Y-83550000D03*
X156886000Y-91170000D03*
X156886000Y-90670000D03*
X156886000Y-90170000D03*
X156886000Y-89670000D03*
X156886000Y-89170000D03*
X152486000Y-89170000D03*
X152486000Y-89670000D03*
X152486000Y-90170000D03*
X152486000Y-90670000D03*
X152486000Y-91170000D03*
M02*
